<?xml version="1.0" encoding="utf-8" standalone="no"?>
<!DOCTYPE svg PUBLIC "-//W3C//DTD SVG 1.1//EN"
  "http://www.w3.org/Graphics/SVG/1.1/DTD/svg11.dtd">
<svg xmlns:xlink="http://www.w3.org/1999/xlink" width="554.4pt" height="171.99625pt" viewBox="0 0 554.4 171.99625" xmlns="http://www.w3.org/2000/svg" version="1.1">
 <metadata>
  <rdf:RDF xmlns:dc="http://purl.org/dc/elements/1.1/" xmlns:cc="http://creativecommons.org/ns#" xmlns:rdf="http://www.w3.org/1999/02/22-rdf-syntax-ns#">
   <cc:Work>
    <dc:type rdf:resource="http://purl.org/dc/dcmitype/StillImage"/>
    <dc:date>2023-12-15T20:09:57.290970</dc:date>
    <dc:format>image/svg+xml</dc:format>
    <dc:creator>
     <cc:Agent>
      <dc:title>Matplotlib v3.8.2, https://matplotlib.org/</dc:title>
     </cc:Agent>
    </dc:creator>
   </cc:Work>
  </rdf:RDF>
 </metadata>
 <defs>
  <style type="text/css">*{stroke-linejoin: round; stroke-linecap: butt}</style>
 </defs>
 <g id="figure_1">
  <g id="patch_1">
   <path d="M 0 171.99625 
L 554.4 171.99625 
L 554.4 0 
L 0 0 
z
" style="fill: #ffffff"/>
  </g>
  <g id="axes_1">
   <g id="patch_2">
    <path d="M 65.63 134.44 
L 194.34 134.44 
L 194.34 7.2 
L 65.63 7.2 
z
" style="fill: #ffffff"/>
   </g>
   <g id="PathCollection_1">
    <defs>
     <path id="mbbd8bb38e4" d="M 0 3 
C 0.795609 3 1.55874 2.683901 2.12132 2.12132 
C 2.683901 1.55874 3 0.795609 3 0 
C 3 -0.795609 2.683901 -1.55874 2.12132 -2.12132 
C 1.55874 -2.683901 0.795609 -3 0 -3 
C -0.795609 -3 -1.55874 -2.683901 -2.12132 -2.12132 
C -2.683901 -1.55874 -3 -0.795609 -3 0 
C -3 0.795609 -2.683901 1.55874 -2.12132 2.12132 
C -1.55874 2.683901 -0.795609 3 0 3 
z
" style="stroke: #1f77b4; stroke-opacity: 0.5"/>
    </defs>
    <g clip-path="url(#p6698a84bf7)">
     <use xlink:href="#mbbd8bb38e4" x="120.014013" y="17.974294" style="fill: #1f77b4; fill-opacity: 0.5; stroke: #1f77b4; stroke-opacity: 0.5"/>
     <use xlink:href="#mbbd8bb38e4" x="92.376723" y="67.880919" style="fill: #1f77b4; fill-opacity: 0.5; stroke: #1f77b4; stroke-opacity: 0.5"/>
     <use xlink:href="#mbbd8bb38e4" x="95.83138" y="32.946279" style="fill: #1f77b4; fill-opacity: 0.5; stroke: #1f77b4; stroke-opacity: 0.5"/>
     <use xlink:href="#mbbd8bb38e4" x="99.286038" y="12.983636" style="fill: #1f77b4; fill-opacity: 0.5; stroke: #1f77b4; stroke-opacity: 0.5"/>
     <use xlink:href="#mbbd8bb38e4" x="85.467409" y="62.890261" style="fill: #1f77b4; fill-opacity: 0.5; stroke: #1f77b4; stroke-opacity: 0.5"/>
     <use xlink:href="#mbbd8bb38e4" x="116.55934" y="27.955621" style="fill: #1f77b4; fill-opacity: 0.5; stroke: #1f77b4; stroke-opacity: 0.5"/>
     <use xlink:href="#mbbd8bb38e4" x="95.83138" y="27.955621" style="fill: #1f77b4; fill-opacity: 0.5; stroke: #1f77b4; stroke-opacity: 0.5"/>
     <use xlink:href="#mbbd8bb38e4" x="95.83138" y="27.955621" style="fill: #1f77b4; fill-opacity: 0.5; stroke: #1f77b4; stroke-opacity: 0.5"/>
    </g>
   </g>
   <g id="PathCollection_2">
    <defs>
     <path id="m8eb6b1a886" d="M 0 3 
C 0.795609 3 1.55874 2.683901 2.12132 2.12132 
C 2.683901 1.55874 3 0.795609 3 0 
C 3 -0.795609 2.683901 -1.55874 2.12132 -2.12132 
C 1.55874 -2.683901 0.795609 -3 0 -3 
C -0.795609 -3 -1.55874 -2.683901 -2.12132 -2.12132 
C -2.683901 -1.55874 -3 -0.795609 -3 0 
C -3 0.795609 -2.683901 1.55874 -2.12132 2.12132 
C -1.55874 2.683901 -0.795609 3 0 3 
z
" style="stroke: #2ca02c; stroke-opacity: 0.5"/>
    </defs>
    <g clip-path="url(#p6698a84bf7)">
     <use xlink:href="#m8eb6b1a886" x="109.650025" y="92.834231" style="fill: #2ca02c; fill-opacity: 0.5; stroke: #2ca02c; stroke-opacity: 0.5"/>
     <use xlink:href="#m8eb6b1a886" x="120.014013" y="82.852904" style="fill: #2ca02c; fill-opacity: 0.5; stroke: #2ca02c; stroke-opacity: 0.5"/>
     <use xlink:href="#m8eb6b1a886" x="113.104682" y="67.880919" style="fill: #2ca02c; fill-opacity: 0.5; stroke: #2ca02c; stroke-opacity: 0.5"/>
     <use xlink:href="#m8eb6b1a886" x="116.55934" y="67.880919" style="fill: #2ca02c; fill-opacity: 0.5; stroke: #2ca02c; stroke-opacity: 0.5"/>
     <use xlink:href="#m8eb6b1a886" x="140.741972" y="72.871576" style="fill: #2ca02c; fill-opacity: 0.5; stroke: #2ca02c; stroke-opacity: 0.5"/>
     <use xlink:href="#m8eb6b1a886" x="92.376723" y="117.787543" style="fill: #2ca02c; fill-opacity: 0.5; stroke: #2ca02c; stroke-opacity: 0.5"/>
     <use xlink:href="#m8eb6b1a886" x="161.469931" y="57.899591" style="fill: #2ca02c; fill-opacity: 0.5; stroke: #2ca02c; stroke-opacity: 0.5"/>
     <use xlink:href="#m8eb6b1a886" x="116.55934" y="77.862246" style="fill: #2ca02c; fill-opacity: 0.5; stroke: #2ca02c; stroke-opacity: 0.5"/>
     <use xlink:href="#m8eb6b1a886" x="113.104682" y="82.852904" style="fill: #2ca02c; fill-opacity: 0.5; stroke: #2ca02c; stroke-opacity: 0.5"/>
     <use xlink:href="#m8eb6b1a886" x="109.650025" y="102.815558" style="fill: #2ca02c; fill-opacity: 0.5; stroke: #2ca02c; stroke-opacity: 0.5"/>
    </g>
   </g>
   <g id="PathCollection_3">
    <defs>
     <path id="ma03c718430" d="M 0 3 
C 0.795609 3 1.55874 2.683901 2.12132 2.12132 
C 2.683901 1.55874 3 0.795609 3 0 
C 3 -0.795609 2.683901 -1.55874 2.12132 -2.12132 
C 1.55874 -2.683901 0.795609 -3 0 -3 
C -0.795609 -3 -1.55874 -2.683901 -2.12132 -2.12132 
C -2.683901 -1.55874 -3 -0.795609 -3 0 
C -3 0.795609 -2.683901 1.55874 -2.12132 2.12132 
C -1.55874 2.683901 -0.795609 3 0 3 
z
" style="stroke: #8c564b; stroke-opacity: 0.5"/>
    </defs>
    <g clip-path="url(#p6698a84bf7)">
     <use xlink:href="#ma03c718430" x="137.287315" y="47.918264" style="fill: #8c564b; fill-opacity: 0.5; stroke: #8c564b; stroke-opacity: 0.5"/>
     <use xlink:href="#ma03c718430" x="151.105944" y="67.880919" style="fill: #8c564b; fill-opacity: 0.5; stroke: #8c564b; stroke-opacity: 0.5"/>
     <use xlink:href="#ma03c718430" x="133.832642" y="47.918264" style="fill: #8c564b; fill-opacity: 0.5; stroke: #8c564b; stroke-opacity: 0.5"/>
     <use xlink:href="#ma03c718430" x="137.287315" y="72.871576" style="fill: #8c564b; fill-opacity: 0.5; stroke: #8c564b; stroke-opacity: 0.5"/>
     <use xlink:href="#ma03c718430" x="185.652548" y="77.862246" style="fill: #8c564b; fill-opacity: 0.5; stroke: #8c564b; stroke-opacity: 0.5"/>
     <use xlink:href="#ma03c718430" x="140.741972" y="62.890261" style="fill: #8c564b; fill-opacity: 0.5; stroke: #8c564b; stroke-opacity: 0.5"/>
     <use xlink:href="#ma03c718430" x="116.55934" y="92.834231" style="fill: #8c564b; fill-opacity: 0.5; stroke: #8c564b; stroke-opacity: 0.5"/>
     <use xlink:href="#ma03c718430" x="151.105944" y="52.908934" style="fill: #8c564b; fill-opacity: 0.5; stroke: #8c564b; stroke-opacity: 0.5"/>
     <use xlink:href="#ma03c718430" x="168.379246" y="67.880919" style="fill: #8c564b; fill-opacity: 0.5; stroke: #8c564b; stroke-opacity: 0.5"/>
     <use xlink:href="#ma03c718430" x="168.379246" y="37.936949" style="fill: #8c564b; fill-opacity: 0.5; stroke: #8c564b; stroke-opacity: 0.5"/>
     <use xlink:href="#ma03c718430" x="137.287315" y="52.908934" style="fill: #8c564b; fill-opacity: 0.5; stroke: #8c564b; stroke-opacity: 0.5"/>
     <use xlink:href="#ma03c718430" x="154.560617" y="67.880919" style="fill: #8c564b; fill-opacity: 0.5; stroke: #8c564b; stroke-opacity: 0.5"/>
    </g>
   </g>
   <g id="patch_3">
    <path d="M 115.744381 63.350204 
C 114.249639 63.164717 112.719782 64.603524 111.491745 67.349744 
C 110.263707 70.095963 109.437752 73.925379 109.195786 77.994607 
C 108.953821 82.063835 109.3156 86.040641 110.201447 89.049179 
C 111.087294 92.057717 112.424883 93.852353 113.919625 94.03784 
C 115.414367 94.223327 116.944223 92.78452 118.172261 90.038301 
C 119.400299 87.292081 120.226254 83.462665 120.468219 79.393437 
C 120.710185 75.324209 120.348405 71.347403 119.462559 68.338865 
C 118.576712 65.330328 117.239123 63.535691 115.744381 63.350204 
L 115.744381 63.350204 
z
" clip-path="url(#p6698a84bf7)" style="fill: none; stroke: #238023; stroke-width: 2; stroke-linejoin: miter"/>
   </g>
   <g id="PathCollection_4">
    <defs>
     <path id="m85d7acde43" d="M 0 1.581139 
C 0.419323 1.581139 0.821528 1.41454 1.118034 1.118034 
C 1.41454 0.821528 1.581139 0.419323 1.581139 0 
C 1.581139 -0.419323 1.41454 -0.821528 1.118034 -1.118034 
C 0.821528 -1.41454 0.419323 -1.581139 0 -1.581139 
C -0.419323 -1.581139 -0.821528 -1.41454 -1.118034 -1.118034 
C -1.41454 -0.821528 -1.581139 -0.419323 -1.581139 0 
C -1.581139 0.419323 -1.41454 0.821528 -1.118034 1.118034 
C -0.821528 1.41454 -0.419323 1.581139 0 1.581139 
z
" style="stroke: #000000"/>
    </defs>
    <g clip-path="url(#p6698a84bf7)">
     <use xlink:href="#m85d7acde43" x="114.832003" y="78.694022" style="stroke: #000000"/>
    </g>
   </g>
   <g id="patch_4">
    <path d="M 138.707258 43.288351 
C 136.748461 43.995685 135.136019 46.213678 134.225053 49.453841 
C 133.314086 52.694005 133.178971 56.691794 133.849466 60.566744 
C 134.519961 64.441693 135.941323 67.877429 137.800513 70.117271 
C 139.659703 72.357114 141.804926 73.218189 143.763722 72.510855 
C 145.722519 71.803521 147.334961 69.585529 148.245928 66.345365 
C 149.156894 63.105202 149.292009 59.107412 148.621514 55.232463 
C 147.951019 51.357513 146.529657 47.921777 144.670467 45.681935 
C 142.811278 43.442093 140.666054 42.581018 138.707258 43.288351 
L 138.707258 43.288351 
z
" clip-path="url(#p6698a84bf7)" style="fill: none; stroke: #70453c; stroke-width: 2; stroke-linejoin: miter"/>
   </g>
   <g id="PathCollection_5">
    <g clip-path="url(#p6698a84bf7)">
     <use xlink:href="#m85d7acde43" x="141.23549" y="57.899603" style="stroke: #000000"/>
    </g>
   </g>
   <g id="patch_5">
    <path d="M 89.798734 26.72532 
C 89.992929 29.449298 91.664177 31.841143 94.444406 33.374079 
C 97.224635 34.907015 100.886851 35.455885 104.624495 34.899806 
C 108.362138 34.343727 111.870046 32.728101 114.375643 30.408751 
C 116.881239 28.0894 118.179954 25.25569 117.98576 22.531712 
C 117.791566 19.807734 116.120317 17.415889 113.340088 15.882953 
C 110.559859 14.350017 106.897643 13.801147 103.16 14.357226 
C 99.422356 14.913305 95.914448 16.528931 93.408851 18.848282 
C 90.903255 21.167632 89.60454 24.001342 89.798734 26.72532 
L 89.798734 26.72532 
z
" clip-path="url(#p6698a84bf7)" style="fill: none; stroke: #195f90; stroke-width: 2; stroke-linejoin: miter"/>
   </g>
   <g id="PathCollection_6">
    <g clip-path="url(#p6698a84bf7)">
     <use xlink:href="#m85d7acde43" x="103.892247" y="24.628516" style="stroke: #000000"/>
    </g>
   </g>
   <g id="patch_6">
    <path d="M 71.480455 64.325175 
C 71.33821 69.207788 73.039531 74.00281 76.20972 77.654194 
C 79.37991 81.305579 83.760136 83.515206 88.385705 83.796431 
C 93.011275 84.077656 97.50453 82.407519 100.875884 79.153847 
C 104.247237 75.900175 106.221433 71.328616 106.363678 66.446004 
C 106.505922 61.563392 104.804602 56.768369 101.634412 53.116985 
C 98.464223 49.465601 94.083996 47.255973 89.458427 46.974748 
C 84.832857 46.693523 80.339602 48.363661 76.968249 51.617333 
C 73.596895 54.871005 71.622699 59.442563 71.480455 64.325175 
L 71.480455 64.325175 
z
" clip-path="url(#p6698a84bf7)" style="fill: none; stroke: #195f90; stroke-width: 2; stroke-linejoin: miter"/>
   </g>
   <g id="PathCollection_7">
    <g clip-path="url(#p6698a84bf7)">
     <use xlink:href="#m85d7acde43" x="88.922066" y="65.38559" style="stroke: #000000"/>
    </g>
   </g>
   <g id="patch_7">
    <path d="M 150.572051 67.209397 
C 150.175077 71.13735 151.791922 75.326273 155.066494 78.853606 
C 158.341067 82.380938 163.006012 84.958688 168.033931 86.019137 
C 173.061849 87.079585 178.042234 86.53615 181.878212 84.508518 
C 185.71419 82.480886 188.092572 79.134604 188.489545 75.206651 
C 188.886519 71.278698 187.269674 67.089774 183.995102 63.562442 
C 180.720529 60.035109 176.055584 57.457359 171.027665 56.396911 
C 165.999747 55.336462 161.019362 55.879897 157.183384 57.907529 
C 153.347406 59.935161 150.969024 63.281443 150.572051 67.209397 
L 150.572051 67.209397 
z
" clip-path="url(#p6698a84bf7)" style="fill: none; stroke: #70453c; stroke-width: 2; stroke-linejoin: miter"/>
   </g>
   <g id="PathCollection_8">
    <g clip-path="url(#p6698a84bf7)">
     <use xlink:href="#m85d7acde43" x="169.530798" y="71.208024" style="stroke: #000000"/>
    </g>
   </g>
   <g id="patch_8">
    <path d="M 129.819627 70.998364 
C 130.429759 75.827304 133.257845 79.867714 137.681031 82.229741 
C 142.104217 84.591768 147.76137 85.082564 153.406567 83.594036 
C 159.051764 82.105507 164.2241 78.759187 167.784429 74.292062 
C 171.344757 69.824938 173.002393 64.601731 172.392261 59.772791 
C 171.782128 54.943852 168.954043 50.903442 164.530857 48.541414 
C 160.107671 46.179387 154.450518 45.688592 148.80532 47.17712 
C 143.160123 48.665648 137.987787 52.011969 134.427458 56.479093 
C 130.86713 60.946217 129.209494 66.169425 129.819627 70.998364 
L 129.819627 70.998364 
z
" clip-path="url(#p6698a84bf7)" style="fill: none; stroke: #238023; stroke-width: 2; stroke-linejoin: miter"/>
   </g>
   <g id="PathCollection_9">
    <g clip-path="url(#p6698a84bf7)">
     <use xlink:href="#m85d7acde43" x="151.105944" y="65.385578" style="stroke: #000000"/>
    </g>
   </g>
   <g id="patch_9">
    <path d="M 80.500647 115.415441 
C 81.082149 120.283196 83.801263 124.413403 88.059136 126.896433 
C 92.317009 129.379462 97.766004 130.012585 103.206043 128.656364 
C 108.646082 127.300142 113.63301 124.065306 117.068514 119.664291 
C 120.504018 115.263275 122.107604 110.055403 121.526102 105.187648 
C 120.944599 100.319893 118.225485 96.189686 113.967612 93.706657 
C 109.70974 91.223627 104.260745 90.590504 98.820706 91.946726 
C 93.380667 93.302947 88.393739 96.537783 84.958235 100.938799 
C 81.522731 105.339814 79.919144 110.547686 80.500647 115.415441 
L 80.500647 115.415441 
z
" clip-path="url(#p6698a84bf7)" style="fill: none; stroke: #238023; stroke-width: 2; stroke-linejoin: miter"/>
   </g>
   <g id="PathCollection_10">
    <g clip-path="url(#p6698a84bf7)">
     <use xlink:href="#m85d7acde43" x="101.013374" y="110.301545" style="stroke: #000000"/>
    </g>
   </g>
   <g id="matplotlib.axis_1">
    <g id="xtick_1">
     <g id="line2d_1">
      <defs>
       <path id="m4afd96b4c6" d="M 0 0 
L 0 3.5 
" style="stroke: #000000; stroke-width: 0.8"/>
      </defs>
      <g>
       <use xlink:href="#m4afd96b4c6" x="92.376723" y="134.44" style="stroke: #000000; stroke-width: 0.8"/>
      </g>
     </g>
     <g id="text_1">
      <!-- 5.0 -->
      <g transform="translate(84.425161 149.038438) scale(0.1 -0.1)">
       <defs>
        <path id="DejaVuSans-35" d="M 691 4666 
L 3169 4666 
L 3169 4134 
L 1269 4134 
L 1269 2991 
Q 1406 3038 1543 3061 
Q 1681 3084 1819 3084 
Q 2600 3084 3056 2656 
Q 3513 2228 3513 1497 
Q 3513 744 3044 326 
Q 2575 -91 1722 -91 
Q 1428 -91 1123 -41 
Q 819 9 494 109 
L 494 744 
Q 775 591 1075 516 
Q 1375 441 1709 441 
Q 2250 441 2565 725 
Q 2881 1009 2881 1497 
Q 2881 1984 2565 2268 
Q 2250 2553 1709 2553 
Q 1456 2553 1204 2497 
Q 953 2441 691 2322 
L 691 4666 
z
" transform="scale(0.015625)"/>
        <path id="DejaVuSans-2e" d="M 684 794 
L 1344 794 
L 1344 0 
L 684 0 
L 684 794 
z
" transform="scale(0.015625)"/>
        <path id="DejaVuSans-30" d="M 2034 4250 
Q 1547 4250 1301 3770 
Q 1056 3291 1056 2328 
Q 1056 1369 1301 889 
Q 1547 409 2034 409 
Q 2525 409 2770 889 
Q 3016 1369 3016 2328 
Q 3016 3291 2770 3770 
Q 2525 4250 2034 4250 
z
M 2034 4750 
Q 2819 4750 3233 4129 
Q 3647 3509 3647 2328 
Q 3647 1150 3233 529 
Q 2819 -91 2034 -91 
Q 1250 -91 836 529 
Q 422 1150 422 2328 
Q 422 3509 836 4129 
Q 1250 4750 2034 4750 
z
" transform="scale(0.015625)"/>
       </defs>
       <use xlink:href="#DejaVuSans-35"/>
       <use xlink:href="#DejaVuSans-2e" x="63.623047"/>
       <use xlink:href="#DejaVuSans-30" x="95.410156"/>
      </g>
     </g>
    </g>
    <g id="xtick_2">
     <g id="line2d_2">
      <g>
       <use xlink:href="#m4afd96b4c6" x="126.923327" y="134.44" style="stroke: #000000; stroke-width: 0.8"/>
      </g>
     </g>
     <g id="text_2">
      <!-- 6.0 -->
      <g transform="translate(118.971765 149.038438) scale(0.1 -0.1)">
       <defs>
        <path id="DejaVuSans-36" d="M 2113 2584 
Q 1688 2584 1439 2293 
Q 1191 2003 1191 1497 
Q 1191 994 1439 701 
Q 1688 409 2113 409 
Q 2538 409 2786 701 
Q 3034 994 3034 1497 
Q 3034 2003 2786 2293 
Q 2538 2584 2113 2584 
z
M 3366 4563 
L 3366 3988 
Q 3128 4100 2886 4159 
Q 2644 4219 2406 4219 
Q 1781 4219 1451 3797 
Q 1122 3375 1075 2522 
Q 1259 2794 1537 2939 
Q 1816 3084 2150 3084 
Q 2853 3084 3261 2657 
Q 3669 2231 3669 1497 
Q 3669 778 3244 343 
Q 2819 -91 2113 -91 
Q 1303 -91 875 529 
Q 447 1150 447 2328 
Q 447 3434 972 4092 
Q 1497 4750 2381 4750 
Q 2619 4750 2861 4703 
Q 3103 4656 3366 4563 
z
" transform="scale(0.015625)"/>
       </defs>
       <use xlink:href="#DejaVuSans-36"/>
       <use xlink:href="#DejaVuSans-2e" x="63.623047"/>
       <use xlink:href="#DejaVuSans-30" x="95.410156"/>
      </g>
     </g>
    </g>
    <g id="xtick_3">
     <g id="line2d_3">
      <g>
       <use xlink:href="#m4afd96b4c6" x="161.469931" y="134.44" style="stroke: #000000; stroke-width: 0.8"/>
      </g>
     </g>
     <g id="text_3">
      <!-- 7.0 -->
      <g transform="translate(153.518369 149.038438) scale(0.1 -0.1)">
       <defs>
        <path id="DejaVuSans-37" d="M 525 4666 
L 3525 4666 
L 3525 4397 
L 1831 0 
L 1172 0 
L 2766 4134 
L 525 4134 
L 525 4666 
z
" transform="scale(0.015625)"/>
       </defs>
       <use xlink:href="#DejaVuSans-37"/>
       <use xlink:href="#DejaVuSans-2e" x="63.623047"/>
       <use xlink:href="#DejaVuSans-30" x="95.410156"/>
      </g>
     </g>
    </g>
    <g id="text_4">
     <!-- Feature 1 -->
     <g transform="translate(106.324844 162.716563) scale(0.1 -0.1)">
      <defs>
       <path id="DejaVuSans-46" d="M 628 4666 
L 3309 4666 
L 3309 4134 
L 1259 4134 
L 1259 2759 
L 3109 2759 
L 3109 2228 
L 1259 2228 
L 1259 0 
L 628 0 
L 628 4666 
z
" transform="scale(0.015625)"/>
       <path id="DejaVuSans-65" d="M 3597 1894 
L 3597 1613 
L 953 1613 
Q 991 1019 1311 708 
Q 1631 397 2203 397 
Q 2534 397 2845 478 
Q 3156 559 3463 722 
L 3463 178 
Q 3153 47 2828 -22 
Q 2503 -91 2169 -91 
Q 1331 -91 842 396 
Q 353 884 353 1716 
Q 353 2575 817 3079 
Q 1281 3584 2069 3584 
Q 2775 3584 3186 3129 
Q 3597 2675 3597 1894 
z
M 3022 2063 
Q 3016 2534 2758 2815 
Q 2500 3097 2075 3097 
Q 1594 3097 1305 2825 
Q 1016 2553 972 2059 
L 3022 2063 
z
" transform="scale(0.015625)"/>
       <path id="DejaVuSans-61" d="M 2194 1759 
Q 1497 1759 1228 1600 
Q 959 1441 959 1056 
Q 959 750 1161 570 
Q 1363 391 1709 391 
Q 2188 391 2477 730 
Q 2766 1069 2766 1631 
L 2766 1759 
L 2194 1759 
z
M 3341 1997 
L 3341 0 
L 2766 0 
L 2766 531 
Q 2569 213 2275 61 
Q 1981 -91 1556 -91 
Q 1019 -91 701 211 
Q 384 513 384 1019 
Q 384 1609 779 1909 
Q 1175 2209 1959 2209 
L 2766 2209 
L 2766 2266 
Q 2766 2663 2505 2880 
Q 2244 3097 1772 3097 
Q 1472 3097 1187 3025 
Q 903 2953 641 2809 
L 641 3341 
Q 956 3463 1253 3523 
Q 1550 3584 1831 3584 
Q 2591 3584 2966 3190 
Q 3341 2797 3341 1997 
z
" transform="scale(0.015625)"/>
       <path id="DejaVuSans-74" d="M 1172 4494 
L 1172 3500 
L 2356 3500 
L 2356 3053 
L 1172 3053 
L 1172 1153 
Q 1172 725 1289 603 
Q 1406 481 1766 481 
L 2356 481 
L 2356 0 
L 1766 0 
Q 1100 0 847 248 
Q 594 497 594 1153 
L 594 3053 
L 172 3053 
L 172 3500 
L 594 3500 
L 594 4494 
L 1172 4494 
z
" transform="scale(0.015625)"/>
       <path id="DejaVuSans-75" d="M 544 1381 
L 544 3500 
L 1119 3500 
L 1119 1403 
Q 1119 906 1312 657 
Q 1506 409 1894 409 
Q 2359 409 2629 706 
Q 2900 1003 2900 1516 
L 2900 3500 
L 3475 3500 
L 3475 0 
L 2900 0 
L 2900 538 
Q 2691 219 2414 64 
Q 2138 -91 1772 -91 
Q 1169 -91 856 284 
Q 544 659 544 1381 
z
M 1991 3584 
L 1991 3584 
z
" transform="scale(0.015625)"/>
       <path id="DejaVuSans-72" d="M 2631 2963 
Q 2534 3019 2420 3045 
Q 2306 3072 2169 3072 
Q 1681 3072 1420 2755 
Q 1159 2438 1159 1844 
L 1159 0 
L 581 0 
L 581 3500 
L 1159 3500 
L 1159 2956 
Q 1341 3275 1631 3429 
Q 1922 3584 2338 3584 
Q 2397 3584 2469 3576 
Q 2541 3569 2628 3553 
L 2631 2963 
z
" transform="scale(0.015625)"/>
       <path id="DejaVuSans-20" transform="scale(0.015625)"/>
       <path id="DejaVuSans-31" d="M 794 531 
L 1825 531 
L 1825 4091 
L 703 3866 
L 703 4441 
L 1819 4666 
L 2450 4666 
L 2450 531 
L 3481 531 
L 3481 0 
L 794 0 
L 794 531 
z
" transform="scale(0.015625)"/>
      </defs>
      <use xlink:href="#DejaVuSans-46"/>
      <use xlink:href="#DejaVuSans-65" x="52.019531"/>
      <use xlink:href="#DejaVuSans-61" x="113.542969"/>
      <use xlink:href="#DejaVuSans-74" x="174.822266"/>
      <use xlink:href="#DejaVuSans-75" x="214.03125"/>
      <use xlink:href="#DejaVuSans-72" x="277.410156"/>
      <use xlink:href="#DejaVuSans-65" x="316.273438"/>
      <use xlink:href="#DejaVuSans-20" x="377.796875"/>
      <use xlink:href="#DejaVuSans-31" x="409.583984"/>
     </g>
    </g>
   </g>
   <g id="matplotlib.axis_2">
    <g id="ytick_1">
     <g id="line2d_4">
      <defs>
       <path id="m41e88fd668" d="M 0 0 
L -3.5 0 
" style="stroke: #000000; stroke-width: 0.8"/>
      </defs>
      <g>
       <use xlink:href="#m41e88fd668" x="65.63" y="117.787543" style="stroke: #000000; stroke-width: 0.8"/>
      </g>
     </g>
     <g id="text_5">
      <!-- 2.0 -->
      <g transform="translate(42.726875 121.586762) scale(0.1 -0.1)">
       <defs>
        <path id="DejaVuSans-32" d="M 1228 531 
L 3431 531 
L 3431 0 
L 469 0 
L 469 531 
Q 828 903 1448 1529 
Q 2069 2156 2228 2338 
Q 2531 2678 2651 2914 
Q 2772 3150 2772 3378 
Q 2772 3750 2511 3984 
Q 2250 4219 1831 4219 
Q 1534 4219 1204 4116 
Q 875 4013 500 3803 
L 500 4441 
Q 881 4594 1212 4672 
Q 1544 4750 1819 4750 
Q 2544 4750 2975 4387 
Q 3406 4025 3406 3419 
Q 3406 3131 3298 2873 
Q 3191 2616 2906 2266 
Q 2828 2175 2409 1742 
Q 1991 1309 1228 531 
z
" transform="scale(0.015625)"/>
       </defs>
       <use xlink:href="#DejaVuSans-32"/>
       <use xlink:href="#DejaVuSans-2e" x="63.623047"/>
       <use xlink:href="#DejaVuSans-30" x="95.410156"/>
      </g>
     </g>
    </g>
    <g id="ytick_2">
     <g id="line2d_5">
      <g>
       <use xlink:href="#m41e88fd668" x="65.63" y="92.834231" style="stroke: #000000; stroke-width: 0.8"/>
      </g>
     </g>
     <g id="text_6">
      <!-- 2.5 -->
      <g transform="translate(42.726875 96.63345) scale(0.1 -0.1)">
       <use xlink:href="#DejaVuSans-32"/>
       <use xlink:href="#DejaVuSans-2e" x="63.623047"/>
       <use xlink:href="#DejaVuSans-35" x="95.410156"/>
      </g>
     </g>
    </g>
    <g id="ytick_3">
     <g id="line2d_6">
      <g>
       <use xlink:href="#m41e88fd668" x="65.63" y="67.880919" style="stroke: #000000; stroke-width: 0.8"/>
      </g>
     </g>
     <g id="text_7">
      <!-- 3.0 -->
      <g transform="translate(42.726875 71.680137) scale(0.1 -0.1)">
       <defs>
        <path id="DejaVuSans-33" d="M 2597 2516 
Q 3050 2419 3304 2112 
Q 3559 1806 3559 1356 
Q 3559 666 3084 287 
Q 2609 -91 1734 -91 
Q 1441 -91 1130 -33 
Q 819 25 488 141 
L 488 750 
Q 750 597 1062 519 
Q 1375 441 1716 441 
Q 2309 441 2620 675 
Q 2931 909 2931 1356 
Q 2931 1769 2642 2001 
Q 2353 2234 1838 2234 
L 1294 2234 
L 1294 2753 
L 1863 2753 
Q 2328 2753 2575 2939 
Q 2822 3125 2822 3475 
Q 2822 3834 2567 4026 
Q 2313 4219 1838 4219 
Q 1578 4219 1281 4162 
Q 984 4106 628 3988 
L 628 4550 
Q 988 4650 1302 4700 
Q 1616 4750 1894 4750 
Q 2613 4750 3031 4423 
Q 3450 4097 3450 3541 
Q 3450 3153 3228 2886 
Q 3006 2619 2597 2516 
z
" transform="scale(0.015625)"/>
       </defs>
       <use xlink:href="#DejaVuSans-33"/>
       <use xlink:href="#DejaVuSans-2e" x="63.623047"/>
       <use xlink:href="#DejaVuSans-30" x="95.410156"/>
      </g>
     </g>
    </g>
    <g id="ytick_4">
     <g id="line2d_7">
      <g>
       <use xlink:href="#m41e88fd668" x="65.63" y="42.927606" style="stroke: #000000; stroke-width: 0.8"/>
      </g>
     </g>
     <g id="text_8">
      <!-- 3.5 -->
      <g transform="translate(42.726875 46.726825) scale(0.1 -0.1)">
       <use xlink:href="#DejaVuSans-33"/>
       <use xlink:href="#DejaVuSans-2e" x="63.623047"/>
       <use xlink:href="#DejaVuSans-35" x="95.410156"/>
      </g>
     </g>
    </g>
    <g id="ytick_5">
     <g id="line2d_8">
      <g>
       <use xlink:href="#m41e88fd668" x="65.63" y="17.974294" style="stroke: #000000; stroke-width: 0.8"/>
      </g>
     </g>
     <g id="text_9">
      <!-- 4.0 -->
      <g transform="translate(42.726875 21.773513) scale(0.1 -0.1)">
       <defs>
        <path id="DejaVuSans-34" d="M 2419 4116 
L 825 1625 
L 2419 1625 
L 2419 4116 
z
M 2253 4666 
L 3047 4666 
L 3047 1625 
L 3713 1625 
L 3713 1100 
L 3047 1100 
L 3047 0 
L 2419 0 
L 2419 1100 
L 313 1100 
L 313 1709 
L 2253 4666 
z
" transform="scale(0.015625)"/>
       </defs>
       <use xlink:href="#DejaVuSans-34"/>
       <use xlink:href="#DejaVuSans-2e" x="63.623047"/>
       <use xlink:href="#DejaVuSans-30" x="95.410156"/>
      </g>
     </g>
    </g>
    <g id="text_10">
     <!-- Feature 2 -->
     <g transform="translate(36.647187 94.480156) rotate(-90) scale(0.1 -0.1)">
      <use xlink:href="#DejaVuSans-46"/>
      <use xlink:href="#DejaVuSans-65" x="52.019531"/>
      <use xlink:href="#DejaVuSans-61" x="113.542969"/>
      <use xlink:href="#DejaVuSans-74" x="174.822266"/>
      <use xlink:href="#DejaVuSans-75" x="214.03125"/>
      <use xlink:href="#DejaVuSans-72" x="277.410156"/>
      <use xlink:href="#DejaVuSans-65" x="316.273438"/>
      <use xlink:href="#DejaVuSans-20" x="377.796875"/>
      <use xlink:href="#DejaVuSans-32" x="409.583984"/>
     </g>
    </g>
   </g>
   <g id="patch_10">
    <path d="M 65.63 134.44 
L 65.63 7.2 
" style="fill: none; stroke: #000000; stroke-width: 0.8; stroke-linejoin: miter; stroke-linecap: square"/>
   </g>
   <g id="patch_11">
    <path d="M 194.34 134.44 
L 194.34 7.2 
" style="fill: none; stroke: #000000; stroke-width: 0.8; stroke-linejoin: miter; stroke-linecap: square"/>
   </g>
   <g id="patch_12">
    <path d="M 65.63 134.44 
L 194.34 134.44 
" style="fill: none; stroke: #000000; stroke-width: 0.8; stroke-linejoin: miter; stroke-linecap: square"/>
   </g>
   <g id="patch_13">
    <path d="M 65.63 7.2 
L 194.34 7.2 
" style="fill: none; stroke: #000000; stroke-width: 0.8; stroke-linejoin: miter; stroke-linecap: square"/>
   </g>
  </g>
  <g id="axes_2">
   <g id="patch_14">
    <path d="M 242.06 134.44 
L 370.77 134.44 
L 370.77 7.2 
L 242.06 7.2 
z
" style="fill: #ffffff"/>
   </g>
   <g id="PathCollection_11">
    <g clip-path="url(#pea6fb62e91)">
     <use xlink:href="#mbbd8bb38e4" x="297.020044" y="115.097083" style="fill: #1f77b4; fill-opacity: 0.5; stroke: #1f77b4; stroke-opacity: 0.5"/>
     <use xlink:href="#mbbd8bb38e4" x="269.059485" y="108.17099" style="fill: #1f77b4; fill-opacity: 0.5; stroke: #1f77b4; stroke-opacity: 0.5"/>
     <use xlink:href="#mbbd8bb38e4" x="272.554551" y="109.902514" style="fill: #1f77b4; fill-opacity: 0.5; stroke: #1f77b4; stroke-opacity: 0.5"/>
     <use xlink:href="#mbbd8bb38e4" x="276.049617" y="109.902514" style="fill: #1f77b4; fill-opacity: 0.5; stroke: #1f77b4; stroke-opacity: 0.5"/>
     <use xlink:href="#mbbd8bb38e4" x="262.069354" y="108.17099" style="fill: #1f77b4; fill-opacity: 0.5; stroke: #1f77b4; stroke-opacity: 0.5"/>
     <use xlink:href="#mbbd8bb38e4" x="293.524962" y="106.439466" style="fill: #1f77b4; fill-opacity: 0.5; stroke: #1f77b4; stroke-opacity: 0.5"/>
     <use xlink:href="#mbbd8bb38e4" x="272.554551" y="109.902514" style="fill: #1f77b4; fill-opacity: 0.5; stroke: #1f77b4; stroke-opacity: 0.5"/>
     <use xlink:href="#mbbd8bb38e4" x="272.554551" y="108.17099" style="fill: #1f77b4; fill-opacity: 0.5; stroke: #1f77b4; stroke-opacity: 0.5"/>
    </g>
   </g>
   <g id="PathCollection_12">
    <g clip-path="url(#pea6fb62e91)">
     <use xlink:href="#m8eb6b1a886" x="286.53483" y="66.614425" style="fill: #2ca02c; fill-opacity: 0.5; stroke: #2ca02c; stroke-opacity: 0.5"/>
     <use xlink:href="#m8eb6b1a886" x="297.020044" y="64.882903" style="fill: #2ca02c; fill-opacity: 0.5; stroke: #2ca02c; stroke-opacity: 0.5"/>
     <use xlink:href="#m8eb6b1a886" x="290.029896" y="57.956808" style="fill: #2ca02c; fill-opacity: 0.5; stroke: #2ca02c; stroke-opacity: 0.5"/>
     <use xlink:href="#m8eb6b1a886" x="293.524962" y="63.151382" style="fill: #2ca02c; fill-opacity: 0.5; stroke: #2ca02c; stroke-opacity: 0.5"/>
     <use xlink:href="#m8eb6b1a886" x="317.990455" y="61.419851" style="fill: #2ca02c; fill-opacity: 0.5; stroke: #2ca02c; stroke-opacity: 0.5"/>
     <use xlink:href="#m8eb6b1a886" x="269.059485" y="75.272043" style="fill: #2ca02c; fill-opacity: 0.5; stroke: #2ca02c; stroke-opacity: 0.5"/>
     <use xlink:href="#m8eb6b1a886" x="338.960866" y="54.493764" style="fill: #2ca02c; fill-opacity: 0.5; stroke: #2ca02c; stroke-opacity: 0.5"/>
     <use xlink:href="#m8eb6b1a886" x="293.524962" y="57.956808" style="fill: #2ca02c; fill-opacity: 0.5; stroke: #2ca02c; stroke-opacity: 0.5"/>
     <use xlink:href="#m8eb6b1a886" x="290.029896" y="63.151382" style="fill: #2ca02c; fill-opacity: 0.5; stroke: #2ca02c; stroke-opacity: 0.5"/>
     <use xlink:href="#m8eb6b1a886" x="286.53483" y="66.614425" style="fill: #2ca02c; fill-opacity: 0.5; stroke: #2ca02c; stroke-opacity: 0.5"/>
    </g>
   </g>
   <g id="PathCollection_13">
    <g clip-path="url(#pea6fb62e91)">
     <use xlink:href="#ma03c718430" x="314.495389" y="38.91005" style="fill: #8c564b; fill-opacity: 0.5; stroke: #8c564b; stroke-opacity: 0.5"/>
     <use xlink:href="#ma03c718430" x="328.475652" y="45.836146" style="fill: #8c564b; fill-opacity: 0.5; stroke: #8c564b; stroke-opacity: 0.5"/>
     <use xlink:href="#ma03c718430" x="311.000307" y="42.373094" style="fill: #8c564b; fill-opacity: 0.5; stroke: #8c564b; stroke-opacity: 0.5"/>
     <use xlink:href="#ma03c718430" x="314.495389" y="38.91005" style="fill: #8c564b; fill-opacity: 0.5; stroke: #8c564b; stroke-opacity: 0.5"/>
     <use xlink:href="#ma03c718430" x="363.426343" y="19.863293" style="fill: #8c564b; fill-opacity: 0.5; stroke: #8c564b; stroke-opacity: 0.5"/>
     <use xlink:href="#ma03c718430" x="317.990455" y="40.641572" style="fill: #8c564b; fill-opacity: 0.5; stroke: #8c564b; stroke-opacity: 0.5"/>
     <use xlink:href="#ma03c718430" x="293.524962" y="49.29919" style="fill: #8c564b; fill-opacity: 0.5; stroke: #8c564b; stroke-opacity: 0.5"/>
     <use xlink:href="#ma03c718430" x="328.475652" y="37.178529" style="fill: #8c564b; fill-opacity: 0.5; stroke: #8c564b; stroke-opacity: 0.5"/>
     <use xlink:href="#ma03c718430" x="345.950997" y="35.446998" style="fill: #8c564b; fill-opacity: 0.5; stroke: #8c564b; stroke-opacity: 0.5"/>
     <use xlink:href="#ma03c718430" x="345.950997" y="30.252433" style="fill: #8c564b; fill-opacity: 0.5; stroke: #8c564b; stroke-opacity: 0.5"/>
     <use xlink:href="#ma03c718430" x="314.495389" y="31.983955" style="fill: #8c564b; fill-opacity: 0.5; stroke: #8c564b; stroke-opacity: 0.5"/>
     <use xlink:href="#ma03c718430" x="331.970735" y="40.641572" style="fill: #8c564b; fill-opacity: 0.5; stroke: #8c564b; stroke-opacity: 0.5"/>
    </g>
   </g>
   <g id="patch_15">
    <path d="M 291.897044 49.020024 
C 290.365462 49.016634 288.883798 50.411129 287.778373 52.896388 
C 286.672948 55.381646 286.034014 58.754758 286.00229 62.272835 
C 285.970565 65.790911 286.54864 69.166716 287.6092 71.656769 
C 288.669759 74.146821 290.126214 75.547819 291.657797 75.551209 
C 293.18938 75.554599 294.671043 74.160104 295.776468 71.674845 
C 296.881893 69.189586 297.520827 65.816475 297.552552 62.298398 
C 297.584276 58.780322 297.006201 55.404517 295.945642 52.914464 
C 294.885082 50.424412 293.428627 49.023414 291.897044 49.020024 
L 291.897044 49.020024 
z
" clip-path="url(#pea6fb62e91)" style="fill: none; stroke: #238023; stroke-width: 2; stroke-linejoin: miter"/>
   </g>
   <g id="PathCollection_14">
    <g clip-path="url(#pea6fb62e91)">
     <use xlink:href="#m85d7acde43" x="291.777421" y="62.285616" style="stroke: #000000"/>
    </g>
   </g>
   <g id="patch_16">
    <path d="M 317.825675 26.848946 
C 315.738501 26.87604 313.806503 28.224988 312.455179 30.598701 
C 311.103856 32.972413 310.443537 36.177087 310.619651 39.506929 
C 310.795764 42.836772 311.793931 46.019916 313.394317 48.355312 
C 314.994703 50.690708 317.066643 51.98768 319.153816 51.960586 
C 321.24099 51.933492 323.172988 50.584544 324.524312 48.210832 
C 325.875635 45.837119 326.535954 42.632445 326.35984 39.302603 
C 326.183726 35.972761 325.18556 32.789616 323.585174 30.45422 
C 321.984788 28.118825 319.912848 26.821852 317.825675 26.848946 
L 317.825675 26.848946 
z
" clip-path="url(#pea6fb62e91)" style="fill: none; stroke: #70453c; stroke-width: 2; stroke-linejoin: miter"/>
   </g>
   <g id="PathCollection_15">
    <g clip-path="url(#pea6fb62e91)">
     <use xlink:href="#m85d7acde43" x="318.489745" y="39.404766" style="stroke: #000000"/>
    </g>
   </g>
   <g id="patch_17">
    <path d="M 279.472616 98.288787 
C 275.700394 98.387408 272.212511 99.705699 269.777134 101.953321 
C 267.341757 104.200944 266.157724 107.194389 266.485804 110.274385 
C 266.813883 113.354382 268.62729 116.269461 271.526641 118.377612 
C 274.425993 120.485762 278.17457 121.614862 281.946792 121.516241 
C 285.719015 121.417619 289.206897 120.099328 291.642274 117.851706 
C 294.077651 115.604084 295.261685 112.610638 294.933605 109.530642 
C 294.605525 106.450646 292.792119 103.535566 289.892767 101.427416 
C 286.993416 99.319265 283.244839 98.190165 279.472616 98.288787 
L 279.472616 98.288787 
z
" clip-path="url(#pea6fb62e91)" style="fill: none; stroke: #195f90; stroke-width: 2; stroke-linejoin: miter"/>
   </g>
   <g id="PathCollection_16">
    <g clip-path="url(#pea6fb62e91)">
     <use xlink:href="#m85d7acde43" x="280.709704" y="109.902514" style="stroke: #000000"/>
    </g>
   </g>
   <g id="patch_18">
    <path d="M 265.56442 128.656364 
C 270.246306 128.656364 274.737064 126.497895 278.047658 122.656337 
C 281.358251 118.814778 283.218384 113.603774 283.218384 108.17099 
C 283.218384 102.738205 281.358251 97.527202 278.047658 93.685643 
C 274.737064 89.844084 270.246306 87.685616 265.56442 87.685616 
C 260.882533 87.685616 256.391775 89.844084 253.081181 93.685643 
C 249.770588 97.527202 247.910455 102.738205 247.910455 108.17099 
C 247.910455 113.603774 249.770588 118.814778 253.081181 122.656337 
C 256.391775 126.497895 260.882533 128.656364 265.56442 128.656364 
L 265.56442 128.656364 
z
" clip-path="url(#pea6fb62e91)" style="fill: none; stroke: #195f90; stroke-width: 2; stroke-linejoin: miter"/>
   </g>
   <g id="PathCollection_17">
    <g clip-path="url(#pea6fb62e91)">
     <use xlink:href="#m85d7acde43" x="265.56442" y="108.17099" style="stroke: #000000"/>
    </g>
   </g>
   <g id="patch_19">
    <path d="M 354.546542 12.983636 
C 349.839859 12.531865 344.542389 14.10053 339.820839 17.34415 
C 335.099288 20.58777 331.339151 25.241519 329.368554 30.280463 
C 327.397956 35.319406 327.377789 40.332136 329.312493 44.214658 
C 331.247198 48.097179 334.978814 50.532502 339.685497 50.984273 
C 344.39218 51.436044 349.68965 49.86738 354.4112 46.623759 
C 359.13275 43.380139 362.892888 38.72639 364.863485 33.687447 
C 366.834083 28.648503 366.85425 23.635773 364.919545 19.753251 
C 362.984841 15.87073 359.253225 13.435408 354.546542 12.983636 
L 354.546542 12.983636 
z
" clip-path="url(#pea6fb62e91)" style="fill: none; stroke: #70453c; stroke-width: 2; stroke-linejoin: miter"/>
   </g>
   <g id="PathCollection_18">
    <g clip-path="url(#pea6fb62e91)">
     <use xlink:href="#m85d7acde43" x="347.116019" y="31.983955" style="stroke: #000000"/>
    </g>
   </g>
   <g id="patch_20">
    <path d="M 330.689468 36.294404 
C 324.97506 36.151069 319.260669 38.296073 314.804823 42.257004 
C 310.348976 46.217935 307.515475 51.6714 306.928364 57.416336 
C 306.341254 63.161273 308.048468 68.728633 311.674015 72.892269 
C 315.299561 77.055906 320.547429 79.475877 326.261837 79.619212 
C 331.976244 79.762546 337.690635 77.617542 342.146482 73.656611 
C 346.602328 69.695681 349.43583 64.242216 350.02294 58.497279 
C 350.610051 52.752342 348.902836 47.184982 345.27729 43.021346 
C 341.651743 38.857709 336.403875 36.437738 330.689468 36.294404 
L 330.689468 36.294404 
z
" clip-path="url(#pea6fb62e91)" style="fill: none; stroke: #238023; stroke-width: 2; stroke-linejoin: miter"/>
   </g>
   <g id="PathCollection_19">
    <g clip-path="url(#pea6fb62e91)">
     <use xlink:href="#m85d7acde43" x="328.475652" y="57.956808" style="stroke: #000000"/>
    </g>
   </g>
   <g id="patch_21">
    <path d="M 280.025539 49.125189 
C 274.522154 48.98723 269.008637 51.15379 264.699274 55.147709 
C 260.389912 59.141629 257.636546 64.636821 257.045573 70.423034 
C 256.454599 76.209248 258.074269 81.814063 261.547868 86.003085 
C 265.021467 90.192107 270.065392 92.623321 275.568777 92.76128 
C 281.072162 92.899238 286.585679 90.732678 290.895041 86.738759 
C 295.204403 82.74484 297.95777 77.249647 298.548743 71.463434 
C 299.139717 65.677221 297.520047 60.072405 294.046448 55.883383 
C 290.572849 51.694361 285.528924 49.263147 280.025539 49.125189 
L 280.025539 49.125189 
z
" clip-path="url(#pea6fb62e91)" style="fill: none; stroke: #238023; stroke-width: 2; stroke-linejoin: miter"/>
   </g>
   <g id="PathCollection_20">
    <g clip-path="url(#pea6fb62e91)">
     <use xlink:href="#m85d7acde43" x="277.797158" y="70.943234" style="stroke: #000000"/>
    </g>
   </g>
   <g id="matplotlib.axis_3">
    <g id="xtick_4">
     <g id="line2d_9">
      <g>
       <use xlink:href="#m4afd96b4c6" x="269.059485" y="134.44" style="stroke: #000000; stroke-width: 0.8"/>
      </g>
     </g>
     <g id="text_11">
      <!-- 5.0 -->
      <g transform="translate(261.107923 149.038438) scale(0.1 -0.1)">
       <use xlink:href="#DejaVuSans-35"/>
       <use xlink:href="#DejaVuSans-2e" x="63.623047"/>
       <use xlink:href="#DejaVuSans-30" x="95.410156"/>
      </g>
     </g>
    </g>
    <g id="xtick_5">
     <g id="line2d_10">
      <g>
       <use xlink:href="#m4afd96b4c6" x="304.010176" y="134.44" style="stroke: #000000; stroke-width: 0.8"/>
      </g>
     </g>
     <g id="text_12">
      <!-- 6.0 -->
      <g transform="translate(296.058613 149.038438) scale(0.1 -0.1)">
       <use xlink:href="#DejaVuSans-36"/>
       <use xlink:href="#DejaVuSans-2e" x="63.623047"/>
       <use xlink:href="#DejaVuSans-30" x="95.410156"/>
      </g>
     </g>
    </g>
    <g id="xtick_6">
     <g id="line2d_11">
      <g>
       <use xlink:href="#m4afd96b4c6" x="338.960866" y="134.44" style="stroke: #000000; stroke-width: 0.8"/>
      </g>
     </g>
     <g id="text_13">
      <!-- 7.0 -->
      <g transform="translate(331.009304 149.038438) scale(0.1 -0.1)">
       <use xlink:href="#DejaVuSans-37"/>
       <use xlink:href="#DejaVuSans-2e" x="63.623047"/>
       <use xlink:href="#DejaVuSans-30" x="95.410156"/>
      </g>
     </g>
    </g>
    <g id="text_14">
     <!-- Feature 1 -->
     <g transform="translate(282.754844 162.716563) scale(0.1 -0.1)">
      <use xlink:href="#DejaVuSans-46"/>
      <use xlink:href="#DejaVuSans-65" x="52.019531"/>
      <use xlink:href="#DejaVuSans-61" x="113.542969"/>
      <use xlink:href="#DejaVuSans-74" x="174.822266"/>
      <use xlink:href="#DejaVuSans-75" x="214.03125"/>
      <use xlink:href="#DejaVuSans-72" x="277.410156"/>
      <use xlink:href="#DejaVuSans-65" x="316.273438"/>
      <use xlink:href="#DejaVuSans-20" x="377.796875"/>
      <use xlink:href="#DejaVuSans-31" x="409.583984"/>
     </g>
    </g>
   </g>
   <g id="matplotlib.axis_4">
    <g id="ytick_6">
     <g id="line2d_12">
      <g>
       <use xlink:href="#m41e88fd668" x="242.06" y="101.244896" style="stroke: #000000; stroke-width: 0.8"/>
      </g>
     </g>
     <g id="text_15">
      <!-- 2.0 -->
      <g transform="translate(219.156875 105.044115) scale(0.1 -0.1)">
       <use xlink:href="#DejaVuSans-32"/>
       <use xlink:href="#DejaVuSans-2e" x="63.623047"/>
       <use xlink:href="#DejaVuSans-30" x="95.410156"/>
      </g>
     </g>
    </g>
    <g id="ytick_7">
     <g id="line2d_13">
      <g>
       <use xlink:href="#m41e88fd668" x="242.06" y="66.614425" style="stroke: #000000; stroke-width: 0.8"/>
      </g>
     </g>
     <g id="text_16">
      <!-- 4.0 -->
      <g transform="translate(219.156875 70.413644) scale(0.1 -0.1)">
       <use xlink:href="#DejaVuSans-34"/>
       <use xlink:href="#DejaVuSans-2e" x="63.623047"/>
       <use xlink:href="#DejaVuSans-30" x="95.410156"/>
      </g>
     </g>
    </g>
    <g id="ytick_8">
     <g id="line2d_14">
      <g>
       <use xlink:href="#m41e88fd668" x="242.06" y="31.983955" style="stroke: #000000; stroke-width: 0.8"/>
      </g>
     </g>
     <g id="text_17">
      <!-- 6.0 -->
      <g transform="translate(219.156875 35.783173) scale(0.1 -0.1)">
       <use xlink:href="#DejaVuSans-36"/>
       <use xlink:href="#DejaVuSans-2e" x="63.623047"/>
       <use xlink:href="#DejaVuSans-30" x="95.410156"/>
      </g>
     </g>
    </g>
    <g id="text_18">
     <!-- Feature 3 -->
     <g transform="translate(213.077188 94.480156) rotate(-90) scale(0.1 -0.1)">
      <use xlink:href="#DejaVuSans-46"/>
      <use xlink:href="#DejaVuSans-65" x="52.019531"/>
      <use xlink:href="#DejaVuSans-61" x="113.542969"/>
      <use xlink:href="#DejaVuSans-74" x="174.822266"/>
      <use xlink:href="#DejaVuSans-75" x="214.03125"/>
      <use xlink:href="#DejaVuSans-72" x="277.410156"/>
      <use xlink:href="#DejaVuSans-65" x="316.273438"/>
      <use xlink:href="#DejaVuSans-20" x="377.796875"/>
      <use xlink:href="#DejaVuSans-33" x="409.583984"/>
     </g>
    </g>
   </g>
   <g id="patch_22">
    <path d="M 242.06 134.44 
L 242.06 7.2 
" style="fill: none; stroke: #000000; stroke-width: 0.8; stroke-linejoin: miter; stroke-linecap: square"/>
   </g>
   <g id="patch_23">
    <path d="M 370.77 134.44 
L 370.77 7.2 
" style="fill: none; stroke: #000000; stroke-width: 0.8; stroke-linejoin: miter; stroke-linecap: square"/>
   </g>
   <g id="patch_24">
    <path d="M 242.06 134.44 
L 370.77 134.44 
" style="fill: none; stroke: #000000; stroke-width: 0.8; stroke-linejoin: miter; stroke-linecap: square"/>
   </g>
   <g id="patch_25">
    <path d="M 242.06 7.2 
L 370.77 7.2 
" style="fill: none; stroke: #000000; stroke-width: 0.8; stroke-linejoin: miter; stroke-linecap: square"/>
   </g>
  </g>
  <g id="axes_3">
   <g id="patch_26">
    <path d="M 418.49 134.44 
L 547.2 134.44 
L 547.2 7.2 
L 418.49 7.2 
z
" style="fill: #ffffff"/>
   </g>
   <g id="PathCollection_21">
    <g clip-path="url(#p442bf1cca2)">
     <use xlink:href="#mbbd8bb38e4" x="472.94617" y="107.620996" style="fill: #1f77b4; fill-opacity: 0.5; stroke: #1f77b4; stroke-opacity: 0.5"/>
     <use xlink:href="#mbbd8bb38e4" x="445.272492" y="107.620996" style="fill: #1f77b4; fill-opacity: 0.5; stroke: #1f77b4; stroke-opacity: 0.5"/>
     <use xlink:href="#mbbd8bb38e4" x="448.731698" y="99.731769" style="fill: #1f77b4; fill-opacity: 0.5; stroke: #1f77b4; stroke-opacity: 0.5"/>
     <use xlink:href="#mbbd8bb38e4" x="452.190903" y="111.56561" style="fill: #1f77b4; fill-opacity: 0.5; stroke: #1f77b4; stroke-opacity: 0.5"/>
     <use xlink:href="#mbbd8bb38e4" x="438.354081" y="107.620996" style="fill: #1f77b4; fill-opacity: 0.5; stroke: #1f77b4; stroke-opacity: 0.5"/>
     <use xlink:href="#mbbd8bb38e4" x="469.486948" y="103.676382" style="fill: #1f77b4; fill-opacity: 0.5; stroke: #1f77b4; stroke-opacity: 0.5"/>
     <use xlink:href="#mbbd8bb38e4" x="448.731698" y="103.676382" style="fill: #1f77b4; fill-opacity: 0.5; stroke: #1f77b4; stroke-opacity: 0.5"/>
     <use xlink:href="#mbbd8bb38e4" x="448.731698" y="107.620996" style="fill: #1f77b4; fill-opacity: 0.5; stroke: #1f77b4; stroke-opacity: 0.5"/>
    </g>
   </g>
   <g id="PathCollection_22">
    <g clip-path="url(#p442bf1cca2)">
     <use xlink:href="#m8eb6b1a886" x="462.568537" y="64.230249" style="fill: #2ca02c; fill-opacity: 0.5; stroke: #2ca02c; stroke-opacity: 0.5"/>
     <use xlink:href="#m8eb6b1a886" x="472.94617" y="76.064088" style="fill: #2ca02c; fill-opacity: 0.5; stroke: #2ca02c; stroke-opacity: 0.5"/>
     <use xlink:href="#m8eb6b1a886" x="466.027742" y="56.34102" style="fill: #2ca02c; fill-opacity: 0.5; stroke: #2ca02c; stroke-opacity: 0.5"/>
     <use xlink:href="#m8eb6b1a886" x="469.486948" y="68.174859" style="fill: #2ca02c; fill-opacity: 0.5; stroke: #2ca02c; stroke-opacity: 0.5"/>
     <use xlink:href="#m8eb6b1a886" x="493.70142" y="64.230249" style="fill: #2ca02c; fill-opacity: 0.5; stroke: #2ca02c; stroke-opacity: 0.5"/>
     <use xlink:href="#m8eb6b1a886" x="445.272492" y="76.064088" style="fill: #2ca02c; fill-opacity: 0.5; stroke: #2ca02c; stroke-opacity: 0.5"/>
     <use xlink:href="#m8eb6b1a886" x="514.456671" y="60.285635" style="fill: #2ca02c; fill-opacity: 0.5; stroke: #2ca02c; stroke-opacity: 0.5"/>
     <use xlink:href="#m8eb6b1a886" x="469.486948" y="64.230249" style="fill: #2ca02c; fill-opacity: 0.5; stroke: #2ca02c; stroke-opacity: 0.5"/>
     <use xlink:href="#m8eb6b1a886" x="466.027742" y="64.230249" style="fill: #2ca02c; fill-opacity: 0.5; stroke: #2ca02c; stroke-opacity: 0.5"/>
     <use xlink:href="#m8eb6b1a886" x="462.568537" y="64.230249" style="fill: #2ca02c; fill-opacity: 0.5; stroke: #2ca02c; stroke-opacity: 0.5"/>
    </g>
   </g>
   <g id="PathCollection_23">
    <g clip-path="url(#p442bf1cca2)">
     <use xlink:href="#ma03c718430" x="490.242215" y="20.839495" style="fill: #8c564b; fill-opacity: 0.5; stroke: #8c564b; stroke-opacity: 0.5"/>
     <use xlink:href="#ma03c718430" x="504.079037" y="24.784114" style="fill: #8c564b; fill-opacity: 0.5; stroke: #8c564b; stroke-opacity: 0.5"/>
     <use xlink:href="#ma03c718430" x="486.782993" y="24.784114" style="fill: #8c564b; fill-opacity: 0.5; stroke: #8c564b; stroke-opacity: 0.5"/>
     <use xlink:href="#ma03c718430" x="490.242215" y="44.507182" style="fill: #8c564b; fill-opacity: 0.5; stroke: #8c564b; stroke-opacity: 0.5"/>
     <use xlink:href="#ma03c718430" x="538.671127" y="36.617953" style="fill: #8c564b; fill-opacity: 0.5; stroke: #8c564b; stroke-opacity: 0.5"/>
     <use xlink:href="#ma03c718430" x="493.70142" y="44.507182" style="fill: #8c564b; fill-opacity: 0.5; stroke: #8c564b; stroke-opacity: 0.5"/>
     <use xlink:href="#ma03c718430" x="469.486948" y="36.617953" style="fill: #8c564b; fill-opacity: 0.5; stroke: #8c564b; stroke-opacity: 0.5"/>
     <use xlink:href="#ma03c718430" x="504.079037" y="32.673343" style="fill: #8c564b; fill-opacity: 0.5; stroke: #8c564b; stroke-opacity: 0.5"/>
     <use xlink:href="#ma03c718430" x="521.375082" y="52.396406" style="fill: #8c564b; fill-opacity: 0.5; stroke: #8c564b; stroke-opacity: 0.5"/>
     <use xlink:href="#ma03c718430" x="521.375082" y="16.894885" style="fill: #8c564b; fill-opacity: 0.5; stroke: #8c564b; stroke-opacity: 0.5"/>
     <use xlink:href="#ma03c718430" x="490.242215" y="16.894885" style="fill: #8c564b; fill-opacity: 0.5; stroke: #8c564b; stroke-opacity: 0.5"/>
     <use xlink:href="#ma03c718430" x="507.538259" y="32.673343" style="fill: #8c564b; fill-opacity: 0.5; stroke: #8c564b; stroke-opacity: 0.5"/>
    </g>
   </g>
   <g id="patch_27">
    <path d="M 466.705608 49.939658 
C 465.215291 50.070263 463.896629 51.839827 463.040043 54.858623 
C 462.183457 57.877419 461.858883 61.898976 462.137805 66.037592 
C 462.416727 70.176209 463.276372 74.093986 464.527412 76.928078 
C 465.778453 79.76217 467.318748 81.281186 468.809066 81.15058 
C 470.299383 81.019975 471.618044 79.250411 472.47463 76.231615 
C 473.331216 73.21282 473.65579 69.191263 473.376869 65.052646 
C 473.097947 60.914029 472.238302 56.996253 470.987261 54.162161 
C 469.73622 51.328069 468.195925 49.809053 466.705608 49.939658 
L 466.705608 49.939658 
z
" clip-path="url(#p442bf1cca2)" style="fill: none; stroke: #238023; stroke-width: 2; stroke-linejoin: miter"/>
   </g>
   <g id="PathCollection_24">
    <g clip-path="url(#p442bf1cca2)">
     <use xlink:href="#m85d7acde43" x="467.757337" y="65.545119" style="stroke: #000000"/>
    </g>
   </g>
   <g id="patch_28">
    <path d="M 493.761086 12.983636 
C 491.691191 13.052951 489.751578 14.89719 488.369422 18.110181 
C 486.987266 21.323171 486.275416 25.642588 486.390647 30.117128 
C 486.505878 34.591668 487.438783 38.856006 488.983901 41.970971 
C 490.529018 45.085936 492.560195 46.797205 494.63009 46.72789 
C 496.699984 46.658575 498.639598 44.814337 500.021754 41.601346 
C 501.403909 38.388355 502.11576 34.068939 502.000529 29.594399 
C 501.885297 25.119858 500.952392 20.85552 499.407275 17.740555 
C 497.862158 14.62559 495.83098 12.914322 493.761086 12.983636 
L 493.761086 12.983636 
z
" clip-path="url(#p442bf1cca2)" style="fill: none; stroke: #70453c; stroke-width: 2; stroke-linejoin: miter"/>
   </g>
   <g id="PathCollection_25">
    <g clip-path="url(#p442bf1cca2)">
     <use xlink:href="#m85d7acde43" x="494.195588" y="29.855763" style="stroke: #000000"/>
    </g>
   </g>
   <g id="patch_29">
    <path d="M 442.683756 104.812988 
C 442.531396 108.160285 443.872966 111.458991 446.413002 113.982604 
C 448.953038 116.506216 452.484157 118.048695 456.228672 118.270325 
C 459.973186 118.491956 463.625372 117.374643 466.380879 115.164464 
C 469.136386 112.954284 470.770238 109.831687 470.922598 106.484391 
C 471.074959 103.137094 469.733389 99.838388 467.193353 97.314775 
C 464.653317 94.791162 461.122197 93.248684 457.377683 93.027053 
C 453.633169 92.805423 449.980983 93.922735 447.225476 96.132915 
C 444.469969 98.343095 442.836117 101.465691 442.683756 104.812988 
L 442.683756 104.812988 
z
" clip-path="url(#p442bf1cca2)" style="fill: none; stroke: #195f90; stroke-width: 2; stroke-linejoin: miter"/>
   </g>
   <g id="PathCollection_26">
    <g clip-path="url(#p442bf1cca2)">
     <use xlink:href="#m85d7acde43" x="456.803177" y="105.648689" style="stroke: #000000"/>
    </g>
   </g>
   <g id="patch_30">
    <path d="M 441.813286 128.656364 
C 446.447135 128.656364 450.891818 126.439945 454.168444 122.495247 
C 457.44507 118.55055 459.286118 113.199641 459.286118 107.620996 
C 459.286118 102.042351 457.44507 96.691442 454.168444 92.746745 
C 450.891818 88.802047 446.447135 86.585628 441.813286 86.585628 
C 437.179437 86.585628 432.734755 88.802047 429.458128 92.746745 
C 426.181502 96.691442 424.340455 102.042351 424.340455 107.620996 
C 424.340455 113.199641 426.181502 118.55055 429.458128 122.495247 
C 432.734755 126.439945 437.179437 128.656364 441.813286 128.656364 
L 441.813286 128.656364 
z
" clip-path="url(#p442bf1cca2)" style="fill: none; stroke: #195f90; stroke-width: 2; stroke-linejoin: miter"/>
   </g>
   <g id="PathCollection_27">
    <g clip-path="url(#p442bf1cca2)">
     <use xlink:href="#m85d7acde43" x="441.813286" y="107.620996" style="stroke: #000000"/>
    </g>
   </g>
   <g id="patch_31">
    <path d="M 503.706756 36.878653 
C 502.938911 41.979834 504.185553 47.260932 507.172123 51.558846 
C 510.158693 55.856759 514.641351 58.820583 519.632843 59.797568 
C 524.624336 60.774554 529.717129 59.684935 533.789595 56.768688 
C 537.862061 53.852441 540.581701 49.347664 541.349545 44.246482 
C 542.11739 39.1453 540.870748 33.864202 537.884178 29.566289 
C 534.897608 25.268375 530.41495 22.304552 525.423458 21.327566 
C 520.431965 20.350581 515.339172 21.440199 511.266706 24.356446 
C 507.19424 27.272694 504.4746 31.777471 503.706756 36.878653 
L 503.706756 36.878653 
z
" clip-path="url(#p442bf1cca2)" style="fill: none; stroke: #70453c; stroke-width: 2; stroke-linejoin: miter"/>
   </g>
   <g id="PathCollection_28">
    <g clip-path="url(#p442bf1cca2)">
     <use xlink:href="#m85d7acde43" x="522.528151" y="40.562567" style="stroke: #000000"/>
    </g>
   </g>
   <g id="patch_32">
    <path d="M 483.050955 67.529897 
C 484.158089 73.272164 487.435677 78.224529 492.16187 81.296291 
C 496.888062 84.368054 502.676987 85.308418 508.253699 83.91028 
C 513.830412 82.512141 518.739598 78.889652 521.900068 73.840624 
C 525.060538 68.791595 526.214252 62.728258 525.107119 56.985991 
C 523.999986 51.243725 520.722398 46.29136 515.996205 43.219597 
C 511.270012 40.147835 505.481088 39.207471 499.904376 40.605609 
C 494.327663 42.003747 489.418476 45.626236 486.258006 50.675265 
C 483.097536 55.724294 481.943822 61.787631 483.050955 67.529897 
L 483.050955 67.529897 
z
" clip-path="url(#p442bf1cca2)" style="fill: none; stroke: #238023; stroke-width: 2; stroke-linejoin: miter"/>
   </g>
   <g id="PathCollection_29">
    <g clip-path="url(#p442bf1cca2)">
     <use xlink:href="#m85d7acde43" x="504.079037" y="62.257944" style="stroke: #000000"/>
    </g>
   </g>
   <g id="patch_33">
    <path d="M 437.083222 85.397171 
C 440.256881 89.953531 445.075067 92.717052 450.476629 93.079099 
C 455.878191 93.441146 461.422115 91.372161 465.887417 87.327813 
C 470.35272 83.283466 473.374827 77.593958 474.288156 71.512339 
C 475.201486 65.43072 473.931467 59.453527 470.757807 54.897166 
C 467.584147 50.340806 462.765962 47.577286 457.3644 47.215238 
C 451.962838 46.853191 446.418913 48.922176 441.953611 52.966524 
C 437.488309 57.010872 434.466201 62.700379 433.552872 68.781998 
C 432.639543 74.863617 433.909562 80.84081 437.083222 85.397171 
L 437.083222 85.397171 
z
" clip-path="url(#p442bf1cca2)" style="fill: none; stroke: #238023; stroke-width: 2; stroke-linejoin: miter"/>
   </g>
   <g id="PathCollection_30">
    <g clip-path="url(#p442bf1cca2)">
     <use xlink:href="#m85d7acde43" x="453.920514" y="70.147169" style="stroke: #000000"/>
    </g>
   </g>
   <g id="matplotlib.axis_5">
    <g id="xtick_7">
     <g id="line2d_15">
      <g>
       <use xlink:href="#m4afd96b4c6" x="445.272492" y="134.44" style="stroke: #000000; stroke-width: 0.8"/>
      </g>
     </g>
     <g id="text_19">
      <!-- 5.0 -->
      <g transform="translate(437.320929 149.038438) scale(0.1 -0.1)">
       <use xlink:href="#DejaVuSans-35"/>
       <use xlink:href="#DejaVuSans-2e" x="63.623047"/>
       <use xlink:href="#DejaVuSans-30" x="95.410156"/>
      </g>
     </g>
    </g>
    <g id="xtick_8">
     <g id="line2d_16">
      <g>
       <use xlink:href="#m4afd96b4c6" x="479.864581" y="134.44" style="stroke: #000000; stroke-width: 0.8"/>
      </g>
     </g>
     <g id="text_20">
      <!-- 6.0 -->
      <g transform="translate(471.913019 149.038438) scale(0.1 -0.1)">
       <use xlink:href="#DejaVuSans-36"/>
       <use xlink:href="#DejaVuSans-2e" x="63.623047"/>
       <use xlink:href="#DejaVuSans-30" x="95.410156"/>
      </g>
     </g>
    </g>
    <g id="xtick_9">
     <g id="line2d_17">
      <g>
       <use xlink:href="#m4afd96b4c6" x="514.456671" y="134.44" style="stroke: #000000; stroke-width: 0.8"/>
      </g>
     </g>
     <g id="text_21">
      <!-- 7.0 -->
      <g transform="translate(506.505108 149.038438) scale(0.1 -0.1)">
       <use xlink:href="#DejaVuSans-37"/>
       <use xlink:href="#DejaVuSans-2e" x="63.623047"/>
       <use xlink:href="#DejaVuSans-30" x="95.410156"/>
      </g>
     </g>
    </g>
    <g id="text_22">
     <!-- Feature 1 -->
     <g transform="translate(459.184844 162.716563) scale(0.1 -0.1)">
      <use xlink:href="#DejaVuSans-46"/>
      <use xlink:href="#DejaVuSans-65" x="52.019531"/>
      <use xlink:href="#DejaVuSans-61" x="113.542969"/>
      <use xlink:href="#DejaVuSans-74" x="174.822266"/>
      <use xlink:href="#DejaVuSans-75" x="214.03125"/>
      <use xlink:href="#DejaVuSans-72" x="277.410156"/>
      <use xlink:href="#DejaVuSans-65" x="316.273438"/>
      <use xlink:href="#DejaVuSans-20" x="377.796875"/>
      <use xlink:href="#DejaVuSans-31" x="409.583984"/>
     </g>
    </g>
   </g>
   <g id="matplotlib.axis_6">
    <g id="ytick_9">
     <g id="line2d_18">
      <g>
       <use xlink:href="#m41e88fd668" x="418.49" y="115.510223" style="stroke: #000000; stroke-width: 0.8"/>
      </g>
     </g>
     <g id="text_23">
      <!-- 0.0 -->
      <g transform="translate(395.586875 119.309442) scale(0.1 -0.1)">
       <use xlink:href="#DejaVuSans-30"/>
       <use xlink:href="#DejaVuSans-2e" x="63.623047"/>
       <use xlink:href="#DejaVuSans-30" x="95.410156"/>
      </g>
     </g>
    </g>
    <g id="ytick_10">
     <g id="line2d_19">
      <g>
       <use xlink:href="#m41e88fd668" x="418.49" y="76.064088" style="stroke: #000000; stroke-width: 0.8"/>
      </g>
     </g>
     <g id="text_24">
      <!-- 1.0 -->
      <g transform="translate(395.586875 79.863307) scale(0.1 -0.1)">
       <use xlink:href="#DejaVuSans-31"/>
       <use xlink:href="#DejaVuSans-2e" x="63.623047"/>
       <use xlink:href="#DejaVuSans-30" x="95.410156"/>
      </g>
     </g>
    </g>
    <g id="ytick_11">
     <g id="line2d_20">
      <g>
       <use xlink:href="#m41e88fd668" x="418.49" y="36.617953" style="stroke: #000000; stroke-width: 0.8"/>
      </g>
     </g>
     <g id="text_25">
      <!-- 2.0 -->
      <g transform="translate(395.586875 40.417171) scale(0.1 -0.1)">
       <use xlink:href="#DejaVuSans-32"/>
       <use xlink:href="#DejaVuSans-2e" x="63.623047"/>
       <use xlink:href="#DejaVuSans-30" x="95.410156"/>
      </g>
     </g>
    </g>
    <g id="text_26">
     <!-- Feature 4 -->
     <g transform="translate(389.507188 94.480156) rotate(-90) scale(0.1 -0.1)">
      <use xlink:href="#DejaVuSans-46"/>
      <use xlink:href="#DejaVuSans-65" x="52.019531"/>
      <use xlink:href="#DejaVuSans-61" x="113.542969"/>
      <use xlink:href="#DejaVuSans-74" x="174.822266"/>
      <use xlink:href="#DejaVuSans-75" x="214.03125"/>
      <use xlink:href="#DejaVuSans-72" x="277.410156"/>
      <use xlink:href="#DejaVuSans-65" x="316.273438"/>
      <use xlink:href="#DejaVuSans-20" x="377.796875"/>
      <use xlink:href="#DejaVuSans-34" x="409.583984"/>
     </g>
    </g>
   </g>
   <g id="patch_34">
    <path d="M 418.49 134.44 
L 418.49 7.2 
" style="fill: none; stroke: #000000; stroke-width: 0.8; stroke-linejoin: miter; stroke-linecap: square"/>
   </g>
   <g id="patch_35">
    <path d="M 547.2 134.44 
L 547.2 7.2 
" style="fill: none; stroke: #000000; stroke-width: 0.8; stroke-linejoin: miter; stroke-linecap: square"/>
   </g>
   <g id="patch_36">
    <path d="M 418.49 134.44 
L 547.2 134.44 
" style="fill: none; stroke: #000000; stroke-width: 0.8; stroke-linejoin: miter; stroke-linecap: square"/>
   </g>
   <g id="patch_37">
    <path d="M 418.49 7.2 
L 547.2 7.2 
" style="fill: none; stroke: #000000; stroke-width: 0.8; stroke-linejoin: miter; stroke-linecap: square"/>
   </g>
  </g>
  <g id="text_27">
   <!-- Local model 4 -->
   <g transform="translate(16.318125 128.266875) rotate(-90) scale(0.12 -0.12)">
    <defs>
     <path id="DejaVuSans-4c" d="M 628 4666 
L 1259 4666 
L 1259 531 
L 3531 531 
L 3531 0 
L 628 0 
L 628 4666 
z
" transform="scale(0.015625)"/>
     <path id="DejaVuSans-6f" d="M 1959 3097 
Q 1497 3097 1228 2736 
Q 959 2375 959 1747 
Q 959 1119 1226 758 
Q 1494 397 1959 397 
Q 2419 397 2687 759 
Q 2956 1122 2956 1747 
Q 2956 2369 2687 2733 
Q 2419 3097 1959 3097 
z
M 1959 3584 
Q 2709 3584 3137 3096 
Q 3566 2609 3566 1747 
Q 3566 888 3137 398 
Q 2709 -91 1959 -91 
Q 1206 -91 779 398 
Q 353 888 353 1747 
Q 353 2609 779 3096 
Q 1206 3584 1959 3584 
z
" transform="scale(0.015625)"/>
     <path id="DejaVuSans-63" d="M 3122 3366 
L 3122 2828 
Q 2878 2963 2633 3030 
Q 2388 3097 2138 3097 
Q 1578 3097 1268 2742 
Q 959 2388 959 1747 
Q 959 1106 1268 751 
Q 1578 397 2138 397 
Q 2388 397 2633 464 
Q 2878 531 3122 666 
L 3122 134 
Q 2881 22 2623 -34 
Q 2366 -91 2075 -91 
Q 1284 -91 818 406 
Q 353 903 353 1747 
Q 353 2603 823 3093 
Q 1294 3584 2113 3584 
Q 2378 3584 2631 3529 
Q 2884 3475 3122 3366 
z
" transform="scale(0.015625)"/>
     <path id="DejaVuSans-6c" d="M 603 4863 
L 1178 4863 
L 1178 0 
L 603 0 
L 603 4863 
z
" transform="scale(0.015625)"/>
     <path id="DejaVuSans-6d" d="M 3328 2828 
Q 3544 3216 3844 3400 
Q 4144 3584 4550 3584 
Q 5097 3584 5394 3201 
Q 5691 2819 5691 2113 
L 5691 0 
L 5113 0 
L 5113 2094 
Q 5113 2597 4934 2840 
Q 4756 3084 4391 3084 
Q 3944 3084 3684 2787 
Q 3425 2491 3425 1978 
L 3425 0 
L 2847 0 
L 2847 2094 
Q 2847 2600 2669 2842 
Q 2491 3084 2119 3084 
Q 1678 3084 1418 2786 
Q 1159 2488 1159 1978 
L 1159 0 
L 581 0 
L 581 3500 
L 1159 3500 
L 1159 2956 
Q 1356 3278 1631 3431 
Q 1906 3584 2284 3584 
Q 2666 3584 2933 3390 
Q 3200 3197 3328 2828 
z
" transform="scale(0.015625)"/>
     <path id="DejaVuSans-64" d="M 2906 2969 
L 2906 4863 
L 3481 4863 
L 3481 0 
L 2906 0 
L 2906 525 
Q 2725 213 2448 61 
Q 2172 -91 1784 -91 
Q 1150 -91 751 415 
Q 353 922 353 1747 
Q 353 2572 751 3078 
Q 1150 3584 1784 3584 
Q 2172 3584 2448 3432 
Q 2725 3281 2906 2969 
z
M 947 1747 
Q 947 1113 1208 752 
Q 1469 391 1925 391 
Q 2381 391 2643 752 
Q 2906 1113 2906 1747 
Q 2906 2381 2643 2742 
Q 2381 3103 1925 3103 
Q 1469 3103 1208 2742 
Q 947 2381 947 1747 
z
" transform="scale(0.015625)"/>
    </defs>
    <use xlink:href="#DejaVuSans-4c"/>
    <use xlink:href="#DejaVuSans-6f" x="53.962891"/>
    <use xlink:href="#DejaVuSans-63" x="115.144531"/>
    <use xlink:href="#DejaVuSans-61" x="170.125"/>
    <use xlink:href="#DejaVuSans-6c" x="231.404297"/>
    <use xlink:href="#DejaVuSans-20" x="259.1875"/>
    <use xlink:href="#DejaVuSans-6d" x="290.974609"/>
    <use xlink:href="#DejaVuSans-6f" x="388.386719"/>
    <use xlink:href="#DejaVuSans-64" x="449.568359"/>
    <use xlink:href="#DejaVuSans-65" x="513.044922"/>
    <use xlink:href="#DejaVuSans-6c" x="574.568359"/>
    <use xlink:href="#DejaVuSans-20" x="602.351562"/>
    <use xlink:href="#DejaVuSans-34" x="634.138672"/>
   </g>
  </g>
 </g>
 <defs>
  <clipPath id="p6698a84bf7">
   <rect x="65.63" y="7.2" width="128.71" height="127.24"/>
  </clipPath>
  <clipPath id="pea6fb62e91">
   <rect x="242.06" y="7.2" width="128.71" height="127.24"/>
  </clipPath>
  <clipPath id="p442bf1cca2">
   <rect x="418.49" y="7.2" width="128.71" height="127.24"/>
  </clipPath>
 </defs>
</svg>
