<?xml version="1.0" encoding="utf-8" standalone="no"?>
<!DOCTYPE svg PUBLIC "-//W3C//DTD SVG 1.1//EN"
  "http://www.w3.org/Graphics/SVG/1.1/DTD/svg11.dtd">
<svg xmlns:xlink="http://www.w3.org/1999/xlink" width="533.405pt" height="172.940625pt" viewBox="0 0 533.405 172.940625" xmlns="http://www.w3.org/2000/svg" version="1.1">
 <metadata>
  <rdf:RDF xmlns:dc="http://purl.org/dc/elements/1.1/" xmlns:cc="http://creativecommons.org/ns#" xmlns:rdf="http://www.w3.org/1999/02/22-rdf-syntax-ns#">
   <cc:Work>
    <dc:type rdf:resource="http://purl.org/dc/dcmitype/StillImage"/>
    <dc:date>2023-12-18T15:47:22.163910</dc:date>
    <dc:format>image/svg+xml</dc:format>
    <dc:creator>
     <cc:Agent>
      <dc:title>Matplotlib v3.8.0, https://matplotlib.org/</dc:title>
     </cc:Agent>
    </dc:creator>
   </cc:Work>
  </rdf:RDF>
 </metadata>
 <defs>
  <style type="text/css">*{stroke-linejoin: round; stroke-linecap: butt}</style>
 </defs>
 <g id="figure_1">
  <g id="patch_1">
   <path d="M 0 172.940625 
L 533.405 172.940625 
L 533.405 0 
L 0 0 
z
" style="fill: #ffffff"/>
  </g>
  <g id="axes_1">
   <g id="patch_2">
    <path d="M 32.305 137.32 
L 173.345 137.32 
L 173.345 7.2 
L 32.305 7.2 
z
" style="fill: #ffffff"/>
   </g>
   <g id="PathCollection_1">
    <defs>
     <path id="m92fc2468d6" d="M 0 3 
C 0.795609 3 1.55874 2.683901 2.12132 2.12132 
C 2.683901 1.55874 3 0.795609 3 0 
C 3 -0.795609 2.683901 -1.55874 2.12132 -2.12132 
C 1.55874 -2.683901 0.795609 -3 0 -3 
C -0.795609 -3 -1.55874 -2.683901 -2.12132 -2.12132 
C -2.683901 -1.55874 -3 -0.795609 -3 0 
C -3 0.795609 -2.683901 1.55874 -2.12132 2.12132 
C -1.55874 2.683901 -0.795609 3 0 3 
z
" style="stroke: #1f77b4; stroke-opacity: 0.5"/>
    </defs>
    <g clip-path="url(#p5265f10c4a)">
     <use xlink:href="#m92fc2468d6" x="54.729221" y="78.831712" style="fill: #1f77b4; fill-opacity: 0.5; stroke: #1f77b4; stroke-opacity: 0.5"/>
     <use xlink:href="#m92fc2468d6" x="62.462975" y="85.40344" style="fill: #1f77b4; fill-opacity: 0.5; stroke: #1f77b4; stroke-opacity: 0.5"/>
     <use xlink:href="#m92fc2468d6" x="85.6642" y="13.114545" style="fill: #1f77b4; fill-opacity: 0.5; stroke: #1f77b4; stroke-opacity: 0.5"/>
     <use xlink:href="#m92fc2468d6" x="70.196711" y="39.401409" style="fill: #1f77b4; fill-opacity: 0.5; stroke: #1f77b4; stroke-opacity: 0.5"/>
     <use xlink:href="#m92fc2468d6" x="74.063579" y="19.686257" style="fill: #1f77b4; fill-opacity: 0.5; stroke: #1f77b4; stroke-opacity: 0.5"/>
     <use xlink:href="#m92fc2468d6" x="66.329843" y="65.688272" style="fill: #1f77b4; fill-opacity: 0.5; stroke: #1f77b4; stroke-opacity: 0.5"/>
     <use xlink:href="#m92fc2468d6" x="39.26175" y="91.975152" style="fill: #1f77b4; fill-opacity: 0.5; stroke: #1f77b4; stroke-opacity: 0.5"/>
     <use xlink:href="#m92fc2468d6" x="58.596107" y="65.688272" style="fill: #1f77b4; fill-opacity: 0.5; stroke: #1f77b4; stroke-opacity: 0.5"/>
     <use xlink:href="#m92fc2468d6" x="97.264822" y="26.257969" style="fill: #1f77b4; fill-opacity: 0.5; stroke: #1f77b4; stroke-opacity: 0.5"/>
    </g>
   </g>
   <g id="PathCollection_2">
    <defs>
     <path id="m69087ca181" d="M 0 3 
C 0.795609 3 1.55874 2.683901 2.12132 2.12132 
C 2.683901 1.55874 3 0.795609 3 0 
C 3 -0.795609 2.683901 -1.55874 2.12132 -2.12132 
C 1.55874 -2.683901 0.795609 -3 0 -3 
C -0.795609 -3 -1.55874 -2.683901 -2.12132 -2.12132 
C -2.683901 -1.55874 -3 -0.795609 -3 0 
C -3 0.795609 -2.683901 1.55874 -2.12132 2.12132 
C -1.55874 2.683901 -0.795609 3 0 3 
z
" style="stroke: #2ca02c; stroke-opacity: 0.5"/>
    </defs>
    <g clip-path="url(#p5265f10c4a)">
     <use xlink:href="#m69087ca181" x="89.531068" y="91.975152" style="fill: #2ca02c; fill-opacity: 0.5; stroke: #2ca02c; stroke-opacity: 0.5"/>
     <use xlink:href="#m69087ca181" x="89.531068" y="91.975152" style="fill: #2ca02c; fill-opacity: 0.5; stroke: #2ca02c; stroke-opacity: 0.5"/>
     <use xlink:href="#m69087ca181" x="139.800405" y="85.40344" style="fill: #2ca02c; fill-opacity: 0.5; stroke: #2ca02c; stroke-opacity: 0.5"/>
     <use xlink:href="#m69087ca181" x="97.264822" y="111.690303" style="fill: #2ca02c; fill-opacity: 0.5; stroke: #2ca02c; stroke-opacity: 0.5"/>
     <use xlink:href="#m69087ca181" x="124.332915" y="105.118591" style="fill: #2ca02c; fill-opacity: 0.5; stroke: #2ca02c; stroke-opacity: 0.5"/>
     <use xlink:href="#m69087ca181" x="93.397936" y="118.262031" style="fill: #2ca02c; fill-opacity: 0.5; stroke: #2ca02c; stroke-opacity: 0.5"/>
     <use xlink:href="#m69087ca181" x="104.998558" y="98.546863" style="fill: #2ca02c; fill-opacity: 0.5; stroke: #2ca02c; stroke-opacity: 0.5"/>
     <use xlink:href="#m69087ca181" x="85.6642" y="131.405455" style="fill: #2ca02c; fill-opacity: 0.5; stroke: #2ca02c; stroke-opacity: 0.5"/>
     <use xlink:href="#m69087ca181" x="108.865426" y="105.118591" style="fill: #2ca02c; fill-opacity: 0.5; stroke: #2ca02c; stroke-opacity: 0.5"/>
     <use xlink:href="#m69087ca181" x="104.998558" y="65.688272" style="fill: #2ca02c; fill-opacity: 0.5; stroke: #2ca02c; stroke-opacity: 0.5"/>
     <use xlink:href="#m69087ca181" x="62.462975" y="131.405455" style="fill: #2ca02c; fill-opacity: 0.5; stroke: #2ca02c; stroke-opacity: 0.5"/>
     <use xlink:href="#m69087ca181" x="93.397936" y="91.975152" style="fill: #2ca02c; fill-opacity: 0.5; stroke: #2ca02c; stroke-opacity: 0.5"/>
     <use xlink:href="#m69087ca181" x="97.264822" y="118.262031" style="fill: #2ca02c; fill-opacity: 0.5; stroke: #2ca02c; stroke-opacity: 0.5"/>
    </g>
   </g>
   <g id="PathCollection_3">
    <defs>
     <path id="m49d8e9b718" d="M 0 3 
C 0.795609 3 1.55874 2.683901 2.12132 2.12132 
C 2.683901 1.55874 3 0.795609 3 0 
C 3 -0.795609 2.683901 -1.55874 2.12132 -2.12132 
C 1.55874 -2.683901 0.795609 -3 0 -3 
C -0.795609 -3 -1.55874 -2.683901 -2.12132 -2.12132 
C -2.683901 -1.55874 -3 -0.795609 -3 0 
C -3 0.795609 -2.683901 1.55874 -2.12132 2.12132 
C -1.55874 2.683901 -0.795609 3 0 3 
z
" style="stroke: #8c564b; stroke-opacity: 0.5"/>
    </defs>
    <g clip-path="url(#p5265f10c4a)">
     <use xlink:href="#m49d8e9b718" x="124.332915" y="91.975152" style="fill: #8c564b; fill-opacity: 0.5; stroke: #8c564b; stroke-opacity: 0.5"/>
     <use xlink:href="#m49d8e9b718" x="139.800405" y="78.831712" style="fill: #8c564b; fill-opacity: 0.5; stroke: #8c564b; stroke-opacity: 0.5"/>
     <use xlink:href="#m49d8e9b718" x="166.868498" y="91.975152" style="fill: #8c564b; fill-opacity: 0.5; stroke: #8c564b; stroke-opacity: 0.5"/>
     <use xlink:href="#m49d8e9b718" x="135.933537" y="91.975152" style="fill: #8c564b; fill-opacity: 0.5; stroke: #8c564b; stroke-opacity: 0.5"/>
     <use xlink:href="#m49d8e9b718" x="132.066651" y="72.26" style="fill: #8c564b; fill-opacity: 0.5; stroke: #8c564b; stroke-opacity: 0.5"/>
     <use xlink:href="#m49d8e9b718" x="139.800405" y="85.40344" style="fill: #8c564b; fill-opacity: 0.5; stroke: #8c564b; stroke-opacity: 0.5"/>
     <use xlink:href="#m49d8e9b718" x="155.267894" y="98.546863" style="fill: #8c564b; fill-opacity: 0.5; stroke: #8c564b; stroke-opacity: 0.5"/>
     <use xlink:href="#m49d8e9b718" x="116.59918" y="124.833743" style="fill: #8c564b; fill-opacity: 0.5; stroke: #8c564b; stroke-opacity: 0.5"/>
    </g>
   </g>
   <g id="PathCollection_4">
    <defs>
     <path id="m09c2697eed" d="M 0 1.581139 
C 0.419323 1.581139 0.821528 1.41454 1.118034 1.118034 
C 1.41454 0.821528 1.581139 0.419323 1.581139 0 
C 1.581139 -0.419323 1.41454 -0.821528 1.118034 -1.118034 
C 0.821528 -1.41454 0.419323 -1.581139 0 -1.581139 
C -0.419323 -1.581139 -0.821528 -1.41454 -1.118034 -1.118034 
C -1.41454 -0.821528 -1.581139 -0.419323 -1.581139 0 
C -1.581139 0.419323 -1.41454 0.821528 -1.118034 1.118034 
C -0.821528 1.41454 -0.419323 1.581139 0 1.581139 
z
" style="stroke: #000000"/>
    </defs>
    <g clip-path="url(#p5265f10c4a)">
     <use xlink:href="#m09c2697eed" x="95.554321" y="106.602056" style="stroke: #000000"/>
    </g>
   </g>
   <g id="patch_3">
    <path d="M 81.547905 110.403782 
C 81.952761 114.711875 83.816894 118.443525 86.72975 120.77688 
C 89.642607 123.110236 93.366364 123.854788 97.080909 122.846559 
C 100.795454 121.838329 104.19751 119.159635 106.537814 115.400428 
C 108.878117 111.64122 109.965593 107.108422 109.560737 102.80033 
C 109.155881 98.492237 107.291748 94.760587 104.378892 92.427232 
C 101.466036 90.093876 97.742278 89.349324 94.027733 90.357553 
C 90.313188 91.365783 86.911132 94.044477 84.570829 97.803684 
C 82.230525 101.562892 81.14305 106.09569 81.547905 110.403782 
L 81.547905 110.403782 
z
" clip-path="url(#p5265f10c4a)" style="fill: none; stroke: #238023; stroke-width: 2; stroke-linejoin: miter"/>
   </g>
   <g id="PathCollection_5">
    <g clip-path="url(#p5265f10c4a)">
     <use xlink:href="#m09c2697eed" x="54.735693" y="74.435905" style="stroke: #000000"/>
    </g>
   </g>
   <g id="patch_4">
    <path d="M 38.715909 75.951667 
C 38.844698 79.883021 40.656175 83.494176 43.751383 85.989817 
C 46.846591 88.485458 50.97282 89.661827 55.221316 89.259842 
C 59.469813 88.857858 63.493705 86.91034 66.406779 83.846206 
C 69.319852 80.782073 70.884266 76.851498 70.755477 72.920144 
C 70.626689 68.988789 68.815212 65.377634 65.720004 62.881993 
C 62.624796 60.386352 58.498566 59.209983 54.25007 59.611968 
C 50.001574 60.013953 45.977681 61.961471 43.064608 65.025604 
C 40.151535 68.089737 38.58712 72.020313 38.715909 75.951667 
L 38.715909 75.951667 
z
" clip-path="url(#p5265f10c4a)" style="fill: none; stroke: #195f90; stroke-width: 2; stroke-linejoin: miter"/>
   </g>
   <g id="PathCollection_6">
    <g clip-path="url(#p5265f10c4a)">
     <use xlink:href="#m09c2697eed" x="58.596107" y="82.117568" style="stroke: #000000"/>
    </g>
   </g>
   <g id="patch_5">
    <path d="M 40.934205 81.37857 
C 40.917246 82.549292 42.761948 83.750088 46.062037 84.716495 
C 49.362127 85.682903 53.848166 86.336019 58.532157 86.532004 
C 63.216148 86.727988 67.715664 86.450839 71.039739 85.761596 
C 74.363813 85.072352 76.24105 84.027288 76.25801 82.856566 
C 76.274969 81.685844 74.430267 80.485048 71.130178 79.518641 
C 67.830088 78.552233 63.344049 77.899117 58.660058 77.703132 
C 53.976067 77.507148 49.476551 77.784297 46.152476 78.47354 
C 42.828402 79.162784 40.951165 80.207848 40.934205 81.37857 
L 40.934205 81.37857 
z
" clip-path="url(#p5265f10c4a)" style="fill: none; stroke: #195f90; stroke-width: 2; stroke-linejoin: miter"/>
   </g>
   <g id="PathCollection_7">
    <g clip-path="url(#p5265f10c4a)">
     <use xlink:href="#m09c2697eed" x="132.066651" y="95.261023" style="stroke: #000000"/>
    </g>
   </g>
   <g id="patch_6">
    <path d="M 114.065536 101.494197 
C 114.613306 106.063256 117.035425 109.789028 120.798451 111.850953 
C 124.561476 113.912879 129.358173 114.142611 134.132125 112.489554 
C 138.906076 110.836497 143.26751 107.435616 146.255872 103.035915 
C 149.244234 98.636214 150.615536 93.596909 150.067766 89.02785 
C 149.519996 84.45879 147.097876 80.733018 143.334851 78.671093 
C 139.571826 76.609167 134.775129 76.379435 130.001177 78.032492 
C 125.227226 79.685549 120.865791 83.08643 117.87743 87.486131 
C 114.889068 91.885832 113.517766 96.925137 114.065536 101.494197 
L 114.065536 101.494197 
z
" clip-path="url(#p5265f10c4a)" style="fill: none; stroke: #238023; stroke-width: 2; stroke-linejoin: miter"/>
   </g>
   <g id="PathCollection_8">
    <g clip-path="url(#p5265f10c4a)">
     <use xlink:href="#m09c2697eed" x="134.982175" y="87.047723" style="stroke: #000000"/>
    </g>
   </g>
   <g id="patch_7">
    <path d="M 120.971362 86.91001 
C 120.961981 89.666773 122.42925 92.325508 125.05002 94.300659 
C 127.670791 96.27581 131.231089 97.406115 134.9468 97.442637 
C 138.662511 97.479159 142.230264 96.418916 144.864302 94.495415 
C 147.49834 92.571914 148.983606 89.942199 148.992988 87.185436 
C 149.002369 84.428672 147.5351 81.769937 144.914329 79.794786 
C 142.293559 77.819635 138.733261 76.689331 135.01755 76.652809 
C 131.301839 76.616287 127.734086 77.67653 125.100048 79.600031 
C 122.46601 81.523532 120.980744 84.153247 120.971362 86.91001 
L 120.971362 86.91001 
z
" clip-path="url(#p5265f10c4a)" style="fill: none; stroke: #70453c; stroke-width: 2; stroke-linejoin: miter"/>
   </g>
   <g id="PathCollection_9">
    <g clip-path="url(#p5265f10c4a)">
     <use xlink:href="#m09c2697eed" x="81.832938" y="24.613686" style="stroke: #000000"/>
    </g>
   </g>
   <g id="patch_8">
    <path d="M 65.426418 23.704635 
C 65.373731 26.451079 67.051889 29.18119 70.091298 31.293691 
C 73.130706 33.406192 77.283211 34.728607 81.634271 34.969691 
C 85.985331 35.210774 90.179701 34.350842 93.29362 32.579284 
C 96.407539 30.807726 98.18677 28.269182 98.239457 25.522738 
C 98.292144 22.776293 96.613986 20.046183 93.574578 17.933681 
C 90.535169 15.82118 86.382665 14.498765 82.031605 14.257681 
C 77.680545 14.016598 73.486175 14.876531 70.372255 16.648088 
C 67.258336 18.419646 65.479105 20.95819 65.426418 23.704635 
L 65.426418 23.704635 
z
" clip-path="url(#p5265f10c4a)" style="fill: none; stroke: #195f90; stroke-width: 2; stroke-linejoin: miter"/>
   </g>
   <g id="PathCollection_10">
    <g clip-path="url(#p5265f10c4a)">
     <use xlink:href="#m09c2697eed" x="151.40748" y="87.612311" style="stroke: #000000"/>
    </g>
   </g>
   <g id="patch_9">
    <path d="M 135.88087 85.519497 
C 135.68965 89.616977 137.142218 93.767698 139.918663 97.057512 
C 142.695108 100.347327 146.568744 102.507636 150.68645 103.062657 
C 154.804155 103.617677 158.829736 102.522094 161.876606 100.017198 
C 164.923476 97.512301 166.742871 93.802604 166.934091 89.705124 
C 167.12531 85.607644 165.672742 81.456923 162.896298 78.167109 
C 160.119853 74.877294 156.246216 72.716985 152.128511 72.161965 
C 148.010805 71.606944 143.985224 72.702527 140.938354 75.207424 
C 137.891484 77.712321 136.072089 81.422018 135.88087 85.519497 
L 135.88087 85.519497 
z
" clip-path="url(#p5265f10c4a)" style="fill: none; stroke: #70453c; stroke-width: 2; stroke-linejoin: miter"/>
   </g>
   <g id="matplotlib.axis_1">
    <g id="xtick_1">
     <g id="line2d_1">
      <defs>
       <path id="m2c7b5566ff" d="M 0 0 
L 0 3.5 
" style="stroke: #000000; stroke-width: 0.8"/>
      </defs>
      <g>
       <use xlink:href="#m2c7b5566ff" x="66.329843" y="137.32" style="stroke: #000000; stroke-width: 0.8"/>
      </g>
     </g>
     <g id="text_1">
      <!-- 5 -->
      <g transform="translate(63.148593 151.918437) scale(0.1 -0.1)">
       <defs>
        <path id="DejaVuSans-35" d="M 691 4666 
L 3169 4666 
L 3169 4134 
L 1269 4134 
L 1269 2991 
Q 1406 3038 1543 3061 
Q 1681 3084 1819 3084 
Q 2600 3084 3056 2656 
Q 3513 2228 3513 1497 
Q 3513 744 3044 326 
Q 2575 -91 1722 -91 
Q 1428 -91 1123 -41 
Q 819 9 494 109 
L 494 744 
Q 775 591 1075 516 
Q 1375 441 1709 441 
Q 2250 441 2565 725 
Q 2881 1009 2881 1497 
Q 2881 1984 2565 2268 
Q 2250 2553 1709 2553 
Q 1456 2553 1204 2497 
Q 953 2441 691 2322 
L 691 4666 
z
" transform="scale(0.015625)"/>
       </defs>
       <use xlink:href="#DejaVuSans-35"/>
      </g>
     </g>
    </g>
    <g id="xtick_2">
     <g id="line2d_2">
      <g>
       <use xlink:href="#m2c7b5566ff" x="104.998558" y="137.32" style="stroke: #000000; stroke-width: 0.8"/>
      </g>
     </g>
     <g id="text_2">
      <!-- 6 -->
      <g transform="translate(101.817308 151.918437) scale(0.1 -0.1)">
       <defs>
        <path id="DejaVuSans-36" d="M 2113 2584 
Q 1688 2584 1439 2293 
Q 1191 2003 1191 1497 
Q 1191 994 1439 701 
Q 1688 409 2113 409 
Q 2538 409 2786 701 
Q 3034 994 3034 1497 
Q 3034 2003 2786 2293 
Q 2538 2584 2113 2584 
z
M 3366 4563 
L 3366 3988 
Q 3128 4100 2886 4159 
Q 2644 4219 2406 4219 
Q 1781 4219 1451 3797 
Q 1122 3375 1075 2522 
Q 1259 2794 1537 2939 
Q 1816 3084 2150 3084 
Q 2853 3084 3261 2657 
Q 3669 2231 3669 1497 
Q 3669 778 3244 343 
Q 2819 -91 2113 -91 
Q 1303 -91 875 529 
Q 447 1150 447 2328 
Q 447 3434 972 4092 
Q 1497 4750 2381 4750 
Q 2619 4750 2861 4703 
Q 3103 4656 3366 4563 
z
" transform="scale(0.015625)"/>
       </defs>
       <use xlink:href="#DejaVuSans-36"/>
      </g>
     </g>
    </g>
    <g id="xtick_3">
     <g id="line2d_3">
      <g>
       <use xlink:href="#m2c7b5566ff" x="143.667273" y="137.32" style="stroke: #000000; stroke-width: 0.8"/>
      </g>
     </g>
     <g id="text_3">
      <!-- 7 -->
      <g transform="translate(140.486023 151.918437) scale(0.1 -0.1)">
       <defs>
        <path id="DejaVuSans-37" d="M 525 4666 
L 3525 4666 
L 3525 4397 
L 1831 0 
L 1172 0 
L 2766 4134 
L 525 4134 
L 525 4666 
z
" transform="scale(0.015625)"/>
       </defs>
       <use xlink:href="#DejaVuSans-37"/>
      </g>
     </g>
    </g>
    <g id="text_4">
     <!-- Feature 1 -->
     <g transform="translate(83.896875 164.076875) scale(0.08 -0.08)">
      <defs>
       <path id="DejaVuSans-46" d="M 628 4666 
L 3309 4666 
L 3309 4134 
L 1259 4134 
L 1259 2759 
L 3109 2759 
L 3109 2228 
L 1259 2228 
L 1259 0 
L 628 0 
L 628 4666 
z
" transform="scale(0.015625)"/>
       <path id="DejaVuSans-65" d="M 3597 1894 
L 3597 1613 
L 953 1613 
Q 991 1019 1311 708 
Q 1631 397 2203 397 
Q 2534 397 2845 478 
Q 3156 559 3463 722 
L 3463 178 
Q 3153 47 2828 -22 
Q 2503 -91 2169 -91 
Q 1331 -91 842 396 
Q 353 884 353 1716 
Q 353 2575 817 3079 
Q 1281 3584 2069 3584 
Q 2775 3584 3186 3129 
Q 3597 2675 3597 1894 
z
M 3022 2063 
Q 3016 2534 2758 2815 
Q 2500 3097 2075 3097 
Q 1594 3097 1305 2825 
Q 1016 2553 972 2059 
L 3022 2063 
z
" transform="scale(0.015625)"/>
       <path id="DejaVuSans-61" d="M 2194 1759 
Q 1497 1759 1228 1600 
Q 959 1441 959 1056 
Q 959 750 1161 570 
Q 1363 391 1709 391 
Q 2188 391 2477 730 
Q 2766 1069 2766 1631 
L 2766 1759 
L 2194 1759 
z
M 3341 1997 
L 3341 0 
L 2766 0 
L 2766 531 
Q 2569 213 2275 61 
Q 1981 -91 1556 -91 
Q 1019 -91 701 211 
Q 384 513 384 1019 
Q 384 1609 779 1909 
Q 1175 2209 1959 2209 
L 2766 2209 
L 2766 2266 
Q 2766 2663 2505 2880 
Q 2244 3097 1772 3097 
Q 1472 3097 1187 3025 
Q 903 2953 641 2809 
L 641 3341 
Q 956 3463 1253 3523 
Q 1550 3584 1831 3584 
Q 2591 3584 2966 3190 
Q 3341 2797 3341 1997 
z
" transform="scale(0.015625)"/>
       <path id="DejaVuSans-74" d="M 1172 4494 
L 1172 3500 
L 2356 3500 
L 2356 3053 
L 1172 3053 
L 1172 1153 
Q 1172 725 1289 603 
Q 1406 481 1766 481 
L 2356 481 
L 2356 0 
L 1766 0 
Q 1100 0 847 248 
Q 594 497 594 1153 
L 594 3053 
L 172 3053 
L 172 3500 
L 594 3500 
L 594 4494 
L 1172 4494 
z
" transform="scale(0.015625)"/>
       <path id="DejaVuSans-75" d="M 544 1381 
L 544 3500 
L 1119 3500 
L 1119 1403 
Q 1119 906 1312 657 
Q 1506 409 1894 409 
Q 2359 409 2629 706 
Q 2900 1003 2900 1516 
L 2900 3500 
L 3475 3500 
L 3475 0 
L 2900 0 
L 2900 538 
Q 2691 219 2414 64 
Q 2138 -91 1772 -91 
Q 1169 -91 856 284 
Q 544 659 544 1381 
z
M 1991 3584 
L 1991 3584 
z
" transform="scale(0.015625)"/>
       <path id="DejaVuSans-72" d="M 2631 2963 
Q 2534 3019 2420 3045 
Q 2306 3072 2169 3072 
Q 1681 3072 1420 2755 
Q 1159 2438 1159 1844 
L 1159 0 
L 581 0 
L 581 3500 
L 1159 3500 
L 1159 2956 
Q 1341 3275 1631 3429 
Q 1922 3584 2338 3584 
Q 2397 3584 2469 3576 
Q 2541 3569 2628 3553 
L 2631 2963 
z
" transform="scale(0.015625)"/>
       <path id="DejaVuSans-20" transform="scale(0.015625)"/>
       <path id="DejaVuSans-31" d="M 794 531 
L 1825 531 
L 1825 4091 
L 703 3866 
L 703 4441 
L 1819 4666 
L 2450 4666 
L 2450 531 
L 3481 531 
L 3481 0 
L 794 0 
L 794 531 
z
" transform="scale(0.015625)"/>
      </defs>
      <use xlink:href="#DejaVuSans-46"/>
      <use xlink:href="#DejaVuSans-65" x="52.019531"/>
      <use xlink:href="#DejaVuSans-61" x="113.542969"/>
      <use xlink:href="#DejaVuSans-74" x="174.822266"/>
      <use xlink:href="#DejaVuSans-75" x="214.03125"/>
      <use xlink:href="#DejaVuSans-72" x="277.410156"/>
      <use xlink:href="#DejaVuSans-65" x="316.273438"/>
      <use xlink:href="#DejaVuSans-20" x="377.796875"/>
      <use xlink:href="#DejaVuSans-31" x="409.583984"/>
     </g>
    </g>
   </g>
   <g id="matplotlib.axis_2">
    <g id="ytick_1">
     <g id="line2d_4">
      <defs>
       <path id="mec77f428bf" d="M 0 0 
L -3.5 0 
" style="stroke: #000000; stroke-width: 0.8"/>
      </defs>
      <g>
       <use xlink:href="#mec77f428bf" x="32.305" y="124.833743" style="stroke: #000000; stroke-width: 0.8"/>
      </g>
     </g>
     <g id="text_5">
      <!-- 2 -->
      <g transform="translate(18.9425 128.632961) scale(0.1 -0.1)">
       <defs>
        <path id="DejaVuSans-32" d="M 1228 531 
L 3431 531 
L 3431 0 
L 469 0 
L 469 531 
Q 828 903 1448 1529 
Q 2069 2156 2228 2338 
Q 2531 2678 2651 2914 
Q 2772 3150 2772 3378 
Q 2772 3750 2511 3984 
Q 2250 4219 1831 4219 
Q 1534 4219 1204 4116 
Q 875 4013 500 3803 
L 500 4441 
Q 881 4594 1212 4672 
Q 1544 4750 1819 4750 
Q 2544 4750 2975 4387 
Q 3406 4025 3406 3419 
Q 3406 3131 3298 2873 
Q 3191 2616 2906 2266 
Q 2828 2175 2409 1742 
Q 1991 1309 1228 531 
z
" transform="scale(0.015625)"/>
       </defs>
       <use xlink:href="#DejaVuSans-32"/>
      </g>
     </g>
    </g>
    <g id="ytick_2">
     <g id="line2d_5">
      <g>
       <use xlink:href="#mec77f428bf" x="32.305" y="91.975152" style="stroke: #000000; stroke-width: 0.8"/>
      </g>
     </g>
     <g id="text_6">
      <!-- 3 -->
      <g transform="translate(18.9425 95.77437) scale(0.1 -0.1)">
       <defs>
        <path id="DejaVuSans-33" d="M 2597 2516 
Q 3050 2419 3304 2112 
Q 3559 1806 3559 1356 
Q 3559 666 3084 287 
Q 2609 -91 1734 -91 
Q 1441 -91 1130 -33 
Q 819 25 488 141 
L 488 750 
Q 750 597 1062 519 
Q 1375 441 1716 441 
Q 2309 441 2620 675 
Q 2931 909 2931 1356 
Q 2931 1769 2642 2001 
Q 2353 2234 1838 2234 
L 1294 2234 
L 1294 2753 
L 1863 2753 
Q 2328 2753 2575 2939 
Q 2822 3125 2822 3475 
Q 2822 3834 2567 4026 
Q 2313 4219 1838 4219 
Q 1578 4219 1281 4162 
Q 984 4106 628 3988 
L 628 4550 
Q 988 4650 1302 4700 
Q 1616 4750 1894 4750 
Q 2613 4750 3031 4423 
Q 3450 4097 3450 3541 
Q 3450 3153 3228 2886 
Q 3006 2619 2597 2516 
z
" transform="scale(0.015625)"/>
       </defs>
       <use xlink:href="#DejaVuSans-33"/>
      </g>
     </g>
    </g>
    <g id="ytick_3">
     <g id="line2d_6">
      <g>
       <use xlink:href="#mec77f428bf" x="32.305" y="59.11656" style="stroke: #000000; stroke-width: 0.8"/>
      </g>
     </g>
     <g id="text_7">
      <!-- 3 -->
      <g transform="translate(18.9425 62.915779) scale(0.1 -0.1)">
       <use xlink:href="#DejaVuSans-33"/>
      </g>
     </g>
    </g>
    <g id="ytick_4">
     <g id="line2d_7">
      <g>
       <use xlink:href="#mec77f428bf" x="32.305" y="26.257969" style="stroke: #000000; stroke-width: 0.8"/>
      </g>
     </g>
     <g id="text_8">
      <!-- 4 -->
      <g transform="translate(18.9425 30.057188) scale(0.1 -0.1)">
       <defs>
        <path id="DejaVuSans-34" d="M 2419 4116 
L 825 1625 
L 2419 1625 
L 2419 4116 
z
M 2253 4666 
L 3047 4666 
L 3047 1625 
L 3713 1625 
L 3713 1100 
L 3047 1100 
L 3047 0 
L 2419 0 
L 2419 1100 
L 313 1100 
L 313 1709 
L 2253 4666 
z
" transform="scale(0.015625)"/>
       </defs>
       <use xlink:href="#DejaVuSans-34"/>
      </g>
     </g>
    </g>
    <g id="text_9">
     <!-- Feature 2 -->
     <g transform="translate(13.27875 91.188125) rotate(-90) scale(0.08 -0.08)">
      <use xlink:href="#DejaVuSans-46"/>
      <use xlink:href="#DejaVuSans-65" x="52.019531"/>
      <use xlink:href="#DejaVuSans-61" x="113.542969"/>
      <use xlink:href="#DejaVuSans-74" x="174.822266"/>
      <use xlink:href="#DejaVuSans-75" x="214.03125"/>
      <use xlink:href="#DejaVuSans-72" x="277.410156"/>
      <use xlink:href="#DejaVuSans-65" x="316.273438"/>
      <use xlink:href="#DejaVuSans-20" x="377.796875"/>
      <use xlink:href="#DejaVuSans-32" x="409.583984"/>
     </g>
    </g>
   </g>
   <g id="patch_10">
    <path d="M 32.305 137.32 
L 32.305 7.2 
" style="fill: none; stroke: #000000; stroke-width: 0.8; stroke-linejoin: miter; stroke-linecap: square"/>
   </g>
   <g id="patch_11">
    <path d="M 173.345 137.32 
L 173.345 7.2 
" style="fill: none; stroke: #000000; stroke-width: 0.8; stroke-linejoin: miter; stroke-linecap: square"/>
   </g>
   <g id="patch_12">
    <path d="M 32.305 137.32 
L 173.345 137.32 
" style="fill: none; stroke: #000000; stroke-width: 0.8; stroke-linejoin: miter; stroke-linecap: square"/>
   </g>
   <g id="patch_13">
    <path d="M 32.305 7.2 
L 173.345 7.2 
" style="fill: none; stroke: #000000; stroke-width: 0.8; stroke-linejoin: miter; stroke-linecap: square"/>
   </g>
  </g>
  <g id="axes_2">
   <g id="patch_14">
    <path d="M 208.735 137.32 
L 349.775 137.32 
L 349.775 7.2 
L 208.735 7.2 
z
" style="fill: #ffffff"/>
   </g>
   <g id="PathCollection_11">
    <g clip-path="url(#p6eac495577)">
     <use xlink:href="#m92fc2468d6" x="231.155657" y="116.893409" style="fill: #1f77b4; fill-opacity: 0.5; stroke: #1f77b4; stroke-opacity: 0.5"/>
     <use xlink:href="#m92fc2468d6" x="238.888747" y="113.247148" style="fill: #1f77b4; fill-opacity: 0.5; stroke: #1f77b4; stroke-opacity: 0.5"/>
     <use xlink:href="#m92fc2468d6" x="262.08798" y="115.070278" style="fill: #1f77b4; fill-opacity: 0.5; stroke: #1f77b4; stroke-opacity: 0.5"/>
     <use xlink:href="#m92fc2468d6" x="246.621819" y="113.247148" style="fill: #1f77b4; fill-opacity: 0.5; stroke: #1f77b4; stroke-opacity: 0.5"/>
     <use xlink:href="#m92fc2468d6" x="250.488355" y="113.247148" style="fill: #1f77b4; fill-opacity: 0.5; stroke: #1f77b4; stroke-opacity: 0.5"/>
     <use xlink:href="#m92fc2468d6" x="242.755283" y="113.247148" style="fill: #1f77b4; fill-opacity: 0.5; stroke: #1f77b4; stroke-opacity: 0.5"/>
     <use xlink:href="#m92fc2468d6" x="215.689514" y="120.539667" style="fill: #1f77b4; fill-opacity: 0.5; stroke: #1f77b4; stroke-opacity: 0.5"/>
     <use xlink:href="#m92fc2468d6" x="235.022211" y="111.424018" style="fill: #1f77b4; fill-opacity: 0.5; stroke: #1f77b4; stroke-opacity: 0.5"/>
     <use xlink:href="#m92fc2468d6" x="273.687606" y="118.716537" style="fill: #1f77b4; fill-opacity: 0.5; stroke: #1f77b4; stroke-opacity: 0.5"/>
    </g>
   </g>
   <g id="PathCollection_12">
    <g clip-path="url(#p6eac495577)">
     <use xlink:href="#m69087ca181" x="265.954516" y="58.553254" style="fill: #2ca02c; fill-opacity: 0.5; stroke: #2ca02c; stroke-opacity: 0.5"/>
     <use xlink:href="#m69087ca181" x="265.954516" y="65.845775" style="fill: #2ca02c; fill-opacity: 0.5; stroke: #2ca02c; stroke-opacity: 0.5"/>
     <use xlink:href="#m69087ca181" x="316.219537" y="51.260733" style="fill: #2ca02c; fill-opacity: 0.5; stroke: #2ca02c; stroke-opacity: 0.5"/>
     <use xlink:href="#m69087ca181" x="273.687606" y="69.492031" style="fill: #2ca02c; fill-opacity: 0.5; stroke: #2ca02c; stroke-opacity: 0.5"/>
     <use xlink:href="#m69087ca181" x="300.753375" y="56.730126" style="fill: #2ca02c; fill-opacity: 0.5; stroke: #2ca02c; stroke-opacity: 0.5"/>
     <use xlink:href="#m69087ca181" x="269.821052" y="76.784552" style="fill: #2ca02c; fill-opacity: 0.5; stroke: #2ca02c; stroke-opacity: 0.5"/>
     <use xlink:href="#m69087ca181" x="281.420678" y="58.553254" style="fill: #2ca02c; fill-opacity: 0.5; stroke: #2ca02c; stroke-opacity: 0.5"/>
     <use xlink:href="#m69087ca181" x="262.08798" y="73.138291" style="fill: #2ca02c; fill-opacity: 0.5; stroke: #2ca02c; stroke-opacity: 0.5"/>
     <use xlink:href="#m69087ca181" x="285.287214" y="67.668903" style="fill: #2ca02c; fill-opacity: 0.5; stroke: #2ca02c; stroke-opacity: 0.5"/>
     <use xlink:href="#m69087ca181" x="281.420678" y="58.553254" style="fill: #2ca02c; fill-opacity: 0.5; stroke: #2ca02c; stroke-opacity: 0.5"/>
     <use xlink:href="#m69087ca181" x="238.888747" y="80.430812" style="fill: #2ca02c; fill-opacity: 0.5; stroke: #2ca02c; stroke-opacity: 0.5"/>
     <use xlink:href="#m69087ca181" x="269.821052" y="64.022647" style="fill: #2ca02c; fill-opacity: 0.5; stroke: #2ca02c; stroke-opacity: 0.5"/>
     <use xlink:href="#m69087ca181" x="273.687606" y="67.668903" style="fill: #2ca02c; fill-opacity: 0.5; stroke: #2ca02c; stroke-opacity: 0.5"/>
    </g>
   </g>
   <g id="PathCollection_13">
    <g clip-path="url(#p6eac495577)">
     <use xlink:href="#m49d8e9b718" x="300.753375" y="40.321956" style="fill: #8c564b; fill-opacity: 0.5; stroke: #8c564b; stroke-opacity: 0.5"/>
     <use xlink:href="#m49d8e9b718" x="316.219537" y="36.6757" style="fill: #8c564b; fill-opacity: 0.5; stroke: #8c564b; stroke-opacity: 0.5"/>
     <use xlink:href="#m49d8e9b718" x="343.285306" y="20.26753" style="fill: #8c564b; fill-opacity: 0.5; stroke: #8c564b; stroke-opacity: 0.5"/>
     <use xlink:href="#m49d8e9b718" x="312.353001" y="40.321956" style="fill: #8c564b; fill-opacity: 0.5; stroke: #8c564b; stroke-opacity: 0.5"/>
     <use xlink:href="#m49d8e9b718" x="308.486447" y="36.6757" style="fill: #8c564b; fill-opacity: 0.5; stroke: #8c564b; stroke-opacity: 0.5"/>
     <use xlink:href="#m49d8e9b718" x="316.219537" y="47.614477" style="fill: #8c564b; fill-opacity: 0.5; stroke: #8c564b; stroke-opacity: 0.5"/>
     <use xlink:href="#m49d8e9b718" x="331.685698" y="25.736914" style="fill: #8c564b; fill-opacity: 0.5; stroke: #8c564b; stroke-opacity: 0.5"/>
     <use xlink:href="#m49d8e9b718" x="293.020304" y="49.437605" style="fill: #8c564b; fill-opacity: 0.5; stroke: #8c564b; stroke-opacity: 0.5"/>
    </g>
   </g>
   <g id="PathCollection_14">
    <g clip-path="url(#p6eac495577)">
     <use xlink:href="#m09c2697eed" x="271.977252" y="66.856065" style="stroke: #000000"/>
    </g>
   </g>
   <g id="patch_15">
    <path d="M 272.931686 52.579268 
C 269.204048 52.523865 265.528017 53.975016 262.713197 56.613123 
C 259.898377 59.25123 258.174585 62.860904 257.921466 66.647154 
C 257.668347 70.433405 258.906567 74.087103 261.363423 76.803563 
C 263.820279 79.520022 267.29518 81.077458 271.022818 81.132862 
C 274.750456 81.188265 278.426487 79.737114 281.241307 77.099007 
C 284.056127 74.4609 285.77992 70.851226 286.033039 67.064976 
C 286.286158 63.278725 285.047937 59.625027 282.591081 56.908568 
C 280.134225 54.192108 276.659325 52.634672 272.931686 52.579268 
L 272.931686 52.579268 
z
" clip-path="url(#p6eac495577)" style="fill: none; stroke: #238023; stroke-width: 2; stroke-linejoin: miter"/>
   </g>
   <g id="PathCollection_15">
    <g clip-path="url(#p6eac495577)">
     <use xlink:href="#m09c2697eed" x="231.162129" y="115.06418" style="stroke: #000000"/>
    </g>
   </g>
   <g id="patch_16">
    <path d="M 231.715257 98.722906 
C 227.467706 98.690941 223.335271 100.382101 220.228072 103.423927 
C 217.120873 106.465754 215.2926 110.609895 215.145909 114.943651 
C 214.999218 119.277408 216.546085 123.446948 219.44583 126.533979 
C 222.345576 129.621011 226.361449 131.37349 230.609 131.405455 
C 234.856551 131.437419 238.988987 129.746259 242.096185 126.704433 
C 245.203384 123.662606 247.031657 119.518465 247.178348 115.184709 
C 247.32504 110.850952 245.778173 106.681412 242.878427 103.594381 
C 239.978681 100.50735 235.962808 98.75487 231.715257 98.722906 
L 231.715257 98.722906 
z
" clip-path="url(#p6eac495577)" style="fill: none; stroke: #195f90; stroke-width: 2; stroke-linejoin: miter"/>
   </g>
   <g id="PathCollection_16">
    <g clip-path="url(#p6eac495577)">
     <use xlink:href="#m09c2697eed" x="235.022211" y="115.070278" style="stroke: #000000"/>
    </g>
   </g>
   <g id="patch_17">
    <path d="M 235.669829 99.642175 
C 230.98936 99.598494 226.431723 101.182199 223.000685 104.044497 
C 219.569648 106.906795 217.545338 110.813992 217.373588 114.905573 
C 217.201838 118.997154 218.896669 122.93906 222.084815 125.863131 
C 225.272961 128.787202 229.694124 130.454702 234.374594 130.498382 
C 239.055063 130.542063 243.6127 128.958357 247.043738 126.096059 
C 250.474775 123.233761 252.499085 119.326565 252.670835 115.234984 
C 252.842585 111.143403 251.147754 107.201497 247.959608 104.277426 
C 244.771462 101.353355 240.350299 99.685855 235.669829 99.642175 
L 235.669829 99.642175 
z
" clip-path="url(#p6eac495577)" style="fill: none; stroke: #195f90; stroke-width: 2; stroke-linejoin: miter"/>
   </g>
   <g id="PathCollection_17">
    <g clip-path="url(#p6eac495577)">
     <use xlink:href="#m09c2697eed" x="308.486447" y="53.995429" style="stroke: #000000"/>
    </g>
   </g>
   <g id="patch_18">
    <path d="M 309.985534 35.828011 
C 305.197147 35.740167 300.446283 37.570143 296.779263 40.914907 
C 293.112244 44.259672 290.828465 48.84614 290.430902 53.664196 
C 290.03334 58.482251 291.554453 63.138521 294.659234 66.607516 
C 297.764016 70.076511 302.198973 72.075003 306.98736 72.162847 
C 311.775746 72.250692 316.526611 70.420716 320.19363 67.075951 
C 323.86065 63.731187 326.144429 59.144719 326.541992 54.326663 
C 326.939554 49.508607 325.418441 44.852337 322.31366 41.383342 
C 319.208878 37.914347 314.77392 35.915855 309.985534 35.828011 
L 309.985534 35.828011 
z
" clip-path="url(#p6eac495577)" style="fill: none; stroke: #238023; stroke-width: 2; stroke-linejoin: miter"/>
   </g>
   <g id="PathCollection_18">
    <g clip-path="url(#p6eac495577)">
     <use xlink:href="#m09c2697eed" x="311.401721" y="41.251059" style="stroke: #000000"/>
    </g>
   </g>
   <g id="patch_19">
    <path d="M 310.285222 27.684506 
C 306.581635 27.75227 303.146881 29.246726 300.737424 31.838736 
C 298.327967 34.430747 297.140528 37.908686 297.436627 41.506578 
C 297.732726 45.104469 299.488188 48.528562 302.316392 51.024739 
C 305.144597 53.520916 308.814634 54.885376 312.51822 54.817611 
C 316.221806 54.749847 319.65656 53.255391 322.066017 50.663381 
C 324.475474 48.071371 325.662913 44.593432 325.366814 40.99554 
C 325.070715 37.397648 323.315254 33.973555 320.487049 31.477378 
C 317.658845 28.981201 313.988808 27.616741 310.285222 27.684506 
L 310.285222 27.684506 
z
" clip-path="url(#p6eac495577)" style="fill: none; stroke: #70453c; stroke-width: 2; stroke-linejoin: miter"/>
   </g>
   <g id="PathCollection_19">
    <g clip-path="url(#p6eac495577)">
     <use xlink:href="#m09c2697eed" x="258.257047" y="115.07867" style="stroke: #000000"/>
    </g>
   </g>
   <g id="patch_20">
    <path d="M 256.01163 101.884933 
C 251.701567 102.048014 247.804045 103.594613 245.177447 106.184109 
C 242.550849 108.773605 241.409625 112.194578 242.005117 115.693598 
C 242.600608 119.192618 244.884196 122.484005 248.352947 124.84287 
C 251.821697 127.201735 256.192402 128.435487 260.502464 128.272406 
C 264.812526 128.109325 268.710048 126.562727 271.336646 123.97323 
C 273.963244 121.383734 275.104468 117.962761 274.508977 114.463741 
C 273.913485 110.964722 271.629897 107.673334 268.161147 105.314469 
C 264.692396 102.955604 260.321692 101.721852 256.01163 101.884933 
L 256.01163 101.884933 
z
" clip-path="url(#p6eac495577)" style="fill: none; stroke: #195f90; stroke-width: 2; stroke-linejoin: miter"/>
   </g>
   <g id="PathCollection_20">
    <g clip-path="url(#p6eac495577)">
     <use xlink:href="#m09c2697eed" x="327.825616" y="27.556999" style="stroke: #000000"/>
    </g>
   </g>
   <g id="patch_21">
    <path d="M 328.156992 13.114545 
C 324.03614 13.093524 320.048597 14.595109 317.072573 17.288594 
C 314.096549 19.982078 312.375023 23.647551 312.28714 27.477735 
C 312.199258 31.307918 313.752196 34.990095 316.603936 37.713308 
C 319.455676 40.436521 323.373388 41.978432 327.494239 41.999453 
C 331.615091 42.020474 335.602634 40.518889 338.578658 37.825405 
C 341.554683 35.13192 343.276209 31.466447 343.364091 27.636264 
C 343.451973 23.80608 341.899036 20.123904 339.047295 17.400691 
C 336.195555 14.677478 332.277844 13.135567 328.156992 13.114545 
L 328.156992 13.114545 
z
" clip-path="url(#p6eac495577)" style="fill: none; stroke: #70453c; stroke-width: 2; stroke-linejoin: miter"/>
   </g>
   <g id="matplotlib.axis_3">
    <g id="xtick_4">
     <g id="line2d_8">
      <g>
       <use xlink:href="#m2c7b5566ff" x="242.755283" y="137.32" style="stroke: #000000; stroke-width: 0.8"/>
      </g>
     </g>
     <g id="text_10">
      <!-- 5 -->
      <g transform="translate(239.574033 151.918437) scale(0.1 -0.1)">
       <use xlink:href="#DejaVuSans-35"/>
      </g>
     </g>
    </g>
    <g id="xtick_5">
     <g id="line2d_9">
      <g>
       <use xlink:href="#m2c7b5566ff" x="281.420678" y="137.32" style="stroke: #000000; stroke-width: 0.8"/>
      </g>
     </g>
     <g id="text_11">
      <!-- 6 -->
      <g transform="translate(278.239428 151.918437) scale(0.1 -0.1)">
       <use xlink:href="#DejaVuSans-36"/>
      </g>
     </g>
    </g>
    <g id="xtick_6">
     <g id="line2d_10">
      <g>
       <use xlink:href="#m2c7b5566ff" x="320.086073" y="137.32" style="stroke: #000000; stroke-width: 0.8"/>
      </g>
     </g>
     <g id="text_12">
      <!-- 7 -->
      <g transform="translate(316.904823 151.918437) scale(0.1 -0.1)">
       <use xlink:href="#DejaVuSans-37"/>
      </g>
     </g>
    </g>
    <g id="text_13">
     <!-- Feature 1 -->
     <g transform="translate(260.326875 164.076875) scale(0.08 -0.08)">
      <use xlink:href="#DejaVuSans-46"/>
      <use xlink:href="#DejaVuSans-65" x="52.019531"/>
      <use xlink:href="#DejaVuSans-61" x="113.542969"/>
      <use xlink:href="#DejaVuSans-74" x="174.822266"/>
      <use xlink:href="#DejaVuSans-75" x="214.03125"/>
      <use xlink:href="#DejaVuSans-72" x="277.410156"/>
      <use xlink:href="#DejaVuSans-65" x="316.273438"/>
      <use xlink:href="#DejaVuSans-20" x="377.796875"/>
      <use xlink:href="#DejaVuSans-31" x="409.583984"/>
     </g>
    </g>
   </g>
   <g id="matplotlib.axis_4">
    <g id="ytick_5">
     <g id="line2d_11">
      <g>
       <use xlink:href="#mec77f428bf" x="208.735" y="104.131499" style="stroke: #000000; stroke-width: 0.8"/>
      </g>
     </g>
     <g id="text_14">
      <!-- 2 -->
      <g transform="translate(195.3725 107.930718) scale(0.1 -0.1)">
       <use xlink:href="#DejaVuSans-32"/>
      </g>
     </g>
    </g>
    <g id="ytick_6">
     <g id="line2d_12">
      <g>
       <use xlink:href="#mec77f428bf" x="208.735" y="67.668903" style="stroke: #000000; stroke-width: 0.8"/>
      </g>
     </g>
     <g id="text_15">
      <!-- 4 -->
      <g transform="translate(195.3725 71.468122) scale(0.1 -0.1)">
       <use xlink:href="#DejaVuSans-34"/>
      </g>
     </g>
    </g>
    <g id="ytick_7">
     <g id="line2d_13">
      <g>
       <use xlink:href="#mec77f428bf" x="208.735" y="31.206307" style="stroke: #000000; stroke-width: 0.8"/>
      </g>
     </g>
     <g id="text_16">
      <!-- 6 -->
      <g transform="translate(195.3725 35.005525) scale(0.1 -0.1)">
       <use xlink:href="#DejaVuSans-36"/>
      </g>
     </g>
    </g>
    <g id="text_17">
     <!-- Feature 3 -->
     <g transform="translate(189.70875 91.188125) rotate(-90) scale(0.08 -0.08)">
      <use xlink:href="#DejaVuSans-46"/>
      <use xlink:href="#DejaVuSans-65" x="52.019531"/>
      <use xlink:href="#DejaVuSans-61" x="113.542969"/>
      <use xlink:href="#DejaVuSans-74" x="174.822266"/>
      <use xlink:href="#DejaVuSans-75" x="214.03125"/>
      <use xlink:href="#DejaVuSans-72" x="277.410156"/>
      <use xlink:href="#DejaVuSans-65" x="316.273438"/>
      <use xlink:href="#DejaVuSans-20" x="377.796875"/>
      <use xlink:href="#DejaVuSans-33" x="409.583984"/>
     </g>
    </g>
   </g>
   <g id="patch_22">
    <path d="M 208.735 137.32 
L 208.735 7.2 
" style="fill: none; stroke: #000000; stroke-width: 0.8; stroke-linejoin: miter; stroke-linecap: square"/>
   </g>
   <g id="patch_23">
    <path d="M 349.775 137.32 
L 349.775 7.2 
" style="fill: none; stroke: #000000; stroke-width: 0.8; stroke-linejoin: miter; stroke-linecap: square"/>
   </g>
   <g id="patch_24">
    <path d="M 208.735 137.32 
L 349.775 137.32 
" style="fill: none; stroke: #000000; stroke-width: 0.8; stroke-linejoin: miter; stroke-linecap: square"/>
   </g>
   <g id="patch_25">
    <path d="M 208.735 7.2 
L 349.775 7.2 
" style="fill: none; stroke: #000000; stroke-width: 0.8; stroke-linejoin: miter; stroke-linecap: square"/>
   </g>
  </g>
  <g id="axes_3">
   <g id="patch_26">
    <path d="M 385.165 137.32 
L 526.205 137.32 
L 526.205 7.2 
L 385.165 7.2 
z
" style="fill: #ffffff"/>
   </g>
   <g id="PathCollection_21">
    <g clip-path="url(#p65dad8d227)">
     <use xlink:href="#m92fc2468d6" x="407.582914" y="113.687667" style="fill: #1f77b4; fill-opacity: 0.5; stroke: #1f77b4; stroke-opacity: 0.5"/>
     <use xlink:href="#m92fc2468d6" x="415.321627" y="117.991515" style="fill: #1f77b4; fill-opacity: 0.5; stroke: #1f77b4; stroke-opacity: 0.5"/>
     <use xlink:href="#m92fc2468d6" x="438.537728" y="113.687667" style="fill: #1f77b4; fill-opacity: 0.5; stroke: #1f77b4; stroke-opacity: 0.5"/>
     <use xlink:href="#m92fc2468d6" x="423.060321" y="109.383817" style="fill: #1f77b4; fill-opacity: 0.5; stroke: #1f77b4; stroke-opacity: 0.5"/>
     <use xlink:href="#m92fc2468d6" x="426.929668" y="117.991515" style="fill: #1f77b4; fill-opacity: 0.5; stroke: #1f77b4; stroke-opacity: 0.5"/>
     <use xlink:href="#m92fc2468d6" x="419.190974" y="113.687667" style="fill: #1f77b4; fill-opacity: 0.5; stroke: #1f77b4; stroke-opacity: 0.5"/>
     <use xlink:href="#m92fc2468d6" x="392.105526" y="117.991515" style="fill: #1f77b4; fill-opacity: 0.5; stroke: #1f77b4; stroke-opacity: 0.5"/>
     <use xlink:href="#m92fc2468d6" x="411.45228" y="113.687667" style="fill: #1f77b4; fill-opacity: 0.5; stroke: #1f77b4; stroke-opacity: 0.5"/>
     <use xlink:href="#m92fc2468d6" x="450.145788" y="113.687667" style="fill: #1f77b4; fill-opacity: 0.5; stroke: #1f77b4; stroke-opacity: 0.5"/>
    </g>
   </g>
   <g id="PathCollection_22">
    <g clip-path="url(#p65dad8d227)">
     <use xlink:href="#m69087ca181" x="442.407075" y="57.737633" style="fill: #2ca02c; fill-opacity: 0.5; stroke: #2ca02c; stroke-opacity: 0.5"/>
     <use xlink:href="#m69087ca181" x="442.407075" y="66.345332" style="fill: #2ca02c; fill-opacity: 0.5; stroke: #2ca02c; stroke-opacity: 0.5"/>
     <use xlink:href="#m69087ca181" x="492.708643" y="57.737633" style="fill: #2ca02c; fill-opacity: 0.5; stroke: #2ca02c; stroke-opacity: 0.5"/>
     <use xlink:href="#m69087ca181" x="450.145788" y="70.649177" style="fill: #2ca02c; fill-opacity: 0.5; stroke: #2ca02c; stroke-opacity: 0.5"/>
     <use xlink:href="#m69087ca181" x="477.231236" y="57.737633" style="fill: #2ca02c; fill-opacity: 0.5; stroke: #2ca02c; stroke-opacity: 0.5"/>
     <use xlink:href="#m69087ca181" x="446.276422" y="79.256877" style="fill: #2ca02c; fill-opacity: 0.5; stroke: #2ca02c; stroke-opacity: 0.5"/>
     <use xlink:href="#m69087ca181" x="457.884482" y="57.737633" style="fill: #2ca02c; fill-opacity: 0.5; stroke: #2ca02c; stroke-opacity: 0.5"/>
     <use xlink:href="#m69087ca181" x="438.537728" y="79.256877" style="fill: #2ca02c; fill-opacity: 0.5; stroke: #2ca02c; stroke-opacity: 0.5"/>
     <use xlink:href="#m69087ca181" x="461.753829" y="66.345332" style="fill: #2ca02c; fill-opacity: 0.5; stroke: #2ca02c; stroke-opacity: 0.5"/>
     <use xlink:href="#m69087ca181" x="457.884482" y="53.433783" style="fill: #2ca02c; fill-opacity: 0.5; stroke: #2ca02c; stroke-opacity: 0.5"/>
     <use xlink:href="#m69087ca181" x="415.321627" y="79.256877" style="fill: #2ca02c; fill-opacity: 0.5; stroke: #2ca02c; stroke-opacity: 0.5"/>
     <use xlink:href="#m69087ca181" x="446.276422" y="70.649177" style="fill: #2ca02c; fill-opacity: 0.5; stroke: #2ca02c; stroke-opacity: 0.5"/>
     <use xlink:href="#m69087ca181" x="450.145788" y="70.649177" style="fill: #2ca02c; fill-opacity: 0.5; stroke: #2ca02c; stroke-opacity: 0.5"/>
    </g>
   </g>
   <g id="PathCollection_23">
    <g clip-path="url(#p65dad8d227)">
     <use xlink:href="#m49d8e9b718" x="477.231236" y="44.826089" style="fill: #8c564b; fill-opacity: 0.5; stroke: #8c564b; stroke-opacity: 0.5"/>
     <use xlink:href="#m49d8e9b718" x="492.708643" y="23.306845" style="fill: #8c564b; fill-opacity: 0.5; stroke: #8c564b; stroke-opacity: 0.5"/>
     <use xlink:href="#m49d8e9b718" x="519.794091" y="31.914544" style="fill: #8c564b; fill-opacity: 0.5; stroke: #8c564b; stroke-opacity: 0.5"/>
     <use xlink:href="#m49d8e9b718" x="488.839296" y="31.914544" style="fill: #8c564b; fill-opacity: 0.5; stroke: #8c564b; stroke-opacity: 0.5"/>
     <use xlink:href="#m49d8e9b718" x="484.96993" y="14.699145" style="fill: #8c564b; fill-opacity: 0.5; stroke: #8c564b; stroke-opacity: 0.5"/>
     <use xlink:href="#m49d8e9b718" x="492.708643" y="23.306845" style="fill: #8c564b; fill-opacity: 0.5; stroke: #8c564b; stroke-opacity: 0.5"/>
     <use xlink:href="#m49d8e9b718" x="508.18605" y="44.826089" style="fill: #8c564b; fill-opacity: 0.5; stroke: #8c564b; stroke-opacity: 0.5"/>
     <use xlink:href="#m49d8e9b718" x="469.492542" y="40.522239" style="fill: #8c564b; fill-opacity: 0.5; stroke: #8c564b; stroke-opacity: 0.5"/>
    </g>
   </g>
   <g id="PathCollection_24">
    <g clip-path="url(#p65dad8d227)">
     <use xlink:href="#m09c2697eed" x="448.43419" y="68.744267" style="stroke: #000000"/>
    </g>
   </g>
   <g id="patch_27">
    <path d="M 436.487484 78.029749 
C 438.472809 81.189938 441.635868 83.242743 445.280033 83.736056 
C 448.924199 84.22937 452.751941 83.122916 455.920245 80.660377 
C 459.088548 78.197838 461.338734 74.580271 462.175226 70.604402 
C 463.011719 66.628533 462.36622 62.618974 460.380895 59.458785 
C 458.395571 56.298596 455.232512 54.245791 451.588346 53.752477 
C 447.944181 53.259164 444.116439 54.365618 440.948135 56.828157 
C 437.779832 59.290695 435.529645 62.908263 434.693153 66.884132 
C 433.856661 70.860001 434.502159 74.869559 436.487484 78.029749 
L 436.487484 78.029749 
z
" clip-path="url(#p65dad8d227)" style="fill: none; stroke: #238023; stroke-width: 2; stroke-linejoin: miter"/>
   </g>
   <g id="PathCollection_25">
    <g clip-path="url(#p65dad8d227)">
     <use xlink:href="#m09c2697eed" x="407.58939" y="115.119884" style="stroke: #000000"/>
    </g>
   </g>
   <g id="patch_28">
    <path d="M 391.575909 116.185473 
C 391.808208 120.504457 393.718306 124.534851 396.885525 127.389007 
C 400.052744 130.243163 404.218495 131.688052 408.46532 131.405455 
C 412.712145 131.122857 416.693309 129.135845 419.532007 125.882036 
C 422.370705 122.628226 423.835171 118.373278 423.602871 114.054294 
C 423.370572 109.73531 421.460474 105.704916 418.293255 102.85076 
C 415.126036 99.996604 410.960285 98.551715 406.71346 98.834313 
C 402.466635 99.11691 398.485471 101.103922 395.646773 104.357732 
C 392.808075 107.611541 391.34361 111.866489 391.575909 116.185473 
L 391.575909 116.185473 
z
" clip-path="url(#p65dad8d227)" style="fill: none; stroke: #195f90; stroke-width: 2; stroke-linejoin: miter"/>
   </g>
   <g id="PathCollection_26">
    <g clip-path="url(#p65dad8d227)">
     <use xlink:href="#m09c2697eed" x="411.45228" y="115.839591" style="stroke: #000000"/>
    </g>
   </g>
   <g id="patch_29">
    <path d="M 393.789179 114.892851 
C 393.629632 118.575519 395.337694 122.207604 398.537184 124.989183 
C 401.736674 127.770762 406.166368 129.47473 410.850677 129.725808 
C 415.534986 129.976887 420.091457 128.754576 423.51658 126.328076 
C 426.941704 123.901576 428.955833 120.468999 429.11538 116.786331 
C 429.274927 113.103663 427.566865 109.471577 424.367375 106.689998 
C 421.167885 103.90842 416.738192 102.204452 412.053883 101.953373 
C 407.369574 101.702295 402.813102 102.924606 399.387979 105.351106 
C 395.962855 107.777606 393.948726 111.210183 393.789179 114.892851 
L 393.789179 114.892851 
z
" clip-path="url(#p65dad8d227)" style="fill: none; stroke: #195f90; stroke-width: 2; stroke-linejoin: miter"/>
   </g>
   <g id="PathCollection_27">
    <g clip-path="url(#p65dad8d227)">
     <use xlink:href="#m09c2697eed" x="484.96993" y="57.737633" style="stroke: #000000"/>
    </g>
   </g>
   <g id="patch_30">
    <path d="M 503.100773 57.737633 
C 503.100773 53.207687 501.190393 48.862666 497.790372 45.65951 
C 494.390351 42.456355 489.778286 40.656588 484.96993 40.656588 
C 480.161574 40.656588 475.549509 42.456355 472.149488 45.65951 
C 468.749467 48.862666 466.839087 53.207687 466.839087 57.737633 
C 466.839087 62.267579 468.749467 66.6126 472.149488 69.815755 
C 475.549509 73.018911 480.161574 74.818677 484.96993 74.818677 
C 489.778286 74.818677 494.390351 73.018911 497.790372 69.815755 
C 501.190393 66.6126 503.100773 62.267579 503.100773 57.737633 
L 503.100773 57.737633 
z
" clip-path="url(#p65dad8d227)" style="fill: none; stroke: #238023; stroke-width: 2; stroke-linejoin: miter"/>
   </g>
   <g id="PathCollection_28">
    <g clip-path="url(#p65dad8d227)">
     <use xlink:href="#m09c2697eed" x="487.887323" y="30.817881" style="stroke: #000000"/>
    </g>
   </g>
   <g id="patch_31">
    <path d="M 474.162694 34.538165 
C 474.921679 38.002304 477.095793 40.933035 480.206214 42.684898 
C 483.316634 44.43676 487.109409 44.866723 490.749223 43.880093 
C 494.389037 42.893462 497.578716 40.570791 499.615771 37.423621 
C 501.652825 34.276452 502.370938 30.561736 501.611953 27.097597 
C 500.852968 23.633458 498.678854 20.702728 495.568433 18.950865 
C 492.458013 17.199002 488.665238 16.769039 485.025424 17.75567 
C 481.38561 18.742301 478.19593 21.064972 476.158876 24.212141 
C 474.121822 27.359311 473.403709 31.074026 474.162694 34.538165 
L 474.162694 34.538165 
z
" clip-path="url(#p65dad8d227)" style="fill: none; stroke: #70453c; stroke-width: 2; stroke-linejoin: miter"/>
   </g>
   <g id="PathCollection_29">
    <g clip-path="url(#p65dad8d227)">
     <use xlink:href="#m09c2697eed" x="434.704009" y="113.693051" style="stroke: #000000"/>
    </g>
   </g>
   <g id="patch_32">
    <path d="M 418.289277 114.21985 
C 418.379301 117.690278 420.195209 120.963526 423.337069 123.3187 
C 426.478929 125.673874 430.690223 126.918684 435.04346 126.778975 
C 439.396698 126.639266 443.536458 125.126445 446.551005 122.573693 
C 449.565553 120.020942 451.208764 116.63668 451.11874 113.166252 
C 451.028717 109.695824 449.212808 106.422576 446.070948 104.067402 
C 442.929088 101.712228 438.717795 100.467418 434.364557 100.607127 
C 430.011319 100.746836 425.87156 102.259657 422.857012 104.812409 
C 419.842464 107.365161 418.199253 110.749423 418.289277 114.21985 
L 418.289277 114.21985 
z
" clip-path="url(#p65dad8d227)" style="fill: none; stroke: #195f90; stroke-width: 2; stroke-linejoin: miter"/>
   </g>
   <g id="PathCollection_30">
    <g clip-path="url(#p65dad8d227)">
     <use xlink:href="#m09c2697eed" x="504.32316" y="30.50392" style="stroke: #000000"/>
    </g>
   </g>
   <g id="patch_33">
    <path d="M 497.110176 13.114545 
C 493.455774 14.989907 490.710562 18.620966 489.479138 23.208022 
C 488.247715 27.795079 488.630622 32.963621 490.543528 37.575337 
C 492.456434 42.187053 495.743158 45.865417 499.679839 47.800312 
C 503.616519 49.735207 507.881743 49.768656 511.536145 47.893295 
C 515.190546 46.017933 517.935759 42.386875 519.167182 37.799818 
C 520.398605 33.212761 520.015698 28.044219 518.102792 23.432503 
C 516.189887 18.820787 512.903162 15.142423 508.966481 13.207528 
C 505.029801 11.272634 500.764577 11.239184 497.110176 13.114545 
L 497.110176 13.114545 
z
" clip-path="url(#p65dad8d227)" style="fill: none; stroke: #70453c; stroke-width: 2; stroke-linejoin: miter"/>
   </g>
   <g id="matplotlib.axis_5">
    <g id="xtick_7">
     <g id="line2d_14">
      <g>
       <use xlink:href="#m2c7b5566ff" x="419.190974" y="137.32" style="stroke: #000000; stroke-width: 0.8"/>
      </g>
     </g>
     <g id="text_18">
      <!-- 5 -->
      <g transform="translate(416.009724 151.918437) scale(0.1 -0.1)">
       <use xlink:href="#DejaVuSans-35"/>
      </g>
     </g>
    </g>
    <g id="xtick_8">
     <g id="line2d_15">
      <g>
       <use xlink:href="#m2c7b5566ff" x="457.884482" y="137.32" style="stroke: #000000; stroke-width: 0.8"/>
      </g>
     </g>
     <g id="text_19">
      <!-- 6 -->
      <g transform="translate(454.703232 151.918437) scale(0.1 -0.1)">
       <use xlink:href="#DejaVuSans-36"/>
      </g>
     </g>
    </g>
    <g id="xtick_9">
     <g id="line2d_16">
      <g>
       <use xlink:href="#m2c7b5566ff" x="496.57799" y="137.32" style="stroke: #000000; stroke-width: 0.8"/>
      </g>
     </g>
     <g id="text_20">
      <!-- 7 -->
      <g transform="translate(493.39674 151.918437) scale(0.1 -0.1)">
       <use xlink:href="#DejaVuSans-37"/>
      </g>
     </g>
    </g>
    <g id="text_21">
     <!-- Feature 1 -->
     <g transform="translate(436.756875 164.076875) scale(0.08 -0.08)">
      <use xlink:href="#DejaVuSans-46"/>
      <use xlink:href="#DejaVuSans-65" x="52.019531"/>
      <use xlink:href="#DejaVuSans-61" x="113.542969"/>
      <use xlink:href="#DejaVuSans-74" x="174.822266"/>
      <use xlink:href="#DejaVuSans-75" x="214.03125"/>
      <use xlink:href="#DejaVuSans-72" x="277.410156"/>
      <use xlink:href="#DejaVuSans-65" x="316.273438"/>
      <use xlink:href="#DejaVuSans-20" x="377.796875"/>
      <use xlink:href="#DejaVuSans-31" x="409.583984"/>
     </g>
    </g>
   </g>
   <g id="matplotlib.axis_6">
    <g id="ytick_8">
     <g id="line2d_17">
      <g>
       <use xlink:href="#mec77f428bf" x="385.165" y="122.295364" style="stroke: #000000; stroke-width: 0.8"/>
      </g>
     </g>
     <g id="text_22">
      <!-- 0 -->
      <g transform="translate(371.8025 126.094583) scale(0.1 -0.1)">
       <defs>
        <path id="DejaVuSans-30" d="M 2034 4250 
Q 1547 4250 1301 3770 
Q 1056 3291 1056 2328 
Q 1056 1369 1301 889 
Q 1547 409 2034 409 
Q 2525 409 2770 889 
Q 3016 1369 3016 2328 
Q 3016 3291 2770 3770 
Q 2525 4250 2034 4250 
z
M 2034 4750 
Q 2819 4750 3233 4129 
Q 3647 3509 3647 2328 
Q 3647 1150 3233 529 
Q 2819 -91 2034 -91 
Q 1250 -91 836 529 
Q 422 1150 422 2328 
Q 422 3509 836 4129 
Q 1250 4750 2034 4750 
z
" transform="scale(0.015625)"/>
       </defs>
       <use xlink:href="#DejaVuSans-30"/>
      </g>
     </g>
    </g>
    <g id="ytick_9">
     <g id="line2d_18">
      <g>
       <use xlink:href="#mec77f428bf" x="385.165" y="79.256877" style="stroke: #000000; stroke-width: 0.8"/>
      </g>
     </g>
     <g id="text_23">
      <!-- 1 -->
      <g transform="translate(371.8025 83.056095) scale(0.1 -0.1)">
       <use xlink:href="#DejaVuSans-31"/>
      </g>
     </g>
    </g>
    <g id="ytick_10">
     <g id="line2d_19">
      <g>
       <use xlink:href="#mec77f428bf" x="385.165" y="36.218389" style="stroke: #000000; stroke-width: 0.8"/>
      </g>
     </g>
     <g id="text_24">
      <!-- 2 -->
      <g transform="translate(371.8025 40.017608) scale(0.1 -0.1)">
       <use xlink:href="#DejaVuSans-32"/>
      </g>
     </g>
    </g>
    <g id="text_25">
     <!-- Feature 4 -->
     <g transform="translate(366.13875 91.188125) rotate(-90) scale(0.08 -0.08)">
      <use xlink:href="#DejaVuSans-46"/>
      <use xlink:href="#DejaVuSans-65" x="52.019531"/>
      <use xlink:href="#DejaVuSans-61" x="113.542969"/>
      <use xlink:href="#DejaVuSans-74" x="174.822266"/>
      <use xlink:href="#DejaVuSans-75" x="214.03125"/>
      <use xlink:href="#DejaVuSans-72" x="277.410156"/>
      <use xlink:href="#DejaVuSans-65" x="316.273438"/>
      <use xlink:href="#DejaVuSans-20" x="377.796875"/>
      <use xlink:href="#DejaVuSans-34" x="409.583984"/>
     </g>
    </g>
   </g>
   <g id="patch_34">
    <path d="M 385.165 137.32 
L 385.165 7.2 
" style="fill: none; stroke: #000000; stroke-width: 0.8; stroke-linejoin: miter; stroke-linecap: square"/>
   </g>
   <g id="patch_35">
    <path d="M 526.205 137.32 
L 526.205 7.2 
" style="fill: none; stroke: #000000; stroke-width: 0.8; stroke-linejoin: miter; stroke-linecap: square"/>
   </g>
   <g id="patch_36">
    <path d="M 385.165 137.32 
L 526.205 137.32 
" style="fill: none; stroke: #000000; stroke-width: 0.8; stroke-linejoin: miter; stroke-linecap: square"/>
   </g>
   <g id="patch_37">
    <path d="M 385.165 7.2 
L 526.205 7.2 
" style="fill: none; stroke: #000000; stroke-width: 0.8; stroke-linejoin: miter; stroke-linecap: square"/>
   </g>
   <g id="legend_1">
    <g id="patch_38">
     <path d="M 389.365 73.648125 
L 435.584688 73.648125 
Q 436.784688 73.648125 436.784688 72.448125 
L 436.784688 11.4 
Q 436.784688 10.2 435.584688 10.2 
L 389.365 10.2 
Q 388.165 10.2 388.165 11.4 
L 388.165 72.448125 
Q 388.165 73.648125 389.365 73.648125 
z
" style="fill: #ffffff; opacity: 0.8; stroke: #cccccc; stroke-linejoin: miter"/>
    </g>
    <g id="PathCollection_31">
     <g>
      <use xlink:href="#m92fc2468d6" x="396.565" y="15.584062" style="fill: #1f77b4; fill-opacity: 0.5; stroke: #1f77b4; stroke-opacity: 0.5"/>
     </g>
    </g>
    <g id="text_26">
     <!-- Class1 -->
     <g transform="translate(407.365 17.159062) scale(0.06 -0.06)">
      <defs>
       <path id="DejaVuSans-43" d="M 4122 4306 
L 4122 3641 
Q 3803 3938 3442 4084 
Q 3081 4231 2675 4231 
Q 1875 4231 1450 3742 
Q 1025 3253 1025 2328 
Q 1025 1406 1450 917 
Q 1875 428 2675 428 
Q 3081 428 3442 575 
Q 3803 722 4122 1019 
L 4122 359 
Q 3791 134 3420 21 
Q 3050 -91 2638 -91 
Q 1578 -91 968 557 
Q 359 1206 359 2328 
Q 359 3453 968 4101 
Q 1578 4750 2638 4750 
Q 3056 4750 3426 4639 
Q 3797 4528 4122 4306 
z
" transform="scale(0.015625)"/>
       <path id="DejaVuSans-6c" d="M 603 4863 
L 1178 4863 
L 1178 0 
L 603 0 
L 603 4863 
z
" transform="scale(0.015625)"/>
       <path id="DejaVuSans-73" d="M 2834 3397 
L 2834 2853 
Q 2591 2978 2328 3040 
Q 2066 3103 1784 3103 
Q 1356 3103 1142 2972 
Q 928 2841 928 2578 
Q 928 2378 1081 2264 
Q 1234 2150 1697 2047 
L 1894 2003 
Q 2506 1872 2764 1633 
Q 3022 1394 3022 966 
Q 3022 478 2636 193 
Q 2250 -91 1575 -91 
Q 1294 -91 989 -36 
Q 684 19 347 128 
L 347 722 
Q 666 556 975 473 
Q 1284 391 1588 391 
Q 1994 391 2212 530 
Q 2431 669 2431 922 
Q 2431 1156 2273 1281 
Q 2116 1406 1581 1522 
L 1381 1569 
Q 847 1681 609 1914 
Q 372 2147 372 2553 
Q 372 3047 722 3315 
Q 1072 3584 1716 3584 
Q 2034 3584 2315 3537 
Q 2597 3491 2834 3397 
z
" transform="scale(0.015625)"/>
      </defs>
      <use xlink:href="#DejaVuSans-43"/>
      <use xlink:href="#DejaVuSans-6c" x="69.824219"/>
      <use xlink:href="#DejaVuSans-61" x="97.607422"/>
      <use xlink:href="#DejaVuSans-73" x="158.886719"/>
      <use xlink:href="#DejaVuSans-73" x="210.986328"/>
      <use xlink:href="#DejaVuSans-31" x="263.085938"/>
     </g>
    </g>
    <g id="PathCollection_32">
     <g>
      <use xlink:href="#m69087ca181" x="396.565" y="24.390937" style="fill: #2ca02c; fill-opacity: 0.5; stroke: #2ca02c; stroke-opacity: 0.5"/>
     </g>
    </g>
    <g id="text_27">
     <!-- Class2 -->
     <g transform="translate(407.365 25.965937) scale(0.06 -0.06)">
      <use xlink:href="#DejaVuSans-43"/>
      <use xlink:href="#DejaVuSans-6c" x="69.824219"/>
      <use xlink:href="#DejaVuSans-61" x="97.607422"/>
      <use xlink:href="#DejaVuSans-73" x="158.886719"/>
      <use xlink:href="#DejaVuSans-73" x="210.986328"/>
      <use xlink:href="#DejaVuSans-32" x="263.085938"/>
     </g>
    </g>
    <g id="PathCollection_33">
     <g>
      <use xlink:href="#m49d8e9b718" x="396.565" y="33.197812" style="fill: #8c564b; fill-opacity: 0.5; stroke: #8c564b; stroke-opacity: 0.5"/>
     </g>
    </g>
    <g id="text_28">
     <!-- Class3 -->
     <g transform="translate(407.365 34.772812) scale(0.06 -0.06)">
      <use xlink:href="#DejaVuSans-43"/>
      <use xlink:href="#DejaVuSans-6c" x="69.824219"/>
      <use xlink:href="#DejaVuSans-61" x="97.607422"/>
      <use xlink:href="#DejaVuSans-73" x="158.886719"/>
      <use xlink:href="#DejaVuSans-73" x="210.986328"/>
      <use xlink:href="#DejaVuSans-33" x="263.085938"/>
     </g>
    </g>
    <g id="PathCollection_34">
     <g>
      <use xlink:href="#m09c2697eed" x="396.565" y="42.004687" style="stroke: #000000"/>
     </g>
    </g>
    <g id="text_29">
     <!-- Centers -->
     <g transform="translate(407.365 43.579687) scale(0.06 -0.06)">
      <defs>
       <path id="DejaVuSans-6e" d="M 3513 2113 
L 3513 0 
L 2938 0 
L 2938 2094 
Q 2938 2591 2744 2837 
Q 2550 3084 2163 3084 
Q 1697 3084 1428 2787 
Q 1159 2491 1159 1978 
L 1159 0 
L 581 0 
L 581 3500 
L 1159 3500 
L 1159 2956 
Q 1366 3272 1645 3428 
Q 1925 3584 2291 3584 
Q 2894 3584 3203 3211 
Q 3513 2838 3513 2113 
z
" transform="scale(0.015625)"/>
      </defs>
      <use xlink:href="#DejaVuSans-43"/>
      <use xlink:href="#DejaVuSans-65" x="69.824219"/>
      <use xlink:href="#DejaVuSans-6e" x="131.347656"/>
      <use xlink:href="#DejaVuSans-74" x="194.726562"/>
      <use xlink:href="#DejaVuSans-65" x="233.935547"/>
      <use xlink:href="#DejaVuSans-72" x="295.458984"/>
      <use xlink:href="#DejaVuSans-73" x="336.572266"/>
     </g>
    </g>
    <g id="patch_39">
     <path d="M 390.565 52.386562 
L 402.565 52.386562 
L 402.565 48.186562 
L 390.565 48.186562 
L 390.565 52.386562 
z
" style="fill: none; stroke: #238023; stroke-width: 2; stroke-linejoin: miter"/>
    </g>
    <g id="text_30">
     <!-- Cluster 2 -->
     <g transform="translate(407.365 52.386562) scale(0.06 -0.06)">
      <use xlink:href="#DejaVuSans-43"/>
      <use xlink:href="#DejaVuSans-6c" x="69.824219"/>
      <use xlink:href="#DejaVuSans-75" x="97.607422"/>
      <use xlink:href="#DejaVuSans-73" x="160.986328"/>
      <use xlink:href="#DejaVuSans-74" x="213.085938"/>
      <use xlink:href="#DejaVuSans-65" x="252.294922"/>
      <use xlink:href="#DejaVuSans-72" x="313.818359"/>
      <use xlink:href="#DejaVuSans-20" x="354.931641"/>
      <use xlink:href="#DejaVuSans-32" x="386.71875"/>
     </g>
    </g>
    <g id="patch_40">
     <path d="M 390.565 61.193437 
L 402.565 61.193437 
L 402.565 56.993437 
L 390.565 56.993437 
L 390.565 61.193437 
z
" style="fill: none; stroke: #195f90; stroke-width: 2; stroke-linejoin: miter"/>
    </g>
    <g id="text_31">
     <!-- Cluster 1 -->
     <g transform="translate(407.365 61.193437) scale(0.06 -0.06)">
      <use xlink:href="#DejaVuSans-43"/>
      <use xlink:href="#DejaVuSans-6c" x="69.824219"/>
      <use xlink:href="#DejaVuSans-75" x="97.607422"/>
      <use xlink:href="#DejaVuSans-73" x="160.986328"/>
      <use xlink:href="#DejaVuSans-74" x="213.085938"/>
      <use xlink:href="#DejaVuSans-65" x="252.294922"/>
      <use xlink:href="#DejaVuSans-72" x="313.818359"/>
      <use xlink:href="#DejaVuSans-20" x="354.931641"/>
      <use xlink:href="#DejaVuSans-31" x="386.71875"/>
     </g>
    </g>
    <g id="patch_41">
     <path d="M 390.565 70.000312 
L 402.565 70.000312 
L 402.565 65.800312 
L 390.565 65.800312 
L 390.565 70.000312 
z
" style="fill: none; stroke: #70453c; stroke-width: 2; stroke-linejoin: miter"/>
    </g>
    <g id="text_32">
     <!-- Cluster 3 -->
     <g transform="translate(407.365 70.000312) scale(0.06 -0.06)">
      <use xlink:href="#DejaVuSans-43"/>
      <use xlink:href="#DejaVuSans-6c" x="69.824219"/>
      <use xlink:href="#DejaVuSans-75" x="97.607422"/>
      <use xlink:href="#DejaVuSans-73" x="160.986328"/>
      <use xlink:href="#DejaVuSans-74" x="213.085938"/>
      <use xlink:href="#DejaVuSans-65" x="252.294922"/>
      <use xlink:href="#DejaVuSans-72" x="313.818359"/>
      <use xlink:href="#DejaVuSans-20" x="354.931641"/>
      <use xlink:href="#DejaVuSans-33" x="386.71875"/>
     </g>
    </g>
   </g>
  </g>
 </g>
 <defs>
  <clipPath id="p5265f10c4a">
   <rect x="32.305" y="7.2" width="141.04" height="130.12"/>
  </clipPath>
  <clipPath id="p6eac495577">
   <rect x="208.735" y="7.2" width="141.04" height="130.12"/>
  </clipPath>
  <clipPath id="p65dad8d227">
   <rect x="385.165" y="7.2" width="141.04" height="130.12"/>
  </clipPath>
 </defs>
</svg>
