<?xml version="1.0" encoding="utf-8" standalone="no"?>
<!DOCTYPE svg PUBLIC "-//W3C//DTD SVG 1.1//EN"
  "http://www.w3.org/Graphics/SVG/1.1/DTD/svg11.dtd">
<svg xmlns:xlink="http://www.w3.org/1999/xlink" width="554.423455pt" height="172.086706pt" viewBox="0 0 554.423455 172.086706" xmlns="http://www.w3.org/2000/svg" version="1.1">
 <metadata>
  <rdf:RDF xmlns:dc="http://purl.org/dc/elements/1.1/" xmlns:cc="http://creativecommons.org/ns#" xmlns:rdf="http://www.w3.org/1999/02/22-rdf-syntax-ns#">
   <cc:Work>
    <dc:type rdf:resource="http://purl.org/dc/dcmitype/StillImage"/>
    <dc:date>2023-12-13T01:43:46.979906</dc:date>
    <dc:format>image/svg+xml</dc:format>
    <dc:creator>
     <cc:Agent>
      <dc:title>Matplotlib v3.8.2, https://matplotlib.org/</dc:title>
     </cc:Agent>
    </dc:creator>
   </cc:Work>
  </rdf:RDF>
 </metadata>
 <defs>
  <style type="text/css">*{stroke-linejoin: round; stroke-linecap: butt}</style>
 </defs>
 <g id="figure_1">
  <g id="patch_1">
   <path d="M 0 172.086706 
L 554.423455 172.086706 
L 554.423455 -0 
L 0 -0 
z
" style="fill: #ffffff"/>
  </g>
  <g id="axes_1">
   <g id="patch_2">
    <path d="M 65.63 134.530456 
L 189.079318 134.530456 
L 189.079318 8.47453 
L 65.63 8.47453 
z
" style="fill: #ffffff"/>
   </g>
   <g id="PathCollection_1">
    <defs>
     <path id="mf0d17ffc34" d="M 0 3 
C 0.795609 3 1.55874 2.683901 2.12132 2.12132 
C 2.683901 1.55874 3 0.795609 3 0 
C 3 -0.795609 2.683901 -1.55874 2.12132 -2.12132 
C 1.55874 -2.683901 0.795609 -3 0 -3 
C -0.795609 -3 -1.55874 -2.683901 -2.12132 -2.12132 
C -2.683901 -1.55874 -3 -0.795609 -3 0 
C -3 0.795609 -2.683901 1.55874 -2.12132 2.12132 
C -1.55874 2.683901 -0.795609 3 0 3 
z
" style="stroke: #1f77b4; stroke-opacity: 0.5"/>
    </defs>
    <g clip-path="url(#pededdd0233)">
     <use xlink:href="#mf0d17ffc34" x="93.401222" y="79.687945" style="fill: #1f77b4; fill-opacity: 0.5; stroke: #1f77b4; stroke-opacity: 0.5"/>
     <use xlink:href="#mf0d17ffc34" x="93.401222" y="71.502502" style="fill: #1f77b4; fill-opacity: 0.5; stroke: #1f77b4; stroke-opacity: 0.5"/>
     <use xlink:href="#mf0d17ffc34" x="93.401222" y="71.502502" style="fill: #1f77b4; fill-opacity: 0.5; stroke: #1f77b4; stroke-opacity: 0.5"/>
     <use xlink:href="#mf0d17ffc34" x="99.38896" y="14.204344" style="fill: #1f77b4; fill-opacity: 0.5; stroke: #1f77b4; stroke-opacity: 0.5"/>
     <use xlink:href="#mf0d17ffc34" x="108.37058" y="46.946135" style="fill: #1f77b4; fill-opacity: 0.5; stroke: #1f77b4; stroke-opacity: 0.5"/>
     <use xlink:href="#mf0d17ffc34" x="102.382828" y="38.760692" style="fill: #1f77b4; fill-opacity: 0.5; stroke: #1f77b4; stroke-opacity: 0.5"/>
     <use xlink:href="#mf0d17ffc34" x="75.437996" y="79.687945" style="fill: #1f77b4; fill-opacity: 0.5; stroke: #1f77b4; stroke-opacity: 0.5"/>
     <use xlink:href="#mf0d17ffc34" x="78.431865" y="79.687945" style="fill: #1f77b4; fill-opacity: 0.5; stroke: #1f77b4; stroke-opacity: 0.5"/>
     <use xlink:href="#mf0d17ffc34" x="99.38896" y="55.131597" style="fill: #1f77b4; fill-opacity: 0.5; stroke: #1f77b4; stroke-opacity: 0.5"/>
     <use xlink:href="#mf0d17ffc34" x="108.37058" y="46.946135" style="fill: #1f77b4; fill-opacity: 0.5; stroke: #1f77b4; stroke-opacity: 0.5"/>
    </g>
   </g>
   <g id="PathCollection_2">
    <defs>
     <path id="mfadf644ae9" d="M 0 3 
C 0.795609 3 1.55874 2.683901 2.12132 2.12132 
C 2.683901 1.55874 3 0.795609 3 0 
C 3 -0.795609 2.683901 -1.55874 2.12132 -2.12132 
C 1.55874 -2.683901 0.795609 -3 0 -3 
C -0.795609 -3 -1.55874 -2.683901 -2.12132 -2.12132 
C -2.683901 -1.55874 -3 -0.795609 -3 0 
C -3 0.795609 -2.683901 1.55874 -2.12132 2.12132 
C -1.55874 2.683901 -0.795609 3 0 3 
z
" style="stroke: #2ca02c; stroke-opacity: 0.5"/>
    </defs>
    <g clip-path="url(#pededdd0233)">
     <use xlink:href="#mfadf644ae9" x="117.352186" y="79.687945" style="fill: #2ca02c; fill-opacity: 0.5; stroke: #2ca02c; stroke-opacity: 0.5"/>
     <use xlink:href="#mfadf644ae9" x="102.382828" y="104.244293" style="fill: #2ca02c; fill-opacity: 0.5; stroke: #2ca02c; stroke-opacity: 0.5"/>
     <use xlink:href="#mfadf644ae9" x="123.339938" y="79.687945" style="fill: #2ca02c; fill-opacity: 0.5; stroke: #2ca02c; stroke-opacity: 0.5"/>
     <use xlink:href="#mfadf644ae9" x="114.358317" y="104.244293" style="fill: #2ca02c; fill-opacity: 0.5; stroke: #2ca02c; stroke-opacity: 0.5"/>
     <use xlink:href="#mfadf644ae9" x="156.272521" y="63.31704" style="fill: #2ca02c; fill-opacity: 0.5; stroke: #2ca02c; stroke-opacity: 0.5"/>
     <use xlink:href="#mfadf644ae9" x="120.346069" y="104.244293" style="fill: #2ca02c; fill-opacity: 0.5; stroke: #2ca02c; stroke-opacity: 0.5"/>
     <use xlink:href="#mfadf644ae9" x="129.327675" y="96.05885" style="fill: #2ca02c; fill-opacity: 0.5; stroke: #2ca02c; stroke-opacity: 0.5"/>
     <use xlink:href="#mfadf644ae9" x="138.309295" y="87.873388" style="fill: #2ca02c; fill-opacity: 0.5; stroke: #2ca02c; stroke-opacity: 0.5"/>
     <use xlink:href="#mfadf644ae9" x="150.284784" y="96.05885" style="fill: #2ca02c; fill-opacity: 0.5; stroke: #2ca02c; stroke-opacity: 0.5"/>
     <use xlink:href="#mfadf644ae9" x="147.290901" y="71.502502" style="fill: #2ca02c; fill-opacity: 0.5; stroke: #2ca02c; stroke-opacity: 0.5"/>
     <use xlink:href="#mfadf644ae9" x="111.364449" y="128.800641" style="fill: #2ca02c; fill-opacity: 0.5; stroke: #2ca02c; stroke-opacity: 0.5"/>
     <use xlink:href="#mfadf644ae9" x="126.333806" y="46.946135" style="fill: #2ca02c; fill-opacity: 0.5; stroke: #2ca02c; stroke-opacity: 0.5"/>
    </g>
   </g>
   <g id="PathCollection_3">
    <defs>
     <path id="mbaa6238e60" d="M 0 3 
C 0.795609 3 1.55874 2.683901 2.12132 2.12132 
C 2.683901 1.55874 3 0.795609 3 0 
C 3 -0.795609 2.683901 -1.55874 2.12132 -2.12132 
C 1.55874 -2.683901 0.795609 -3 0 -3 
C -0.795609 -3 -1.55874 -2.683901 -2.12132 -2.12132 
C -2.683901 -1.55874 -3 -0.795609 -3 0 
C -3 0.795609 -2.683901 1.55874 -2.12132 2.12132 
C -1.55874 2.683901 -0.795609 3 0 3 
z
" style="stroke: #8c564b; stroke-opacity: 0.5"/>
    </defs>
    <g clip-path="url(#pededdd0233)">
     <use xlink:href="#mbaa6238e60" x="159.26639" y="79.687945" style="fill: #8c564b; fill-opacity: 0.5; stroke: #8c564b; stroke-opacity: 0.5"/>
     <use xlink:href="#mbaa6238e60" x="141.303164" y="79.687945" style="fill: #8c564b; fill-opacity: 0.5; stroke: #8c564b; stroke-opacity: 0.5"/>
     <use xlink:href="#mbaa6238e60" x="129.327675" y="79.687945" style="fill: #8c564b; fill-opacity: 0.5; stroke: #8c564b; stroke-opacity: 0.5"/>
     <use xlink:href="#mbaa6238e60" x="177.229616" y="96.05885" style="fill: #8c564b; fill-opacity: 0.5; stroke: #8c564b; stroke-opacity: 0.5"/>
     <use xlink:href="#mbaa6238e60" x="168.24801" y="96.05885" style="fill: #8c564b; fill-opacity: 0.5; stroke: #8c564b; stroke-opacity: 0.5"/>
     <use xlink:href="#mbaa6238e60" x="120.346069" y="104.244293" style="fill: #8c564b; fill-opacity: 0.5; stroke: #8c564b; stroke-opacity: 0.5"/>
     <use xlink:href="#mbaa6238e60" x="135.315426" y="87.873388" style="fill: #8c564b; fill-opacity: 0.5; stroke: #8c564b; stroke-opacity: 0.5"/>
     <use xlink:href="#mbaa6238e60" x="135.315426" y="46.946135" style="fill: #8c564b; fill-opacity: 0.5; stroke: #8c564b; stroke-opacity: 0.5"/>
    </g>
   </g>
   <g id="patch_3">
    <path d="M 93.606075 79.687945 
C 93.606075 77.919155 92.42783 76.222571 90.330834 74.971848 
C 88.233839 73.721124 85.389303 73.018376 82.423704 73.018376 
C 79.458104 73.018376 76.613569 73.721124 74.516573 74.971848 
C 72.419578 76.222571 71.241333 77.919155 71.241333 79.687945 
C 71.241333 81.456735 72.419578 83.153319 74.516573 84.404042 
C 76.613569 85.654766 79.458104 86.357514 82.423704 86.357514 
C 85.389303 86.357514 88.233839 85.654766 90.330834 84.404042 
C 92.42783 83.153319 93.606075 81.456735 93.606075 79.687945 
L 93.606075 79.687945 
z
" clip-path="url(#pededdd0233)" style="fill: none; stroke: #195f90; stroke-width: 2; stroke-linejoin: miter"/>
   </g>
   <g id="PathCollection_4">
    <defs>
     <path id="me8a7bf314f" d="M 0 1.581139 
C 0.419323 1.581139 0.821528 1.41454 1.118034 1.118034 
C 1.41454 0.821528 1.581139 0.419323 1.581139 0 
C 1.581139 -0.419323 1.41454 -0.821528 1.118034 -1.118034 
C 0.821528 -1.41454 0.419323 -1.581139 0 -1.581139 
C -0.419323 -1.581139 -0.821528 -1.41454 -1.118034 -1.118034 
C -1.41454 -0.821528 -1.581139 -0.419323 -1.581139 0 
C -1.581139 0.419323 -1.41454 0.821528 -1.118034 1.118034 
C -0.821528 1.41454 -0.419323 1.581139 0 1.581139 
z
" style="stroke: #000000"/>
    </defs>
    <g clip-path="url(#pededdd0233)">
     <use xlink:href="#me8a7bf314f" x="82.423704" y="79.687945" style="stroke: #000000"/>
    </g>
   </g>
   <g id="patch_4">
    <path d="M 102.91295 71.502502 
C 102.91295 71.170167 101.910735 70.851399 100.12703 70.616402 
C 98.343325 70.381406 95.923762 70.249367 93.401222 70.249367 
C 90.878683 70.249367 88.45912 70.381406 86.675415 70.616402 
C 84.89171 70.851399 83.889494 71.170167 83.889494 71.502502 
C 83.889494 71.834838 84.89171 72.153606 86.675415 72.388602 
C 88.45912 72.623599 90.878683 72.755637 93.401222 72.755637 
C 95.923762 72.755637 98.343325 72.623599 100.12703 72.388602 
C 101.910735 72.153606 102.91295 71.834838 102.91295 71.502502 
L 102.91295 71.502502 
z
" clip-path="url(#pededdd0233)" style="fill: none; stroke: #195f90; stroke-width: 2; stroke-linejoin: miter"/>
   </g>
   <g id="PathCollection_5">
    <g clip-path="url(#pededdd0233)">
     <use xlink:href="#me8a7bf314f" x="93.401222" y="71.502502" style="stroke: #000000"/>
    </g>
   </g>
   <g id="patch_5">
    <path d="M 109.848444 98.727474 
C 110.098871 101.800157 112.216279 103.603753 115.734333 103.741039 
C 119.252386 103.878325 123.883853 102.338092 128.608705 99.45956 
C 133.333557 96.581028 137.766031 92.599216 140.929927 88.391071 
C 144.093823 84.182926 145.730822 80.092025 145.480395 77.019341 
C 145.229967 73.946658 143.11256 72.143062 139.594506 72.005776 
C 136.076452 71.86849 131.444986 73.408722 126.720134 76.287254 
C 121.995282 79.165786 117.562808 83.147599 114.398912 87.355744 
C 111.235016 91.563889 109.598016 95.65479 109.848444 98.727474 
L 109.848444 98.727474 
z
" clip-path="url(#pededdd0233)" style="fill: none; stroke: #238023; stroke-width: 2; stroke-linejoin: miter"/>
   </g>
   <g id="PathCollection_6">
    <g clip-path="url(#pededdd0233)">
     <use xlink:href="#me8a7bf314f" x="127.664419" y="87.873407" style="stroke: #000000"/>
    </g>
   </g>
   <g id="patch_6">
    <path d="M 163.366925 79.687945 
C 163.366925 79.35561 161.988508 79.036841 159.535255 78.801845 
C 157.082001 78.566848 153.754208 78.43481 150.284784 78.43481 
C 146.81536 78.43481 143.487567 78.566848 141.034314 78.801845 
C 138.58106 79.036841 137.202643 79.35561 137.202643 79.687945 
C 137.202643 80.02028 138.58106 80.339049 141.034314 80.574045 
C 143.487567 80.809042 146.81536 80.94108 150.284784 80.94108 
C 153.754208 80.94108 157.082001 80.809042 159.535255 80.574045 
C 161.988508 80.339049 163.366925 80.02028 163.366925 79.687945 
L 163.366925 79.687945 
z
" clip-path="url(#pededdd0233)" style="fill: none; stroke: #70453c; stroke-width: 2; stroke-linejoin: miter"/>
   </g>
   <g id="PathCollection_7">
    <g clip-path="url(#pededdd0233)">
     <use xlink:href="#me8a7bf314f" x="150.284784" y="79.687945" style="stroke: #000000"/>
    </g>
   </g>
   <g id="patch_7">
    <path d="M 121.624932 82.52015 
C 121.588 84.862862 122.679638 87.242755 124.659426 89.135684 
C 126.639214 91.028612 129.34551 92.280028 132.182284 92.614321 
C 135.019059 92.948614 137.754701 92.338491 139.786719 90.918323 
C 141.818736 89.498156 142.981223 87.383896 143.018155 85.041183 
C 143.055087 82.698471 141.963449 80.318578 139.983661 78.425649 
C 138.003873 76.532721 135.297577 75.281305 132.460803 74.947012 
C 129.624028 74.612719 126.888386 75.222842 124.856368 76.64301 
C 122.824351 78.063177 121.661864 80.177437 121.624932 82.52015 
L 121.624932 82.52015 
z
" clip-path="url(#pededdd0233)" style="fill: none; stroke: #70453c; stroke-width: 2; stroke-linejoin: miter"/>
   </g>
   <g id="PathCollection_8">
    <g clip-path="url(#pededdd0233)">
     <use xlink:href="#me8a7bf314f" x="132.321544" y="83.780666" style="stroke: #000000"/>
    </g>
   </g>
   <g id="patch_8">
    <path d="M 96.717235 47.847888 
C 96.750101 50.003225 97.615179 51.975561 99.121946 53.330511 
C 100.628712 54.685462 102.654147 55.312401 104.75217 55.073253 
C 106.850193 54.834105 108.849511 53.748396 110.309798 52.055239 
C 111.770084 50.362083 112.572113 48.199719 112.539246 46.044382 
C 112.50638 43.889045 111.641302 41.916709 110.134535 40.561759 
C 108.627769 39.206808 106.602335 38.579869 104.504311 38.819017 
C 102.406288 39.058165 100.40697 40.143874 98.946684 41.837031 
C 97.486397 43.530187 96.684368 45.692551 96.717235 47.847888 
L 96.717235 47.847888 
z
" clip-path="url(#pededdd0233)" style="fill: none; stroke: #195f90; stroke-width: 2; stroke-linejoin: miter"/>
   </g>
   <g id="PathCollection_9">
    <g clip-path="url(#pededdd0233)">
     <use xlink:href="#me8a7bf314f" x="104.628241" y="46.946135" style="stroke: #000000"/>
    </g>
   </g>
   <g id="patch_9">
    <path d="M 183.467986 96.05885 
C 183.467986 93.892533 182.337493 91.814651 180.325486 90.282834 
C 178.313479 88.751016 175.584228 87.890329 172.73882 87.890329 
C 169.893413 87.890329 167.164162 88.751016 165.152155 90.282834 
C 163.140148 91.814651 162.009655 93.892533 162.009655 96.05885 
C 162.009655 98.225167 163.140148 100.303049 165.152155 101.834867 
C 167.164162 103.366684 169.893413 104.227371 172.73882 104.227371 
C 175.584228 104.227371 178.313479 103.366684 180.325486 101.834867 
C 182.337493 100.303049 183.467986 98.225167 183.467986 96.05885 
L 183.467986 96.05885 
z
" clip-path="url(#pededdd0233)" style="fill: none; stroke: #70453c; stroke-width: 2; stroke-linejoin: miter"/>
   </g>
   <g id="PathCollection_10">
    <g clip-path="url(#pededdd0233)">
     <use xlink:href="#me8a7bf314f" x="172.73882" y="96.05885" style="stroke: #000000"/>
    </g>
   </g>
   <g id="matplotlib.axis_1">
    <g id="xtick_1">
     <g id="line2d_1">
      <defs>
       <path id="me1879c74e0" d="M 0 0 
L 0 3.5 
" style="stroke: #000000; stroke-width: 0.8"/>
      </defs>
      <g>
       <use xlink:href="#me1879c74e0" x="66.456376" y="134.530456" style="stroke: #000000; stroke-width: 0.8"/>
      </g>
     </g>
     <g id="text_1">
      <!-- 4.0 -->
      <g transform="translate(58.504813 149.128893) scale(0.1 -0.1)">
       <defs>
        <path id="DejaVuSans-34" d="M 2419 4116 
L 825 1625 
L 2419 1625 
L 2419 4116 
z
M 2253 4666 
L 3047 4666 
L 3047 1625 
L 3713 1625 
L 3713 1100 
L 3047 1100 
L 3047 0 
L 2419 0 
L 2419 1100 
L 313 1100 
L 313 1709 
L 2253 4666 
z
" transform="scale(0.015625)"/>
        <path id="DejaVuSans-2e" d="M 684 794 
L 1344 794 
L 1344 0 
L 684 0 
L 684 794 
z
" transform="scale(0.015625)"/>
        <path id="DejaVuSans-30" d="M 2034 4250 
Q 1547 4250 1301 3770 
Q 1056 3291 1056 2328 
Q 1056 1369 1301 889 
Q 1547 409 2034 409 
Q 2525 409 2770 889 
Q 3016 1369 3016 2328 
Q 3016 3291 2770 3770 
Q 2525 4250 2034 4250 
z
M 2034 4750 
Q 2819 4750 3233 4129 
Q 3647 3509 3647 2328 
Q 3647 1150 3233 529 
Q 2819 -91 2034 -91 
Q 1250 -91 836 529 
Q 422 1150 422 2328 
Q 422 3509 836 4129 
Q 1250 4750 2034 4750 
z
" transform="scale(0.015625)"/>
       </defs>
       <use xlink:href="#DejaVuSans-34"/>
       <use xlink:href="#DejaVuSans-2e" x="63.623047"/>
       <use xlink:href="#DejaVuSans-30" x="95.410156"/>
      </g>
     </g>
    </g>
    <g id="xtick_2">
     <g id="line2d_2">
      <g>
       <use xlink:href="#me1879c74e0" x="126.333806" y="134.530456" style="stroke: #000000; stroke-width: 0.8"/>
      </g>
     </g>
     <g id="text_2">
      <!-- 6.0 -->
      <g transform="translate(118.382244 149.128893) scale(0.1 -0.1)">
       <defs>
        <path id="DejaVuSans-36" d="M 2113 2584 
Q 1688 2584 1439 2293 
Q 1191 2003 1191 1497 
Q 1191 994 1439 701 
Q 1688 409 2113 409 
Q 2538 409 2786 701 
Q 3034 994 3034 1497 
Q 3034 2003 2786 2293 
Q 2538 2584 2113 2584 
z
M 3366 4563 
L 3366 3988 
Q 3128 4100 2886 4159 
Q 2644 4219 2406 4219 
Q 1781 4219 1451 3797 
Q 1122 3375 1075 2522 
Q 1259 2794 1537 2939 
Q 1816 3084 2150 3084 
Q 2853 3084 3261 2657 
Q 3669 2231 3669 1497 
Q 3669 778 3244 343 
Q 2819 -91 2113 -91 
Q 1303 -91 875 529 
Q 447 1150 447 2328 
Q 447 3434 972 4092 
Q 1497 4750 2381 4750 
Q 2619 4750 2861 4703 
Q 3103 4656 3366 4563 
z
" transform="scale(0.015625)"/>
       </defs>
       <use xlink:href="#DejaVuSans-36"/>
       <use xlink:href="#DejaVuSans-2e" x="63.623047"/>
       <use xlink:href="#DejaVuSans-30" x="95.410156"/>
      </g>
     </g>
    </g>
    <g id="xtick_3">
     <g id="line2d_3">
      <g>
       <use xlink:href="#me1879c74e0" x="186.211237" y="134.530456" style="stroke: #000000; stroke-width: 0.8"/>
      </g>
     </g>
     <g id="text_3">
      <!-- 8.0 -->
      <g transform="translate(178.259674 149.128893) scale(0.1 -0.1)">
       <defs>
        <path id="DejaVuSans-38" d="M 2034 2216 
Q 1584 2216 1326 1975 
Q 1069 1734 1069 1313 
Q 1069 891 1326 650 
Q 1584 409 2034 409 
Q 2484 409 2743 651 
Q 3003 894 3003 1313 
Q 3003 1734 2745 1975 
Q 2488 2216 2034 2216 
z
M 1403 2484 
Q 997 2584 770 2862 
Q 544 3141 544 3541 
Q 544 4100 942 4425 
Q 1341 4750 2034 4750 
Q 2731 4750 3128 4425 
Q 3525 4100 3525 3541 
Q 3525 3141 3298 2862 
Q 3072 2584 2669 2484 
Q 3125 2378 3379 2068 
Q 3634 1759 3634 1313 
Q 3634 634 3220 271 
Q 2806 -91 2034 -91 
Q 1263 -91 848 271 
Q 434 634 434 1313 
Q 434 1759 690 2068 
Q 947 2378 1403 2484 
z
M 1172 3481 
Q 1172 3119 1398 2916 
Q 1625 2713 2034 2713 
Q 2441 2713 2670 2916 
Q 2900 3119 2900 3481 
Q 2900 3844 2670 4047 
Q 2441 4250 2034 4250 
Q 1625 4250 1398 4047 
Q 1172 3844 1172 3481 
z
" transform="scale(0.015625)"/>
       </defs>
       <use xlink:href="#DejaVuSans-38"/>
       <use xlink:href="#DejaVuSans-2e" x="63.623047"/>
       <use xlink:href="#DejaVuSans-30" x="95.410156"/>
      </g>
     </g>
    </g>
    <g id="text_4">
     <!-- Feature 1 -->
     <g transform="translate(103.694503 162.807018) scale(0.1 -0.1)">
      <defs>
       <path id="DejaVuSans-46" d="M 628 4666 
L 3309 4666 
L 3309 4134 
L 1259 4134 
L 1259 2759 
L 3109 2759 
L 3109 2228 
L 1259 2228 
L 1259 0 
L 628 0 
L 628 4666 
z
" transform="scale(0.015625)"/>
       <path id="DejaVuSans-65" d="M 3597 1894 
L 3597 1613 
L 953 1613 
Q 991 1019 1311 708 
Q 1631 397 2203 397 
Q 2534 397 2845 478 
Q 3156 559 3463 722 
L 3463 178 
Q 3153 47 2828 -22 
Q 2503 -91 2169 -91 
Q 1331 -91 842 396 
Q 353 884 353 1716 
Q 353 2575 817 3079 
Q 1281 3584 2069 3584 
Q 2775 3584 3186 3129 
Q 3597 2675 3597 1894 
z
M 3022 2063 
Q 3016 2534 2758 2815 
Q 2500 3097 2075 3097 
Q 1594 3097 1305 2825 
Q 1016 2553 972 2059 
L 3022 2063 
z
" transform="scale(0.015625)"/>
       <path id="DejaVuSans-61" d="M 2194 1759 
Q 1497 1759 1228 1600 
Q 959 1441 959 1056 
Q 959 750 1161 570 
Q 1363 391 1709 391 
Q 2188 391 2477 730 
Q 2766 1069 2766 1631 
L 2766 1759 
L 2194 1759 
z
M 3341 1997 
L 3341 0 
L 2766 0 
L 2766 531 
Q 2569 213 2275 61 
Q 1981 -91 1556 -91 
Q 1019 -91 701 211 
Q 384 513 384 1019 
Q 384 1609 779 1909 
Q 1175 2209 1959 2209 
L 2766 2209 
L 2766 2266 
Q 2766 2663 2505 2880 
Q 2244 3097 1772 3097 
Q 1472 3097 1187 3025 
Q 903 2953 641 2809 
L 641 3341 
Q 956 3463 1253 3523 
Q 1550 3584 1831 3584 
Q 2591 3584 2966 3190 
Q 3341 2797 3341 1997 
z
" transform="scale(0.015625)"/>
       <path id="DejaVuSans-74" d="M 1172 4494 
L 1172 3500 
L 2356 3500 
L 2356 3053 
L 1172 3053 
L 1172 1153 
Q 1172 725 1289 603 
Q 1406 481 1766 481 
L 2356 481 
L 2356 0 
L 1766 0 
Q 1100 0 847 248 
Q 594 497 594 1153 
L 594 3053 
L 172 3053 
L 172 3500 
L 594 3500 
L 594 4494 
L 1172 4494 
z
" transform="scale(0.015625)"/>
       <path id="DejaVuSans-75" d="M 544 1381 
L 544 3500 
L 1119 3500 
L 1119 1403 
Q 1119 906 1312 657 
Q 1506 409 1894 409 
Q 2359 409 2629 706 
Q 2900 1003 2900 1516 
L 2900 3500 
L 3475 3500 
L 3475 0 
L 2900 0 
L 2900 538 
Q 2691 219 2414 64 
Q 2138 -91 1772 -91 
Q 1169 -91 856 284 
Q 544 659 544 1381 
z
M 1991 3584 
L 1991 3584 
z
" transform="scale(0.015625)"/>
       <path id="DejaVuSans-72" d="M 2631 2963 
Q 2534 3019 2420 3045 
Q 2306 3072 2169 3072 
Q 1681 3072 1420 2755 
Q 1159 2438 1159 1844 
L 1159 0 
L 581 0 
L 581 3500 
L 1159 3500 
L 1159 2956 
Q 1341 3275 1631 3429 
Q 1922 3584 2338 3584 
Q 2397 3584 2469 3576 
Q 2541 3569 2628 3553 
L 2631 2963 
z
" transform="scale(0.015625)"/>
       <path id="DejaVuSans-20" transform="scale(0.015625)"/>
       <path id="DejaVuSans-31" d="M 794 531 
L 1825 531 
L 1825 4091 
L 703 3866 
L 703 4441 
L 1819 4666 
L 2450 4666 
L 2450 531 
L 3481 531 
L 3481 0 
L 794 0 
L 794 531 
z
" transform="scale(0.015625)"/>
      </defs>
      <use xlink:href="#DejaVuSans-46"/>
      <use xlink:href="#DejaVuSans-65" x="52.019531"/>
      <use xlink:href="#DejaVuSans-61" x="113.542969"/>
      <use xlink:href="#DejaVuSans-74" x="174.822266"/>
      <use xlink:href="#DejaVuSans-75" x="214.03125"/>
      <use xlink:href="#DejaVuSans-72" x="277.410156"/>
      <use xlink:href="#DejaVuSans-65" x="316.273438"/>
      <use xlink:href="#DejaVuSans-20" x="377.796875"/>
      <use xlink:href="#DejaVuSans-31" x="409.583984"/>
     </g>
    </g>
   </g>
   <g id="matplotlib.axis_2">
    <g id="ytick_1">
     <g id="line2d_4">
      <defs>
       <path id="mb248f0bb19" d="M 0 0 
L -3.5 0 
" style="stroke: #000000; stroke-width: 0.8"/>
      </defs>
      <g>
       <use xlink:href="#mb248f0bb19" x="65.63" y="120.615198" style="stroke: #000000; stroke-width: 0.8"/>
      </g>
     </g>
     <g id="text_5">
      <!-- 2.5 -->
      <g transform="translate(42.726875 124.414417) scale(0.1 -0.1)">
       <defs>
        <path id="DejaVuSans-32" d="M 1228 531 
L 3431 531 
L 3431 0 
L 469 0 
L 469 531 
Q 828 903 1448 1529 
Q 2069 2156 2228 2338 
Q 2531 2678 2651 2914 
Q 2772 3150 2772 3378 
Q 2772 3750 2511 3984 
Q 2250 4219 1831 4219 
Q 1534 4219 1204 4116 
Q 875 4013 500 3803 
L 500 4441 
Q 881 4594 1212 4672 
Q 1544 4750 1819 4750 
Q 2544 4750 2975 4387 
Q 3406 4025 3406 3419 
Q 3406 3131 3298 2873 
Q 3191 2616 2906 2266 
Q 2828 2175 2409 1742 
Q 1991 1309 1228 531 
z
" transform="scale(0.015625)"/>
        <path id="DejaVuSans-35" d="M 691 4666 
L 3169 4666 
L 3169 4134 
L 1269 4134 
L 1269 2991 
Q 1406 3038 1543 3061 
Q 1681 3084 1819 3084 
Q 2600 3084 3056 2656 
Q 3513 2228 3513 1497 
Q 3513 744 3044 326 
Q 2575 -91 1722 -91 
Q 1428 -91 1123 -41 
Q 819 9 494 109 
L 494 744 
Q 775 591 1075 516 
Q 1375 441 1709 441 
Q 2250 441 2565 725 
Q 2881 1009 2881 1497 
Q 2881 1984 2565 2268 
Q 2250 2553 1709 2553 
Q 1456 2553 1204 2497 
Q 953 2441 691 2322 
L 691 4666 
z
" transform="scale(0.015625)"/>
       </defs>
       <use xlink:href="#DejaVuSans-32"/>
       <use xlink:href="#DejaVuSans-2e" x="63.623047"/>
       <use xlink:href="#DejaVuSans-35" x="95.410156"/>
      </g>
     </g>
    </g>
    <g id="ytick_2">
     <g id="line2d_5">
      <g>
       <use xlink:href="#mb248f0bb19" x="65.63" y="79.687945" style="stroke: #000000; stroke-width: 0.8"/>
      </g>
     </g>
     <g id="text_6">
      <!-- 3.0 -->
      <g transform="translate(42.726875 83.487164) scale(0.1 -0.1)">
       <defs>
        <path id="DejaVuSans-33" d="M 2597 2516 
Q 3050 2419 3304 2112 
Q 3559 1806 3559 1356 
Q 3559 666 3084 287 
Q 2609 -91 1734 -91 
Q 1441 -91 1130 -33 
Q 819 25 488 141 
L 488 750 
Q 750 597 1062 519 
Q 1375 441 1716 441 
Q 2309 441 2620 675 
Q 2931 909 2931 1356 
Q 2931 1769 2642 2001 
Q 2353 2234 1838 2234 
L 1294 2234 
L 1294 2753 
L 1863 2753 
Q 2328 2753 2575 2939 
Q 2822 3125 2822 3475 
Q 2822 3834 2567 4026 
Q 2313 4219 1838 4219 
Q 1578 4219 1281 4162 
Q 984 4106 628 3988 
L 628 4550 
Q 988 4650 1302 4700 
Q 1616 4750 1894 4750 
Q 2613 4750 3031 4423 
Q 3450 4097 3450 3541 
Q 3450 3153 3228 2886 
Q 3006 2619 2597 2516 
z
" transform="scale(0.015625)"/>
       </defs>
       <use xlink:href="#DejaVuSans-33"/>
       <use xlink:href="#DejaVuSans-2e" x="63.623047"/>
       <use xlink:href="#DejaVuSans-30" x="95.410156"/>
      </g>
     </g>
    </g>
    <g id="ytick_3">
     <g id="line2d_6">
      <g>
       <use xlink:href="#mb248f0bb19" x="65.63" y="38.760692" style="stroke: #000000; stroke-width: 0.8"/>
      </g>
     </g>
     <g id="text_7">
      <!-- 3.5 -->
      <g transform="translate(42.726875 42.559911) scale(0.1 -0.1)">
       <use xlink:href="#DejaVuSans-33"/>
       <use xlink:href="#DejaVuSans-2e" x="63.623047"/>
       <use xlink:href="#DejaVuSans-35" x="95.410156"/>
      </g>
     </g>
    </g>
    <g id="text_8">
     <!-- Feature 2 -->
     <g transform="translate(36.647187 95.162649) rotate(-90) scale(0.1 -0.1)">
      <use xlink:href="#DejaVuSans-46"/>
      <use xlink:href="#DejaVuSans-65" x="52.019531"/>
      <use xlink:href="#DejaVuSans-61" x="113.542969"/>
      <use xlink:href="#DejaVuSans-74" x="174.822266"/>
      <use xlink:href="#DejaVuSans-75" x="214.03125"/>
      <use xlink:href="#DejaVuSans-72" x="277.410156"/>
      <use xlink:href="#DejaVuSans-65" x="316.273438"/>
      <use xlink:href="#DejaVuSans-20" x="377.796875"/>
      <use xlink:href="#DejaVuSans-32" x="409.583984"/>
     </g>
    </g>
   </g>
   <g id="patch_10">
    <path d="M 65.63 134.530456 
L 65.63 8.47453 
" style="fill: none; stroke: #000000; stroke-width: 0.8; stroke-linejoin: miter; stroke-linecap: square"/>
   </g>
   <g id="patch_11">
    <path d="M 189.079318 134.530456 
L 189.079318 8.47453 
" style="fill: none; stroke: #000000; stroke-width: 0.8; stroke-linejoin: miter; stroke-linecap: square"/>
   </g>
   <g id="patch_12">
    <path d="M 65.63 134.530456 
L 189.079318 134.530456 
" style="fill: none; stroke: #000000; stroke-width: 0.8; stroke-linejoin: miter; stroke-linecap: square"/>
   </g>
   <g id="patch_13">
    <path d="M 65.63 8.47453 
L 189.079318 8.47453 
" style="fill: none; stroke: #000000; stroke-width: 0.8; stroke-linejoin: miter; stroke-linecap: square"/>
   </g>
  </g>
  <g id="axes_2">
   <g id="patch_14">
    <path d="M 242.112254 134.530456 
L 365.561572 134.530456 
L 365.561572 8.47453 
L 242.112254 8.47453 
z
" style="fill: #ffffff"/>
   </g>
   <g id="PathCollection_11">
    <g clip-path="url(#p3d445424dc)">
     <use xlink:href="#mf0d17ffc34" x="269.727145" y="116.154568" style="fill: #1f77b4; fill-opacity: 0.5; stroke: #1f77b4; stroke-opacity: 0.5"/>
     <use xlink:href="#mf0d17ffc34" x="269.727145" y="114.384161" style="fill: #1f77b4; fill-opacity: 0.5; stroke: #1f77b4; stroke-opacity: 0.5"/>
     <use xlink:href="#mf0d17ffc34" x="269.727145" y="114.384161" style="fill: #1f77b4; fill-opacity: 0.5; stroke: #1f77b4; stroke-opacity: 0.5"/>
     <use xlink:href="#mf0d17ffc34" x="275.741315" y="107.302536" style="fill: #1f77b4; fill-opacity: 0.5; stroke: #1f77b4; stroke-opacity: 0.5"/>
     <use xlink:href="#mf0d17ffc34" x="284.762584" y="114.384161" style="fill: #1f77b4; fill-opacity: 0.5; stroke: #1f77b4; stroke-opacity: 0.5"/>
     <use xlink:href="#mf0d17ffc34" x="278.7484" y="114.384161" style="fill: #1f77b4; fill-opacity: 0.5; stroke: #1f77b4; stroke-opacity: 0.5"/>
     <use xlink:href="#mf0d17ffc34" x="251.684622" y="121.465787" style="fill: #1f77b4; fill-opacity: 0.5; stroke: #1f77b4; stroke-opacity: 0.5"/>
     <use xlink:href="#mf0d17ffc34" x="254.691707" y="117.924975" style="fill: #1f77b4; fill-opacity: 0.5; stroke: #1f77b4; stroke-opacity: 0.5"/>
     <use xlink:href="#mf0d17ffc34" x="275.741315" y="110.843347" style="fill: #1f77b4; fill-opacity: 0.5; stroke: #1f77b4; stroke-opacity: 0.5"/>
     <use xlink:href="#mf0d17ffc34" x="284.762584" y="110.843347" style="fill: #1f77b4; fill-opacity: 0.5; stroke: #1f77b4; stroke-opacity: 0.5"/>
    </g>
   </g>
   <g id="PathCollection_12">
    <g clip-path="url(#p3d445424dc)">
     <use xlink:href="#mfadf644ae9" x="293.783838" y="66.58319" style="fill: #2ca02c; fill-opacity: 0.5; stroke: #2ca02c; stroke-opacity: 0.5"/>
     <use xlink:href="#mfadf644ae9" x="278.7484" y="71.894404" style="fill: #2ca02c; fill-opacity: 0.5; stroke: #2ca02c; stroke-opacity: 0.5"/>
     <use xlink:href="#mfadf644ae9" x="299.798022" y="66.58319" style="fill: #2ca02c; fill-opacity: 0.5; stroke: #2ca02c; stroke-opacity: 0.5"/>
     <use xlink:href="#mfadf644ae9" x="290.776753" y="66.58319" style="fill: #2ca02c; fill-opacity: 0.5; stroke: #2ca02c; stroke-opacity: 0.5"/>
     <use xlink:href="#mfadf644ae9" x="332.875983" y="57.731158" style="fill: #2ca02c; fill-opacity: 0.5; stroke: #2ca02c; stroke-opacity: 0.5"/>
     <use xlink:href="#mfadf644ae9" x="296.790937" y="71.894404" style="fill: #2ca02c; fill-opacity: 0.5; stroke: #2ca02c; stroke-opacity: 0.5"/>
     <use xlink:href="#mfadf644ae9" x="305.812191" y="57.731158" style="fill: #2ca02c; fill-opacity: 0.5; stroke: #2ca02c; stroke-opacity: 0.5"/>
     <use xlink:href="#mfadf644ae9" x="314.83346" y="64.812777" style="fill: #2ca02c; fill-opacity: 0.5; stroke: #2ca02c; stroke-opacity: 0.5"/>
     <use xlink:href="#mfadf644ae9" x="326.861814" y="55.960744" style="fill: #2ca02c; fill-opacity: 0.5; stroke: #2ca02c; stroke-opacity: 0.5"/>
     <use xlink:href="#mfadf644ae9" x="323.854714" y="57.731158" style="fill: #2ca02c; fill-opacity: 0.5; stroke: #2ca02c; stroke-opacity: 0.5"/>
     <use xlink:href="#mfadf644ae9" x="287.769668" y="75.435218" style="fill: #2ca02c; fill-opacity: 0.5; stroke: #2ca02c; stroke-opacity: 0.5"/>
     <use xlink:href="#mfadf644ae9" x="302.805107" y="61.271967" style="fill: #2ca02c; fill-opacity: 0.5; stroke: #2ca02c; stroke-opacity: 0.5"/>
    </g>
   </g>
   <g id="PathCollection_13">
    <g clip-path="url(#p3d445424dc)">
     <use xlink:href="#mbaa6238e60" x="335.883068" y="36.486275" style="fill: #8c564b; fill-opacity: 0.5; stroke: #8c564b; stroke-opacity: 0.5"/>
     <use xlink:href="#mbaa6238e60" x="317.840545" y="38.25668" style="fill: #8c564b; fill-opacity: 0.5; stroke: #8c564b; stroke-opacity: 0.5"/>
     <use xlink:href="#mbaa6238e60" x="305.812191" y="54.19034" style="fill: #8c564b; fill-opacity: 0.5; stroke: #8c564b; stroke-opacity: 0.5"/>
     <use xlink:href="#mbaa6238e60" x="353.925591" y="22.323028" style="fill: #8c564b; fill-opacity: 0.5; stroke: #8c564b; stroke-opacity: 0.5"/>
     <use xlink:href="#mbaa6238e60" x="344.904337" y="32.945465" style="fill: #8c564b; fill-opacity: 0.5; stroke: #8c564b; stroke-opacity: 0.5"/>
     <use xlink:href="#mbaa6238e60" x="296.790937" y="50.64953" style="fill: #8c564b; fill-opacity: 0.5; stroke: #8c564b; stroke-opacity: 0.5"/>
     <use xlink:href="#mbaa6238e60" x="311.826375" y="41.797498" style="fill: #8c564b; fill-opacity: 0.5; stroke: #8c564b; stroke-opacity: 0.5"/>
     <use xlink:href="#mbaa6238e60" x="311.826375" y="41.797498" style="fill: #8c564b; fill-opacity: 0.5; stroke: #8c564b; stroke-opacity: 0.5"/>
    </g>
   </g>
   <g id="patch_15">
    <path d="M 261.077001 108.229579 
C 258.165712 107.996486 255.122938 108.856658 252.618813 110.62065 
C 250.114689 112.384643 248.353665 114.908435 247.723586 117.636189 
C 247.093508 120.363944 247.645819 123.072953 249.258878 125.166588 
C 250.871937 127.260223 253.414046 128.567548 256.325335 128.800641 
C 259.236624 129.033733 262.279398 128.173562 264.783523 126.409569 
C 267.287647 124.645577 269.048671 122.121785 269.678749 119.39403 
C 270.308828 116.666276 269.756517 113.957267 268.143458 111.863632 
C 266.530398 109.769997 263.988289 108.462671 261.077001 108.229579 
L 261.077001 108.229579 
z
" clip-path="url(#p3d445424dc)" style="fill: none; stroke: #195f90; stroke-width: 2; stroke-linejoin: miter"/>
   </g>
   <g id="PathCollection_14">
    <g clip-path="url(#p3d445424dc)">
     <use xlink:href="#me8a7bf314f" x="258.701168" y="118.51511" style="stroke: #000000"/>
    </g>
   </g>
   <g id="patch_16">
    <path d="M 269.727145 126.264532 
C 272.260821 126.264532 274.691064 125.012741 276.482643 122.784852 
C 278.274222 120.556963 279.280862 117.534872 279.280862 114.384161 
C 279.280862 111.23345 278.274222 108.21136 276.482643 105.98347 
C 274.691064 103.755581 272.260821 102.50379 269.727145 102.50379 
C 267.19347 102.50379 264.763227 103.755581 262.971648 105.98347 
C 261.180069 108.21136 260.173429 111.23345 260.173429 114.384161 
C 260.173429 117.534872 261.180069 120.556963 262.971648 122.784852 
C 264.763227 125.012741 267.19347 126.264532 269.727145 126.264532 
L 269.727145 126.264532 
z
" clip-path="url(#p3d445424dc)" style="fill: none; stroke: #195f90; stroke-width: 2; stroke-linejoin: miter"/>
   </g>
   <g id="PathCollection_15">
    <g clip-path="url(#p3d445424dc)">
     <use xlink:href="#me8a7bf314f" x="269.727145" y="114.384161" style="stroke: #000000"/>
    </g>
   </g>
   <g id="patch_17">
    <path d="M 318.071907 54.972336 
C 315.082474 53.475553 310.747291 53.055997 306.021133 53.80607 
C 301.294976 54.556143 296.563713 56.414605 292.869351 58.972151 
C 289.174988 61.529697 286.819155 64.577515 286.320695 67.444359 
C 285.822235 70.311202 287.221846 72.763006 290.21128 74.259788 
C 293.200714 75.756571 297.535896 76.176127 302.262054 75.426054 
C 306.988211 74.675981 311.719474 72.817519 315.413836 70.259973 
C 319.108199 67.702427 321.464032 64.654609 321.962492 61.787766 
C 322.460952 58.920922 321.061341 56.469119 318.071907 54.972336 
L 318.071907 54.972336 
z
" clip-path="url(#p3d445424dc)" style="fill: none; stroke: #238023; stroke-width: 2; stroke-linejoin: miter"/>
   </g>
   <g id="PathCollection_16">
    <g clip-path="url(#p3d445424dc)">
     <use xlink:href="#me8a7bf314f" x="304.141594" y="64.616062" style="stroke: #000000"/>
    </g>
   </g>
   <g id="patch_18">
    <path d="M 328.016302 25.466297 
C 324.545039 25.349617 321.093838 26.492105 318.422786 28.642141 
C 315.751735 30.792177 314.078912 33.77422 313.772739 36.93151 
C 313.466565 40.088799 314.552037 43.163557 316.790093 45.478603 
C 319.028149 47.793649 322.236062 49.15997 325.707325 49.276649 
C 329.178588 49.393329 332.629789 48.250841 335.300841 46.100805 
C 337.971892 43.950769 339.644715 40.968726 339.950889 37.811436 
C 340.257062 34.654147 339.17159 31.579389 336.933534 29.264343 
C 334.695478 26.949297 331.487565 25.582976 328.016302 25.466297 
L 328.016302 25.466297 
z
" clip-path="url(#p3d445424dc)" style="fill: none; stroke: #70453c; stroke-width: 2; stroke-linejoin: miter"/>
   </g>
   <g id="PathCollection_17">
    <g clip-path="url(#p3d445424dc)">
     <use xlink:href="#me8a7bf314f" x="326.861814" y="37.371473" style="stroke: #000000"/>
    </g>
   </g>
   <g id="patch_19">
    <path d="M 310.585457 34.548087 
C 307.774678 34.420111 304.892548 35.714097 302.573821 38.14506 
C 300.255094 40.576023 298.689084 43.945485 298.220688 47.511361 
C 297.752291 51.077237 298.41975 54.54839 300.076064 57.160337 
C 301.732378 59.772285 304.242317 61.311774 307.053096 61.43975 
C 309.863874 61.567726 312.746005 60.27374 315.064732 57.842777 
C 317.383458 55.411814 318.949468 52.042353 319.417865 48.476476 
C 319.886261 44.9106 319.218802 41.439447 317.562488 38.8275 
C 315.906174 36.215552 313.396235 34.676063 310.585457 34.548087 
L 310.585457 34.548087 
z
" clip-path="url(#p3d445424dc)" style="fill: none; stroke: #70453c; stroke-width: 2; stroke-linejoin: miter"/>
   </g>
   <g id="PathCollection_18">
    <g clip-path="url(#p3d445424dc)">
     <use xlink:href="#me8a7bf314f" x="308.819276" y="47.993919" style="stroke: #000000"/>
    </g>
   </g>
   <g id="patch_20">
    <path d="M 280.797549 103.703252 
C 278.690715 103.72015 276.691612 104.675224 275.240519 106.358131 
C 273.789426 108.041038 273.004818 110.314376 273.059496 112.677469 
C 273.114175 115.040562 274.003675 117.300473 275.532095 118.959484 
C 277.060515 120.618494 279.103066 121.541153 281.209899 121.524256 
C 283.316733 121.507359 285.315836 120.552285 286.766929 118.869377 
C 288.218022 117.18647 289.00263 114.913132 288.947952 112.550039 
C 288.893274 110.186947 288.003773 107.927035 286.475353 106.268025 
C 284.946934 104.609014 282.904383 103.686355 280.797549 103.703252 
L 280.797549 103.703252 
z
" clip-path="url(#p3d445424dc)" style="fill: none; stroke: #195f90; stroke-width: 2; stroke-linejoin: miter"/>
   </g>
   <g id="PathCollection_19">
    <g clip-path="url(#p3d445424dc)">
     <use xlink:href="#me8a7bf314f" x="281.003724" y="112.613754" style="stroke: #000000"/>
    </g>
   </g>
   <g id="patch_21">
    <path d="M 351.6825 14.204344 
C 348.888514 14.040829 345.969665 15.299049 343.568796 17.701895 
C 341.167927 20.104741 339.481058 23.456032 338.879702 27.017685 
C 338.278347 30.579338 338.811602 34.06056 340.362026 36.694651 
C 341.91245 39.328743 344.353456 40.900642 347.147442 41.064157 
C 349.941428 41.227673 352.860276 39.969453 355.261146 37.566607 
C 357.662015 35.16376 359.348884 31.812469 359.950239 28.250817 
C 360.551595 24.689164 360.01834 21.207942 358.467916 18.573851 
C 356.917492 15.939759 354.476486 14.36786 351.6825 14.204344 
L 351.6825 14.204344 
z
" clip-path="url(#p3d445424dc)" style="fill: none; stroke: #70453c; stroke-width: 2; stroke-linejoin: miter"/>
   </g>
   <g id="PathCollection_20">
    <g clip-path="url(#p3d445424dc)">
     <use xlink:href="#me8a7bf314f" x="349.414971" y="27.634251" style="stroke: #000000"/>
    </g>
   </g>
   <g id="matplotlib.axis_3">
    <g id="xtick_4">
     <g id="line2d_7">
      <g>
       <use xlink:href="#me1879c74e0" x="242.663354" y="134.530456" style="stroke: #000000; stroke-width: 0.8"/>
      </g>
     </g>
     <g id="text_9">
      <!-- 4.0 -->
      <g transform="translate(234.711791 149.128893) scale(0.1 -0.1)">
       <use xlink:href="#DejaVuSans-34"/>
       <use xlink:href="#DejaVuSans-2e" x="63.623047"/>
       <use xlink:href="#DejaVuSans-30" x="95.410156"/>
      </g>
     </g>
    </g>
    <g id="xtick_5">
     <g id="line2d_8">
      <g>
       <use xlink:href="#me1879c74e0" x="302.805107" y="134.530456" style="stroke: #000000; stroke-width: 0.8"/>
      </g>
     </g>
     <g id="text_10">
      <!-- 6.0 -->
      <g transform="translate(294.853544 149.128893) scale(0.1 -0.1)">
       <use xlink:href="#DejaVuSans-36"/>
       <use xlink:href="#DejaVuSans-2e" x="63.623047"/>
       <use xlink:href="#DejaVuSans-30" x="95.410156"/>
      </g>
     </g>
    </g>
    <g id="xtick_6">
     <g id="line2d_9">
      <g>
       <use xlink:href="#me1879c74e0" x="362.94686" y="134.530456" style="stroke: #000000; stroke-width: 0.8"/>
      </g>
     </g>
     <g id="text_11">
      <!-- 8.0 -->
      <g transform="translate(354.995297 149.128893) scale(0.1 -0.1)">
       <use xlink:href="#DejaVuSans-38"/>
       <use xlink:href="#DejaVuSans-2e" x="63.623047"/>
       <use xlink:href="#DejaVuSans-30" x="95.410156"/>
      </g>
     </g>
    </g>
    <g id="text_12">
     <!-- Feature 1 -->
     <g transform="translate(280.176757 162.807018) scale(0.1 -0.1)">
      <use xlink:href="#DejaVuSans-46"/>
      <use xlink:href="#DejaVuSans-65" x="52.019531"/>
      <use xlink:href="#DejaVuSans-61" x="113.542969"/>
      <use xlink:href="#DejaVuSans-74" x="174.822266"/>
      <use xlink:href="#DejaVuSans-75" x="214.03125"/>
      <use xlink:href="#DejaVuSans-72" x="277.410156"/>
      <use xlink:href="#DejaVuSans-65" x="316.273438"/>
      <use xlink:href="#DejaVuSans-20" x="377.796875"/>
      <use xlink:href="#DejaVuSans-31" x="409.583984"/>
     </g>
    </g>
   </g>
   <g id="matplotlib.axis_4">
    <g id="ytick_4">
     <g id="line2d_10">
      <g>
       <use xlink:href="#mb248f0bb19" x="242.112254" y="105.532129" style="stroke: #000000; stroke-width: 0.8"/>
      </g>
     </g>
     <g id="text_13">
      <!-- 2.0 -->
      <g transform="translate(219.209129 109.331348) scale(0.1 -0.1)">
       <use xlink:href="#DejaVuSans-32"/>
       <use xlink:href="#DejaVuSans-2e" x="63.623047"/>
       <use xlink:href="#DejaVuSans-30" x="95.410156"/>
      </g>
     </g>
    </g>
    <g id="ytick_5">
     <g id="line2d_11">
      <g>
       <use xlink:href="#mb248f0bb19" x="242.112254" y="70.123999" style="stroke: #000000; stroke-width: 0.8"/>
      </g>
     </g>
     <g id="text_14">
      <!-- 4.0 -->
      <g transform="translate(219.209129 73.923218) scale(0.1 -0.1)">
       <use xlink:href="#DejaVuSans-34"/>
       <use xlink:href="#DejaVuSans-2e" x="63.623047"/>
       <use xlink:href="#DejaVuSans-30" x="95.410156"/>
      </g>
     </g>
    </g>
    <g id="ytick_6">
     <g id="line2d_12">
      <g>
       <use xlink:href="#mb248f0bb19" x="242.112254" y="34.71587" style="stroke: #000000; stroke-width: 0.8"/>
      </g>
     </g>
     <g id="text_15">
      <!-- 6.0 -->
      <g transform="translate(219.209129 38.515089) scale(0.1 -0.1)">
       <use xlink:href="#DejaVuSans-36"/>
       <use xlink:href="#DejaVuSans-2e" x="63.623047"/>
       <use xlink:href="#DejaVuSans-30" x="95.410156"/>
      </g>
     </g>
    </g>
    <g id="text_16">
     <!-- Feature 3 -->
     <g transform="translate(213.129441 95.162649) rotate(-90) scale(0.1 -0.1)">
      <use xlink:href="#DejaVuSans-46"/>
      <use xlink:href="#DejaVuSans-65" x="52.019531"/>
      <use xlink:href="#DejaVuSans-61" x="113.542969"/>
      <use xlink:href="#DejaVuSans-74" x="174.822266"/>
      <use xlink:href="#DejaVuSans-75" x="214.03125"/>
      <use xlink:href="#DejaVuSans-72" x="277.410156"/>
      <use xlink:href="#DejaVuSans-65" x="316.273438"/>
      <use xlink:href="#DejaVuSans-20" x="377.796875"/>
      <use xlink:href="#DejaVuSans-33" x="409.583984"/>
     </g>
    </g>
   </g>
   <g id="patch_22">
    <path d="M 242.112254 134.530456 
L 242.112254 8.47453 
" style="fill: none; stroke: #000000; stroke-width: 0.8; stroke-linejoin: miter; stroke-linecap: square"/>
   </g>
   <g id="patch_23">
    <path d="M 365.561572 134.530456 
L 365.561572 8.47453 
" style="fill: none; stroke: #000000; stroke-width: 0.8; stroke-linejoin: miter; stroke-linecap: square"/>
   </g>
   <g id="patch_24">
    <path d="M 242.112254 134.530456 
L 365.561572 134.530456 
" style="fill: none; stroke: #000000; stroke-width: 0.8; stroke-linejoin: miter; stroke-linecap: square"/>
   </g>
   <g id="patch_25">
    <path d="M 242.112254 8.47453 
L 365.561572 8.47453 
" style="fill: none; stroke: #000000; stroke-width: 0.8; stroke-linejoin: miter; stroke-linecap: square"/>
   </g>
  </g>
  <g id="axes_3">
   <g id="patch_26">
    <path d="M 418.594507 134.530456 
L 542.043826 134.530456 
L 542.043826 8.47453 
L 418.594507 8.47453 
z
" style="fill: #ffffff"/>
   </g>
   <g id="PathCollection_21">
    <g clip-path="url(#pb8412c0e40)">
     <use xlink:href="#mf0d17ffc34" x="446.368579" y="113.849055" style="fill: #1f77b4; fill-opacity: 0.5; stroke: #1f77b4; stroke-opacity: 0.5"/>
     <use xlink:href="#mf0d17ffc34" x="446.368579" y="113.849055" style="fill: #1f77b4; fill-opacity: 0.5; stroke: #1f77b4; stroke-opacity: 0.5"/>
     <use xlink:href="#mf0d17ffc34" x="446.368579" y="118.320787" style="fill: #1f77b4; fill-opacity: 0.5; stroke: #1f77b4; stroke-opacity: 0.5"/>
     <use xlink:href="#mf0d17ffc34" x="452.362336" y="104.905591" style="fill: #1f77b4; fill-opacity: 0.5; stroke: #1f77b4; stroke-opacity: 0.5"/>
     <use xlink:href="#mf0d17ffc34" x="461.352985" y="104.905591" style="fill: #1f77b4; fill-opacity: 0.5; stroke: #1f77b4; stroke-opacity: 0.5"/>
     <use xlink:href="#mf0d17ffc34" x="455.359214" y="113.849055" style="fill: #1f77b4; fill-opacity: 0.5; stroke: #1f77b4; stroke-opacity: 0.5"/>
     <use xlink:href="#mf0d17ffc34" x="428.387295" y="118.320787" style="fill: #1f77b4; fill-opacity: 0.5; stroke: #1f77b4; stroke-opacity: 0.5"/>
     <use xlink:href="#mf0d17ffc34" x="431.384174" y="113.849055" style="fill: #1f77b4; fill-opacity: 0.5; stroke: #1f77b4; stroke-opacity: 0.5"/>
     <use xlink:href="#mf0d17ffc34" x="452.362336" y="100.433859" style="fill: #1f77b4; fill-opacity: 0.5; stroke: #1f77b4; stroke-opacity: 0.5"/>
     <use xlink:href="#mf0d17ffc34" x="461.352985" y="113.849055" style="fill: #1f77b4; fill-opacity: 0.5; stroke: #1f77b4; stroke-opacity: 0.5"/>
    </g>
   </g>
   <g id="PathCollection_22">
    <g clip-path="url(#pb8412c0e40)">
     <use xlink:href="#mfadf644ae9" x="470.34362" y="69.131733" style="fill: #2ca02c; fill-opacity: 0.5; stroke: #2ca02c; stroke-opacity: 0.5"/>
     <use xlink:href="#mfadf644ae9" x="455.359214" y="60.188272" style="fill: #2ca02c; fill-opacity: 0.5; stroke: #2ca02c; stroke-opacity: 0.5"/>
     <use xlink:href="#mfadf644ae9" x="476.337391" y="55.716539" style="fill: #2ca02c; fill-opacity: 0.5; stroke: #2ca02c; stroke-opacity: 0.5"/>
     <use xlink:href="#mfadf644ae9" x="467.346742" y="64.660005" style="fill: #2ca02c; fill-opacity: 0.5; stroke: #2ca02c; stroke-opacity: 0.5"/>
     <use xlink:href="#mfadf644ae9" x="509.303081" y="60.188272" style="fill: #2ca02c; fill-opacity: 0.5; stroke: #2ca02c; stroke-opacity: 0.5"/>
     <use xlink:href="#mfadf644ae9" x="473.340513" y="69.131733" style="fill: #2ca02c; fill-opacity: 0.5; stroke: #2ca02c; stroke-opacity: 0.5"/>
     <use xlink:href="#mfadf644ae9" x="482.331148" y="69.131733" style="fill: #2ca02c; fill-opacity: 0.5; stroke: #2ca02c; stroke-opacity: 0.5"/>
     <use xlink:href="#mfadf644ae9" x="491.321797" y="64.660005" style="fill: #2ca02c; fill-opacity: 0.5; stroke: #2ca02c; stroke-opacity: 0.5"/>
     <use xlink:href="#mfadf644ae9" x="503.309324" y="60.188272" style="fill: #2ca02c; fill-opacity: 0.5; stroke: #2ca02c; stroke-opacity: 0.5"/>
     <use xlink:href="#mfadf644ae9" x="500.312432" y="55.716539" style="fill: #2ca02c; fill-opacity: 0.5; stroke: #2ca02c; stroke-opacity: 0.5"/>
     <use xlink:href="#mfadf644ae9" x="464.349863" y="78.075199" style="fill: #2ca02c; fill-opacity: 0.5; stroke: #2ca02c; stroke-opacity: 0.5"/>
     <use xlink:href="#mfadf644ae9" x="479.334269" y="51.244806" style="fill: #2ca02c; fill-opacity: 0.5; stroke: #2ca02c; stroke-opacity: 0.5"/>
    </g>
   </g>
   <g id="PathCollection_23">
    <g clip-path="url(#pb8412c0e40)">
     <use xlink:href="#mbaa6238e60" x="512.299959" y="28.886151" style="fill: #8c564b; fill-opacity: 0.5; stroke: #8c564b; stroke-opacity: 0.5"/>
     <use xlink:href="#mbaa6238e60" x="494.318675" y="24.414413" style="fill: #8c564b; fill-opacity: 0.5; stroke: #8c564b; stroke-opacity: 0.5"/>
     <use xlink:href="#mbaa6238e60" x="482.331148" y="42.301345" style="fill: #8c564b; fill-opacity: 0.5; stroke: #8c564b; stroke-opacity: 0.5"/>
     <use xlink:href="#mbaa6238e60" x="530.281243" y="33.357879" style="fill: #8c564b; fill-opacity: 0.5; stroke: #8c564b; stroke-opacity: 0.5"/>
     <use xlink:href="#mbaa6238e60" x="521.290608" y="37.829612" style="fill: #8c564b; fill-opacity: 0.5; stroke: #8c564b; stroke-opacity: 0.5"/>
     <use xlink:href="#mbaa6238e60" x="473.340513" y="37.829612" style="fill: #8c564b; fill-opacity: 0.5; stroke: #8c564b; stroke-opacity: 0.5"/>
     <use xlink:href="#mbaa6238e60" x="488.324918" y="42.301345" style="fill: #8c564b; fill-opacity: 0.5; stroke: #8c564b; stroke-opacity: 0.5"/>
     <use xlink:href="#mbaa6238e60" x="488.324918" y="15.470947" style="fill: #8c564b; fill-opacity: 0.5; stroke: #8c564b; stroke-opacity: 0.5"/>
    </g>
   </g>
   <g id="patch_27">
    <path d="M 424.20584 116.894612 
C 424.380662 119.691651 425.725729 122.210665 427.944807 123.896869 
C 430.163885 125.583074 433.075795 126.298799 436.039224 125.886414 
C 439.002653 125.474029 441.775649 123.967203 443.747492 121.697797 
C 445.719335 119.428391 446.729033 116.581693 446.554211 113.784653 
C 446.37939 110.987614 445.034322 108.468601 442.815244 106.782396 
C 440.596166 105.096191 437.684256 104.380466 434.720827 104.792851 
C 431.757399 105.205237 428.984403 106.712063 427.01256 108.981468 
C 425.040717 111.250874 424.031019 114.097573 424.20584 116.894612 
L 424.20584 116.894612 
z
" clip-path="url(#pb8412c0e40)" style="fill: none; stroke: #195f90; stroke-width: 2; stroke-linejoin: miter"/>
   </g>
   <g id="PathCollection_24">
    <g clip-path="url(#pb8412c0e40)">
     <use xlink:href="#me8a7bf314f" x="435.380026" y="115.339633" style="stroke: #000000"/>
    </g>
   </g>
   <g id="patch_28">
    <path d="M 455.889869 116.084921 
C 455.889869 112.712673 454.886646 109.478089 453.101148 107.09355 
C 451.31565 104.70901 448.893655 103.369202 446.368579 103.369202 
C 443.843504 103.369202 441.421509 104.70901 439.636011 107.09355 
C 437.850513 109.478089 436.84729 112.712673 436.84729 116.084921 
C 436.84729 119.457169 437.850513 122.691753 439.636011 125.076293 
C 441.421509 127.460832 443.843504 128.800641 446.368579 128.800641 
C 448.893655 128.800641 451.31565 127.460832 453.101148 125.076293 
C 454.886646 122.691753 455.889869 119.457169 455.889869 116.084921 
L 455.889869 116.084921 
z
" clip-path="url(#pb8412c0e40)" style="fill: none; stroke: #195f90; stroke-width: 2; stroke-linejoin: miter"/>
   </g>
   <g id="PathCollection_25">
    <g clip-path="url(#pb8412c0e40)">
     <use xlink:href="#me8a7bf314f" x="446.368579" y="116.084921" style="stroke: #000000"/>
    </g>
   </g>
   <g id="patch_29">
    <path d="M 462.81377 64.863178 
C 462.941228 67.854254 464.94453 70.544762 468.382471 72.342147 
C 471.820412 74.139533 476.412301 74.897049 481.146826 74.44786 
C 485.881351 73.998671 490.371959 72.379452 493.629648 69.946818 
C 496.887336 67.514183 498.646128 64.466746 498.51867 61.47567 
C 498.391211 58.484594 496.38791 55.794086 492.949969 53.996701 
C 489.512027 52.199315 484.920139 51.441799 480.185614 51.890988 
C 475.451089 52.340177 470.96048 53.959396 467.702792 56.39203 
C 464.445104 58.824665 462.686312 61.872102 462.81377 64.863178 
L 462.81377 64.863178 
z
" clip-path="url(#pb8412c0e40)" style="fill: none; stroke: #238023; stroke-width: 2; stroke-linejoin: miter"/>
   </g>
   <g id="PathCollection_26">
    <g clip-path="url(#pb8412c0e40)">
     <use xlink:href="#me8a7bf314f" x="480.66622" y="63.169424" style="stroke: #000000"/>
    </g>
   </g>
   <g id="patch_30">
    <path d="M 490.261694 24.044842 
C 489.96566 27.345542 491.056491 30.786023 493.293945 33.608559 
C 495.531399 36.431096 498.732797 38.40524 502.193069 39.096209 
C 505.653341 39.787178 509.089971 39.138558 511.746081 37.2932 
C 514.40219 35.447842 516.06092 32.556411 516.356954 29.255711 
C 516.652989 25.955011 515.562157 22.51453 513.324703 19.691994 
C 511.087249 16.869457 507.885851 14.895314 504.425579 14.204344 
C 500.965307 13.513375 497.528677 14.161995 494.872568 16.007353 
C 492.216458 17.852712 490.557728 20.744143 490.261694 24.044842 
L 490.261694 24.044842 
z
" clip-path="url(#pb8412c0e40)" style="fill: none; stroke: #70453c; stroke-width: 2; stroke-linejoin: miter"/>
   </g>
   <g id="PathCollection_27">
    <g clip-path="url(#pb8412c0e40)">
     <use xlink:href="#me8a7bf314f" x="503.309324" y="26.650277" style="stroke: #000000"/>
    </g>
   </g>
   <g id="patch_31">
    <path d="M 496.036297 42.301345 
C 496.036297 39.054777 494.908006 35.940743 492.899917 33.645072 
C 490.891828 31.349402 488.167893 30.059527 485.328026 30.059527 
C 482.488159 30.059527 479.764224 31.349402 477.756135 33.645072 
C 475.748046 35.940743 474.619755 39.054777 474.619755 42.301345 
C 474.619755 45.547913 475.748046 48.661948 477.756135 50.957618 
C 479.764224 53.253288 482.488159 54.543164 485.328026 54.543164 
C 488.167893 54.543164 490.891828 53.253288 492.899917 50.957618 
C 494.908006 48.661948 496.036297 45.547913 496.036297 42.301345 
L 496.036297 42.301345 
z
" clip-path="url(#pb8412c0e40)" style="fill: none; stroke: #70453c; stroke-width: 2; stroke-linejoin: miter"/>
   </g>
   <g id="PathCollection_28">
    <g clip-path="url(#pb8412c0e40)">
     <use xlink:href="#me8a7bf314f" x="485.328026" y="42.301345" style="stroke: #000000"/>
    </g>
   </g>
   <g id="patch_32">
    <path d="M 450.237051 103.262015 
C 449.467923 105.787396 449.506725 108.736238 450.344912 111.459093 
C 451.183098 114.181949 452.752235 116.456509 454.706737 117.781828 
C 456.66124 119.107147 458.841532 119.375019 460.767429 118.526448 
C 462.693327 117.677877 464.207589 115.782144 464.976717 113.256764 
C 465.745845 110.731384 465.707042 107.782542 464.868856 105.059686 
C 464.030669 102.33683 462.461533 100.06227 460.50703 98.736951 
C 458.552528 97.411632 456.372236 97.14376 454.446338 97.992331 
C 452.520441 98.840903 451.006179 100.736635 450.237051 103.262015 
L 450.237051 103.262015 
z
" clip-path="url(#pb8412c0e40)" style="fill: none; stroke: #195f90; stroke-width: 2; stroke-linejoin: miter"/>
   </g>
   <g id="PathCollection_29">
    <g clip-path="url(#pb8412c0e40)">
     <use xlink:href="#me8a7bf314f" x="457.606884" y="108.25939" style="stroke: #000000"/>
    </g>
   </g>
   <g id="patch_33">
    <path d="M 515.139372 38.226715 
C 515.514172 41.600949 516.995461 44.56001 519.257001 46.4522 
C 521.518541 48.34439 524.375689 49.01522 527.199189 48.316947 
C 530.02269 47.618675 532.582018 45.60831 534.313511 42.728614 
C 536.045004 39.848918 536.807293 36.335003 536.432493 32.96077 
C 536.057693 29.586537 534.576405 26.627476 532.314865 24.735286 
C 530.053324 22.843096 527.196177 22.172266 524.372676 22.870538 
C 521.549175 23.568811 518.989847 25.579175 517.258354 28.458872 
C 515.526861 31.338568 514.764572 34.852482 515.139372 38.226715 
L 515.139372 38.226715 
z
" clip-path="url(#pb8412c0e40)" style="fill: none; stroke: #70453c; stroke-width: 2; stroke-linejoin: miter"/>
   </g>
   <g id="PathCollection_30">
    <g clip-path="url(#pb8412c0e40)">
     <use xlink:href="#me8a7bf314f" x="525.785933" y="35.593743" style="stroke: #000000"/>
    </g>
   </g>
   <g id="matplotlib.axis_5">
    <g id="xtick_7">
     <g id="line2d_13">
      <g>
       <use xlink:href="#me1879c74e0" x="419.396646" y="134.530456" style="stroke: #000000; stroke-width: 0.8"/>
      </g>
     </g>
     <g id="text_17">
      <!-- 4.0 -->
      <g transform="translate(411.445084 149.128893) scale(0.1 -0.1)">
       <use xlink:href="#DejaVuSans-34"/>
       <use xlink:href="#DejaVuSans-2e" x="63.623047"/>
       <use xlink:href="#DejaVuSans-30" x="95.410156"/>
      </g>
     </g>
    </g>
    <g id="xtick_8">
     <g id="line2d_14">
      <g>
       <use xlink:href="#me1879c74e0" x="479.334269" y="134.530456" style="stroke: #000000; stroke-width: 0.8"/>
      </g>
     </g>
     <g id="text_18">
      <!-- 6.0 -->
      <g transform="translate(471.382707 149.128893) scale(0.1 -0.1)">
       <use xlink:href="#DejaVuSans-36"/>
       <use xlink:href="#DejaVuSans-2e" x="63.623047"/>
       <use xlink:href="#DejaVuSans-30" x="95.410156"/>
      </g>
     </g>
    </g>
    <g id="xtick_9">
     <g id="line2d_15">
      <g>
       <use xlink:href="#me1879c74e0" x="539.271892" y="134.530456" style="stroke: #000000; stroke-width: 0.8"/>
      </g>
     </g>
     <g id="text_19">
      <!-- 8.0 -->
      <g transform="translate(531.32033 149.128893) scale(0.1 -0.1)">
       <use xlink:href="#DejaVuSans-38"/>
       <use xlink:href="#DejaVuSans-2e" x="63.623047"/>
       <use xlink:href="#DejaVuSans-30" x="95.410156"/>
      </g>
     </g>
    </g>
    <g id="text_20">
     <!-- Feature 1 -->
     <g transform="translate(456.65901 162.807018) scale(0.1 -0.1)">
      <use xlink:href="#DejaVuSans-46"/>
      <use xlink:href="#DejaVuSans-65" x="52.019531"/>
      <use xlink:href="#DejaVuSans-61" x="113.542969"/>
      <use xlink:href="#DejaVuSans-74" x="174.822266"/>
      <use xlink:href="#DejaVuSans-75" x="214.03125"/>
      <use xlink:href="#DejaVuSans-72" x="277.410156"/>
      <use xlink:href="#DejaVuSans-65" x="316.273438"/>
      <use xlink:href="#DejaVuSans-20" x="377.796875"/>
      <use xlink:href="#DejaVuSans-31" x="409.583984"/>
     </g>
    </g>
   </g>
   <g id="matplotlib.axis_6">
    <g id="ytick_7">
     <g id="line2d_16">
      <g>
       <use xlink:href="#mb248f0bb19" x="418.594507" y="122.79252" style="stroke: #000000; stroke-width: 0.8"/>
      </g>
     </g>
     <g id="text_21">
      <!-- 0.0 -->
      <g transform="translate(395.691382 126.591738) scale(0.1 -0.1)">
       <use xlink:href="#DejaVuSans-30"/>
       <use xlink:href="#DejaVuSans-2e" x="63.623047"/>
       <use xlink:href="#DejaVuSans-30" x="95.410156"/>
      </g>
     </g>
    </g>
    <g id="ytick_8">
     <g id="line2d_17">
      <g>
       <use xlink:href="#mb248f0bb19" x="418.594507" y="100.433859" style="stroke: #000000; stroke-width: 0.8"/>
      </g>
     </g>
     <g id="text_22">
      <!-- 0.5 -->
      <g transform="translate(395.691382 104.233078) scale(0.1 -0.1)">
       <use xlink:href="#DejaVuSans-30"/>
       <use xlink:href="#DejaVuSans-2e" x="63.623047"/>
       <use xlink:href="#DejaVuSans-35" x="95.410156"/>
      </g>
     </g>
    </g>
    <g id="ytick_9">
     <g id="line2d_18">
      <g>
       <use xlink:href="#mb248f0bb19" x="418.594507" y="78.075199" style="stroke: #000000; stroke-width: 0.8"/>
      </g>
     </g>
     <g id="text_23">
      <!-- 1.0 -->
      <g transform="translate(395.691382 81.874418) scale(0.1 -0.1)">
       <use xlink:href="#DejaVuSans-31"/>
       <use xlink:href="#DejaVuSans-2e" x="63.623047"/>
       <use xlink:href="#DejaVuSans-30" x="95.410156"/>
      </g>
     </g>
    </g>
    <g id="ytick_10">
     <g id="line2d_19">
      <g>
       <use xlink:href="#mb248f0bb19" x="418.594507" y="55.716539" style="stroke: #000000; stroke-width: 0.8"/>
      </g>
     </g>
     <g id="text_24">
      <!-- 1.5 -->
      <g transform="translate(395.691382 59.515758) scale(0.1 -0.1)">
       <use xlink:href="#DejaVuSans-31"/>
       <use xlink:href="#DejaVuSans-2e" x="63.623047"/>
       <use xlink:href="#DejaVuSans-35" x="95.410156"/>
      </g>
     </g>
    </g>
    <g id="ytick_11">
     <g id="line2d_20">
      <g>
       <use xlink:href="#mb248f0bb19" x="418.594507" y="33.357879" style="stroke: #000000; stroke-width: 0.8"/>
      </g>
     </g>
     <g id="text_25">
      <!-- 2.0 -->
      <g transform="translate(395.691382 37.157098) scale(0.1 -0.1)">
       <use xlink:href="#DejaVuSans-32"/>
       <use xlink:href="#DejaVuSans-2e" x="63.623047"/>
       <use xlink:href="#DejaVuSans-30" x="95.410156"/>
      </g>
     </g>
    </g>
    <g id="ytick_12">
     <g id="line2d_21">
      <g>
       <use xlink:href="#mb248f0bb19" x="418.594507" y="10.999219" style="stroke: #000000; stroke-width: 0.8"/>
      </g>
     </g>
     <g id="text_26">
      <!-- 2.5 -->
      <g transform="translate(395.691382 14.798437) scale(0.1 -0.1)">
       <use xlink:href="#DejaVuSans-32"/>
       <use xlink:href="#DejaVuSans-2e" x="63.623047"/>
       <use xlink:href="#DejaVuSans-35" x="95.410156"/>
      </g>
     </g>
    </g>
    <g id="text_27">
     <!-- Feature 4 -->
     <g transform="translate(389.611695 95.162649) rotate(-90) scale(0.1 -0.1)">
      <use xlink:href="#DejaVuSans-46"/>
      <use xlink:href="#DejaVuSans-65" x="52.019531"/>
      <use xlink:href="#DejaVuSans-61" x="113.542969"/>
      <use xlink:href="#DejaVuSans-74" x="174.822266"/>
      <use xlink:href="#DejaVuSans-75" x="214.03125"/>
      <use xlink:href="#DejaVuSans-72" x="277.410156"/>
      <use xlink:href="#DejaVuSans-65" x="316.273438"/>
      <use xlink:href="#DejaVuSans-20" x="377.796875"/>
      <use xlink:href="#DejaVuSans-34" x="409.583984"/>
     </g>
    </g>
   </g>
   <g id="patch_34">
    <path d="M 418.594507 134.530456 
L 418.594507 8.47453 
" style="fill: none; stroke: #000000; stroke-width: 0.8; stroke-linejoin: miter; stroke-linecap: square"/>
   </g>
   <g id="patch_35">
    <path d="M 542.043826 134.530456 
L 542.043826 8.47453 
" style="fill: none; stroke: #000000; stroke-width: 0.8; stroke-linejoin: miter; stroke-linecap: square"/>
   </g>
   <g id="patch_36">
    <path d="M 418.594507 134.530456 
L 542.043826 134.530456 
" style="fill: none; stroke: #000000; stroke-width: 0.8; stroke-linejoin: miter; stroke-linecap: square"/>
   </g>
   <g id="patch_37">
    <path d="M 418.594507 8.47453 
L 542.043826 8.47453 
" style="fill: none; stroke: #000000; stroke-width: 0.8; stroke-linejoin: miter; stroke-linecap: square"/>
   </g>
  </g>
  <g id="text_28">
   <!-- Local model 4 -->
   <g transform="translate(16.318125 128.357331) rotate(-90) scale(0.12 -0.12)">
    <defs>
     <path id="DejaVuSans-4c" d="M 628 4666 
L 1259 4666 
L 1259 531 
L 3531 531 
L 3531 0 
L 628 0 
L 628 4666 
z
" transform="scale(0.015625)"/>
     <path id="DejaVuSans-6f" d="M 1959 3097 
Q 1497 3097 1228 2736 
Q 959 2375 959 1747 
Q 959 1119 1226 758 
Q 1494 397 1959 397 
Q 2419 397 2687 759 
Q 2956 1122 2956 1747 
Q 2956 2369 2687 2733 
Q 2419 3097 1959 3097 
z
M 1959 3584 
Q 2709 3584 3137 3096 
Q 3566 2609 3566 1747 
Q 3566 888 3137 398 
Q 2709 -91 1959 -91 
Q 1206 -91 779 398 
Q 353 888 353 1747 
Q 353 2609 779 3096 
Q 1206 3584 1959 3584 
z
" transform="scale(0.015625)"/>
     <path id="DejaVuSans-63" d="M 3122 3366 
L 3122 2828 
Q 2878 2963 2633 3030 
Q 2388 3097 2138 3097 
Q 1578 3097 1268 2742 
Q 959 2388 959 1747 
Q 959 1106 1268 751 
Q 1578 397 2138 397 
Q 2388 397 2633 464 
Q 2878 531 3122 666 
L 3122 134 
Q 2881 22 2623 -34 
Q 2366 -91 2075 -91 
Q 1284 -91 818 406 
Q 353 903 353 1747 
Q 353 2603 823 3093 
Q 1294 3584 2113 3584 
Q 2378 3584 2631 3529 
Q 2884 3475 3122 3366 
z
" transform="scale(0.015625)"/>
     <path id="DejaVuSans-6c" d="M 603 4863 
L 1178 4863 
L 1178 0 
L 603 0 
L 603 4863 
z
" transform="scale(0.015625)"/>
     <path id="DejaVuSans-6d" d="M 3328 2828 
Q 3544 3216 3844 3400 
Q 4144 3584 4550 3584 
Q 5097 3584 5394 3201 
Q 5691 2819 5691 2113 
L 5691 0 
L 5113 0 
L 5113 2094 
Q 5113 2597 4934 2840 
Q 4756 3084 4391 3084 
Q 3944 3084 3684 2787 
Q 3425 2491 3425 1978 
L 3425 0 
L 2847 0 
L 2847 2094 
Q 2847 2600 2669 2842 
Q 2491 3084 2119 3084 
Q 1678 3084 1418 2786 
Q 1159 2488 1159 1978 
L 1159 0 
L 581 0 
L 581 3500 
L 1159 3500 
L 1159 2956 
Q 1356 3278 1631 3431 
Q 1906 3584 2284 3584 
Q 2666 3584 2933 3390 
Q 3200 3197 3328 2828 
z
" transform="scale(0.015625)"/>
     <path id="DejaVuSans-64" d="M 2906 2969 
L 2906 4863 
L 3481 4863 
L 3481 0 
L 2906 0 
L 2906 525 
Q 2725 213 2448 61 
Q 2172 -91 1784 -91 
Q 1150 -91 751 415 
Q 353 922 353 1747 
Q 353 2572 751 3078 
Q 1150 3584 1784 3584 
Q 2172 3584 2448 3432 
Q 2725 3281 2906 2969 
z
M 947 1747 
Q 947 1113 1208 752 
Q 1469 391 1925 391 
Q 2381 391 2643 752 
Q 2906 1113 2906 1747 
Q 2906 2381 2643 2742 
Q 2381 3103 1925 3103 
Q 1469 3103 1208 2742 
Q 947 2381 947 1747 
z
" transform="scale(0.015625)"/>
    </defs>
    <use xlink:href="#DejaVuSans-4c"/>
    <use xlink:href="#DejaVuSans-6f" x="53.962891"/>
    <use xlink:href="#DejaVuSans-63" x="115.144531"/>
    <use xlink:href="#DejaVuSans-61" x="170.125"/>
    <use xlink:href="#DejaVuSans-6c" x="231.404297"/>
    <use xlink:href="#DejaVuSans-20" x="259.1875"/>
    <use xlink:href="#DejaVuSans-6d" x="290.974609"/>
    <use xlink:href="#DejaVuSans-6f" x="388.386719"/>
    <use xlink:href="#DejaVuSans-64" x="449.568359"/>
    <use xlink:href="#DejaVuSans-65" x="513.044922"/>
    <use xlink:href="#DejaVuSans-6c" x="574.568359"/>
    <use xlink:href="#DejaVuSans-20" x="602.351562"/>
    <use xlink:href="#DejaVuSans-34" x="634.138672"/>
   </g>
  </g>
 </g>
 <defs>
  <clipPath id="pededdd0233">
   <rect x="65.63" y="8.47453" width="123.449318" height="126.055926"/>
  </clipPath>
  <clipPath id="p3d445424dc">
   <rect x="242.112254" y="8.47453" width="123.449318" height="126.055926"/>
  </clipPath>
  <clipPath id="pb8412c0e40">
   <rect x="418.594507" y="8.47453" width="123.449318" height="126.055926"/>
  </clipPath>
 </defs>
</svg>
