<?xml version="1.0" encoding="utf-8" standalone="no"?>
<!DOCTYPE svg PUBLIC "-//W3C//DTD SVG 1.1//EN"
  "http://www.w3.org/Graphics/SVG/1.1/DTD/svg11.dtd">
<svg xmlns:xlink="http://www.w3.org/1999/xlink" width="554.430945pt" height="171.99625pt" viewBox="0 0 554.430945 171.99625" xmlns="http://www.w3.org/2000/svg" version="1.1">
 <metadata>
  <rdf:RDF xmlns:dc="http://purl.org/dc/elements/1.1/" xmlns:cc="http://creativecommons.org/ns#" xmlns:rdf="http://www.w3.org/1999/02/22-rdf-syntax-ns#">
   <cc:Work>
    <dc:type rdf:resource="http://purl.org/dc/dcmitype/StillImage"/>
    <dc:date>2023-12-13T01:43:48.110074</dc:date>
    <dc:format>image/svg+xml</dc:format>
    <dc:creator>
     <cc:Agent>
      <dc:title>Matplotlib v3.8.2, https://matplotlib.org/</dc:title>
     </cc:Agent>
    </dc:creator>
   </cc:Work>
  </rdf:RDF>
 </metadata>
 <defs>
  <style type="text/css">*{stroke-linejoin: round; stroke-linecap: butt}</style>
 </defs>
 <g id="figure_1">
  <g id="patch_1">
   <path d="M 0 171.99625 
L 554.430945 171.99625 
L 554.430945 -0 
L 0 -0 
z
" style="fill: #ffffff"/>
  </g>
  <g id="axes_1">
   <g id="patch_2">
    <path d="M 65.63 134.44 
L 188.749311 134.44 
L 188.749311 7.2 
L 65.63 7.2 
z
" style="fill: #ffffff"/>
   </g>
   <g id="PathCollection_1">
    <defs>
     <path id="m97672594c9" d="M 0 3 
C 0.795609 3 1.55874 2.683901 2.12132 2.12132 
C 2.683901 1.55874 3 0.795609 3 0 
C 3 -0.795609 2.683901 -1.55874 2.12132 -2.12132 
C 1.55874 -2.683901 0.795609 -3 0 -3 
C -0.795609 -3 -1.55874 -2.683901 -2.12132 -2.12132 
C -2.683901 -1.55874 -3 -0.795609 -3 0 
C -3 0.795609 -2.683901 1.55874 -2.12132 2.12132 
C -1.55874 2.683901 -0.795609 3 0 3 
z
" style="stroke: #1f77b4; stroke-opacity: 0.5"/>
    </defs>
    <g clip-path="url(#pec8bcaa941)">
     <use xlink:href="#m97672594c9" x="85.707326" y="36.216261" style="fill: #1f77b4; fill-opacity: 0.5; stroke: #1f77b4; stroke-opacity: 0.5"/>
     <use xlink:href="#m97672594c9" x="85.707326" y="43.919595" style="fill: #1f77b4; fill-opacity: 0.5; stroke: #1f77b4; stroke-opacity: 0.5"/>
     <use xlink:href="#m97672594c9" x="102.459943" y="36.216261" style="fill: #1f77b4; fill-opacity: 0.5; stroke: #1f77b4; stroke-opacity: 0.5"/>
     <use xlink:href="#m97672594c9" x="82.356806" y="28.512927" style="fill: #1f77b4; fill-opacity: 0.5; stroke: #1f77b4; stroke-opacity: 0.5"/>
     <use xlink:href="#m97672594c9" x="79.006286" y="74.732969" style="fill: #1f77b4; fill-opacity: 0.5; stroke: #1f77b4; stroke-opacity: 0.5"/>
     <use xlink:href="#m97672594c9" x="85.707326" y="43.919595" style="fill: #1f77b4; fill-opacity: 0.5; stroke: #1f77b4; stroke-opacity: 0.5"/>
     <use xlink:href="#m97672594c9" x="89.057846" y="13.10624" style="fill: #1f77b4; fill-opacity: 0.5; stroke: #1f77b4; stroke-opacity: 0.5"/>
    </g>
   </g>
   <g id="PathCollection_2">
    <defs>
     <path id="m4165fe3506" d="M 0 3 
C 0.795609 3 1.55874 2.683901 2.12132 2.12132 
C 2.683901 1.55874 3 0.795609 3 0 
C 3 -0.795609 2.683901 -1.55874 2.12132 -2.12132 
C 1.55874 -2.683901 0.795609 -3 0 -3 
C -0.795609 -3 -1.55874 -2.683901 -2.12132 -2.12132 
C -2.683901 -1.55874 -3 -0.795609 -3 0 
C -3 0.795609 -2.683901 1.55874 -2.12132 2.12132 
C -1.55874 2.683901 -0.795609 3 0 3 
z
" style="stroke: #2ca02c; stroke-opacity: 0.5"/>
    </defs>
    <g clip-path="url(#pec8bcaa941)">
     <use xlink:href="#m4165fe3506" x="129.264135" y="128.656364" style="fill: #2ca02c; fill-opacity: 0.5; stroke: #2ca02c; stroke-opacity: 0.5"/>
     <use xlink:href="#m4165fe3506" x="122.563079" y="90.139656" style="fill: #2ca02c; fill-opacity: 0.5; stroke: #2ca02c; stroke-opacity: 0.5"/>
     <use xlink:href="#m4165fe3506" x="85.707326" y="128.656364" style="fill: #2ca02c; fill-opacity: 0.5; stroke: #2ca02c; stroke-opacity: 0.5"/>
     <use xlink:href="#m4165fe3506" x="122.563079" y="82.436303" style="fill: #2ca02c; fill-opacity: 0.5; stroke: #2ca02c; stroke-opacity: 0.5"/>
     <use xlink:href="#m4165fe3506" x="109.160983" y="82.436303" style="fill: #2ca02c; fill-opacity: 0.5; stroke: #2ca02c; stroke-opacity: 0.5"/>
     <use xlink:href="#m4165fe3506" x="129.264135" y="113.249677" style="fill: #2ca02c; fill-opacity: 0.5; stroke: #2ca02c; stroke-opacity: 0.5"/>
     <use xlink:href="#m4165fe3506" x="109.160983" y="105.546343" style="fill: #2ca02c; fill-opacity: 0.5; stroke: #2ca02c; stroke-opacity: 0.5"/>
     <use xlink:href="#m4165fe3506" x="149.367272" y="67.029635" style="fill: #2ca02c; fill-opacity: 0.5; stroke: #2ca02c; stroke-opacity: 0.5"/>
     <use xlink:href="#m4165fe3506" x="102.459943" y="120.953011" style="fill: #2ca02c; fill-opacity: 0.5; stroke: #2ca02c; stroke-opacity: 0.5"/>
     <use xlink:href="#m4165fe3506" x="102.459943" y="113.249677" style="fill: #2ca02c; fill-opacity: 0.5; stroke: #2ca02c; stroke-opacity: 0.5"/>
     <use xlink:href="#m4165fe3506" x="119.212559" y="97.84299" style="fill: #2ca02c; fill-opacity: 0.5; stroke: #2ca02c; stroke-opacity: 0.5"/>
     <use xlink:href="#m4165fe3506" x="89.057846" y="113.249677" style="fill: #2ca02c; fill-opacity: 0.5; stroke: #2ca02c; stroke-opacity: 0.5"/>
    </g>
   </g>
   <g id="PathCollection_3">
    <defs>
     <path id="m8ef5c6cbe9" d="M 0 3 
C 0.795609 3 1.55874 2.683901 2.12132 2.12132 
C 2.683901 1.55874 3 0.795609 3 0 
C 3 -0.795609 2.683901 -1.55874 2.12132 -2.12132 
C 1.55874 -2.683901 0.795609 -3 0 -3 
C -0.795609 -3 -1.55874 -2.683901 -2.12132 -2.12132 
C -2.683901 -1.55874 -3 -0.795609 -3 0 
C -3 0.795609 -2.683901 1.55874 -2.12132 2.12132 
C -1.55874 2.683901 -0.795609 3 0 3 
z
" style="stroke: #8c564b; stroke-opacity: 0.5"/>
    </defs>
    <g clip-path="url(#pec8bcaa941)">
     <use xlink:href="#m8ef5c6cbe9" x="132.614656" y="67.029635" style="fill: #8c564b; fill-opacity: 0.5; stroke: #8c564b; stroke-opacity: 0.5"/>
     <use xlink:href="#m8ef5c6cbe9" x="129.264135" y="90.139656" style="fill: #8c564b; fill-opacity: 0.5; stroke: #8c564b; stroke-opacity: 0.5"/>
     <use xlink:href="#m8ef5c6cbe9" x="149.367272" y="67.029635" style="fill: #8c564b; fill-opacity: 0.5; stroke: #8c564b; stroke-opacity: 0.5"/>
     <use xlink:href="#m8ef5c6cbe9" x="132.614656" y="97.84299" style="fill: #8c564b; fill-opacity: 0.5; stroke: #8c564b; stroke-opacity: 0.5"/>
     <use xlink:href="#m8ef5c6cbe9" x="146.016752" y="74.732969" style="fill: #8c564b; fill-opacity: 0.5; stroke: #8c564b; stroke-opacity: 0.5"/>
     <use xlink:href="#m8ef5c6cbe9" x="159.418832" y="74.732969" style="fill: #8c564b; fill-opacity: 0.5; stroke: #8c564b; stroke-opacity: 0.5"/>
     <use xlink:href="#m8ef5c6cbe9" x="176.171449" y="74.732969" style="fill: #8c564b; fill-opacity: 0.5; stroke: #8c564b; stroke-opacity: 0.5"/>
     <use xlink:href="#m8ef5c6cbe9" x="172.820929" y="74.732969" style="fill: #8c564b; fill-opacity: 0.5; stroke: #8c564b; stroke-opacity: 0.5"/>
     <use xlink:href="#m8ef5c6cbe9" x="125.913599" y="43.919595" style="fill: #8c564b; fill-opacity: 0.5; stroke: #8c564b; stroke-opacity: 0.5"/>
     <use xlink:href="#m8ef5c6cbe9" x="129.264135" y="51.622948" style="fill: #8c564b; fill-opacity: 0.5; stroke: #8c564b; stroke-opacity: 0.5"/>
     <use xlink:href="#m8ef5c6cbe9" x="142.666216" y="51.622948" style="fill: #8c564b; fill-opacity: 0.5; stroke: #8c564b; stroke-opacity: 0.5"/>
    </g>
   </g>
   <g id="patch_3">
    <path d="M 113.763419 92.993399 
C 114.27267 97.669045 116.747418 101.010241 120.64263 102.281128 
C 124.537842 103.552015 129.535491 102.64883 134.534902 99.77049 
C 139.534312 96.89215 144.127306 92.273658 147.302328 86.932183 
C 150.47735 81.590709 151.975175 75.962359 151.465924 71.286714 
C 150.956673 66.611068 148.481925 63.269872 144.586713 61.998985 
C 140.6915 60.728098 135.693852 61.631283 130.694441 64.509623 
C 125.695031 67.387963 121.102037 72.006455 117.927015 77.34793 
C 114.751993 82.689404 113.254168 88.317754 113.763419 92.993399 
L 113.763419 92.993399 
z
" clip-path="url(#pec8bcaa941)" style="fill: none; stroke: #70453c; stroke-width: 2; stroke-linejoin: miter"/>
   </g>
   <g id="PathCollection_4">
    <defs>
     <path id="m452b923c07" d="M 0 1.581139 
C 0.419323 1.581139 0.821528 1.41454 1.118034 1.118034 
C 1.41454 0.821528 1.581139 0.419323 1.581139 0 
C 1.581139 -0.419323 1.41454 -0.821528 1.118034 -1.118034 
C 0.821528 -1.41454 0.419323 -1.581139 0 -1.581139 
C -0.419323 -1.581139 -0.821528 -1.41454 -1.118034 -1.118034 
C -1.41454 -0.821528 -1.581139 -0.419323 -1.581139 0 
C -1.581139 0.419323 -1.41454 0.821528 -1.118034 1.118034 
C -0.821528 1.41454 -0.419323 1.581139 0 1.581139 
z
" style="stroke: #000000"/>
    </defs>
    <g clip-path="url(#pec8bcaa941)">
     <use xlink:href="#m452b923c07" x="132.614671" y="82.140057" style="stroke: #000000"/>
    </g>
   </g>
   <g id="patch_4">
    <path d="M 98.920399 102.996114 
C 99.701387 107.891328 102.406738 110.936916 106.44063 111.462121 
C 110.474522 111.987326 115.507605 109.949268 120.431401 105.796805 
C 125.355198 101.644343 129.767701 95.716506 132.697109 89.318831 
C 135.626517 82.921157 136.833656 76.575988 136.052668 71.680773 
C 135.27168 66.785558 132.566329 63.739971 128.532437 63.214766 
C 124.498546 62.689561 119.465462 64.727619 114.541666 68.880082 
C 109.617869 73.032544 105.205366 78.960381 102.275958 85.358055 
C 99.34655 91.755729 98.139411 98.100899 98.920399 102.996114 
L 98.920399 102.996114 
z
" clip-path="url(#pec8bcaa941)" style="fill: none; stroke: #238023; stroke-width: 2; stroke-linejoin: miter"/>
   </g>
   <g id="PathCollection_5">
    <g clip-path="url(#pec8bcaa941)">
     <use xlink:href="#m452b923c07" x="117.486534" y="87.338443" style="stroke: #000000"/>
    </g>
   </g>
   <g id="patch_5">
    <path d="M 183.152978 90.139656 
C 183.152978 88.100931 181.887813 86.145433 179.636121 84.703837 
C 177.384429 83.262241 174.33005 82.452247 171.145677 82.452247 
C 167.961303 82.452247 164.906925 83.262241 162.655232 84.703837 
C 160.40354 86.145433 159.138375 88.100931 159.138375 90.139656 
C 159.138375 92.178381 160.40354 94.133879 162.655232 95.575475 
C 164.906925 97.017071 167.961303 97.827065 171.145677 97.827065 
C 174.33005 97.827065 177.384429 97.017071 179.636121 95.575475 
C 181.887813 94.133879 183.152978 92.178381 183.152978 90.139656 
L 183.152978 90.139656 
z
" clip-path="url(#pec8bcaa941)" style="fill: none; stroke: #70453c; stroke-width: 2; stroke-linejoin: miter"/>
   </g>
   <g id="PathCollection_6">
    <g clip-path="url(#pec8bcaa941)">
     <use xlink:href="#m452b923c07" x="171.145677" y="90.139656" style="stroke: #000000"/>
    </g>
   </g>
   <g id="patch_6">
    <path d="M 71.226332 67.672089 
C 72.659215 71.468483 75.412317 72.359176 78.879301 70.148004 
C 82.346284 67.936832 86.244085 62.804327 89.714258 55.880864 
C 93.184431 48.957401 95.943652 40.808249 97.384234 33.228165 
C 98.824816 25.648081 98.829142 19.255946 97.39626 15.459552 
C 95.963377 11.663158 93.210275 10.772464 89.743291 12.983636 
C 86.276308 15.194808 82.378507 20.327313 78.908334 27.250777 
C 75.438161 34.17424 72.67894 42.323392 71.238358 49.903476 
C 69.797776 57.483559 69.79345 63.875695 71.226332 67.672089 
L 71.226332 67.672089 
z
" clip-path="url(#pec8bcaa941)" style="fill: none; stroke: #195f90; stroke-width: 2; stroke-linejoin: miter"/>
   </g>
   <g id="PathCollection_7">
    <g clip-path="url(#pec8bcaa941)">
     <use xlink:href="#m452b923c07" x="84.311296" y="41.56582" style="stroke: #000000"/>
    </g>
   </g>
   <g id="patch_7">
    <path d="M 86.067846 44.768237 
C 86.104628 46.796628 87.07276 48.652797 88.759024 49.927943 
C 90.445287 51.203089 92.712006 51.793103 95.059961 51.56804 
C 97.407916 51.342978 99.645407 50.321215 101.279654 48.727782 
C 102.9139 47.13435 103.811472 45.099345 103.774691 43.070954 
C 103.737909 41.042563 102.769776 39.186394 101.083513 37.911248 
C 99.397249 36.636102 97.130531 36.046088 94.782576 36.271151 
C 92.434621 36.496213 90.197129 37.517976 88.562883 39.111409 
C 86.928637 40.704841 86.031064 42.739846 86.067846 44.768237 
L 86.067846 44.768237 
z
" clip-path="url(#pec8bcaa941)" style="fill: none; stroke: #195f90; stroke-width: 2; stroke-linejoin: miter"/>
   </g>
   <g id="PathCollection_8">
    <g clip-path="url(#pec8bcaa941)">
     <use xlink:href="#m452b923c07" x="94.921268" y="43.919595" style="stroke: #000000"/>
    </g>
   </g>
   <g id="matplotlib.axis_1">
    <g id="xtick_1">
     <g id="line2d_1">
      <defs>
       <path id="m772cebde7b" d="M 0 0 
L 0 3.5 
" style="stroke: #000000; stroke-width: 0.8"/>
      </defs>
      <g>
       <use xlink:href="#m772cebde7b" x="85.707326" y="134.44" style="stroke: #000000; stroke-width: 0.8"/>
      </g>
     </g>
     <g id="text_1">
      <!-- 5.0 -->
      <g transform="translate(77.755764 149.038437) scale(0.1 -0.1)">
       <defs>
        <path id="DejaVuSans-35" d="M 691 4666 
L 3169 4666 
L 3169 4134 
L 1269 4134 
L 1269 2991 
Q 1406 3038 1543 3061 
Q 1681 3084 1819 3084 
Q 2600 3084 3056 2656 
Q 3513 2228 3513 1497 
Q 3513 744 3044 326 
Q 2575 -91 1722 -91 
Q 1428 -91 1123 -41 
Q 819 9 494 109 
L 494 744 
Q 775 591 1075 516 
Q 1375 441 1709 441 
Q 2250 441 2565 725 
Q 2881 1009 2881 1497 
Q 2881 1984 2565 2268 
Q 2250 2553 1709 2553 
Q 1456 2553 1204 2497 
Q 953 2441 691 2322 
L 691 4666 
z
" transform="scale(0.015625)"/>
        <path id="DejaVuSans-2e" d="M 684 794 
L 1344 794 
L 1344 0 
L 684 0 
L 684 794 
z
" transform="scale(0.015625)"/>
        <path id="DejaVuSans-30" d="M 2034 4250 
Q 1547 4250 1301 3770 
Q 1056 3291 1056 2328 
Q 1056 1369 1301 889 
Q 1547 409 2034 409 
Q 2525 409 2770 889 
Q 3016 1369 3016 2328 
Q 3016 3291 2770 3770 
Q 2525 4250 2034 4250 
z
M 2034 4750 
Q 2819 4750 3233 4129 
Q 3647 3509 3647 2328 
Q 3647 1150 3233 529 
Q 2819 -91 2034 -91 
Q 1250 -91 836 529 
Q 422 1150 422 2328 
Q 422 3509 836 4129 
Q 1250 4750 2034 4750 
z
" transform="scale(0.015625)"/>
       </defs>
       <use xlink:href="#DejaVuSans-35"/>
       <use xlink:href="#DejaVuSans-2e" x="63.623047"/>
       <use xlink:href="#DejaVuSans-30" x="95.410156"/>
      </g>
     </g>
    </g>
    <g id="xtick_2">
     <g id="line2d_2">
      <g>
       <use xlink:href="#m772cebde7b" x="119.212559" y="134.44" style="stroke: #000000; stroke-width: 0.8"/>
      </g>
     </g>
     <g id="text_2">
      <!-- 6.0 -->
      <g transform="translate(111.260997 149.038437) scale(0.1 -0.1)">
       <defs>
        <path id="DejaVuSans-36" d="M 2113 2584 
Q 1688 2584 1439 2293 
Q 1191 2003 1191 1497 
Q 1191 994 1439 701 
Q 1688 409 2113 409 
Q 2538 409 2786 701 
Q 3034 994 3034 1497 
Q 3034 2003 2786 2293 
Q 2538 2584 2113 2584 
z
M 3366 4563 
L 3366 3988 
Q 3128 4100 2886 4159 
Q 2644 4219 2406 4219 
Q 1781 4219 1451 3797 
Q 1122 3375 1075 2522 
Q 1259 2794 1537 2939 
Q 1816 3084 2150 3084 
Q 2853 3084 3261 2657 
Q 3669 2231 3669 1497 
Q 3669 778 3244 343 
Q 2819 -91 2113 -91 
Q 1303 -91 875 529 
Q 447 1150 447 2328 
Q 447 3434 972 4092 
Q 1497 4750 2381 4750 
Q 2619 4750 2861 4703 
Q 3103 4656 3366 4563 
z
" transform="scale(0.015625)"/>
       </defs>
       <use xlink:href="#DejaVuSans-36"/>
       <use xlink:href="#DejaVuSans-2e" x="63.623047"/>
       <use xlink:href="#DejaVuSans-30" x="95.410156"/>
      </g>
     </g>
    </g>
    <g id="xtick_3">
     <g id="line2d_3">
      <g>
       <use xlink:href="#m772cebde7b" x="152.717792" y="134.44" style="stroke: #000000; stroke-width: 0.8"/>
      </g>
     </g>
     <g id="text_3">
      <!-- 7.0 -->
      <g transform="translate(144.76623 149.038437) scale(0.1 -0.1)">
       <defs>
        <path id="DejaVuSans-37" d="M 525 4666 
L 3525 4666 
L 3525 4397 
L 1831 0 
L 1172 0 
L 2766 4134 
L 525 4134 
L 525 4666 
z
" transform="scale(0.015625)"/>
       </defs>
       <use xlink:href="#DejaVuSans-37"/>
       <use xlink:href="#DejaVuSans-2e" x="63.623047"/>
       <use xlink:href="#DejaVuSans-30" x="95.410156"/>
      </g>
     </g>
    </g>
    <g id="xtick_4">
     <g id="line2d_4">
      <g>
       <use xlink:href="#m772cebde7b" x="186.223025" y="134.44" style="stroke: #000000; stroke-width: 0.8"/>
      </g>
     </g>
     <g id="text_4">
      <!-- 8.0 -->
      <g transform="translate(178.271463 149.038437) scale(0.1 -0.1)">
       <defs>
        <path id="DejaVuSans-38" d="M 2034 2216 
Q 1584 2216 1326 1975 
Q 1069 1734 1069 1313 
Q 1069 891 1326 650 
Q 1584 409 2034 409 
Q 2484 409 2743 651 
Q 3003 894 3003 1313 
Q 3003 1734 2745 1975 
Q 2488 2216 2034 2216 
z
M 1403 2484 
Q 997 2584 770 2862 
Q 544 3141 544 3541 
Q 544 4100 942 4425 
Q 1341 4750 2034 4750 
Q 2731 4750 3128 4425 
Q 3525 4100 3525 3541 
Q 3525 3141 3298 2862 
Q 3072 2584 2669 2484 
Q 3125 2378 3379 2068 
Q 3634 1759 3634 1313 
Q 3634 634 3220 271 
Q 2806 -91 2034 -91 
Q 1263 -91 848 271 
Q 434 634 434 1313 
Q 434 1759 690 2068 
Q 947 2378 1403 2484 
z
M 1172 3481 
Q 1172 3119 1398 2916 
Q 1625 2713 2034 2713 
Q 2441 2713 2670 2916 
Q 2900 3119 2900 3481 
Q 2900 3844 2670 4047 
Q 2441 4250 2034 4250 
Q 1625 4250 1398 4047 
Q 1172 3844 1172 3481 
z
" transform="scale(0.015625)"/>
       </defs>
       <use xlink:href="#DejaVuSans-38"/>
       <use xlink:href="#DejaVuSans-2e" x="63.623047"/>
       <use xlink:href="#DejaVuSans-30" x="95.410156"/>
      </g>
     </g>
    </g>
    <g id="text_5">
     <!-- Feature 1 -->
     <g transform="translate(103.529499 162.716563) scale(0.1 -0.1)">
      <defs>
       <path id="DejaVuSans-46" d="M 628 4666 
L 3309 4666 
L 3309 4134 
L 1259 4134 
L 1259 2759 
L 3109 2759 
L 3109 2228 
L 1259 2228 
L 1259 0 
L 628 0 
L 628 4666 
z
" transform="scale(0.015625)"/>
       <path id="DejaVuSans-65" d="M 3597 1894 
L 3597 1613 
L 953 1613 
Q 991 1019 1311 708 
Q 1631 397 2203 397 
Q 2534 397 2845 478 
Q 3156 559 3463 722 
L 3463 178 
Q 3153 47 2828 -22 
Q 2503 -91 2169 -91 
Q 1331 -91 842 396 
Q 353 884 353 1716 
Q 353 2575 817 3079 
Q 1281 3584 2069 3584 
Q 2775 3584 3186 3129 
Q 3597 2675 3597 1894 
z
M 3022 2063 
Q 3016 2534 2758 2815 
Q 2500 3097 2075 3097 
Q 1594 3097 1305 2825 
Q 1016 2553 972 2059 
L 3022 2063 
z
" transform="scale(0.015625)"/>
       <path id="DejaVuSans-61" d="M 2194 1759 
Q 1497 1759 1228 1600 
Q 959 1441 959 1056 
Q 959 750 1161 570 
Q 1363 391 1709 391 
Q 2188 391 2477 730 
Q 2766 1069 2766 1631 
L 2766 1759 
L 2194 1759 
z
M 3341 1997 
L 3341 0 
L 2766 0 
L 2766 531 
Q 2569 213 2275 61 
Q 1981 -91 1556 -91 
Q 1019 -91 701 211 
Q 384 513 384 1019 
Q 384 1609 779 1909 
Q 1175 2209 1959 2209 
L 2766 2209 
L 2766 2266 
Q 2766 2663 2505 2880 
Q 2244 3097 1772 3097 
Q 1472 3097 1187 3025 
Q 903 2953 641 2809 
L 641 3341 
Q 956 3463 1253 3523 
Q 1550 3584 1831 3584 
Q 2591 3584 2966 3190 
Q 3341 2797 3341 1997 
z
" transform="scale(0.015625)"/>
       <path id="DejaVuSans-74" d="M 1172 4494 
L 1172 3500 
L 2356 3500 
L 2356 3053 
L 1172 3053 
L 1172 1153 
Q 1172 725 1289 603 
Q 1406 481 1766 481 
L 2356 481 
L 2356 0 
L 1766 0 
Q 1100 0 847 248 
Q 594 497 594 1153 
L 594 3053 
L 172 3053 
L 172 3500 
L 594 3500 
L 594 4494 
L 1172 4494 
z
" transform="scale(0.015625)"/>
       <path id="DejaVuSans-75" d="M 544 1381 
L 544 3500 
L 1119 3500 
L 1119 1403 
Q 1119 906 1312 657 
Q 1506 409 1894 409 
Q 2359 409 2629 706 
Q 2900 1003 2900 1516 
L 2900 3500 
L 3475 3500 
L 3475 0 
L 2900 0 
L 2900 538 
Q 2691 219 2414 64 
Q 2138 -91 1772 -91 
Q 1169 -91 856 284 
Q 544 659 544 1381 
z
M 1991 3584 
L 1991 3584 
z
" transform="scale(0.015625)"/>
       <path id="DejaVuSans-72" d="M 2631 2963 
Q 2534 3019 2420 3045 
Q 2306 3072 2169 3072 
Q 1681 3072 1420 2755 
Q 1159 2438 1159 1844 
L 1159 0 
L 581 0 
L 581 3500 
L 1159 3500 
L 1159 2956 
Q 1341 3275 1631 3429 
Q 1922 3584 2338 3584 
Q 2397 3584 2469 3576 
Q 2541 3569 2628 3553 
L 2631 2963 
z
" transform="scale(0.015625)"/>
       <path id="DejaVuSans-20" transform="scale(0.015625)"/>
       <path id="DejaVuSans-31" d="M 794 531 
L 1825 531 
L 1825 4091 
L 703 3866 
L 703 4441 
L 1819 4666 
L 2450 4666 
L 2450 531 
L 3481 531 
L 3481 0 
L 794 0 
L 794 531 
z
" transform="scale(0.015625)"/>
      </defs>
      <use xlink:href="#DejaVuSans-46"/>
      <use xlink:href="#DejaVuSans-65" x="52.019531"/>
      <use xlink:href="#DejaVuSans-61" x="113.542969"/>
      <use xlink:href="#DejaVuSans-74" x="174.822266"/>
      <use xlink:href="#DejaVuSans-75" x="214.03125"/>
      <use xlink:href="#DejaVuSans-72" x="277.410156"/>
      <use xlink:href="#DejaVuSans-65" x="316.273438"/>
      <use xlink:href="#DejaVuSans-20" x="377.796875"/>
      <use xlink:href="#DejaVuSans-31" x="409.583984"/>
     </g>
    </g>
   </g>
   <g id="matplotlib.axis_2">
    <g id="ytick_1">
     <g id="line2d_5">
      <defs>
       <path id="m943cf34b2e" d="M 0 0 
L -3.5 0 
" style="stroke: #000000; stroke-width: 0.8"/>
      </defs>
      <g>
       <use xlink:href="#m943cf34b2e" x="65.63" y="113.249677" style="stroke: #000000; stroke-width: 0.8"/>
      </g>
     </g>
     <g id="text_6">
      <!-- 2.5 -->
      <g transform="translate(42.726875 117.048896) scale(0.1 -0.1)">
       <defs>
        <path id="DejaVuSans-32" d="M 1228 531 
L 3431 531 
L 3431 0 
L 469 0 
L 469 531 
Q 828 903 1448 1529 
Q 2069 2156 2228 2338 
Q 2531 2678 2651 2914 
Q 2772 3150 2772 3378 
Q 2772 3750 2511 3984 
Q 2250 4219 1831 4219 
Q 1534 4219 1204 4116 
Q 875 4013 500 3803 
L 500 4441 
Q 881 4594 1212 4672 
Q 1544 4750 1819 4750 
Q 2544 4750 2975 4387 
Q 3406 4025 3406 3419 
Q 3406 3131 3298 2873 
Q 3191 2616 2906 2266 
Q 2828 2175 2409 1742 
Q 1991 1309 1228 531 
z
" transform="scale(0.015625)"/>
       </defs>
       <use xlink:href="#DejaVuSans-32"/>
       <use xlink:href="#DejaVuSans-2e" x="63.623047"/>
       <use xlink:href="#DejaVuSans-35" x="95.410156"/>
      </g>
     </g>
    </g>
    <g id="ytick_2">
     <g id="line2d_6">
      <g>
       <use xlink:href="#m943cf34b2e" x="65.63" y="74.732969" style="stroke: #000000; stroke-width: 0.8"/>
      </g>
     </g>
     <g id="text_7">
      <!-- 3.0 -->
      <g transform="translate(42.726875 78.532188) scale(0.1 -0.1)">
       <defs>
        <path id="DejaVuSans-33" d="M 2597 2516 
Q 3050 2419 3304 2112 
Q 3559 1806 3559 1356 
Q 3559 666 3084 287 
Q 2609 -91 1734 -91 
Q 1441 -91 1130 -33 
Q 819 25 488 141 
L 488 750 
Q 750 597 1062 519 
Q 1375 441 1716 441 
Q 2309 441 2620 675 
Q 2931 909 2931 1356 
Q 2931 1769 2642 2001 
Q 2353 2234 1838 2234 
L 1294 2234 
L 1294 2753 
L 1863 2753 
Q 2328 2753 2575 2939 
Q 2822 3125 2822 3475 
Q 2822 3834 2567 4026 
Q 2313 4219 1838 4219 
Q 1578 4219 1281 4162 
Q 984 4106 628 3988 
L 628 4550 
Q 988 4650 1302 4700 
Q 1616 4750 1894 4750 
Q 2613 4750 3031 4423 
Q 3450 4097 3450 3541 
Q 3450 3153 3228 2886 
Q 3006 2619 2597 2516 
z
" transform="scale(0.015625)"/>
       </defs>
       <use xlink:href="#DejaVuSans-33"/>
       <use xlink:href="#DejaVuSans-2e" x="63.623047"/>
       <use xlink:href="#DejaVuSans-30" x="95.410156"/>
      </g>
     </g>
    </g>
    <g id="ytick_3">
     <g id="line2d_7">
      <g>
       <use xlink:href="#m943cf34b2e" x="65.63" y="36.216261" style="stroke: #000000; stroke-width: 0.8"/>
      </g>
     </g>
     <g id="text_8">
      <!-- 3.5 -->
      <g transform="translate(42.726875 40.01548) scale(0.1 -0.1)">
       <use xlink:href="#DejaVuSans-33"/>
       <use xlink:href="#DejaVuSans-2e" x="63.623047"/>
       <use xlink:href="#DejaVuSans-35" x="95.410156"/>
      </g>
     </g>
    </g>
    <g id="text_9">
     <!-- Feature 2 -->
     <g transform="translate(36.647187 94.480156) rotate(-90) scale(0.1 -0.1)">
      <use xlink:href="#DejaVuSans-46"/>
      <use xlink:href="#DejaVuSans-65" x="52.019531"/>
      <use xlink:href="#DejaVuSans-61" x="113.542969"/>
      <use xlink:href="#DejaVuSans-74" x="174.822266"/>
      <use xlink:href="#DejaVuSans-75" x="214.03125"/>
      <use xlink:href="#DejaVuSans-72" x="277.410156"/>
      <use xlink:href="#DejaVuSans-65" x="316.273438"/>
      <use xlink:href="#DejaVuSans-20" x="377.796875"/>
      <use xlink:href="#DejaVuSans-32" x="409.583984"/>
     </g>
    </g>
   </g>
   <g id="patch_8">
    <path d="M 65.63 134.44 
L 65.63 7.2 
" style="fill: none; stroke: #000000; stroke-width: 0.8; stroke-linejoin: miter; stroke-linecap: square"/>
   </g>
   <g id="patch_9">
    <path d="M 188.749311 134.44 
L 188.749311 7.2 
" style="fill: none; stroke: #000000; stroke-width: 0.8; stroke-linejoin: miter; stroke-linecap: square"/>
   </g>
   <g id="patch_10">
    <path d="M 65.63 134.44 
L 188.749311 134.44 
" style="fill: none; stroke: #000000; stroke-width: 0.8; stroke-linejoin: miter; stroke-linecap: square"/>
   </g>
   <g id="patch_11">
    <path d="M 65.63 7.2 
L 188.749311 7.2 
" style="fill: none; stroke: #000000; stroke-width: 0.8; stroke-linejoin: miter; stroke-linecap: square"/>
   </g>
  </g>
  <g id="axes_2">
   <g id="patch_12">
    <path d="M 242.119081 134.44 
L 365.238391 134.44 
L 365.238391 7.2 
L 242.119081 7.2 
z
" style="fill: #ffffff"/>
   </g>
   <g id="PathCollection_9">
    <g clip-path="url(#p4d468dee6f)">
     <use xlink:href="#m97672594c9" x="262.85321" y="121.398332" style="fill: #1f77b4; fill-opacity: 0.5; stroke: #1f77b4; stroke-opacity: 0.5"/>
     <use xlink:href="#m97672594c9" x="262.85321" y="115.846743" style="fill: #1f77b4; fill-opacity: 0.5; stroke: #1f77b4; stroke-opacity: 0.5"/>
     <use xlink:href="#m97672594c9" x="279.53894" y="121.398332" style="fill: #1f77b4; fill-opacity: 0.5; stroke: #1f77b4; stroke-opacity: 0.5"/>
     <use xlink:href="#m97672594c9" x="259.516067" y="119.547803" style="fill: #1f77b4; fill-opacity: 0.5; stroke: #1f77b4; stroke-opacity: 0.5"/>
     <use xlink:href="#m97672594c9" x="256.178925" y="119.547803" style="fill: #1f77b4; fill-opacity: 0.5; stroke: #1f77b4; stroke-opacity: 0.5"/>
     <use xlink:href="#m97672594c9" x="262.85321" y="117.697273" style="fill: #1f77b4; fill-opacity: 0.5; stroke: #1f77b4; stroke-opacity: 0.5"/>
     <use xlink:href="#m97672594c9" x="266.190353" y="115.846743" style="fill: #1f77b4; fill-opacity: 0.5; stroke: #1f77b4; stroke-opacity: 0.5"/>
    </g>
   </g>
   <g id="PathCollection_10">
    <g clip-path="url(#p4d468dee6f)">
     <use xlink:href="#m4165fe3506" x="306.236114" y="64.031917" style="fill: #2ca02c; fill-opacity: 0.5; stroke: #2ca02c; stroke-opacity: 0.5"/>
     <use xlink:href="#m4165fe3506" x="299.561812" y="71.434037" style="fill: #2ca02c; fill-opacity: 0.5; stroke: #2ca02c; stroke-opacity: 0.5"/>
     <use xlink:href="#m4165fe3506" x="262.85321" y="84.387744" style="fill: #2ca02c; fill-opacity: 0.5; stroke: #2ca02c; stroke-opacity: 0.5"/>
     <use xlink:href="#m4165fe3506" x="299.561812" y="58.480334" style="fill: #2ca02c; fill-opacity: 0.5; stroke: #2ca02c; stroke-opacity: 0.5"/>
     <use xlink:href="#m4165fe3506" x="286.213225" y="67.732982" style="fill: #2ca02c; fill-opacity: 0.5; stroke: #2ca02c; stroke-opacity: 0.5"/>
     <use xlink:href="#m4165fe3506" x="306.236114" y="54.77927" style="fill: #2ca02c; fill-opacity: 0.5; stroke: #2ca02c; stroke-opacity: 0.5"/>
     <use xlink:href="#m4165fe3506" x="286.213225" y="80.686684" style="fill: #2ca02c; fill-opacity: 0.5; stroke: #2ca02c; stroke-opacity: 0.5"/>
     <use xlink:href="#m4165fe3506" x="326.258986" y="54.77927" style="fill: #2ca02c; fill-opacity: 0.5; stroke: #2ca02c; stroke-opacity: 0.5"/>
     <use xlink:href="#m4165fe3506" x="279.53894" y="75.135097" style="fill: #2ca02c; fill-opacity: 0.5; stroke: #2ca02c; stroke-opacity: 0.5"/>
     <use xlink:href="#m4165fe3506" x="279.53894" y="71.434037" style="fill: #2ca02c; fill-opacity: 0.5; stroke: #2ca02c; stroke-opacity: 0.5"/>
     <use xlink:href="#m4165fe3506" x="296.22467" y="51.078215" style="fill: #2ca02c; fill-opacity: 0.5; stroke: #2ca02c; stroke-opacity: 0.5"/>
     <use xlink:href="#m4165fe3506" x="266.190353" y="89.939331" style="fill: #2ca02c; fill-opacity: 0.5; stroke: #2ca02c; stroke-opacity: 0.5"/>
    </g>
   </g>
   <g id="PathCollection_11">
    <g clip-path="url(#p4d468dee6f)">
     <use xlink:href="#m8ef5c6cbe9" x="309.573257" y="43.676095" style="fill: #8c564b; fill-opacity: 0.5; stroke: #8c564b; stroke-opacity: 0.5"/>
     <use xlink:href="#m8ef5c6cbe9" x="306.236114" y="51.078215" style="fill: #8c564b; fill-opacity: 0.5; stroke: #8c564b; stroke-opacity: 0.5"/>
     <use xlink:href="#m8ef5c6cbe9" x="326.258986" y="51.078215" style="fill: #8c564b; fill-opacity: 0.5; stroke: #8c564b; stroke-opacity: 0.5"/>
     <use xlink:href="#m8ef5c6cbe9" x="309.573257" y="47.377151" style="fill: #8c564b; fill-opacity: 0.5; stroke: #8c564b; stroke-opacity: 0.5"/>
     <use xlink:href="#m8ef5c6cbe9" x="322.921844" y="43.676095" style="fill: #8c564b; fill-opacity: 0.5; stroke: #8c564b; stroke-opacity: 0.5"/>
     <use xlink:href="#m8ef5c6cbe9" x="336.270415" y="38.124504" style="fill: #8c564b; fill-opacity: 0.5; stroke: #8c564b; stroke-opacity: 0.5"/>
     <use xlink:href="#m8ef5c6cbe9" x="352.956144" y="32.572921" style="fill: #8c564b; fill-opacity: 0.5; stroke: #8c564b; stroke-opacity: 0.5"/>
     <use xlink:href="#m8ef5c6cbe9" x="349.619002" y="23.320274" style="fill: #8c564b; fill-opacity: 0.5; stroke: #8c564b; stroke-opacity: 0.5"/>
     <use xlink:href="#m8ef5c6cbe9" x="302.898955" y="45.526623" style="fill: #8c564b; fill-opacity: 0.5; stroke: #8c564b; stroke-opacity: 0.5"/>
     <use xlink:href="#m8ef5c6cbe9" x="306.236114" y="34.423448" style="fill: #8c564b; fill-opacity: 0.5; stroke: #8c564b; stroke-opacity: 0.5"/>
     <use xlink:href="#m8ef5c6cbe9" x="319.584685" y="39.97504" style="fill: #8c564b; fill-opacity: 0.5; stroke: #8c564b; stroke-opacity: 0.5"/>
    </g>
   </g>
   <g id="patch_13">
    <path d="M 322.98223 33.639058 
C 319.459962 32.466497 314.66863 32.646848 309.66347 34.140391 
C 304.65831 35.633933 299.847971 38.318726 296.291874 41.603475 
C 292.735777 44.888224 290.724262 48.504744 290.700341 51.656538 
C 290.676421 54.808332 292.642048 57.23807 296.164316 58.410631 
C 299.686584 59.583192 304.477915 59.402841 309.483075 57.909298 
C 314.488235 56.415756 319.298574 53.730963 322.854671 50.446214 
C 326.410768 47.161465 328.422283 43.544945 328.446204 40.393151 
C 328.470125 37.241357 326.504498 34.811619 322.98223 33.639058 
L 322.98223 33.639058 
z
" clip-path="url(#p4d468dee6f)" style="fill: none; stroke: #70453c; stroke-width: 2; stroke-linejoin: miter"/>
   </g>
   <g id="PathCollection_12">
    <g clip-path="url(#p4d468dee6f)">
     <use xlink:href="#m452b923c07" x="309.573273" y="46.024845" style="stroke: #000000"/>
    </g>
   </g>
   <g id="patch_14">
    <path d="M 309.535809 56.239125 
C 306.574922 54.836371 302.151222 54.51878 297.238978 55.356298 
C 292.326733 56.193816 287.327008 58.118064 283.340933 60.705248 
C 279.354857 63.292432 276.707878 66.331321 275.982961 69.152633 
C 275.258043 71.973946 276.514374 74.347335 279.475262 75.750089 
C 282.436149 77.152844 286.859849 77.470434 291.772093 76.632916 
C 296.684338 75.795398 301.684063 73.87115 305.670139 71.283966 
C 309.656214 68.696782 312.303193 65.657894 313.028111 62.836581 
C 313.753028 60.015269 312.496697 57.641879 309.535809 56.239125 
L 309.535809 56.239125 
z
" clip-path="url(#p4d468dee6f)" style="fill: none; stroke: #238023; stroke-width: 2; stroke-linejoin: miter"/>
   </g>
   <g id="PathCollection_13">
    <g clip-path="url(#p4d468dee6f)">
     <use xlink:href="#m452b923c07" x="294.505536" y="65.994607" style="stroke: #000000"/>
    </g>
   </g>
   <g id="patch_15">
    <path d="M 350.466852 12.983636 
C 347.366198 12.812721 344.126976 14.127884 341.462587 16.639475 
C 338.798198 19.151067 336.926178 22.654026 336.258817 26.376868 
C 335.591457 30.09971 336.183243 33.738481 337.903841 36.491783 
C 339.624439 39.245085 342.333371 40.888124 345.434025 41.059039 
C 348.534679 41.229954 351.773901 39.914792 354.43829 37.4032 
C 357.102679 34.891609 358.974699 31.388649 359.642059 27.665807 
C 360.30942 23.942965 359.717634 20.304195 357.997036 17.550893 
C 356.276437 14.79759 353.567506 13.154552 350.466852 12.983636 
L 350.466852 12.983636 
z
" clip-path="url(#p4d468dee6f)" style="fill: none; stroke: #70453c; stroke-width: 2; stroke-linejoin: miter"/>
   </g>
   <g id="PathCollection_14">
    <g clip-path="url(#p4d468dee6f)">
     <use xlink:href="#m452b923c07" x="347.950438" y="27.021338" style="stroke: #000000"/>
    </g>
   </g>
   <g id="patch_16">
    <path d="M 264.596733 108.588714 
C 260.950896 108.238552 257.123676 108.959912 253.957974 110.593923 
C 250.792272 112.227933 248.546554 114.641185 247.715413 117.302186 
C 246.884272 119.963188 247.535567 122.65468 249.525858 124.783894 
C 251.516149 126.913108 254.682937 128.306202 258.328775 128.656364 
C 261.974612 129.006525 265.801832 128.285165 268.967534 126.651155 
C 272.133236 125.017144 274.378954 122.603893 275.210095 119.942891 
C 276.041236 117.28189 275.389941 114.590397 273.39965 112.461183 
C 271.409359 110.331969 268.24257 108.938875 264.596733 108.588714 
L 264.596733 108.588714 
z
" clip-path="url(#p4d468dee6f)" style="fill: none; stroke: #195f90; stroke-width: 2; stroke-linejoin: miter"/>
   </g>
   <g id="PathCollection_15">
    <g clip-path="url(#p4d468dee6f)">
     <use xlink:href="#m452b923c07" x="261.462754" y="118.622539" style="stroke: #000000"/>
    </g>
   </g>
   <g id="patch_17">
    <path d="M 271.80156 106.53298 
C 269.463479 106.550642 267.244955 107.54894 265.634589 109.30801 
C 264.024224 111.06708 263.153498 113.443302 263.214178 115.913341 
C 263.274857 118.38338 264.261989 120.745568 265.958169 122.47966 
C 267.654348 124.213752 269.92109 125.178168 272.25917 125.160506 
C 274.59725 125.142844 276.815775 124.144546 278.42614 122.385476 
C 280.036505 120.626405 280.907232 118.250183 280.846552 115.780145 
C 280.785872 113.310106 279.79874 110.947918 278.102561 109.213826 
C 276.406381 107.479734 274.13964 106.515318 271.80156 106.53298 
L 271.80156 106.53298 
z
" clip-path="url(#p4d468dee6f)" style="fill: none; stroke: #195f90; stroke-width: 2; stroke-linejoin: miter"/>
   </g>
   <g id="PathCollection_16">
    <g clip-path="url(#p4d468dee6f)">
     <use xlink:href="#m452b923c07" x="272.030365" y="115.846743" style="stroke: #000000"/>
    </g>
   </g>
   <g id="matplotlib.axis_3">
    <g id="xtick_5">
     <g id="line2d_8">
      <g>
       <use xlink:href="#m772cebde7b" x="262.85321" y="134.44" style="stroke: #000000; stroke-width: 0.8"/>
      </g>
     </g>
     <g id="text_10">
      <!-- 5.0 -->
      <g transform="translate(254.901648 149.038437) scale(0.1 -0.1)">
       <use xlink:href="#DejaVuSans-35"/>
       <use xlink:href="#DejaVuSans-2e" x="63.623047"/>
       <use xlink:href="#DejaVuSans-30" x="95.410156"/>
      </g>
     </g>
    </g>
    <g id="xtick_6">
     <g id="line2d_9">
      <g>
       <use xlink:href="#m772cebde7b" x="296.22467" y="134.44" style="stroke: #000000; stroke-width: 0.8"/>
      </g>
     </g>
     <g id="text_11">
      <!-- 6.0 -->
      <g transform="translate(288.273107 149.038437) scale(0.1 -0.1)">
       <use xlink:href="#DejaVuSans-36"/>
       <use xlink:href="#DejaVuSans-2e" x="63.623047"/>
       <use xlink:href="#DejaVuSans-30" x="95.410156"/>
      </g>
     </g>
    </g>
    <g id="xtick_7">
     <g id="line2d_10">
      <g>
       <use xlink:href="#m772cebde7b" x="329.596129" y="134.44" style="stroke: #000000; stroke-width: 0.8"/>
      </g>
     </g>
     <g id="text_12">
      <!-- 7.0 -->
      <g transform="translate(321.644567 149.038437) scale(0.1 -0.1)">
       <use xlink:href="#DejaVuSans-37"/>
       <use xlink:href="#DejaVuSans-2e" x="63.623047"/>
       <use xlink:href="#DejaVuSans-30" x="95.410156"/>
      </g>
     </g>
    </g>
    <g id="xtick_8">
     <g id="line2d_11">
      <g>
       <use xlink:href="#m772cebde7b" x="362.967589" y="134.44" style="stroke: #000000; stroke-width: 0.8"/>
      </g>
     </g>
     <g id="text_13">
      <!-- 8.0 -->
      <g transform="translate(355.016026 149.038437) scale(0.1 -0.1)">
       <use xlink:href="#DejaVuSans-38"/>
       <use xlink:href="#DejaVuSans-2e" x="63.623047"/>
       <use xlink:href="#DejaVuSans-30" x="95.410156"/>
      </g>
     </g>
    </g>
    <g id="text_14">
     <!-- Feature 1 -->
     <g transform="translate(280.01858 162.716563) scale(0.1 -0.1)">
      <use xlink:href="#DejaVuSans-46"/>
      <use xlink:href="#DejaVuSans-65" x="52.019531"/>
      <use xlink:href="#DejaVuSans-61" x="113.542969"/>
      <use xlink:href="#DejaVuSans-74" x="174.822266"/>
      <use xlink:href="#DejaVuSans-75" x="214.03125"/>
      <use xlink:href="#DejaVuSans-72" x="277.410156"/>
      <use xlink:href="#DejaVuSans-65" x="316.273438"/>
      <use xlink:href="#DejaVuSans-20" x="377.796875"/>
      <use xlink:href="#DejaVuSans-31" x="409.583984"/>
     </g>
    </g>
   </g>
   <g id="matplotlib.axis_4">
    <g id="ytick_4">
     <g id="line2d_12">
      <g>
       <use xlink:href="#m943cf34b2e" x="242.119081" y="108.444626" style="stroke: #000000; stroke-width: 0.8"/>
      </g>
     </g>
     <g id="text_15">
      <!-- 2.0 -->
      <g transform="translate(219.215956 112.243844) scale(0.1 -0.1)">
       <use xlink:href="#DejaVuSans-32"/>
       <use xlink:href="#DejaVuSans-2e" x="63.623047"/>
       <use xlink:href="#DejaVuSans-30" x="95.410156"/>
      </g>
     </g>
    </g>
    <g id="ytick_5">
     <g id="line2d_13">
      <g>
       <use xlink:href="#m943cf34b2e" x="242.119081" y="71.434037" style="stroke: #000000; stroke-width: 0.8"/>
      </g>
     </g>
     <g id="text_16">
      <!-- 4.0 -->
      <g transform="translate(219.215956 75.233256) scale(0.1 -0.1)">
       <defs>
        <path id="DejaVuSans-34" d="M 2419 4116 
L 825 1625 
L 2419 1625 
L 2419 4116 
z
M 2253 4666 
L 3047 4666 
L 3047 1625 
L 3713 1625 
L 3713 1100 
L 3047 1100 
L 3047 0 
L 2419 0 
L 2419 1100 
L 313 1100 
L 313 1709 
L 2253 4666 
z
" transform="scale(0.015625)"/>
       </defs>
       <use xlink:href="#DejaVuSans-34"/>
       <use xlink:href="#DejaVuSans-2e" x="63.623047"/>
       <use xlink:href="#DejaVuSans-30" x="95.410156"/>
      </g>
     </g>
    </g>
    <g id="ytick_6">
     <g id="line2d_14">
      <g>
       <use xlink:href="#m943cf34b2e" x="242.119081" y="34.423448" style="stroke: #000000; stroke-width: 0.8"/>
      </g>
     </g>
     <g id="text_17">
      <!-- 6.0 -->
      <g transform="translate(219.215956 38.222667) scale(0.1 -0.1)">
       <use xlink:href="#DejaVuSans-36"/>
       <use xlink:href="#DejaVuSans-2e" x="63.623047"/>
       <use xlink:href="#DejaVuSans-30" x="95.410156"/>
      </g>
     </g>
    </g>
    <g id="text_18">
     <!-- Feature 3 -->
     <g transform="translate(213.136268 94.480156) rotate(-90) scale(0.1 -0.1)">
      <use xlink:href="#DejaVuSans-46"/>
      <use xlink:href="#DejaVuSans-65" x="52.019531"/>
      <use xlink:href="#DejaVuSans-61" x="113.542969"/>
      <use xlink:href="#DejaVuSans-74" x="174.822266"/>
      <use xlink:href="#DejaVuSans-75" x="214.03125"/>
      <use xlink:href="#DejaVuSans-72" x="277.410156"/>
      <use xlink:href="#DejaVuSans-65" x="316.273438"/>
      <use xlink:href="#DejaVuSans-20" x="377.796875"/>
      <use xlink:href="#DejaVuSans-33" x="409.583984"/>
     </g>
    </g>
   </g>
   <g id="patch_18">
    <path d="M 242.119081 134.44 
L 242.119081 7.2 
" style="fill: none; stroke: #000000; stroke-width: 0.8; stroke-linejoin: miter; stroke-linecap: square"/>
   </g>
   <g id="patch_19">
    <path d="M 365.238391 134.44 
L 365.238391 7.2 
" style="fill: none; stroke: #000000; stroke-width: 0.8; stroke-linejoin: miter; stroke-linecap: square"/>
   </g>
   <g id="patch_20">
    <path d="M 242.119081 134.44 
L 365.238391 134.44 
" style="fill: none; stroke: #000000; stroke-width: 0.8; stroke-linejoin: miter; stroke-linecap: square"/>
   </g>
   <g id="patch_21">
    <path d="M 242.119081 7.2 
L 365.238391 7.2 
" style="fill: none; stroke: #000000; stroke-width: 0.8; stroke-linejoin: miter; stroke-linecap: square"/>
   </g>
  </g>
  <g id="axes_3">
   <g id="patch_22">
    <path d="M 418.608162 134.44 
L 541.727472 134.44 
L 541.727472 7.2 
L 418.608162 7.2 
z
" style="fill: #ffffff"/>
   </g>
   <g id="PathCollection_17">
    <g clip-path="url(#p92bafc34aa)">
     <use xlink:href="#m97672594c9" x="439.593777" y="114.165447" style="fill: #1f77b4; fill-opacity: 0.5; stroke: #1f77b4; stroke-opacity: 0.5"/>
     <use xlink:href="#m97672594c9" x="439.593777" y="109.566274" style="fill: #1f77b4; fill-opacity: 0.5; stroke: #1f77b4; stroke-opacity: 0.5"/>
     <use xlink:href="#m97672594c9" x="456.208045" y="118.76462" style="fill: #1f77b4; fill-opacity: 0.5; stroke: #1f77b4; stroke-opacity: 0.5"/>
     <use xlink:href="#m97672594c9" x="436.270927" y="123.363794" style="fill: #1f77b4; fill-opacity: 0.5; stroke: #1f77b4; stroke-opacity: 0.5"/>
     <use xlink:href="#m97672594c9" x="432.948076" y="114.165447" style="fill: #1f77b4; fill-opacity: 0.5; stroke: #1f77b4; stroke-opacity: 0.5"/>
     <use xlink:href="#m97672594c9" x="439.593777" y="118.76462" style="fill: #1f77b4; fill-opacity: 0.5; stroke: #1f77b4; stroke-opacity: 0.5"/>
     <use xlink:href="#m97672594c9" x="442.916627" y="118.76462" style="fill: #1f77b4; fill-opacity: 0.5; stroke: #1f77b4; stroke-opacity: 0.5"/>
    </g>
   </g>
   <g id="PathCollection_18">
    <g clip-path="url(#p92bafc34aa)">
     <use xlink:href="#m4165fe3506" x="482.790879" y="68.173717" style="fill: #2ca02c; fill-opacity: 0.5; stroke: #2ca02c; stroke-opacity: 0.5"/>
     <use xlink:href="#m4165fe3506" x="476.145162" y="68.173717" style="fill: #2ca02c; fill-opacity: 0.5; stroke: #2ca02c; stroke-opacity: 0.5"/>
     <use xlink:href="#m4165fe3506" x="439.593777" y="81.971235" style="fill: #2ca02c; fill-opacity: 0.5; stroke: #2ca02c; stroke-opacity: 0.5"/>
     <use xlink:href="#m4165fe3506" x="476.145162" y="63.574543" style="fill: #2ca02c; fill-opacity: 0.5; stroke: #2ca02c; stroke-opacity: 0.5"/>
     <use xlink:href="#m4165fe3506" x="462.853745" y="68.173717" style="fill: #2ca02c; fill-opacity: 0.5; stroke: #2ca02c; stroke-opacity: 0.5"/>
     <use xlink:href="#m4165fe3506" x="482.790879" y="58.975369" style="fill: #2ca02c; fill-opacity: 0.5; stroke: #2ca02c; stroke-opacity: 0.5"/>
     <use xlink:href="#m4165fe3506" x="462.853745" y="81.971235" style="fill: #2ca02c; fill-opacity: 0.5; stroke: #2ca02c; stroke-opacity: 0.5"/>
     <use xlink:href="#m4165fe3506" x="502.727997" y="58.975369" style="fill: #2ca02c; fill-opacity: 0.5; stroke: #2ca02c; stroke-opacity: 0.5"/>
     <use xlink:href="#m4165fe3506" x="456.208045" y="77.37206" style="fill: #2ca02c; fill-opacity: 0.5; stroke: #2ca02c; stroke-opacity: 0.5"/>
     <use xlink:href="#m4165fe3506" x="456.208045" y="68.173717" style="fill: #2ca02c; fill-opacity: 0.5; stroke: #2ca02c; stroke-opacity: 0.5"/>
     <use xlink:href="#m4165fe3506" x="472.822312" y="54.376194" style="fill: #2ca02c; fill-opacity: 0.5; stroke: #2ca02c; stroke-opacity: 0.5"/>
     <use xlink:href="#m4165fe3506" x="442.916627" y="77.37206" style="fill: #2ca02c; fill-opacity: 0.5; stroke: #2ca02c; stroke-opacity: 0.5"/>
    </g>
   </g>
   <g id="PathCollection_19">
    <g clip-path="url(#p92bafc34aa)">
     <use xlink:href="#m8ef5c6cbe9" x="486.113729" y="45.177851" style="fill: #8c564b; fill-opacity: 0.5; stroke: #8c564b; stroke-opacity: 0.5"/>
     <use xlink:href="#m8ef5c6cbe9" x="482.790879" y="58.975369" style="fill: #8c564b; fill-opacity: 0.5; stroke: #8c564b; stroke-opacity: 0.5"/>
     <use xlink:href="#m8ef5c6cbe9" x="502.727997" y="22.181985" style="fill: #8c564b; fill-opacity: 0.5; stroke: #8c564b; stroke-opacity: 0.5"/>
     <use xlink:href="#m8ef5c6cbe9" x="486.113729" y="40.578677" style="fill: #8c564b; fill-opacity: 0.5; stroke: #8c564b; stroke-opacity: 0.5"/>
     <use xlink:href="#m8ef5c6cbe9" x="499.405146" y="31.380334" style="fill: #8c564b; fill-opacity: 0.5; stroke: #8c564b; stroke-opacity: 0.5"/>
     <use xlink:href="#m8ef5c6cbe9" x="512.696548" y="54.376194" style="fill: #8c564b; fill-opacity: 0.5; stroke: #8c564b; stroke-opacity: 0.5"/>
     <use xlink:href="#m8ef5c6cbe9" x="529.310815" y="22.181985" style="fill: #8c564b; fill-opacity: 0.5; stroke: #8c564b; stroke-opacity: 0.5"/>
     <use xlink:href="#m8ef5c6cbe9" x="525.987965" y="31.380334" style="fill: #8c564b; fill-opacity: 0.5; stroke: #8c564b; stroke-opacity: 0.5"/>
     <use xlink:href="#m8ef5c6cbe9" x="479.468013" y="22.181985" style="fill: #8c564b; fill-opacity: 0.5; stroke: #8c564b; stroke-opacity: 0.5"/>
     <use xlink:href="#m8ef5c6cbe9" x="482.790879" y="12.983636" style="fill: #8c564b; fill-opacity: 0.5; stroke: #8c564b; stroke-opacity: 0.5"/>
     <use xlink:href="#m8ef5c6cbe9" x="496.08228" y="31.380334" style="fill: #8c564b; fill-opacity: 0.5; stroke: #8c564b; stroke-opacity: 0.5"/>
    </g>
   </g>
   <g id="patch_23">
    <path d="M 467.483051 42.569068 
C 468.135272 46.526702 470.723915 49.70301 474.678861 51.398447 
C 478.633808 53.093884 483.632154 53.170024 488.573071 51.610098 
C 493.513989 50.050173 497.994075 46.981543 501.026642 43.080039 
C 504.059208 39.178535 505.39666 34.762697 504.744439 30.805062 
C 504.092218 26.847427 501.503575 23.671119 497.548629 21.975683 
C 493.593683 20.280246 488.595337 20.204106 483.654419 21.764031 
C 478.713501 23.323957 474.233415 26.392586 471.200849 30.294091 
C 468.168282 34.195595 466.83083 38.611433 467.483051 42.569068 
L 467.483051 42.569068 
z
" clip-path="url(#p92bafc34aa)" style="fill: none; stroke: #70453c; stroke-width: 2; stroke-linejoin: miter"/>
   </g>
   <g id="PathCollection_20">
    <g clip-path="url(#p92bafc34aa)">
     <use xlink:href="#m452b923c07" x="486.113745" y="36.687065" style="stroke: #000000"/>
    </g>
   </g>
   <g id="patch_24">
    <path d="M 452.52958 71.059472 
C 452.932568 74.113169 455.276913 76.547241 459.046299 77.825613 
C 462.815684 79.103984 467.702358 79.122282 472.630087 77.876476 
C 477.557815 76.63067 482.124271 74.222475 485.323745 71.182267 
C 488.52322 68.14206 490.09449 64.71806 489.691501 61.664363 
C 489.288513 58.610667 486.944169 56.176595 483.174783 54.898223 
C 479.405397 53.619852 474.518723 53.601554 469.590995 54.84736 
C 464.663267 56.093166 460.096811 58.501361 456.897336 61.541568 
C 453.697862 64.581776 452.126592 68.005776 452.52958 71.059472 
L 452.52958 71.059472 
z
" clip-path="url(#p92bafc34aa)" style="fill: none; stroke: #238023; stroke-width: 2; stroke-linejoin: miter"/>
   </g>
   <g id="PathCollection_21">
    <g clip-path="url(#p92bafc34aa)">
     <use xlink:href="#m452b923c07" x="471.110541" y="66.361918" style="stroke: #000000"/>
    </g>
   </g>
   <g id="patch_25">
    <path d="M 512.521955 40.987097 
C 512.937522 44.457494 514.579931 47.500886 517.087461 49.447002 
C 519.59499 51.393118 522.76291 52.083066 525.893525 51.364894 
C 529.024139 50.646721 531.861847 48.579063 533.781675 45.617297 
C 535.701504 42.655531 536.546707 39.041473 536.13114 35.571076 
C 535.715573 32.10068 534.073164 29.057288 531.565635 27.111172 
C 529.058106 25.165056 525.890185 24.475107 522.75957 25.19328 
C 519.628956 25.911453 516.791248 27.979111 514.87142 30.940877 
C 512.951592 33.902643 512.106388 37.516701 512.521955 40.987097 
L 512.521955 40.987097 
z
" clip-path="url(#p92bafc34aa)" style="fill: none; stroke: #70453c; stroke-width: 2; stroke-linejoin: miter"/>
   </g>
   <g id="PathCollection_22">
    <g clip-path="url(#p92bafc34aa)">
     <use xlink:href="#m452b923c07" x="524.326548" y="38.279087" style="stroke: #000000"/>
    </g>
   </g>
   <g id="patch_26">
    <path d="M 424.204494 119.55389 
C 424.466757 122.583783 426.193946 125.245292 429.005668 126.952251 
C 431.81739 128.65921 435.484079 129.272252 439.198191 128.656364 
C 442.912302 128.040475 446.370595 126.245939 448.81142 123.667983 
C 451.252246 121.090026 452.476321 117.939126 452.214058 114.909234 
C 451.951795 111.879341 450.224605 109.217832 447.412884 107.510873 
C 444.601162 105.803914 440.934473 105.190872 437.220361 105.80676 
C 433.50625 106.422649 430.047957 108.217185 427.607132 110.795141 
C 425.166306 113.373098 423.942231 116.523997 424.204494 119.55389 
L 424.204494 119.55389 
z
" clip-path="url(#p92bafc34aa)" style="fill: none; stroke: #195f90; stroke-width: 2; stroke-linejoin: miter"/>
   </g>
   <g id="PathCollection_23">
    <g clip-path="url(#p92bafc34aa)">
     <use xlink:href="#m452b923c07" x="438.209276" y="117.231562" style="stroke: #000000"/>
    </g>
   </g>
   <g id="patch_27">
    <path d="M 440.560174 107.875857 
C 439.707388 110.473209 439.75041 113.506091 440.679767 116.306546 
C 441.609123 119.107001 443.348936 121.446385 445.516031 122.809475 
C 447.683125 124.172564 450.100569 124.44807 452.235947 123.575315 
C 454.371326 122.70256 456.050295 120.752801 456.903081 118.155449 
C 457.755867 115.558097 457.712845 112.525215 456.783488 109.72476 
C 455.854132 106.924305 454.114319 104.584921 451.947224 103.221832 
C 449.780129 101.858742 447.362686 101.583236 445.227307 102.455991 
C 443.091929 103.328746 441.41296 105.278505 440.560174 107.875857 
L 440.560174 107.875857 
z
" clip-path="url(#p92bafc34aa)" style="fill: none; stroke: #195f90; stroke-width: 2; stroke-linejoin: miter"/>
   </g>
   <g id="PathCollection_24">
    <g clip-path="url(#p92bafc34aa)">
     <use xlink:href="#m452b923c07" x="448.731627" y="113.015653" style="stroke: #000000"/>
    </g>
   </g>
   <g id="matplotlib.axis_5">
    <g id="xtick_9">
     <g id="line2d_15">
      <g>
       <use xlink:href="#m772cebde7b" x="439.593777" y="134.44" style="stroke: #000000; stroke-width: 0.8"/>
      </g>
     </g>
     <g id="text_19">
      <!-- 5.0 -->
      <g transform="translate(431.642215 149.038437) scale(0.1 -0.1)">
       <use xlink:href="#DejaVuSans-35"/>
       <use xlink:href="#DejaVuSans-2e" x="63.623047"/>
       <use xlink:href="#DejaVuSans-30" x="95.410156"/>
      </g>
     </g>
    </g>
    <g id="xtick_10">
     <g id="line2d_16">
      <g>
       <use xlink:href="#m772cebde7b" x="472.822312" y="134.44" style="stroke: #000000; stroke-width: 0.8"/>
      </g>
     </g>
     <g id="text_20">
      <!-- 6.0 -->
      <g transform="translate(464.87075 149.038437) scale(0.1 -0.1)">
       <use xlink:href="#DejaVuSans-36"/>
       <use xlink:href="#DejaVuSans-2e" x="63.623047"/>
       <use xlink:href="#DejaVuSans-30" x="95.410156"/>
      </g>
     </g>
    </g>
    <g id="xtick_11">
     <g id="line2d_17">
      <g>
       <use xlink:href="#m772cebde7b" x="506.050847" y="134.44" style="stroke: #000000; stroke-width: 0.8"/>
      </g>
     </g>
     <g id="text_21">
      <!-- 7.0 -->
      <g transform="translate(498.099285 149.038437) scale(0.1 -0.1)">
       <use xlink:href="#DejaVuSans-37"/>
       <use xlink:href="#DejaVuSans-2e" x="63.623047"/>
       <use xlink:href="#DejaVuSans-30" x="95.410156"/>
      </g>
     </g>
    </g>
    <g id="xtick_12">
     <g id="line2d_18">
      <g>
       <use xlink:href="#m772cebde7b" x="539.279382" y="134.44" style="stroke: #000000; stroke-width: 0.8"/>
      </g>
     </g>
     <g id="text_22">
      <!-- 8.0 -->
      <g transform="translate(531.32782 149.038437) scale(0.1 -0.1)">
       <use xlink:href="#DejaVuSans-38"/>
       <use xlink:href="#DejaVuSans-2e" x="63.623047"/>
       <use xlink:href="#DejaVuSans-30" x="95.410156"/>
      </g>
     </g>
    </g>
    <g id="text_23">
     <!-- Feature 1 -->
     <g transform="translate(456.507661 162.716563) scale(0.1 -0.1)">
      <use xlink:href="#DejaVuSans-46"/>
      <use xlink:href="#DejaVuSans-65" x="52.019531"/>
      <use xlink:href="#DejaVuSans-61" x="113.542969"/>
      <use xlink:href="#DejaVuSans-74" x="174.822266"/>
      <use xlink:href="#DejaVuSans-75" x="214.03125"/>
      <use xlink:href="#DejaVuSans-72" x="277.410156"/>
      <use xlink:href="#DejaVuSans-65" x="316.273438"/>
      <use xlink:href="#DejaVuSans-20" x="377.796875"/>
      <use xlink:href="#DejaVuSans-31" x="409.583984"/>
     </g>
    </g>
   </g>
   <g id="matplotlib.axis_6">
    <g id="ytick_7">
     <g id="line2d_19">
      <g>
       <use xlink:href="#m943cf34b2e" x="418.608162" y="127.962967" style="stroke: #000000; stroke-width: 0.8"/>
      </g>
     </g>
     <g id="text_24">
      <!-- 0.0 -->
      <g transform="translate(395.705037 131.762186) scale(0.1 -0.1)">
       <use xlink:href="#DejaVuSans-30"/>
       <use xlink:href="#DejaVuSans-2e" x="63.623047"/>
       <use xlink:href="#DejaVuSans-30" x="95.410156"/>
      </g>
     </g>
    </g>
    <g id="ytick_8">
     <g id="line2d_20">
      <g>
       <use xlink:href="#m943cf34b2e" x="418.608162" y="104.967101" style="stroke: #000000; stroke-width: 0.8"/>
      </g>
     </g>
     <g id="text_25">
      <!-- 0.5 -->
      <g transform="translate(395.705037 108.76632) scale(0.1 -0.1)">
       <use xlink:href="#DejaVuSans-30"/>
       <use xlink:href="#DejaVuSans-2e" x="63.623047"/>
       <use xlink:href="#DejaVuSans-35" x="95.410156"/>
      </g>
     </g>
    </g>
    <g id="ytick_9">
     <g id="line2d_21">
      <g>
       <use xlink:href="#m943cf34b2e" x="418.608162" y="81.971235" style="stroke: #000000; stroke-width: 0.8"/>
      </g>
     </g>
     <g id="text_26">
      <!-- 1.0 -->
      <g transform="translate(395.705037 85.770453) scale(0.1 -0.1)">
       <use xlink:href="#DejaVuSans-31"/>
       <use xlink:href="#DejaVuSans-2e" x="63.623047"/>
       <use xlink:href="#DejaVuSans-30" x="95.410156"/>
      </g>
     </g>
    </g>
    <g id="ytick_10">
     <g id="line2d_22">
      <g>
       <use xlink:href="#m943cf34b2e" x="418.608162" y="58.975369" style="stroke: #000000; stroke-width: 0.8"/>
      </g>
     </g>
     <g id="text_27">
      <!-- 1.5 -->
      <g transform="translate(395.705037 62.774587) scale(0.1 -0.1)">
       <use xlink:href="#DejaVuSans-31"/>
       <use xlink:href="#DejaVuSans-2e" x="63.623047"/>
       <use xlink:href="#DejaVuSans-35" x="95.410156"/>
      </g>
     </g>
    </g>
    <g id="ytick_11">
     <g id="line2d_23">
      <g>
       <use xlink:href="#m943cf34b2e" x="418.608162" y="35.979502" style="stroke: #000000; stroke-width: 0.8"/>
      </g>
     </g>
     <g id="text_28">
      <!-- 2.0 -->
      <g transform="translate(395.705037 39.778721) scale(0.1 -0.1)">
       <use xlink:href="#DejaVuSans-32"/>
       <use xlink:href="#DejaVuSans-2e" x="63.623047"/>
       <use xlink:href="#DejaVuSans-30" x="95.410156"/>
      </g>
     </g>
    </g>
    <g id="ytick_12">
     <g id="line2d_24">
      <g>
       <use xlink:href="#m943cf34b2e" x="418.608162" y="12.983636" style="stroke: #000000; stroke-width: 0.8"/>
      </g>
     </g>
     <g id="text_29">
      <!-- 2.5 -->
      <g transform="translate(395.705037 16.782855) scale(0.1 -0.1)">
       <use xlink:href="#DejaVuSans-32"/>
       <use xlink:href="#DejaVuSans-2e" x="63.623047"/>
       <use xlink:href="#DejaVuSans-35" x="95.410156"/>
      </g>
     </g>
    </g>
    <g id="text_30">
     <!-- Feature 4 -->
     <g transform="translate(389.625349 94.480156) rotate(-90) scale(0.1 -0.1)">
      <use xlink:href="#DejaVuSans-46"/>
      <use xlink:href="#DejaVuSans-65" x="52.019531"/>
      <use xlink:href="#DejaVuSans-61" x="113.542969"/>
      <use xlink:href="#DejaVuSans-74" x="174.822266"/>
      <use xlink:href="#DejaVuSans-75" x="214.03125"/>
      <use xlink:href="#DejaVuSans-72" x="277.410156"/>
      <use xlink:href="#DejaVuSans-65" x="316.273438"/>
      <use xlink:href="#DejaVuSans-20" x="377.796875"/>
      <use xlink:href="#DejaVuSans-34" x="409.583984"/>
     </g>
    </g>
   </g>
   <g id="patch_28">
    <path d="M 418.608162 134.44 
L 418.608162 7.2 
" style="fill: none; stroke: #000000; stroke-width: 0.8; stroke-linejoin: miter; stroke-linecap: square"/>
   </g>
   <g id="patch_29">
    <path d="M 541.727472 134.44 
L 541.727472 7.2 
" style="fill: none; stroke: #000000; stroke-width: 0.8; stroke-linejoin: miter; stroke-linecap: square"/>
   </g>
   <g id="patch_30">
    <path d="M 418.608162 134.44 
L 541.727472 134.44 
" style="fill: none; stroke: #000000; stroke-width: 0.8; stroke-linejoin: miter; stroke-linecap: square"/>
   </g>
   <g id="patch_31">
    <path d="M 418.608162 7.2 
L 541.727472 7.2 
" style="fill: none; stroke: #000000; stroke-width: 0.8; stroke-linejoin: miter; stroke-linecap: square"/>
   </g>
   <g id="legend_1">
    <g id="patch_32">
     <path d="M 457.69466 129.44 
L 534.727472 129.44 
Q 536.727472 129.44 536.727472 127.44 
L 536.727472 40.37125 
Q 536.727472 38.37125 534.727472 38.37125 
L 457.69466 38.37125 
Q 455.69466 38.37125 455.69466 40.37125 
L 455.69466 127.44 
Q 455.69466 129.44 457.69466 129.44 
z
" style="fill: #ffffff; opacity: 0.8; stroke: #cccccc; stroke-linejoin: miter"/>
    </g>
    <g id="PathCollection_25">
     <g>
      <use xlink:href="#m97672594c9" x="469.69466" y="47.344688" style="fill: #1f77b4; fill-opacity: 0.5; stroke: #1f77b4; stroke-opacity: 0.5"/>
     </g>
    </g>
    <g id="text_31">
     <!-- Class 1 -->
     <g transform="translate(487.69466 49.969688) scale(0.1 -0.1)">
      <defs>
       <path id="DejaVuSans-43" d="M 4122 4306 
L 4122 3641 
Q 3803 3938 3442 4084 
Q 3081 4231 2675 4231 
Q 1875 4231 1450 3742 
Q 1025 3253 1025 2328 
Q 1025 1406 1450 917 
Q 1875 428 2675 428 
Q 3081 428 3442 575 
Q 3803 722 4122 1019 
L 4122 359 
Q 3791 134 3420 21 
Q 3050 -91 2638 -91 
Q 1578 -91 968 557 
Q 359 1206 359 2328 
Q 359 3453 968 4101 
Q 1578 4750 2638 4750 
Q 3056 4750 3426 4639 
Q 3797 4528 4122 4306 
z
" transform="scale(0.015625)"/>
       <path id="DejaVuSans-6c" d="M 603 4863 
L 1178 4863 
L 1178 0 
L 603 0 
L 603 4863 
z
" transform="scale(0.015625)"/>
       <path id="DejaVuSans-73" d="M 2834 3397 
L 2834 2853 
Q 2591 2978 2328 3040 
Q 2066 3103 1784 3103 
Q 1356 3103 1142 2972 
Q 928 2841 928 2578 
Q 928 2378 1081 2264 
Q 1234 2150 1697 2047 
L 1894 2003 
Q 2506 1872 2764 1633 
Q 3022 1394 3022 966 
Q 3022 478 2636 193 
Q 2250 -91 1575 -91 
Q 1294 -91 989 -36 
Q 684 19 347 128 
L 347 722 
Q 666 556 975 473 
Q 1284 391 1588 391 
Q 1994 391 2212 530 
Q 2431 669 2431 922 
Q 2431 1156 2273 1281 
Q 2116 1406 1581 1522 
L 1381 1569 
Q 847 1681 609 1914 
Q 372 2147 372 2553 
Q 372 3047 722 3315 
Q 1072 3584 1716 3584 
Q 2034 3584 2315 3537 
Q 2597 3491 2834 3397 
z
" transform="scale(0.015625)"/>
      </defs>
      <use xlink:href="#DejaVuSans-43"/>
      <use xlink:href="#DejaVuSans-6c" x="69.824219"/>
      <use xlink:href="#DejaVuSans-61" x="97.607422"/>
      <use xlink:href="#DejaVuSans-73" x="158.886719"/>
      <use xlink:href="#DejaVuSans-73" x="210.986328"/>
      <use xlink:href="#DejaVuSans-20" x="263.085938"/>
      <use xlink:href="#DejaVuSans-31" x="294.873047"/>
     </g>
    </g>
    <g id="PathCollection_26">
     <g>
      <use xlink:href="#m4165fe3506" x="469.69466" y="62.022813" style="fill: #2ca02c; fill-opacity: 0.5; stroke: #2ca02c; stroke-opacity: 0.5"/>
     </g>
    </g>
    <g id="text_32">
     <!-- Class 2 -->
     <g transform="translate(487.69466 64.647813) scale(0.1 -0.1)">
      <use xlink:href="#DejaVuSans-43"/>
      <use xlink:href="#DejaVuSans-6c" x="69.824219"/>
      <use xlink:href="#DejaVuSans-61" x="97.607422"/>
      <use xlink:href="#DejaVuSans-73" x="158.886719"/>
      <use xlink:href="#DejaVuSans-73" x="210.986328"/>
      <use xlink:href="#DejaVuSans-20" x="263.085938"/>
      <use xlink:href="#DejaVuSans-32" x="294.873047"/>
     </g>
    </g>
    <g id="PathCollection_27">
     <g>
      <use xlink:href="#m8ef5c6cbe9" x="469.69466" y="76.700938" style="fill: #8c564b; fill-opacity: 0.5; stroke: #8c564b; stroke-opacity: 0.5"/>
     </g>
    </g>
    <g id="text_33">
     <!-- Class 3 -->
     <g transform="translate(487.69466 79.325938) scale(0.1 -0.1)">
      <use xlink:href="#DejaVuSans-43"/>
      <use xlink:href="#DejaVuSans-6c" x="69.824219"/>
      <use xlink:href="#DejaVuSans-61" x="97.607422"/>
      <use xlink:href="#DejaVuSans-73" x="158.886719"/>
      <use xlink:href="#DejaVuSans-73" x="210.986328"/>
      <use xlink:href="#DejaVuSans-20" x="263.085938"/>
      <use xlink:href="#DejaVuSans-33" x="294.873047"/>
     </g>
    </g>
    <g id="patch_33">
     <path d="M 459.69466 94.004063 
L 479.69466 94.004063 
L 479.69466 87.004063 
L 459.69466 87.004063 
L 459.69466 94.004063 
z
" style="fill: none; stroke: #70453c; stroke-width: 2; stroke-linejoin: miter"/>
    </g>
    <g id="text_34">
     <!-- Cluster 3 -->
     <g transform="translate(487.69466 94.004063) scale(0.1 -0.1)">
      <use xlink:href="#DejaVuSans-43"/>
      <use xlink:href="#DejaVuSans-6c" x="69.824219"/>
      <use xlink:href="#DejaVuSans-75" x="97.607422"/>
      <use xlink:href="#DejaVuSans-73" x="160.986328"/>
      <use xlink:href="#DejaVuSans-74" x="213.085938"/>
      <use xlink:href="#DejaVuSans-65" x="252.294922"/>
      <use xlink:href="#DejaVuSans-72" x="313.818359"/>
      <use xlink:href="#DejaVuSans-20" x="354.931641"/>
      <use xlink:href="#DejaVuSans-33" x="386.71875"/>
     </g>
    </g>
    <g id="patch_34">
     <path d="M 459.69466 108.682188 
L 479.69466 108.682188 
L 479.69466 101.682188 
L 459.69466 101.682188 
L 459.69466 108.682188 
z
" style="fill: none; stroke: #238023; stroke-width: 2; stroke-linejoin: miter"/>
    </g>
    <g id="text_35">
     <!-- Cluster 2 -->
     <g transform="translate(487.69466 108.682188) scale(0.1 -0.1)">
      <use xlink:href="#DejaVuSans-43"/>
      <use xlink:href="#DejaVuSans-6c" x="69.824219"/>
      <use xlink:href="#DejaVuSans-75" x="97.607422"/>
      <use xlink:href="#DejaVuSans-73" x="160.986328"/>
      <use xlink:href="#DejaVuSans-74" x="213.085938"/>
      <use xlink:href="#DejaVuSans-65" x="252.294922"/>
      <use xlink:href="#DejaVuSans-72" x="313.818359"/>
      <use xlink:href="#DejaVuSans-20" x="354.931641"/>
      <use xlink:href="#DejaVuSans-32" x="386.71875"/>
     </g>
    </g>
    <g id="patch_35">
     <path d="M 459.69466 123.360313 
L 479.69466 123.360313 
L 479.69466 116.360313 
L 459.69466 116.360313 
L 459.69466 123.360313 
z
" style="fill: none; stroke: #195f90; stroke-width: 2; stroke-linejoin: miter"/>
    </g>
    <g id="text_36">
     <!-- Cluster 1 -->
     <g transform="translate(487.69466 123.360313) scale(0.1 -0.1)">
      <use xlink:href="#DejaVuSans-43"/>
      <use xlink:href="#DejaVuSans-6c" x="69.824219"/>
      <use xlink:href="#DejaVuSans-75" x="97.607422"/>
      <use xlink:href="#DejaVuSans-73" x="160.986328"/>
      <use xlink:href="#DejaVuSans-74" x="213.085938"/>
      <use xlink:href="#DejaVuSans-65" x="252.294922"/>
      <use xlink:href="#DejaVuSans-72" x="313.818359"/>
      <use xlink:href="#DejaVuSans-20" x="354.931641"/>
      <use xlink:href="#DejaVuSans-31" x="386.71875"/>
     </g>
    </g>
   </g>
  </g>
  <g id="text_37">
   <!-- Global model -->
   <g transform="translate(16.318125 126.130312) rotate(-90) scale(0.12 -0.12)">
    <defs>
     <path id="DejaVuSans-47" d="M 3809 666 
L 3809 1919 
L 2778 1919 
L 2778 2438 
L 4434 2438 
L 4434 434 
Q 4069 175 3628 42 
Q 3188 -91 2688 -91 
Q 1594 -91 976 548 
Q 359 1188 359 2328 
Q 359 3472 976 4111 
Q 1594 4750 2688 4750 
Q 3144 4750 3555 4637 
Q 3966 4525 4313 4306 
L 4313 3634 
Q 3963 3931 3569 4081 
Q 3175 4231 2741 4231 
Q 1884 4231 1454 3753 
Q 1025 3275 1025 2328 
Q 1025 1384 1454 906 
Q 1884 428 2741 428 
Q 3075 428 3337 486 
Q 3600 544 3809 666 
z
" transform="scale(0.015625)"/>
     <path id="DejaVuSans-6f" d="M 1959 3097 
Q 1497 3097 1228 2736 
Q 959 2375 959 1747 
Q 959 1119 1226 758 
Q 1494 397 1959 397 
Q 2419 397 2687 759 
Q 2956 1122 2956 1747 
Q 2956 2369 2687 2733 
Q 2419 3097 1959 3097 
z
M 1959 3584 
Q 2709 3584 3137 3096 
Q 3566 2609 3566 1747 
Q 3566 888 3137 398 
Q 2709 -91 1959 -91 
Q 1206 -91 779 398 
Q 353 888 353 1747 
Q 353 2609 779 3096 
Q 1206 3584 1959 3584 
z
" transform="scale(0.015625)"/>
     <path id="DejaVuSans-62" d="M 3116 1747 
Q 3116 2381 2855 2742 
Q 2594 3103 2138 3103 
Q 1681 3103 1420 2742 
Q 1159 2381 1159 1747 
Q 1159 1113 1420 752 
Q 1681 391 2138 391 
Q 2594 391 2855 752 
Q 3116 1113 3116 1747 
z
M 1159 2969 
Q 1341 3281 1617 3432 
Q 1894 3584 2278 3584 
Q 2916 3584 3314 3078 
Q 3713 2572 3713 1747 
Q 3713 922 3314 415 
Q 2916 -91 2278 -91 
Q 1894 -91 1617 61 
Q 1341 213 1159 525 
L 1159 0 
L 581 0 
L 581 4863 
L 1159 4863 
L 1159 2969 
z
" transform="scale(0.015625)"/>
     <path id="DejaVuSans-6d" d="M 3328 2828 
Q 3544 3216 3844 3400 
Q 4144 3584 4550 3584 
Q 5097 3584 5394 3201 
Q 5691 2819 5691 2113 
L 5691 0 
L 5113 0 
L 5113 2094 
Q 5113 2597 4934 2840 
Q 4756 3084 4391 3084 
Q 3944 3084 3684 2787 
Q 3425 2491 3425 1978 
L 3425 0 
L 2847 0 
L 2847 2094 
Q 2847 2600 2669 2842 
Q 2491 3084 2119 3084 
Q 1678 3084 1418 2786 
Q 1159 2488 1159 1978 
L 1159 0 
L 581 0 
L 581 3500 
L 1159 3500 
L 1159 2956 
Q 1356 3278 1631 3431 
Q 1906 3584 2284 3584 
Q 2666 3584 2933 3390 
Q 3200 3197 3328 2828 
z
" transform="scale(0.015625)"/>
     <path id="DejaVuSans-64" d="M 2906 2969 
L 2906 4863 
L 3481 4863 
L 3481 0 
L 2906 0 
L 2906 525 
Q 2725 213 2448 61 
Q 2172 -91 1784 -91 
Q 1150 -91 751 415 
Q 353 922 353 1747 
Q 353 2572 751 3078 
Q 1150 3584 1784 3584 
Q 2172 3584 2448 3432 
Q 2725 3281 2906 2969 
z
M 947 1747 
Q 947 1113 1208 752 
Q 1469 391 1925 391 
Q 2381 391 2643 752 
Q 2906 1113 2906 1747 
Q 2906 2381 2643 2742 
Q 2381 3103 1925 3103 
Q 1469 3103 1208 2742 
Q 947 2381 947 1747 
z
" transform="scale(0.015625)"/>
    </defs>
    <use xlink:href="#DejaVuSans-47"/>
    <use xlink:href="#DejaVuSans-6c" x="77.490234"/>
    <use xlink:href="#DejaVuSans-6f" x="105.273438"/>
    <use xlink:href="#DejaVuSans-62" x="166.455078"/>
    <use xlink:href="#DejaVuSans-61" x="229.931641"/>
    <use xlink:href="#DejaVuSans-6c" x="291.210938"/>
    <use xlink:href="#DejaVuSans-20" x="318.994141"/>
    <use xlink:href="#DejaVuSans-6d" x="350.78125"/>
    <use xlink:href="#DejaVuSans-6f" x="448.193359"/>
    <use xlink:href="#DejaVuSans-64" x="509.375"/>
    <use xlink:href="#DejaVuSans-65" x="572.851562"/>
    <use xlink:href="#DejaVuSans-6c" x="634.375"/>
   </g>
  </g>
 </g>
 <defs>
  <clipPath id="pec8bcaa941">
   <rect x="65.63" y="7.2" width="123.119311" height="127.24"/>
  </clipPath>
  <clipPath id="p4d468dee6f">
   <rect x="242.119081" y="7.2" width="123.119311" height="127.24"/>
  </clipPath>
  <clipPath id="p92bafc34aa">
   <rect x="418.608162" y="7.2" width="123.119311" height="127.24"/>
  </clipPath>
 </defs>
</svg>
