<?xml version="1.0" encoding="utf-8" standalone="no"?>
<!DOCTYPE svg PUBLIC "-//W3C//DTD SVG 1.1//EN"
  "http://www.w3.org/Graphics/SVG/1.1/DTD/svg11.dtd">
<svg xmlns:xlink="http://www.w3.org/1999/xlink" width="533.405pt" height="172.940625pt" viewBox="0 0 533.405 172.940625" xmlns="http://www.w3.org/2000/svg" version="1.1">
 <metadata>
  <rdf:RDF xmlns:dc="http://purl.org/dc/elements/1.1/" xmlns:cc="http://creativecommons.org/ns#" xmlns:rdf="http://www.w3.org/1999/02/22-rdf-syntax-ns#">
   <cc:Work>
    <dc:type rdf:resource="http://purl.org/dc/dcmitype/StillImage"/>
    <dc:date>2023-12-21T16:30:03.216679</dc:date>
    <dc:format>image/svg+xml</dc:format>
    <dc:creator>
     <cc:Agent>
      <dc:title>Matplotlib v3.8.0, https://matplotlib.org/</dc:title>
     </cc:Agent>
    </dc:creator>
   </cc:Work>
  </rdf:RDF>
 </metadata>
 <defs>
  <style type="text/css">*{stroke-linejoin: round; stroke-linecap: butt}</style>
 </defs>
 <g id="figure_1">
  <g id="patch_1">
   <path d="M 0 172.940625 
L 533.405 172.940625 
L 533.405 0 
L 0 0 
z
" style="fill: #ffffff"/>
  </g>
  <g id="axes_1">
   <g id="patch_2">
    <path d="M 32.305 137.32 
L 173.345 137.32 
L 173.345 7.2 
L 32.305 7.2 
z
" style="fill: #ffffff"/>
   </g>
   <g id="PathCollection_1">
    <defs>
     <path id="mbf921f3e5e" d="M 0 3 
C 0.795609 3 1.55874 2.683901 2.12132 2.12132 
C 2.683901 1.55874 3 0.795609 3 0 
C 3 -0.795609 2.683901 -1.55874 2.12132 -2.12132 
C 1.55874 -2.683901 0.795609 -3 0 -3 
C -0.795609 -3 -1.55874 -2.683901 -2.12132 -2.12132 
C -2.683901 -1.55874 -3 -0.795609 -3 0 
C -3 0.795609 -2.683901 1.55874 -2.12132 2.12132 
C -1.55874 2.683901 -0.795609 3 0 3 
z
" style="stroke: #1f77b4; stroke-opacity: 0.5"/>
    </defs>
    <g clip-path="url(#pc508938430)">
     <use xlink:href="#mbf921f3e5e" x="50.309485" y="65.688281" style="fill: #1f77b4; fill-opacity: 0.5; stroke: #1f77b4; stroke-opacity: 0.5"/>
     <use xlink:href="#mbf921f3e5e" x="92.81932" y="13.114545" style="fill: #1f77b4; fill-opacity: 0.5; stroke: #1f77b4; stroke-opacity: 0.5"/>
     <use xlink:href="#mbf921f3e5e" x="65.767605" y="52.544843" style="fill: #1f77b4; fill-opacity: 0.5; stroke: #1f77b4; stroke-opacity: 0.5"/>
     <use xlink:href="#mbf921f3e5e" x="46.44496" y="52.544843" style="fill: #1f77b4; fill-opacity: 0.5; stroke: #1f77b4; stroke-opacity: 0.5"/>
     <use xlink:href="#mbf921f3e5e" x="65.767605" y="59.11657" style="fill: #1f77b4; fill-opacity: 0.5; stroke: #1f77b4; stroke-opacity: 0.5"/>
     <use xlink:href="#mbf921f3e5e" x="69.63213" y="52.544843" style="fill: #1f77b4; fill-opacity: 0.5; stroke: #1f77b4; stroke-opacity: 0.5"/>
     <use xlink:href="#mbf921f3e5e" x="54.174029" y="78.831719" style="fill: #1f77b4; fill-opacity: 0.5; stroke: #1f77b4; stroke-opacity: 0.5"/>
     <use xlink:href="#mbf921f3e5e" x="61.90308" y="45.973132" style="fill: #1f77b4; fill-opacity: 0.5; stroke: #1f77b4; stroke-opacity: 0.5"/>
     <use xlink:href="#mbf921f3e5e" x="61.90308" y="65.688281" style="fill: #1f77b4; fill-opacity: 0.5; stroke: #1f77b4; stroke-opacity: 0.5"/>
     <use xlink:href="#mbf921f3e5e" x="38.715909" y="78.831719" style="fill: #1f77b4; fill-opacity: 0.5; stroke: #1f77b4; stroke-opacity: 0.5"/>
     <use xlink:href="#mbf921f3e5e" x="61.90308" y="39.401421" style="fill: #1f77b4; fill-opacity: 0.5; stroke: #1f77b4; stroke-opacity: 0.5"/>
     <use xlink:href="#mbf921f3e5e" x="42.580434" y="124.833743" style="fill: #1f77b4; fill-opacity: 0.5; stroke: #1f77b4; stroke-opacity: 0.5"/>
     <use xlink:href="#mbf921f3e5e" x="58.038554" y="72.260008" style="fill: #1f77b4; fill-opacity: 0.5; stroke: #1f77b4; stroke-opacity: 0.5"/>
     <use xlink:href="#mbf921f3e5e" x="77.3612" y="52.544843" style="fill: #1f77b4; fill-opacity: 0.5; stroke: #1f77b4; stroke-opacity: 0.5"/>
     <use xlink:href="#mbf921f3e5e" x="65.767605" y="26.257983" style="fill: #1f77b4; fill-opacity: 0.5; stroke: #1f77b4; stroke-opacity: 0.5"/>
    </g>
   </g>
   <g id="PathCollection_2">
    <defs>
     <path id="m64ef1f2ddb" d="M 0 3 
C 0.795609 3 1.55874 2.683901 2.12132 2.12132 
C 2.683901 1.55874 3 0.795609 3 0 
C 3 -0.795609 2.683901 -1.55874 2.12132 -2.12132 
C 1.55874 -2.683901 0.795609 -3 0 -3 
C -0.795609 -3 -1.55874 -2.683901 -2.12132 -2.12132 
C -2.683901 -1.55874 -3 -0.795609 -3 0 
C -3 0.795609 -2.683901 1.55874 -2.12132 2.12132 
C -1.55874 2.683901 -0.795609 3 0 3 
z
" style="stroke: #2ca02c; stroke-opacity: 0.5"/>
    </defs>
    <g clip-path="url(#pc508938430)">
     <use xlink:href="#m64ef1f2ddb" x="88.954776" y="78.831719" style="fill: #2ca02c; fill-opacity: 0.5; stroke: #2ca02c; stroke-opacity: 0.5"/>
     <use xlink:href="#m64ef1f2ddb" x="127.600066" y="72.260008" style="fill: #2ca02c; fill-opacity: 0.5; stroke: #2ca02c; stroke-opacity: 0.5"/>
     <use xlink:href="#m64ef1f2ddb" x="92.81932" y="98.546868" style="fill: #2ca02c; fill-opacity: 0.5; stroke: #2ca02c; stroke-opacity: 0.5"/>
     <use xlink:href="#m64ef1f2ddb" x="88.954776" y="91.975157" style="fill: #2ca02c; fill-opacity: 0.5; stroke: #2ca02c; stroke-opacity: 0.5"/>
     <use xlink:href="#m64ef1f2ddb" x="127.600066" y="72.260008" style="fill: #2ca02c; fill-opacity: 0.5; stroke: #2ca02c; stroke-opacity: 0.5"/>
     <use xlink:href="#m64ef1f2ddb" x="104.412896" y="78.831719" style="fill: #2ca02c; fill-opacity: 0.5; stroke: #2ca02c; stroke-opacity: 0.5"/>
     <use xlink:href="#m64ef1f2ddb" x="81.225725" y="118.262017" style="fill: #2ca02c; fill-opacity: 0.5; stroke: #2ca02c; stroke-opacity: 0.5"/>
    </g>
   </g>
   <g id="PathCollection_3">
    <defs>
     <path id="m6430023bfb" d="M 0 3 
C 0.795609 3 1.55874 2.683901 2.12132 2.12132 
C 2.683901 1.55874 3 0.795609 3 0 
C 3 -0.795609 2.683901 -1.55874 2.12132 -2.12132 
C 1.55874 -2.683901 0.795609 -3 0 -3 
C -0.795609 -3 -1.55874 -2.683901 -2.12132 -2.12132 
C -2.683901 -1.55874 -3 -0.795609 -3 0 
C -3 0.795609 -2.683901 1.55874 -2.12132 2.12132 
C -1.55874 2.683901 -0.795609 3 0 3 
z
" style="stroke: #8c564b; stroke-opacity: 0.5"/>
    </defs>
    <g clip-path="url(#pc508938430)">
     <use xlink:href="#m6430023bfb" x="131.46461" y="78.831719" style="fill: #8c564b; fill-opacity: 0.5; stroke: #8c564b; stroke-opacity: 0.5"/>
     <use xlink:href="#m6430023bfb" x="104.412896" y="105.118595" style="fill: #8c564b; fill-opacity: 0.5; stroke: #8c564b; stroke-opacity: 0.5"/>
     <use xlink:href="#m6430023bfb" x="96.683845" y="78.831719" style="fill: #8c564b; fill-opacity: 0.5; stroke: #8c564b; stroke-opacity: 0.5"/>
     <use xlink:href="#m6430023bfb" x="108.277421" y="52.544843" style="fill: #8c564b; fill-opacity: 0.5; stroke: #8c564b; stroke-opacity: 0.5"/>
     <use xlink:href="#m6430023bfb" x="143.058186" y="78.831719" style="fill: #8c564b; fill-opacity: 0.5; stroke: #8c564b; stroke-opacity: 0.5"/>
     <use xlink:href="#m6430023bfb" x="162.380832" y="78.831719" style="fill: #8c564b; fill-opacity: 0.5; stroke: #8c564b; stroke-opacity: 0.5"/>
     <use xlink:href="#m6430023bfb" x="100.54837" y="131.405455" style="fill: #8c564b; fill-opacity: 0.5; stroke: #8c564b; stroke-opacity: 0.5"/>
     <use xlink:href="#m6430023bfb" x="116.00649" y="65.688281" style="fill: #8c564b; fill-opacity: 0.5; stroke: #8c564b; stroke-opacity: 0.5"/>
    </g>
   </g>
   <g id="PathCollection_4">
    <defs>
     <path id="m113c910af7" d="M 0 1.581139 
C 0.419323 1.581139 0.821528 1.41454 1.118034 1.118034 
C 1.41454 0.821528 1.581139 0.419323 1.581139 0 
C 1.581139 -0.419323 1.41454 -0.821528 1.118034 -1.118034 
C 0.821528 -1.41454 0.419323 -1.581139 0 -1.581139 
C -0.419323 -1.581139 -0.821528 -1.41454 -1.118034 -1.118034 
C -1.41454 -0.821528 -1.581139 -0.419323 -1.581139 0 
C -1.581139 0.419323 -1.41454 0.821528 -1.118034 1.118034 
C -0.821528 1.41454 -0.419323 1.581139 0 1.581139 
z
" style="stroke: #000000"/>
    </defs>
    <g clip-path="url(#pc508938430)">
     <use xlink:href="#m113c910af7" x="54.173992" y="56.925984" style="stroke: #000000"/>
    </g>
   </g>
   <g id="patch_3">
    <path d="M 45.552506 54.297243 
C 45.346324 56.252709 46.056972 58.405328 47.52794 60.281011 
C 48.998908 62.156694 51.110097 63.6023 53.396542 64.29945 
C 55.682986 64.9966 57.958009 64.888376 59.720563 63.998613 
C 61.483117 63.108849 62.589296 61.510191 62.795478 59.554725 
C 63.001661 57.599259 62.291012 55.44664 60.820044 53.570957 
C 59.349076 51.695274 57.237888 50.249668 54.951443 49.552518 
C 52.664998 48.855367 50.389975 48.963592 48.627421 49.853355 
C 46.864868 50.743119 45.758688 52.341777 45.552506 54.297243 
L 45.552506 54.297243 
z
" clip-path="url(#pc508938430)" style="fill: none; stroke: #195f90; stroke-width: 2; stroke-linejoin: miter"/>
   </g>
   <g id="PathCollection_5">
    <g clip-path="url(#pc508938430)">
     <use xlink:href="#m113c910af7" x="90.242951" y="89.784586" style="stroke: #000000"/>
    </g>
   </g>
   <g id="patch_4">
    <path d="M 82.610249 90.134379 
C 82.647709 92.49809 83.487869 94.728451 84.945693 96.334252 
C 86.403518 97.940052 88.359983 98.790185 90.384199 98.697419 
C 92.408415 98.604653 94.335115 97.576562 95.739964 95.83957 
C 97.144813 94.102579 97.913112 91.798505 97.875653 89.434794 
C 97.838193 87.071083 96.998033 84.840722 95.540208 83.234921 
C 94.082384 81.629121 92.125919 80.778988 90.101703 80.871754 
C 88.077486 80.96452 86.150787 81.992611 84.745938 83.729603 
C 83.341089 85.466594 82.57279 87.770668 82.610249 90.134379 
L 82.610249 90.134379 
z
" clip-path="url(#pc508938430)" style="fill: none; stroke: #238023; stroke-width: 2; stroke-linejoin: miter"/>
   </g>
   <g id="PathCollection_6">
    <g clip-path="url(#pc508938430)">
     <use xlink:href="#m113c910af7" x="128.888241" y="74.450578" style="stroke: #000000"/>
    </g>
   </g>
   <g id="patch_5">
    <path d="M 121.386663 74.181014 
C 121.363551 76.040995 122.131795 77.853449 123.522199 79.219205 
C 124.912604 80.584961 126.811648 81.39251 128.80109 81.463999 
C 130.790532 81.535488 132.707942 80.865081 134.131033 79.600426 
C 135.554124 78.335771 136.366707 76.580123 136.38982 74.720142 
C 136.412932 72.860161 135.644688 71.047707 134.254284 69.681951 
C 132.863879 68.316196 130.964835 67.508647 128.975393 67.437158 
C 126.985951 67.365668 125.068541 68.036076 123.64545 69.30073 
C 122.222359 70.565385 121.409776 72.321033 121.386663 74.181014 
L 121.386663 74.181014 
z
" clip-path="url(#pc508938430)" style="fill: none; stroke: #70453c; stroke-width: 2; stroke-linejoin: miter"/>
   </g>
   <g id="PathCollection_7">
    <g clip-path="url(#pc508938430)">
     <use xlink:href="#m113c910af7" x="100.54837" y="78.831719" style="stroke: #000000"/>
    </g>
   </g>
   <g id="patch_6">
    <path d="M 110.880295 78.831719 
C 110.880295 76.786 109.791659 74.823792 107.854145 73.37725 
C 105.916631 71.930708 103.288429 71.117935 100.54837 71.117935 
C 97.808312 71.117935 95.18011 71.930708 93.242596 73.37725 
C 91.305082 74.823792 90.216445 76.786 90.216445 78.831719 
C 90.216445 80.877438 91.305082 82.839646 93.242596 84.286187 
C 95.18011 85.732729 97.808312 86.545502 100.54837 86.545502 
C 103.288429 86.545502 105.916631 85.732729 107.854145 84.286187 
C 109.791659 82.839646 110.880295 80.877438 110.880295 78.831719 
L 110.880295 78.831719 
z
" clip-path="url(#pc508938430)" style="fill: none; stroke: #70453c; stroke-width: 2; stroke-linejoin: miter"/>
   </g>
   <g id="PathCollection_8">
    <g clip-path="url(#pc508938430)">
     <use xlink:href="#m113c910af7" x="67.313434" y="49.916143" style="stroke: #000000"/>
    </g>
   </g>
   <g id="patch_7">
    <path d="M 59.242765 46.250993 
C 58.950397 48.112704 59.52034 50.284598 60.827073 52.288341 
C 62.133805 54.292084 64.070636 55.964079 66.211003 56.936088 
C 68.351369 57.908097 70.520519 58.100761 72.240722 57.471646 
C 73.960925 56.842532 75.091735 55.443005 75.384103 53.581294 
C 75.676471 51.719583 75.106527 49.547688 73.799795 47.543945 
C 72.493063 45.540203 70.556231 43.868208 68.415865 42.896199 
C 66.275498 41.924189 64.106348 41.731526 62.386145 42.36064 
C 60.665942 42.989754 59.535133 44.389282 59.242765 46.250993 
L 59.242765 46.250993 
z
" clip-path="url(#pc508938430)" style="fill: none; stroke: #195f90; stroke-width: 2; stroke-linejoin: miter"/>
   </g>
   <g id="PathCollection_9">
    <g clip-path="url(#pc508938430)">
     <use xlink:href="#m113c910af7" x="53.207856" y="73.902943" style="stroke: #000000"/>
    </g>
   </g>
   <g id="patch_8">
    <path d="M 39.078683 75.898046 
C 39.201326 78.4097 40.807702 80.608605 43.544024 82.010478 
C 46.280346 83.41235 49.923206 83.902733 53.670307 83.373626 
C 57.417407 82.844519 60.962814 81.33912 63.525692 79.188977 
C 66.08857 77.038834 67.459673 74.419496 67.337029 71.907841 
C 67.214386 69.396187 65.608011 67.197282 62.871689 65.795409 
C 60.135367 64.393537 56.492506 63.903154 52.745406 64.432261 
C 48.998305 64.961368 45.452899 66.466767 42.89002 68.61691 
C 40.327142 70.767053 38.95604 73.386391 39.078683 75.898046 
L 39.078683 75.898046 
z
" clip-path="url(#pc508938430)" style="fill: none; stroke: #195f90; stroke-width: 2; stroke-linejoin: miter"/>
   </g>
   <g id="PathCollection_10">
    <g clip-path="url(#pc508938430)">
     <use xlink:href="#m113c910af7" x="112.141965" y="59.116554" style="stroke: #000000"/>
    </g>
   </g>
   <g id="patch_9">
    <path d="M 100.146414 56.142208 
C 99.897399 59.046357 100.922476 62.145346 102.995885 64.75666 
C 105.069293 67.367973 108.021748 69.278408 111.203005 70.067214 
C 114.384262 70.85602 117.534587 70.458794 119.960155 68.96302 
C 122.385724 67.467247 123.888501 64.995049 124.137516 62.0909 
C 124.386531 59.186752 123.361453 56.087762 121.288045 53.476449 
C 119.214637 50.865136 116.262182 48.9547 113.080925 48.165895 
C 109.899667 47.377089 106.749343 47.774315 104.323774 49.270088 
C 101.898205 50.765862 100.395429 53.238059 100.146414 56.142208 
L 100.146414 56.142208 
z
" clip-path="url(#pc508938430)" style="fill: none; stroke: #70453c; stroke-width: 2; stroke-linejoin: miter"/>
   </g>
   <g id="PathCollection_11">
    <g clip-path="url(#pc508938430)">
     <use xlink:href="#m113c910af7" x="152.719509" y="78.831719" style="stroke: #000000"/>
    </g>
   </g>
   <g id="patch_10">
    <path d="M 166.934091 78.831719 
C 166.934091 76.533036 165.436353 74.328192 162.770736 72.702778 
C 160.10512 71.077363 156.48926 70.164087 152.719509 70.164087 
C 148.949758 70.164087 145.333898 71.077363 142.668282 72.702778 
C 140.002665 74.328192 138.504927 76.533036 138.504927 78.831719 
C 138.504927 81.130402 140.002665 83.335246 142.668282 84.96066 
C 145.333898 86.586074 148.949758 87.499351 152.719509 87.499351 
C 156.48926 87.499351 160.10512 86.586074 162.770736 84.96066 
C 165.436353 83.335246 166.934091 81.130402 166.934091 78.831719 
L 166.934091 78.831719 
z
" clip-path="url(#pc508938430)" style="fill: none; stroke: #70453c; stroke-width: 2; stroke-linejoin: miter"/>
   </g>
   <g id="matplotlib.axis_1">
    <g id="xtick_1">
     <g id="line2d_1">
      <defs>
       <path id="m67b1e2b797" d="M 0 0 
L 0 3.5 
" style="stroke: #000000; stroke-width: 0.8"/>
      </defs>
      <g>
       <use xlink:href="#m67b1e2b797" x="61.90308" y="137.32" style="stroke: #000000; stroke-width: 0.8"/>
      </g>
     </g>
     <g id="text_1">
      <!-- 5 -->
      <g transform="translate(58.72183 151.918437) scale(0.1 -0.1)">
       <defs>
        <path id="DejaVuSans-35" d="M 691 4666 
L 3169 4666 
L 3169 4134 
L 1269 4134 
L 1269 2991 
Q 1406 3038 1543 3061 
Q 1681 3084 1819 3084 
Q 2600 3084 3056 2656 
Q 3513 2228 3513 1497 
Q 3513 744 3044 326 
Q 2575 -91 1722 -91 
Q 1428 -91 1123 -41 
Q 819 9 494 109 
L 494 744 
Q 775 591 1075 516 
Q 1375 441 1709 441 
Q 2250 441 2565 725 
Q 2881 1009 2881 1497 
Q 2881 1984 2565 2268 
Q 2250 2553 1709 2553 
Q 1456 2553 1204 2497 
Q 953 2441 691 2322 
L 691 4666 
z
" transform="scale(0.015625)"/>
       </defs>
       <use xlink:href="#DejaVuSans-35"/>
      </g>
     </g>
    </g>
    <g id="xtick_2">
     <g id="line2d_2">
      <g>
       <use xlink:href="#m67b1e2b797" x="100.54837" y="137.32" style="stroke: #000000; stroke-width: 0.8"/>
      </g>
     </g>
     <g id="text_2">
      <!-- 6 -->
      <g transform="translate(97.36712 151.918437) scale(0.1 -0.1)">
       <defs>
        <path id="DejaVuSans-36" d="M 2113 2584 
Q 1688 2584 1439 2293 
Q 1191 2003 1191 1497 
Q 1191 994 1439 701 
Q 1688 409 2113 409 
Q 2538 409 2786 701 
Q 3034 994 3034 1497 
Q 3034 2003 2786 2293 
Q 2538 2584 2113 2584 
z
M 3366 4563 
L 3366 3988 
Q 3128 4100 2886 4159 
Q 2644 4219 2406 4219 
Q 1781 4219 1451 3797 
Q 1122 3375 1075 2522 
Q 1259 2794 1537 2939 
Q 1816 3084 2150 3084 
Q 2853 3084 3261 2657 
Q 3669 2231 3669 1497 
Q 3669 778 3244 343 
Q 2819 -91 2113 -91 
Q 1303 -91 875 529 
Q 447 1150 447 2328 
Q 447 3434 972 4092 
Q 1497 4750 2381 4750 
Q 2619 4750 2861 4703 
Q 3103 4656 3366 4563 
z
" transform="scale(0.015625)"/>
       </defs>
       <use xlink:href="#DejaVuSans-36"/>
      </g>
     </g>
    </g>
    <g id="xtick_3">
     <g id="line2d_3">
      <g>
       <use xlink:href="#m67b1e2b797" x="139.193661" y="137.32" style="stroke: #000000; stroke-width: 0.8"/>
      </g>
     </g>
     <g id="text_3">
      <!-- 7 -->
      <g transform="translate(136.012411 151.918437) scale(0.1 -0.1)">
       <defs>
        <path id="DejaVuSans-37" d="M 525 4666 
L 3525 4666 
L 3525 4397 
L 1831 0 
L 1172 0 
L 2766 4134 
L 525 4134 
L 525 4666 
z
" transform="scale(0.015625)"/>
       </defs>
       <use xlink:href="#DejaVuSans-37"/>
      </g>
     </g>
    </g>
    <g id="text_4">
     <!-- Feature 1 -->
     <g transform="translate(83.896875 164.076875) scale(0.08 -0.08)">
      <defs>
       <path id="DejaVuSans-46" d="M 628 4666 
L 3309 4666 
L 3309 4134 
L 1259 4134 
L 1259 2759 
L 3109 2759 
L 3109 2228 
L 1259 2228 
L 1259 0 
L 628 0 
L 628 4666 
z
" transform="scale(0.015625)"/>
       <path id="DejaVuSans-65" d="M 3597 1894 
L 3597 1613 
L 953 1613 
Q 991 1019 1311 708 
Q 1631 397 2203 397 
Q 2534 397 2845 478 
Q 3156 559 3463 722 
L 3463 178 
Q 3153 47 2828 -22 
Q 2503 -91 2169 -91 
Q 1331 -91 842 396 
Q 353 884 353 1716 
Q 353 2575 817 3079 
Q 1281 3584 2069 3584 
Q 2775 3584 3186 3129 
Q 3597 2675 3597 1894 
z
M 3022 2063 
Q 3016 2534 2758 2815 
Q 2500 3097 2075 3097 
Q 1594 3097 1305 2825 
Q 1016 2553 972 2059 
L 3022 2063 
z
" transform="scale(0.015625)"/>
       <path id="DejaVuSans-61" d="M 2194 1759 
Q 1497 1759 1228 1600 
Q 959 1441 959 1056 
Q 959 750 1161 570 
Q 1363 391 1709 391 
Q 2188 391 2477 730 
Q 2766 1069 2766 1631 
L 2766 1759 
L 2194 1759 
z
M 3341 1997 
L 3341 0 
L 2766 0 
L 2766 531 
Q 2569 213 2275 61 
Q 1981 -91 1556 -91 
Q 1019 -91 701 211 
Q 384 513 384 1019 
Q 384 1609 779 1909 
Q 1175 2209 1959 2209 
L 2766 2209 
L 2766 2266 
Q 2766 2663 2505 2880 
Q 2244 3097 1772 3097 
Q 1472 3097 1187 3025 
Q 903 2953 641 2809 
L 641 3341 
Q 956 3463 1253 3523 
Q 1550 3584 1831 3584 
Q 2591 3584 2966 3190 
Q 3341 2797 3341 1997 
z
" transform="scale(0.015625)"/>
       <path id="DejaVuSans-74" d="M 1172 4494 
L 1172 3500 
L 2356 3500 
L 2356 3053 
L 1172 3053 
L 1172 1153 
Q 1172 725 1289 603 
Q 1406 481 1766 481 
L 2356 481 
L 2356 0 
L 1766 0 
Q 1100 0 847 248 
Q 594 497 594 1153 
L 594 3053 
L 172 3053 
L 172 3500 
L 594 3500 
L 594 4494 
L 1172 4494 
z
" transform="scale(0.015625)"/>
       <path id="DejaVuSans-75" d="M 544 1381 
L 544 3500 
L 1119 3500 
L 1119 1403 
Q 1119 906 1312 657 
Q 1506 409 1894 409 
Q 2359 409 2629 706 
Q 2900 1003 2900 1516 
L 2900 3500 
L 3475 3500 
L 3475 0 
L 2900 0 
L 2900 538 
Q 2691 219 2414 64 
Q 2138 -91 1772 -91 
Q 1169 -91 856 284 
Q 544 659 544 1381 
z
M 1991 3584 
L 1991 3584 
z
" transform="scale(0.015625)"/>
       <path id="DejaVuSans-72" d="M 2631 2963 
Q 2534 3019 2420 3045 
Q 2306 3072 2169 3072 
Q 1681 3072 1420 2755 
Q 1159 2438 1159 1844 
L 1159 0 
L 581 0 
L 581 3500 
L 1159 3500 
L 1159 2956 
Q 1341 3275 1631 3429 
Q 1922 3584 2338 3584 
Q 2397 3584 2469 3576 
Q 2541 3569 2628 3553 
L 2631 2963 
z
" transform="scale(0.015625)"/>
       <path id="DejaVuSans-20" transform="scale(0.015625)"/>
       <path id="DejaVuSans-31" d="M 794 531 
L 1825 531 
L 1825 4091 
L 703 3866 
L 703 4441 
L 1819 4666 
L 2450 4666 
L 2450 531 
L 3481 531 
L 3481 0 
L 794 0 
L 794 531 
z
" transform="scale(0.015625)"/>
      </defs>
      <use xlink:href="#DejaVuSans-46"/>
      <use xlink:href="#DejaVuSans-65" x="52.019531"/>
      <use xlink:href="#DejaVuSans-61" x="113.542969"/>
      <use xlink:href="#DejaVuSans-74" x="174.822266"/>
      <use xlink:href="#DejaVuSans-75" x="214.03125"/>
      <use xlink:href="#DejaVuSans-72" x="277.410156"/>
      <use xlink:href="#DejaVuSans-65" x="316.273438"/>
      <use xlink:href="#DejaVuSans-20" x="377.796875"/>
      <use xlink:href="#DejaVuSans-31" x="409.583984"/>
     </g>
    </g>
   </g>
   <g id="matplotlib.axis_2">
    <g id="ytick_1">
     <g id="line2d_4">
      <defs>
       <path id="m9b2dbcb70a" d="M 0 0 
L -3.5 0 
" style="stroke: #000000; stroke-width: 0.8"/>
      </defs>
      <g>
       <use xlink:href="#m9b2dbcb70a" x="32.305" y="111.690306" style="stroke: #000000; stroke-width: 0.8"/>
      </g>
     </g>
     <g id="text_5">
      <!-- 2 -->
      <g transform="translate(18.9425 115.489524) scale(0.1 -0.1)">
       <defs>
        <path id="DejaVuSans-32" d="M 1228 531 
L 3431 531 
L 3431 0 
L 469 0 
L 469 531 
Q 828 903 1448 1529 
Q 2069 2156 2228 2338 
Q 2531 2678 2651 2914 
Q 2772 3150 2772 3378 
Q 2772 3750 2511 3984 
Q 2250 4219 1831 4219 
Q 1534 4219 1204 4116 
Q 875 4013 500 3803 
L 500 4441 
Q 881 4594 1212 4672 
Q 1544 4750 1819 4750 
Q 2544 4750 2975 4387 
Q 3406 4025 3406 3419 
Q 3406 3131 3298 2873 
Q 3191 2616 2906 2266 
Q 2828 2175 2409 1742 
Q 1991 1309 1228 531 
z
" transform="scale(0.015625)"/>
       </defs>
       <use xlink:href="#DejaVuSans-32"/>
      </g>
     </g>
    </g>
    <g id="ytick_2">
     <g id="line2d_5">
      <g>
       <use xlink:href="#m9b2dbcb70a" x="32.305" y="78.831719" style="stroke: #000000; stroke-width: 0.8"/>
      </g>
     </g>
     <g id="text_6">
      <!-- 3 -->
      <g transform="translate(18.9425 82.630938) scale(0.1 -0.1)">
       <defs>
        <path id="DejaVuSans-33" d="M 2597 2516 
Q 3050 2419 3304 2112 
Q 3559 1806 3559 1356 
Q 3559 666 3084 287 
Q 2609 -91 1734 -91 
Q 1441 -91 1130 -33 
Q 819 25 488 141 
L 488 750 
Q 750 597 1062 519 
Q 1375 441 1716 441 
Q 2309 441 2620 675 
Q 2931 909 2931 1356 
Q 2931 1769 2642 2001 
Q 2353 2234 1838 2234 
L 1294 2234 
L 1294 2753 
L 1863 2753 
Q 2328 2753 2575 2939 
Q 2822 3125 2822 3475 
Q 2822 3834 2567 4026 
Q 2313 4219 1838 4219 
Q 1578 4219 1281 4162 
Q 984 4106 628 3988 
L 628 4550 
Q 988 4650 1302 4700 
Q 1616 4750 1894 4750 
Q 2613 4750 3031 4423 
Q 3450 4097 3450 3541 
Q 3450 3153 3228 2886 
Q 3006 2619 2597 2516 
z
" transform="scale(0.015625)"/>
       </defs>
       <use xlink:href="#DejaVuSans-33"/>
      </g>
     </g>
    </g>
    <g id="ytick_3">
     <g id="line2d_6">
      <g>
       <use xlink:href="#m9b2dbcb70a" x="32.305" y="45.973132" style="stroke: #000000; stroke-width: 0.8"/>
      </g>
     </g>
     <g id="text_7">
      <!-- 3 -->
      <g transform="translate(18.9425 49.772351) scale(0.1 -0.1)">
       <use xlink:href="#DejaVuSans-33"/>
      </g>
     </g>
    </g>
    <g id="ytick_4">
     <g id="line2d_7">
      <g>
       <use xlink:href="#m9b2dbcb70a" x="32.305" y="13.114545" style="stroke: #000000; stroke-width: 0.8"/>
      </g>
     </g>
     <g id="text_8">
      <!-- 4 -->
      <g transform="translate(18.9425 16.913764) scale(0.1 -0.1)">
       <defs>
        <path id="DejaVuSans-34" d="M 2419 4116 
L 825 1625 
L 2419 1625 
L 2419 4116 
z
M 2253 4666 
L 3047 4666 
L 3047 1625 
L 3713 1625 
L 3713 1100 
L 3047 1100 
L 3047 0 
L 2419 0 
L 2419 1100 
L 313 1100 
L 313 1709 
L 2253 4666 
z
" transform="scale(0.015625)"/>
       </defs>
       <use xlink:href="#DejaVuSans-34"/>
      </g>
     </g>
    </g>
    <g id="text_9">
     <!-- Feature 2 -->
     <g transform="translate(13.27875 91.188125) rotate(-90) scale(0.08 -0.08)">
      <use xlink:href="#DejaVuSans-46"/>
      <use xlink:href="#DejaVuSans-65" x="52.019531"/>
      <use xlink:href="#DejaVuSans-61" x="113.542969"/>
      <use xlink:href="#DejaVuSans-74" x="174.822266"/>
      <use xlink:href="#DejaVuSans-75" x="214.03125"/>
      <use xlink:href="#DejaVuSans-72" x="277.410156"/>
      <use xlink:href="#DejaVuSans-65" x="316.273438"/>
      <use xlink:href="#DejaVuSans-20" x="377.796875"/>
      <use xlink:href="#DejaVuSans-32" x="409.583984"/>
     </g>
    </g>
   </g>
   <g id="patch_11">
    <path d="M 32.305 137.32 
L 32.305 7.2 
" style="fill: none; stroke: #000000; stroke-width: 0.8; stroke-linejoin: miter; stroke-linecap: square"/>
   </g>
   <g id="patch_12">
    <path d="M 173.345 137.32 
L 173.345 7.2 
" style="fill: none; stroke: #000000; stroke-width: 0.8; stroke-linejoin: miter; stroke-linecap: square"/>
   </g>
   <g id="patch_13">
    <path d="M 32.305 137.32 
L 173.345 137.32 
" style="fill: none; stroke: #000000; stroke-width: 0.8; stroke-linejoin: miter; stroke-linecap: square"/>
   </g>
   <g id="patch_14">
    <path d="M 32.305 7.2 
L 173.345 7.2 
" style="fill: none; stroke: #000000; stroke-width: 0.8; stroke-linejoin: miter; stroke-linecap: square"/>
   </g>
  </g>
  <g id="axes_2">
   <g id="patch_15">
    <path d="M 208.735 137.32 
L 349.775 137.32 
L 349.775 7.2 
L 208.735 7.2 
z
" style="fill: #ffffff"/>
   </g>
   <g id="PathCollection_12">
    <g clip-path="url(#p3b3d802cbe)">
     <use xlink:href="#mbf921f3e5e" x="226.814649" y="114.219969" style="fill: #1f77b4; fill-opacity: 0.5; stroke: #1f77b4; stroke-opacity: 0.5"/>
     <use xlink:href="#mbf921f3e5e" x="269.600083" y="121.764311" style="fill: #1f77b4; fill-opacity: 0.5; stroke: #1f77b4; stroke-opacity: 0.5"/>
     <use xlink:href="#mbf921f3e5e" x="242.372987" y="116.106055" style="fill: #1f77b4; fill-opacity: 0.5; stroke: #1f77b4; stroke-opacity: 0.5"/>
     <use xlink:href="#mbf921f3e5e" x="222.925069" y="117.992141" style="fill: #1f77b4; fill-opacity: 0.5; stroke: #1f77b4; stroke-opacity: 0.5"/>
     <use xlink:href="#mbf921f3e5e" x="242.372987" y="112.333883" style="fill: #1f77b4; fill-opacity: 0.5; stroke: #1f77b4; stroke-opacity: 0.5"/>
     <use xlink:href="#mbf921f3e5e" x="246.262567" y="117.992141" style="fill: #1f77b4; fill-opacity: 0.5; stroke: #1f77b4; stroke-opacity: 0.5"/>
     <use xlink:href="#mbf921f3e5e" x="230.704247" y="117.992141" style="fill: #1f77b4; fill-opacity: 0.5; stroke: #1f77b4; stroke-opacity: 0.5"/>
     <use xlink:href="#mbf921f3e5e" x="238.483407" y="119.878227" style="fill: #1f77b4; fill-opacity: 0.5; stroke: #1f77b4; stroke-opacity: 0.5"/>
     <use xlink:href="#mbf921f3e5e" x="238.483407" y="121.764311" style="fill: #1f77b4; fill-opacity: 0.5; stroke: #1f77b4; stroke-opacity: 0.5"/>
     <use xlink:href="#mbf921f3e5e" x="215.145909" y="119.878227" style="fill: #1f77b4; fill-opacity: 0.5; stroke: #1f77b4; stroke-opacity: 0.5"/>
     <use xlink:href="#mbf921f3e5e" x="238.483407" y="117.992141" style="fill: #1f77b4; fill-opacity: 0.5; stroke: #1f77b4; stroke-opacity: 0.5"/>
     <use xlink:href="#mbf921f3e5e" x="219.035489" y="119.878227" style="fill: #1f77b4; fill-opacity: 0.5; stroke: #1f77b4; stroke-opacity: 0.5"/>
     <use xlink:href="#mbf921f3e5e" x="234.593827" y="116.106055" style="fill: #1f77b4; fill-opacity: 0.5; stroke: #1f77b4; stroke-opacity: 0.5"/>
     <use xlink:href="#mbf921f3e5e" x="254.041745" y="112.333883" style="fill: #1f77b4; fill-opacity: 0.5; stroke: #1f77b4; stroke-opacity: 0.5"/>
     <use xlink:href="#mbf921f3e5e" x="242.372987" y="114.219969" style="fill: #1f77b4; fill-opacity: 0.5; stroke: #1f77b4; stroke-opacity: 0.5"/>
    </g>
   </g>
   <g id="PathCollection_13">
    <g clip-path="url(#p3b3d802cbe)">
     <use xlink:href="#m64ef1f2ddb" x="265.710484" y="65.18175" style="fill: #2ca02c; fill-opacity: 0.5; stroke: #2ca02c; stroke-opacity: 0.5"/>
     <use xlink:href="#m64ef1f2ddb" x="304.60632" y="55.751323" style="fill: #2ca02c; fill-opacity: 0.5; stroke: #2ca02c; stroke-opacity: 0.5"/>
     <use xlink:href="#m64ef1f2ddb" x="269.600083" y="67.067834" style="fill: #2ca02c; fill-opacity: 0.5; stroke: #2ca02c; stroke-opacity: 0.5"/>
     <use xlink:href="#m64ef1f2ddb" x="265.710484" y="67.067834" style="fill: #2ca02c; fill-opacity: 0.5; stroke: #2ca02c; stroke-opacity: 0.5"/>
     <use xlink:href="#m64ef1f2ddb" x="304.60632" y="61.409574" style="fill: #2ca02c; fill-opacity: 0.5; stroke: #2ca02c; stroke-opacity: 0.5"/>
     <use xlink:href="#m64ef1f2ddb" x="281.268822" y="57.637406" style="fill: #2ca02c; fill-opacity: 0.5; stroke: #2ca02c; stroke-opacity: 0.5"/>
     <use xlink:href="#m64ef1f2ddb" x="257.931325" y="74.612173" style="fill: #2ca02c; fill-opacity: 0.5; stroke: #2ca02c; stroke-opacity: 0.5"/>
    </g>
   </g>
   <g id="PathCollection_14">
    <g clip-path="url(#p3b3d802cbe)">
     <use xlink:href="#m6430023bfb" x="308.495919" y="40.662635" style="fill: #8c564b; fill-opacity: 0.5; stroke: #8c564b; stroke-opacity: 0.5"/>
     <use xlink:href="#m6430023bfb" x="281.268822" y="38.776551" style="fill: #8c564b; fill-opacity: 0.5; stroke: #8c564b; stroke-opacity: 0.5"/>
     <use xlink:href="#m6430023bfb" x="273.489663" y="48.206979" style="fill: #8c564b; fill-opacity: 0.5; stroke: #8c564b; stroke-opacity: 0.5"/>
     <use xlink:href="#m6430023bfb" x="285.158402" y="42.548719" style="fill: #8c564b; fill-opacity: 0.5; stroke: #8c564b; stroke-opacity: 0.5"/>
     <use xlink:href="#m6430023bfb" x="320.164658" y="33.118291" style="fill: #8c564b; fill-opacity: 0.5; stroke: #8c564b; stroke-opacity: 0.5"/>
     <use xlink:href="#m6430023bfb" x="339.612576" y="19.915696" style="fill: #8c564b; fill-opacity: 0.5; stroke: #8c564b; stroke-opacity: 0.5"/>
     <use xlink:href="#m6430023bfb" x="277.379243" y="50.093063" style="fill: #8c564b; fill-opacity: 0.5; stroke: #8c564b; stroke-opacity: 0.5"/>
     <use xlink:href="#m6430023bfb" x="292.937581" y="44.434802" style="fill: #8c564b; fill-opacity: 0.5; stroke: #8c564b; stroke-opacity: 0.5"/>
    </g>
   </g>
   <g id="PathCollection_15">
    <g clip-path="url(#p3b3d802cbe)">
     <use xlink:href="#m113c910af7" x="230.70421" y="116.10606" style="stroke: #000000"/>
    </g>
   </g>
   <g id="patch_16">
    <path d="M 231.772979 107.25557 
C 229.479824 107.190457 227.167669 108.060545 225.34574 109.674209 
C 223.523812 111.287872 222.340861 113.513362 222.05742 115.860539 
C 221.773979 118.207717 222.41319 120.484945 223.834272 122.190692 
C 225.255355 123.896439 227.342285 124.891437 229.635441 124.95655 
C 231.928596 125.021663 234.240751 124.151574 236.06268 122.537911 
C 237.884608 120.924247 239.067559 118.698758 239.351 116.35158 
C 239.634441 114.004403 238.99523 111.727174 237.574147 110.021427 
C 236.153065 108.315681 234.066135 107.320682 231.772979 107.25557 
L 231.772979 107.25557 
z
" clip-path="url(#p3b3d802cbe)" style="fill: none; stroke: #195f90; stroke-width: 2; stroke-linejoin: miter"/>
   </g>
   <g id="PathCollection_16">
    <g clip-path="url(#p3b3d802cbe)">
     <use xlink:href="#m113c910af7" x="267.007011" y="66.439139" style="stroke: #000000"/>
    </g>
   </g>
   <g id="patch_17">
    <path d="M 267.052763 56.177343 
C 265.015111 56.175207 263.05582 57.254406 261.606403 59.177258 
C 260.156985 61.100111 259.335779 63.709624 259.323645 66.431084 
C 259.311512 69.152545 260.109441 71.763756 261.541699 73.689629 
C 262.973957 75.615503 264.923606 76.698799 266.961259 76.700935 
C 268.998911 76.703072 270.958202 75.623873 272.407619 73.701021 
C 273.857037 71.778168 274.678243 69.168654 274.690377 66.447194 
C 274.70251 63.725734 273.904581 61.114523 272.472323 59.188649 
C 271.040065 57.262776 269.090416 56.179479 267.052763 56.177343 
L 267.052763 56.177343 
z
" clip-path="url(#p3b3d802cbe)" style="fill: none; stroke: #238023; stroke-width: 2; stroke-linejoin: miter"/>
   </g>
   <g id="PathCollection_17">
    <g clip-path="url(#p3b3d802cbe)">
     <use xlink:href="#m113c910af7" x="305.902847" y="52.607859" style="stroke: #000000"/>
    </g>
   </g>
   <g id="patch_18">
    <path d="M 306.480465 41.526733 
C 304.483857 41.502261 302.507896 42.646366 300.987763 44.707071 
C 299.467629 46.767776 298.527436 49.576834 298.37425 52.515583 
C 298.221064 55.454332 298.867392 58.282836 300.170888 60.378149 
C 301.474383 62.473463 303.328622 63.664513 305.325229 63.688985 
C 307.321836 63.713457 309.297798 62.569352 310.817931 60.508647 
C 312.338064 58.447942 313.278257 55.638883 313.431443 52.700134 
C 313.584629 49.761386 312.938301 46.932882 311.634806 44.837568 
C 310.33131 42.742255 308.477072 41.551205 306.480465 41.526733 
L 306.480465 41.526733 
z
" clip-path="url(#p3b3d802cbe)" style="fill: none; stroke: #70453c; stroke-width: 2; stroke-linejoin: miter"/>
   </g>
   <g id="PathCollection_18">
    <g clip-path="url(#p3b3d802cbe)">
     <use xlink:href="#m113c910af7" x="277.379243" y="52.922193" style="stroke: #000000"/>
    </g>
   </g>
   <g id="patch_19">
    <path d="M 275.568303 40.766356 
C 272.85262 40.861485 270.438611 42.233547 268.857933 44.58036 
C 267.277256 46.927173 266.658965 50.057131 267.139231 53.280897 
C 267.619498 56.504662 269.159111 59.559029 271.418989 61.771309 
C 273.678867 63.983589 276.4745 65.173159 279.190182 65.078029 
C 281.905865 64.9829 284.319874 63.610838 285.900552 61.264025 
C 287.481229 58.917212 288.099521 55.787254 287.619254 52.563489 
C 287.138987 49.339723 285.599374 46.285356 283.339496 44.073076 
C 281.079619 41.860796 278.283986 40.671227 275.568303 40.766356 
L 275.568303 40.766356 
z
" clip-path="url(#p3b3d802cbe)" style="fill: none; stroke: #70453c; stroke-width: 2; stroke-linejoin: miter"/>
   </g>
   <g id="PathCollection_19">
    <g clip-path="url(#p3b3d802cbe)">
     <use xlink:href="#m113c910af7" x="243.928837" y="116.106051" style="stroke: #000000"/>
    </g>
   </g>
   <g id="patch_20">
    <path d="M 246.393731 108.548872 
C 244.320079 108.389837 242.071362 109.033567 240.142835 110.338287 
C 238.214307 111.643008 236.763425 113.502193 236.109727 115.506381 
C 235.45603 117.510568 235.652889 119.496124 236.656948 121.025753 
C 237.661008 122.555381 239.390291 123.504196 241.463943 123.66323 
C 243.537595 123.822264 245.786312 123.178534 247.71484 121.873814 
C 249.643367 120.569094 251.09425 118.709908 251.747947 116.705721 
C 252.401645 114.701533 252.204786 112.715978 251.200726 111.186349 
C 250.196666 109.65672 248.467383 108.707906 246.393731 108.548872 
L 246.393731 108.548872 
z
" clip-path="url(#p3b3d802cbe)" style="fill: none; stroke: #195f90; stroke-width: 2; stroke-linejoin: miter"/>
   </g>
   <g id="PathCollection_20">
    <g clip-path="url(#p3b3d802cbe)">
     <use xlink:href="#m113c910af7" x="229.73181" y="118.935183" style="stroke: #000000"/>
    </g>
   </g>
   <g id="patch_21">
    <path d="M 230.261374 106.464912 
C 226.490575 106.427259 222.817912 107.70509 220.052247 110.016978 
C 217.286582 112.328865 215.653719 115.486053 215.513278 118.793208 
C 215.372836 122.100362 216.736282 125.287469 219.303332 127.652605 
C 221.870382 130.017741 225.431448 131.367802 229.202247 131.405455 
C 232.973046 131.443107 236.645709 130.165276 239.411374 127.853388 
C 242.177039 125.541501 243.809901 122.384313 243.950343 119.077158 
C 244.090785 115.770004 242.727339 112.582897 240.160289 110.217761 
C 237.593239 107.852626 234.032172 106.502564 230.261374 106.464912 
L 230.261374 106.464912 
z
" clip-path="url(#p3b3d802cbe)" style="fill: none; stroke: #195f90; stroke-width: 2; stroke-linejoin: miter"/>
   </g>
   <g id="PathCollection_21">
    <g clip-path="url(#p3b3d802cbe)">
     <use xlink:href="#m113c910af7" x="289.048001" y="43.491756" style="stroke: #000000"/>
    </g>
   </g>
   <g id="patch_22">
    <path d="M 288.666727 31.092548 
C 285.456643 31.115758 282.417776 32.444479 280.219403 34.786076 
C 278.02103 37.127674 276.842637 40.290966 276.943752 43.579274 
C 277.044867 46.867583 278.417234 50.012432 280.758606 52.321205 
C 283.099977 54.629978 286.21919 55.914175 289.429274 55.890964 
C 292.639359 55.867754 295.678225 54.539033 297.876598 52.197436 
C 300.074971 49.855839 301.253364 46.692547 301.152249 43.404238 
C 301.051134 40.11593 299.678767 36.97108 297.337396 34.662307 
C 294.996024 32.353534 291.876811 31.069338 288.666727 31.092548 
L 288.666727 31.092548 
z
" clip-path="url(#p3b3d802cbe)" style="fill: none; stroke: #70453c; stroke-width: 2; stroke-linejoin: miter"/>
   </g>
   <g id="PathCollection_22">
    <g clip-path="url(#p3b3d802cbe)">
     <use xlink:href="#m113c910af7" x="329.888617" y="26.516994" style="stroke: #000000"/>
    </g>
   </g>
   <g id="patch_23">
    <path d="M 336.019098 13.114545 
C 332.590892 12.745828 328.656689 13.804329 325.082952 16.056926 
C 321.509215 18.309523 318.587722 21.572302 316.9619 25.126672 
C 315.336077 28.681043 315.138666 32.236808 316.413143 35.01085 
C 317.68762 37.784893 320.329931 39.550724 323.758136 39.919442 
C 327.186342 40.28816 331.120545 39.229658 334.694282 36.977061 
C 338.268019 34.724464 341.189512 31.461686 342.815334 27.907315 
C 344.441157 24.352944 344.638568 20.79718 343.364091 18.023137 
C 342.089614 15.249095 339.447303 13.483263 336.019098 13.114545 
L 336.019098 13.114545 
z
" clip-path="url(#p3b3d802cbe)" style="fill: none; stroke: #70453c; stroke-width: 2; stroke-linejoin: miter"/>
   </g>
   <g id="matplotlib.axis_3">
    <g id="xtick_4">
     <g id="line2d_8">
      <g>
       <use xlink:href="#m67b1e2b797" x="238.483407" y="137.32" style="stroke: #000000; stroke-width: 0.8"/>
      </g>
     </g>
     <g id="text_10">
      <!-- 5 -->
      <g transform="translate(235.302157 151.918437) scale(0.1 -0.1)">
       <use xlink:href="#DejaVuSans-35"/>
      </g>
     </g>
    </g>
    <g id="xtick_5">
     <g id="line2d_9">
      <g>
       <use xlink:href="#m67b1e2b797" x="277.379243" y="137.32" style="stroke: #000000; stroke-width: 0.8"/>
      </g>
     </g>
     <g id="text_11">
      <!-- 6 -->
      <g transform="translate(274.197993 151.918437) scale(0.1 -0.1)">
       <use xlink:href="#DejaVuSans-36"/>
      </g>
     </g>
    </g>
    <g id="xtick_6">
     <g id="line2d_10">
      <g>
       <use xlink:href="#m67b1e2b797" x="316.275078" y="137.32" style="stroke: #000000; stroke-width: 0.8"/>
      </g>
     </g>
     <g id="text_12">
      <!-- 7 -->
      <g transform="translate(313.093828 151.918437) scale(0.1 -0.1)">
       <use xlink:href="#DejaVuSans-37"/>
      </g>
     </g>
    </g>
    <g id="text_13">
     <!-- Feature 1 -->
     <g transform="translate(260.326875 164.076875) scale(0.08 -0.08)">
      <use xlink:href="#DejaVuSans-46"/>
      <use xlink:href="#DejaVuSans-65" x="52.019531"/>
      <use xlink:href="#DejaVuSans-61" x="113.542969"/>
      <use xlink:href="#DejaVuSans-74" x="174.822266"/>
      <use xlink:href="#DejaVuSans-75" x="214.03125"/>
      <use xlink:href="#DejaVuSans-72" x="277.410156"/>
      <use xlink:href="#DejaVuSans-65" x="316.273438"/>
      <use xlink:href="#DejaVuSans-20" x="377.796875"/>
      <use xlink:href="#DejaVuSans-31" x="409.583984"/>
     </g>
    </g>
   </g>
   <g id="matplotlib.axis_4">
    <g id="ytick_5">
     <g id="line2d_11">
      <g>
       <use xlink:href="#m9b2dbcb70a" x="208.735" y="106.675628" style="stroke: #000000; stroke-width: 0.8"/>
      </g>
     </g>
     <g id="text_14">
      <!-- 2 -->
      <g transform="translate(195.3725 110.474846) scale(0.1 -0.1)">
       <use xlink:href="#DejaVuSans-32"/>
      </g>
     </g>
    </g>
    <g id="ytick_6">
     <g id="line2d_12">
      <g>
       <use xlink:href="#m9b2dbcb70a" x="208.735" y="68.953918" style="stroke: #000000; stroke-width: 0.8"/>
      </g>
     </g>
     <g id="text_15">
      <!-- 4 -->
      <g transform="translate(195.3725 72.753136) scale(0.1 -0.1)">
       <use xlink:href="#DejaVuSans-34"/>
      </g>
     </g>
    </g>
    <g id="ytick_7">
     <g id="line2d_13">
      <g>
       <use xlink:href="#m9b2dbcb70a" x="208.735" y="31.232207" style="stroke: #000000; stroke-width: 0.8"/>
      </g>
     </g>
     <g id="text_16">
      <!-- 6 -->
      <g transform="translate(195.3725 35.031426) scale(0.1 -0.1)">
       <use xlink:href="#DejaVuSans-36"/>
      </g>
     </g>
    </g>
    <g id="text_17">
     <!-- Feature 3 -->
     <g transform="translate(189.70875 91.188125) rotate(-90) scale(0.08 -0.08)">
      <use xlink:href="#DejaVuSans-46"/>
      <use xlink:href="#DejaVuSans-65" x="52.019531"/>
      <use xlink:href="#DejaVuSans-61" x="113.542969"/>
      <use xlink:href="#DejaVuSans-74" x="174.822266"/>
      <use xlink:href="#DejaVuSans-75" x="214.03125"/>
      <use xlink:href="#DejaVuSans-72" x="277.410156"/>
      <use xlink:href="#DejaVuSans-65" x="316.273438"/>
      <use xlink:href="#DejaVuSans-20" x="377.796875"/>
      <use xlink:href="#DejaVuSans-33" x="409.583984"/>
     </g>
    </g>
   </g>
   <g id="patch_24">
    <path d="M 208.735 137.32 
L 208.735 7.2 
" style="fill: none; stroke: #000000; stroke-width: 0.8; stroke-linejoin: miter; stroke-linecap: square"/>
   </g>
   <g id="patch_25">
    <path d="M 349.775 137.32 
L 349.775 7.2 
" style="fill: none; stroke: #000000; stroke-width: 0.8; stroke-linejoin: miter; stroke-linecap: square"/>
   </g>
   <g id="patch_26">
    <path d="M 208.735 137.32 
L 349.775 137.32 
" style="fill: none; stroke: #000000; stroke-width: 0.8; stroke-linejoin: miter; stroke-linecap: square"/>
   </g>
   <g id="patch_27">
    <path d="M 208.735 7.2 
L 349.775 7.2 
" style="fill: none; stroke: #000000; stroke-width: 0.8; stroke-linejoin: miter; stroke-linecap: square"/>
   </g>
  </g>
  <g id="axes_3">
   <g id="patch_28">
    <path d="M 385.165 137.32 
L 526.205 137.32 
L 526.205 7.2 
L 385.165 7.2 
z
" style="fill: #ffffff"/>
   </g>
   <g id="PathCollection_23">
    <g clip-path="url(#pbff4c5f418)">
     <use xlink:href="#mbf921f3e5e" x="403.169485" y="120.779167" style="fill: #1f77b4; fill-opacity: 0.5; stroke: #1f77b4; stroke-opacity: 0.5"/>
     <use xlink:href="#mbf921f3e5e" x="445.67932" y="120.779167" style="fill: #1f77b4; fill-opacity: 0.5; stroke: #1f77b4; stroke-opacity: 0.5"/>
     <use xlink:href="#mbf921f3e5e" x="418.627605" y="120.779167" style="fill: #1f77b4; fill-opacity: 0.5; stroke: #1f77b4; stroke-opacity: 0.5"/>
     <use xlink:href="#mbf921f3e5e" x="399.30496" y="116.211247" style="fill: #1f77b4; fill-opacity: 0.5; stroke: #1f77b4; stroke-opacity: 0.5"/>
     <use xlink:href="#mbf921f3e5e" x="418.627605" y="107.07541" style="fill: #1f77b4; fill-opacity: 0.5; stroke: #1f77b4; stroke-opacity: 0.5"/>
     <use xlink:href="#mbf921f3e5e" x="422.49213" y="120.779167" style="fill: #1f77b4; fill-opacity: 0.5; stroke: #1f77b4; stroke-opacity: 0.5"/>
     <use xlink:href="#mbf921f3e5e" x="407.034029" y="116.211247" style="fill: #1f77b4; fill-opacity: 0.5; stroke: #1f77b4; stroke-opacity: 0.5"/>
     <use xlink:href="#mbf921f3e5e" x="414.76308" y="116.211247" style="fill: #1f77b4; fill-opacity: 0.5; stroke: #1f77b4; stroke-opacity: 0.5"/>
     <use xlink:href="#mbf921f3e5e" x="414.76308" y="120.779167" style="fill: #1f77b4; fill-opacity: 0.5; stroke: #1f77b4; stroke-opacity: 0.5"/>
     <use xlink:href="#mbf921f3e5e" x="391.575909" y="120.779167" style="fill: #1f77b4; fill-opacity: 0.5; stroke: #1f77b4; stroke-opacity: 0.5"/>
     <use xlink:href="#mbf921f3e5e" x="414.76308" y="120.779167" style="fill: #1f77b4; fill-opacity: 0.5; stroke: #1f77b4; stroke-opacity: 0.5"/>
     <use xlink:href="#mbf921f3e5e" x="395.440434" y="116.211247" style="fill: #1f77b4; fill-opacity: 0.5; stroke: #1f77b4; stroke-opacity: 0.5"/>
     <use xlink:href="#mbf921f3e5e" x="410.898554" y="120.779167" style="fill: #1f77b4; fill-opacity: 0.5; stroke: #1f77b4; stroke-opacity: 0.5"/>
     <use xlink:href="#mbf921f3e5e" x="430.2212" y="120.779167" style="fill: #1f77b4; fill-opacity: 0.5; stroke: #1f77b4; stroke-opacity: 0.5"/>
     <use xlink:href="#mbf921f3e5e" x="418.627605" y="120.779167" style="fill: #1f77b4; fill-opacity: 0.5; stroke: #1f77b4; stroke-opacity: 0.5"/>
    </g>
   </g>
   <g id="PathCollection_24">
    <g clip-path="url(#pbff4c5f418)">
     <use xlink:href="#m64ef1f2ddb" x="441.814776" y="75.099974" style="fill: #2ca02c; fill-opacity: 0.5; stroke: #2ca02c; stroke-opacity: 0.5"/>
     <use xlink:href="#m64ef1f2ddb" x="480.460066" y="61.396219" style="fill: #2ca02c; fill-opacity: 0.5; stroke: #2ca02c; stroke-opacity: 0.5"/>
     <use xlink:href="#m64ef1f2ddb" x="445.67932" y="84.235814" style="fill: #2ca02c; fill-opacity: 0.5; stroke: #2ca02c; stroke-opacity: 0.5"/>
     <use xlink:href="#m64ef1f2ddb" x="441.814776" y="70.532059" style="fill: #2ca02c; fill-opacity: 0.5; stroke: #2ca02c; stroke-opacity: 0.5"/>
     <use xlink:href="#m64ef1f2ddb" x="480.460066" y="65.964139" style="fill: #2ca02c; fill-opacity: 0.5; stroke: #2ca02c; stroke-opacity: 0.5"/>
     <use xlink:href="#m64ef1f2ddb" x="457.272896" y="65.964139" style="fill: #2ca02c; fill-opacity: 0.5; stroke: #2ca02c; stroke-opacity: 0.5"/>
     <use xlink:href="#m64ef1f2ddb" x="434.085725" y="84.235814" style="fill: #2ca02c; fill-opacity: 0.5; stroke: #2ca02c; stroke-opacity: 0.5"/>
    </g>
   </g>
   <g id="PathCollection_25">
    <g clip-path="url(#pbff4c5f418)">
     <use xlink:href="#m6430023bfb" x="484.32461" y="33.988709" style="fill: #8c564b; fill-opacity: 0.5; stroke: #8c564b; stroke-opacity: 0.5"/>
     <use xlink:href="#m6430023bfb" x="457.272896" y="65.964139" style="fill: #8c564b; fill-opacity: 0.5; stroke: #8c564b; stroke-opacity: 0.5"/>
     <use xlink:href="#m6430023bfb" x="449.543845" y="47.692464" style="fill: #8c564b; fill-opacity: 0.5; stroke: #8c564b; stroke-opacity: 0.5"/>
     <use xlink:href="#m6430023bfb" x="461.137421" y="24.852868" style="fill: #8c564b; fill-opacity: 0.5; stroke: #8c564b; stroke-opacity: 0.5"/>
     <use xlink:href="#m6430023bfb" x="495.918186" y="33.988709" style="fill: #8c564b; fill-opacity: 0.5; stroke: #8c564b; stroke-opacity: 0.5"/>
     <use xlink:href="#m6430023bfb" x="515.240832" y="33.988709" style="fill: #8c564b; fill-opacity: 0.5; stroke: #8c564b; stroke-opacity: 0.5"/>
     <use xlink:href="#m6430023bfb" x="453.40837" y="61.396219" style="fill: #8c564b; fill-opacity: 0.5; stroke: #8c564b; stroke-opacity: 0.5"/>
     <use xlink:href="#m6430023bfb" x="468.86649" y="24.852868" style="fill: #8c564b; fill-opacity: 0.5; stroke: #8c564b; stroke-opacity: 0.5"/>
    </g>
   </g>
   <g id="PathCollection_26">
    <g clip-path="url(#pbff4c5f418)">
     <use xlink:href="#m113c910af7" x="407.033992" y="119.256522" style="stroke: #000000"/>
    </g>
   </g>
   <g id="patch_29">
    <path d="M 398.853316 115.115245 
C 398.102693 117.186914 398.244681 119.610362 399.248007 121.851854 
C 400.251334 124.093346 402.034082 125.969874 404.203623 127.068153 
C 406.373163 128.166433 408.752363 128.396794 410.81723 127.708504 
C 412.882098 127.020214 414.464046 125.469468 415.214668 123.397799 
C 415.965291 121.32613 415.823304 118.902681 414.819977 116.66119 
C 413.816651 114.419698 412.033902 112.54317 409.864362 111.444891 
C 407.694821 110.346611 405.315621 110.116249 403.250754 110.80454 
C 401.185887 111.49283 399.603939 113.043576 398.853316 115.115245 
L 398.853316 115.115245 
z
" clip-path="url(#pbff4c5f418)" style="fill: none; stroke: #195f90; stroke-width: 2; stroke-linejoin: miter"/>
   </g>
   <g id="PathCollection_27">
    <g clip-path="url(#pbff4c5f418)">
     <use xlink:href="#m113c910af7" x="443.102951" y="76.622607" style="stroke: #000000"/>
    </g>
   </g>
   <g id="patch_30">
    <path d="M 441.786316 66.120611 
C 439.792092 66.469921 438.018006 67.911528 436.854781 70.127934 
C 435.691556 72.344341 435.234163 75.154587 435.583339 77.939748 
C 435.932514 80.72491 437.059749 83.257591 438.716783 84.979999 
C 440.373817 86.702406 442.425361 87.473912 444.419585 87.124602 
C 446.41381 86.775292 448.187896 85.333685 449.351121 83.117279 
C 450.514346 80.900873 450.971739 78.090627 450.622563 75.305465 
C 450.273388 72.520303 449.146153 69.987622 447.489119 68.265215 
C 445.832084 66.542808 443.780541 65.771301 441.786316 66.120611 
L 441.786316 66.120611 
z
" clip-path="url(#pbff4c5f418)" style="fill: none; stroke: #238023; stroke-width: 2; stroke-linejoin: miter"/>
   </g>
   <g id="PathCollection_28">
    <g clip-path="url(#pbff4c5f418)">
     <use xlink:href="#m113c910af7" x="481.748241" y="53.783044" style="stroke: #000000"/>
    </g>
   </g>
   <g id="patch_31">
    <path d="M 483.104968 41.703447 
C 481.148198 41.396387 479.128355 42.374644 477.490286 44.422769 
C 475.852218 46.470895 474.729665 49.421667 474.369857 52.625214 
C 474.010049 55.82876 474.442362 59.023525 475.571585 61.505899 
C 476.700808 63.988273 478.434744 65.555581 480.391515 65.862641 
C 482.348285 66.169701 484.368128 65.191444 486.006197 63.143318 
C 487.644265 61.095193 488.766818 58.144421 489.126626 54.940874 
C 489.486434 51.737328 489.054121 48.542562 487.924898 46.060189 
C 486.795675 43.577815 485.061739 42.010507 483.104968 41.703447 
L 483.104968 41.703447 
z
" clip-path="url(#pbff4c5f418)" style="fill: none; stroke: #70453c; stroke-width: 2; stroke-linejoin: miter"/>
   </g>
   <g id="PathCollection_29">
    <g clip-path="url(#pbff4c5f418)">
     <use xlink:href="#m113c910af7" x="453.40837" y="56.828304" style="stroke: #000000"/>
    </g>
   </g>
   <g id="patch_32">
    <path d="M 446.88356 44.274813 
C 444.759028 45.817615 443.40872 48.620151 443.130026 52.065195 
C 442.851332 55.510239 443.667006 59.316517 445.397406 62.645742 
C 447.127806 65.974967 449.631652 68.555322 452.357501 69.818513 
C 455.083349 71.081704 457.808648 70.924598 459.93318 69.381795 
C 462.057713 67.838993 463.408021 65.036457 463.686715 61.591413 
C 463.965409 58.146369 463.149734 54.340091 461.419334 51.010866 
C 459.688935 47.681641 457.185089 45.101287 454.45924 43.838095 
C 451.733391 42.574904 449.008093 42.73201 446.88356 44.274813 
L 446.88356 44.274813 
z
" clip-path="url(#pbff4c5f418)" style="fill: none; stroke: #70453c; stroke-width: 2; stroke-linejoin: miter"/>
   </g>
   <g id="PathCollection_30">
    <g clip-path="url(#pbff4c5f418)">
     <use xlink:href="#m113c910af7" x="420.173434" y="117.124854" style="stroke: #000000"/>
    </g>
   </g>
   <g id="patch_33">
    <path d="M 412.075889 115.813389 
C 411.841544 117.834989 412.469975 119.912246 413.822776 121.587669 
C 415.175576 123.263091 417.142298 124.399888 419.289792 124.747692 
C 421.437285 125.095497 423.590219 124.625913 425.274433 123.44236 
C 426.958647 122.258808 428.036634 120.457919 428.270978 118.436319 
C 428.505323 116.414718 427.876893 114.337461 426.524092 112.662038 
C 425.171291 110.986616 423.20457 109.849819 421.057076 109.502015 
C 418.909582 109.15421 416.756649 109.623794 415.072434 110.807347 
C 413.38822 111.990899 412.310234 113.791788 412.075889 115.813389 
L 412.075889 115.813389 
z
" clip-path="url(#pbff4c5f418)" style="fill: none; stroke: #195f90; stroke-width: 2; stroke-linejoin: miter"/>
   </g>
   <g id="PathCollection_31">
    <g clip-path="url(#pbff4c5f418)">
     <use xlink:href="#m113c910af7" x="406.067856" y="119.637192" style="stroke: #000000"/>
    </g>
   </g>
   <g id="patch_34">
    <path d="M 391.938678 120.412686 
C 392.061284 123.533666 393.667623 126.445528 396.403919 128.506967 
C 399.140215 130.568407 402.783061 131.611118 406.530163 131.405455 
C 410.277265 131.199791 413.822688 129.762545 416.385594 127.410253 
C 418.9485 125.057962 420.319639 121.982678 420.197034 118.861698 
C 420.074429 115.740719 418.468089 112.828857 415.731793 110.767417 
C 412.995497 108.705978 409.352651 107.663267 405.605549 107.86893 
C 401.858448 108.074594 398.313025 109.51184 395.750119 111.864131 
C 393.187212 114.216423 391.816073 117.291707 391.938678 120.412686 
L 391.938678 120.412686 
z
" clip-path="url(#pbff4c5f418)" style="fill: none; stroke: #195f90; stroke-width: 2; stroke-linejoin: miter"/>
   </g>
   <g id="PathCollection_32">
    <g clip-path="url(#pbff4c5f418)">
     <use xlink:href="#m113c910af7" x="465.001965" y="24.852868" style="stroke: #000000"/>
    </g>
   </g>
   <g id="patch_35">
    <path d="M 477.034209 24.852868 
C 477.034209 21.739829 475.766416 18.753872 473.510046 16.552621 
C 471.253677 14.351369 468.192953 13.114545 465.001965 13.114545 
C 461.810976 13.114545 458.750253 14.351369 456.493883 16.552621 
C 454.237514 18.753872 452.969721 21.739829 452.969721 24.852868 
C 452.969721 27.965908 454.237514 30.951864 456.493883 33.153116 
C 458.750253 35.354367 461.810976 36.591191 465.001965 36.591191 
C 468.192953 36.591191 471.253677 35.354367 473.510046 33.153116 
C 475.766416 30.951864 477.034209 27.965908 477.034209 24.852868 
L 477.034209 24.852868 
z
" clip-path="url(#pbff4c5f418)" style="fill: none; stroke: #70453c; stroke-width: 2; stroke-linejoin: miter"/>
   </g>
   <g id="PathCollection_33">
    <g clip-path="url(#pbff4c5f418)">
     <use xlink:href="#m113c910af7" x="505.579509" y="33.988709" style="stroke: #000000"/>
    </g>
   </g>
   <g id="patch_36">
    <path d="M 519.794091 33.988709 
C 519.794091 30.952589 518.296353 28.040411 515.630736 25.89355 
C 512.96512 23.746689 509.34926 22.540426 505.579509 22.540426 
C 501.809758 22.540426 498.193898 23.746689 495.528282 25.89355 
C 492.862665 28.040411 491.364927 30.952589 491.364927 33.988709 
C 491.364927 37.024829 492.862665 39.937006 495.528282 42.083867 
C 498.193898 44.230728 501.809758 45.436991 505.579509 45.436991 
C 509.34926 45.436991 512.96512 44.230728 515.630736 42.083867 
C 518.296353 39.937006 519.794091 37.024829 519.794091 33.988709 
L 519.794091 33.988709 
z
" clip-path="url(#pbff4c5f418)" style="fill: none; stroke: #70453c; stroke-width: 2; stroke-linejoin: miter"/>
   </g>
   <g id="matplotlib.axis_5">
    <g id="xtick_7">
     <g id="line2d_14">
      <g>
       <use xlink:href="#m67b1e2b797" x="414.76308" y="137.32" style="stroke: #000000; stroke-width: 0.8"/>
      </g>
     </g>
     <g id="text_18">
      <!-- 5 -->
      <g transform="translate(411.58183 151.918437) scale(0.1 -0.1)">
       <use xlink:href="#DejaVuSans-35"/>
      </g>
     </g>
    </g>
    <g id="xtick_8">
     <g id="line2d_15">
      <g>
       <use xlink:href="#m67b1e2b797" x="453.40837" y="137.32" style="stroke: #000000; stroke-width: 0.8"/>
      </g>
     </g>
     <g id="text_19">
      <!-- 6 -->
      <g transform="translate(450.22712 151.918437) scale(0.1 -0.1)">
       <use xlink:href="#DejaVuSans-36"/>
      </g>
     </g>
    </g>
    <g id="xtick_9">
     <g id="line2d_16">
      <g>
       <use xlink:href="#m67b1e2b797" x="492.053661" y="137.32" style="stroke: #000000; stroke-width: 0.8"/>
      </g>
     </g>
     <g id="text_20">
      <!-- 7 -->
      <g transform="translate(488.872411 151.918437) scale(0.1 -0.1)">
       <use xlink:href="#DejaVuSans-37"/>
      </g>
     </g>
    </g>
    <g id="text_21">
     <!-- Feature 1 -->
     <g transform="translate(436.756875 164.076875) scale(0.08 -0.08)">
      <use xlink:href="#DejaVuSans-46"/>
      <use xlink:href="#DejaVuSans-65" x="52.019531"/>
      <use xlink:href="#DejaVuSans-61" x="113.542969"/>
      <use xlink:href="#DejaVuSans-74" x="174.822266"/>
      <use xlink:href="#DejaVuSans-75" x="214.03125"/>
      <use xlink:href="#DejaVuSans-72" x="277.410156"/>
      <use xlink:href="#DejaVuSans-65" x="316.273438"/>
      <use xlink:href="#DejaVuSans-20" x="377.796875"/>
      <use xlink:href="#DejaVuSans-31" x="409.583984"/>
     </g>
    </g>
   </g>
   <g id="matplotlib.axis_6">
    <g id="ytick_8">
     <g id="line2d_17">
      <g>
       <use xlink:href="#m9b2dbcb70a" x="385.165" y="129.915005" style="stroke: #000000; stroke-width: 0.8"/>
      </g>
     </g>
     <g id="text_22">
      <!-- 0 -->
      <g transform="translate(371.8025 133.714224) scale(0.1 -0.1)">
       <defs>
        <path id="DejaVuSans-30" d="M 2034 4250 
Q 1547 4250 1301 3770 
Q 1056 3291 1056 2328 
Q 1056 1369 1301 889 
Q 1547 409 2034 409 
Q 2525 409 2770 889 
Q 3016 1369 3016 2328 
Q 3016 3291 2770 3770 
Q 2525 4250 2034 4250 
z
M 2034 4750 
Q 2819 4750 3233 4129 
Q 3647 3509 3647 2328 
Q 3647 1150 3233 529 
Q 2819 -91 2034 -91 
Q 1250 -91 836 529 
Q 422 1150 422 2328 
Q 422 3509 836 4129 
Q 1250 4750 2034 4750 
z
" transform="scale(0.015625)"/>
       </defs>
       <use xlink:href="#DejaVuSans-30"/>
      </g>
     </g>
    </g>
    <g id="ytick_9">
     <g id="line2d_18">
      <g>
       <use xlink:href="#m9b2dbcb70a" x="385.165" y="107.07541" style="stroke: #000000; stroke-width: 0.8"/>
      </g>
     </g>
     <g id="text_23">
      <!-- 0 -->
      <g transform="translate(371.8025 110.874629) scale(0.1 -0.1)">
       <use xlink:href="#DejaVuSans-30"/>
      </g>
     </g>
    </g>
    <g id="ytick_10">
     <g id="line2d_19">
      <g>
       <use xlink:href="#m9b2dbcb70a" x="385.165" y="84.235814" style="stroke: #000000; stroke-width: 0.8"/>
      </g>
     </g>
     <g id="text_24">
      <!-- 1 -->
      <g transform="translate(371.8025 88.035033) scale(0.1 -0.1)">
       <use xlink:href="#DejaVuSans-31"/>
      </g>
     </g>
    </g>
    <g id="ytick_11">
     <g id="line2d_20">
      <g>
       <use xlink:href="#m9b2dbcb70a" x="385.165" y="61.396219" style="stroke: #000000; stroke-width: 0.8"/>
      </g>
     </g>
     <g id="text_25">
      <!-- 1 -->
      <g transform="translate(371.8025 65.195438) scale(0.1 -0.1)">
       <use xlink:href="#DejaVuSans-31"/>
      </g>
     </g>
    </g>
    <g id="ytick_12">
     <g id="line2d_21">
      <g>
       <use xlink:href="#m9b2dbcb70a" x="385.165" y="38.556623" style="stroke: #000000; stroke-width: 0.8"/>
      </g>
     </g>
     <g id="text_26">
      <!-- 2 -->
      <g transform="translate(371.8025 42.355842) scale(0.1 -0.1)">
       <use xlink:href="#DejaVuSans-32"/>
      </g>
     </g>
    </g>
    <g id="ytick_13">
     <g id="line2d_22">
      <g>
       <use xlink:href="#m9b2dbcb70a" x="385.165" y="15.717028" style="stroke: #000000; stroke-width: 0.8"/>
      </g>
     </g>
     <g id="text_27">
      <!-- 2 -->
      <g transform="translate(371.8025 19.516247) scale(0.1 -0.1)">
       <use xlink:href="#DejaVuSans-32"/>
      </g>
     </g>
    </g>
    <g id="text_28">
     <!-- Feature 4 -->
     <g transform="translate(366.13875 91.188125) rotate(-90) scale(0.08 -0.08)">
      <use xlink:href="#DejaVuSans-46"/>
      <use xlink:href="#DejaVuSans-65" x="52.019531"/>
      <use xlink:href="#DejaVuSans-61" x="113.542969"/>
      <use xlink:href="#DejaVuSans-74" x="174.822266"/>
      <use xlink:href="#DejaVuSans-75" x="214.03125"/>
      <use xlink:href="#DejaVuSans-72" x="277.410156"/>
      <use xlink:href="#DejaVuSans-65" x="316.273438"/>
      <use xlink:href="#DejaVuSans-20" x="377.796875"/>
      <use xlink:href="#DejaVuSans-34" x="409.583984"/>
     </g>
    </g>
   </g>
   <g id="patch_37">
    <path d="M 385.165 137.32 
L 385.165 7.2 
" style="fill: none; stroke: #000000; stroke-width: 0.8; stroke-linejoin: miter; stroke-linecap: square"/>
   </g>
   <g id="patch_38">
    <path d="M 526.205 137.32 
L 526.205 7.2 
" style="fill: none; stroke: #000000; stroke-width: 0.8; stroke-linejoin: miter; stroke-linecap: square"/>
   </g>
   <g id="patch_39">
    <path d="M 385.165 137.32 
L 526.205 137.32 
" style="fill: none; stroke: #000000; stroke-width: 0.8; stroke-linejoin: miter; stroke-linecap: square"/>
   </g>
   <g id="patch_40">
    <path d="M 385.165 7.2 
L 526.205 7.2 
" style="fill: none; stroke: #000000; stroke-width: 0.8; stroke-linejoin: miter; stroke-linecap: square"/>
   </g>
   <g id="legend_1">
    <g id="patch_41">
     <path d="M 475.785313 134.32 
L 522.005 134.32 
Q 523.205 134.32 523.205 133.12 
L 523.205 72.071875 
Q 523.205 70.871875 522.005 70.871875 
L 475.785313 70.871875 
Q 474.585313 70.871875 474.585313 72.071875 
L 474.585313 133.12 
Q 474.585313 134.32 475.785313 134.32 
z
" style="fill: #ffffff; opacity: 0.8; stroke: #cccccc; stroke-linejoin: miter"/>
    </g>
    <g id="PathCollection_34">
     <g>
      <use xlink:href="#mbf921f3e5e" x="482.985313" y="76.255937" style="fill: #1f77b4; fill-opacity: 0.5; stroke: #1f77b4; stroke-opacity: 0.5"/>
     </g>
    </g>
    <g id="text_29">
     <!-- Class1 -->
     <g transform="translate(493.785313 77.830937) scale(0.06 -0.06)">
      <defs>
       <path id="DejaVuSans-43" d="M 4122 4306 
L 4122 3641 
Q 3803 3938 3442 4084 
Q 3081 4231 2675 4231 
Q 1875 4231 1450 3742 
Q 1025 3253 1025 2328 
Q 1025 1406 1450 917 
Q 1875 428 2675 428 
Q 3081 428 3442 575 
Q 3803 722 4122 1019 
L 4122 359 
Q 3791 134 3420 21 
Q 3050 -91 2638 -91 
Q 1578 -91 968 557 
Q 359 1206 359 2328 
Q 359 3453 968 4101 
Q 1578 4750 2638 4750 
Q 3056 4750 3426 4639 
Q 3797 4528 4122 4306 
z
" transform="scale(0.015625)"/>
       <path id="DejaVuSans-6c" d="M 603 4863 
L 1178 4863 
L 1178 0 
L 603 0 
L 603 4863 
z
" transform="scale(0.015625)"/>
       <path id="DejaVuSans-73" d="M 2834 3397 
L 2834 2853 
Q 2591 2978 2328 3040 
Q 2066 3103 1784 3103 
Q 1356 3103 1142 2972 
Q 928 2841 928 2578 
Q 928 2378 1081 2264 
Q 1234 2150 1697 2047 
L 1894 2003 
Q 2506 1872 2764 1633 
Q 3022 1394 3022 966 
Q 3022 478 2636 193 
Q 2250 -91 1575 -91 
Q 1294 -91 989 -36 
Q 684 19 347 128 
L 347 722 
Q 666 556 975 473 
Q 1284 391 1588 391 
Q 1994 391 2212 530 
Q 2431 669 2431 922 
Q 2431 1156 2273 1281 
Q 2116 1406 1581 1522 
L 1381 1569 
Q 847 1681 609 1914 
Q 372 2147 372 2553 
Q 372 3047 722 3315 
Q 1072 3584 1716 3584 
Q 2034 3584 2315 3537 
Q 2597 3491 2834 3397 
z
" transform="scale(0.015625)"/>
      </defs>
      <use xlink:href="#DejaVuSans-43"/>
      <use xlink:href="#DejaVuSans-6c" x="69.824219"/>
      <use xlink:href="#DejaVuSans-61" x="97.607422"/>
      <use xlink:href="#DejaVuSans-73" x="158.886719"/>
      <use xlink:href="#DejaVuSans-73" x="210.986328"/>
      <use xlink:href="#DejaVuSans-31" x="263.085938"/>
     </g>
    </g>
    <g id="PathCollection_35">
     <g>
      <use xlink:href="#m64ef1f2ddb" x="482.985313" y="85.062812" style="fill: #2ca02c; fill-opacity: 0.5; stroke: #2ca02c; stroke-opacity: 0.5"/>
     </g>
    </g>
    <g id="text_30">
     <!-- Class2 -->
     <g transform="translate(493.785313 86.637812) scale(0.06 -0.06)">
      <use xlink:href="#DejaVuSans-43"/>
      <use xlink:href="#DejaVuSans-6c" x="69.824219"/>
      <use xlink:href="#DejaVuSans-61" x="97.607422"/>
      <use xlink:href="#DejaVuSans-73" x="158.886719"/>
      <use xlink:href="#DejaVuSans-73" x="210.986328"/>
      <use xlink:href="#DejaVuSans-32" x="263.085938"/>
     </g>
    </g>
    <g id="PathCollection_36">
     <g>
      <use xlink:href="#m6430023bfb" x="482.985313" y="93.869687" style="fill: #8c564b; fill-opacity: 0.5; stroke: #8c564b; stroke-opacity: 0.5"/>
     </g>
    </g>
    <g id="text_31">
     <!-- Class3 -->
     <g transform="translate(493.785313 95.444687) scale(0.06 -0.06)">
      <use xlink:href="#DejaVuSans-43"/>
      <use xlink:href="#DejaVuSans-6c" x="69.824219"/>
      <use xlink:href="#DejaVuSans-61" x="97.607422"/>
      <use xlink:href="#DejaVuSans-73" x="158.886719"/>
      <use xlink:href="#DejaVuSans-73" x="210.986328"/>
      <use xlink:href="#DejaVuSans-33" x="263.085938"/>
     </g>
    </g>
    <g id="PathCollection_37">
     <g>
      <use xlink:href="#m113c910af7" x="482.985313" y="102.676562" style="stroke: #000000"/>
     </g>
    </g>
    <g id="text_32">
     <!-- Centers -->
     <g transform="translate(493.785313 104.251562) scale(0.06 -0.06)">
      <defs>
       <path id="DejaVuSans-6e" d="M 3513 2113 
L 3513 0 
L 2938 0 
L 2938 2094 
Q 2938 2591 2744 2837 
Q 2550 3084 2163 3084 
Q 1697 3084 1428 2787 
Q 1159 2491 1159 1978 
L 1159 0 
L 581 0 
L 581 3500 
L 1159 3500 
L 1159 2956 
Q 1366 3272 1645 3428 
Q 1925 3584 2291 3584 
Q 2894 3584 3203 3211 
Q 3513 2838 3513 2113 
z
" transform="scale(0.015625)"/>
      </defs>
      <use xlink:href="#DejaVuSans-43"/>
      <use xlink:href="#DejaVuSans-65" x="69.824219"/>
      <use xlink:href="#DejaVuSans-6e" x="131.347656"/>
      <use xlink:href="#DejaVuSans-74" x="194.726562"/>
      <use xlink:href="#DejaVuSans-65" x="233.935547"/>
      <use xlink:href="#DejaVuSans-72" x="295.458984"/>
      <use xlink:href="#DejaVuSans-73" x="336.572266"/>
     </g>
    </g>
    <g id="patch_42">
     <path d="M 476.985313 113.058437 
L 488.985313 113.058437 
L 488.985313 108.858437 
L 476.985313 108.858437 
L 476.985313 113.058437 
z
" style="fill: none; stroke: #195f90; stroke-width: 2; stroke-linejoin: miter"/>
    </g>
    <g id="text_33">
     <!-- Cluster 1 -->
     <g transform="translate(493.785313 113.058437) scale(0.06 -0.06)">
      <use xlink:href="#DejaVuSans-43"/>
      <use xlink:href="#DejaVuSans-6c" x="69.824219"/>
      <use xlink:href="#DejaVuSans-75" x="97.607422"/>
      <use xlink:href="#DejaVuSans-73" x="160.986328"/>
      <use xlink:href="#DejaVuSans-74" x="213.085938"/>
      <use xlink:href="#DejaVuSans-65" x="252.294922"/>
      <use xlink:href="#DejaVuSans-72" x="313.818359"/>
      <use xlink:href="#DejaVuSans-20" x="354.931641"/>
      <use xlink:href="#DejaVuSans-31" x="386.71875"/>
     </g>
    </g>
    <g id="patch_43">
     <path d="M 476.985313 121.865312 
L 488.985313 121.865312 
L 488.985313 117.665312 
L 476.985313 117.665312 
L 476.985313 121.865312 
z
" style="fill: none; stroke: #238023; stroke-width: 2; stroke-linejoin: miter"/>
    </g>
    <g id="text_34">
     <!-- Cluster 2 -->
     <g transform="translate(493.785313 121.865312) scale(0.06 -0.06)">
      <use xlink:href="#DejaVuSans-43"/>
      <use xlink:href="#DejaVuSans-6c" x="69.824219"/>
      <use xlink:href="#DejaVuSans-75" x="97.607422"/>
      <use xlink:href="#DejaVuSans-73" x="160.986328"/>
      <use xlink:href="#DejaVuSans-74" x="213.085938"/>
      <use xlink:href="#DejaVuSans-65" x="252.294922"/>
      <use xlink:href="#DejaVuSans-72" x="313.818359"/>
      <use xlink:href="#DejaVuSans-20" x="354.931641"/>
      <use xlink:href="#DejaVuSans-32" x="386.71875"/>
     </g>
    </g>
    <g id="patch_44">
     <path d="M 476.985313 130.672187 
L 488.985313 130.672187 
L 488.985313 126.472187 
L 476.985313 126.472187 
L 476.985313 130.672187 
z
" style="fill: none; stroke: #70453c; stroke-width: 2; stroke-linejoin: miter"/>
    </g>
    <g id="text_35">
     <!-- Cluster 3 -->
     <g transform="translate(493.785313 130.672187) scale(0.06 -0.06)">
      <use xlink:href="#DejaVuSans-43"/>
      <use xlink:href="#DejaVuSans-6c" x="69.824219"/>
      <use xlink:href="#DejaVuSans-75" x="97.607422"/>
      <use xlink:href="#DejaVuSans-73" x="160.986328"/>
      <use xlink:href="#DejaVuSans-74" x="213.085938"/>
      <use xlink:href="#DejaVuSans-65" x="252.294922"/>
      <use xlink:href="#DejaVuSans-72" x="313.818359"/>
      <use xlink:href="#DejaVuSans-20" x="354.931641"/>
      <use xlink:href="#DejaVuSans-33" x="386.71875"/>
     </g>
    </g>
   </g>
  </g>
 </g>
 <defs>
  <clipPath id="pc508938430">
   <rect x="32.305" y="7.2" width="141.04" height="130.12"/>
  </clipPath>
  <clipPath id="p3b3d802cbe">
   <rect x="208.735" y="7.2" width="141.04" height="130.12"/>
  </clipPath>
  <clipPath id="pbff4c5f418">
   <rect x="385.165" y="7.2" width="141.04" height="130.12"/>
  </clipPath>
 </defs>
</svg>
