<?xml version="1.0" encoding="utf-8" standalone="no"?>
<!DOCTYPE svg PUBLIC "-//W3C//DTD SVG 1.1//EN"
  "http://www.w3.org/Graphics/SVG/1.1/DTD/svg11.dtd">
<svg xmlns:xlink="http://www.w3.org/1999/xlink" width="554.4pt" height="171.99625pt" viewBox="0 0 554.4 171.99625" xmlns="http://www.w3.org/2000/svg" version="1.1">
 <metadata>
  <rdf:RDF xmlns:dc="http://purl.org/dc/elements/1.1/" xmlns:cc="http://creativecommons.org/ns#" xmlns:rdf="http://www.w3.org/1999/02/22-rdf-syntax-ns#">
   <cc:Work>
    <dc:type rdf:resource="http://purl.org/dc/dcmitype/StillImage"/>
    <dc:date>2023-12-12T20:32:11.919244</dc:date>
    <dc:format>image/svg+xml</dc:format>
    <dc:creator>
     <cc:Agent>
      <dc:title>Matplotlib v3.8.2, https://matplotlib.org/</dc:title>
     </cc:Agent>
    </dc:creator>
   </cc:Work>
  </rdf:RDF>
 </metadata>
 <defs>
  <style type="text/css">*{stroke-linejoin: round; stroke-linecap: butt}</style>
 </defs>
 <g id="figure_1">
  <g id="patch_1">
   <path d="M 0 171.99625 
L 554.4 171.99625 
L 554.4 0 
L 0 0 
z
" style="fill: #ffffff"/>
  </g>
  <g id="axes_1">
   <g id="patch_2">
    <path d="M 65.63 134.44 
L 194.34 134.44 
L 194.34 7.2 
L 65.63 7.2 
z
" style="fill: #ffffff"/>
   </g>
   <g id="PathCollection_1">
    <defs>
     <path id="m0fdd5da115" d="M 0 3 
C 0.795609 3 1.55874 2.683901 2.12132 2.12132 
C 2.683901 1.55874 3 0.795609 3 0 
C 3 -0.795609 2.683901 -1.55874 2.12132 -2.12132 
C 1.55874 -2.683901 0.795609 -3 0 -3 
C -0.795609 -3 -1.55874 -2.683901 -2.12132 -2.12132 
C -2.683901 -1.55874 -3 -0.795609 -3 0 
C -3 0.795609 -2.683901 1.55874 -2.12132 2.12132 
C -1.55874 2.683901 -0.795609 3 0 3 
z
" style="stroke: #1f77b4; stroke-opacity: 0.5"/>
    </defs>
    <g clip-path="url(#pb628fc4273)">
     <use xlink:href="#m0fdd5da115" x="93.039378" y="51.541207" style="fill: #1f77b4; fill-opacity: 0.5; stroke: #1f77b4; stroke-opacity: 0.5"/>
     <use xlink:href="#m0fdd5da115" x="93.039378" y="57.967479" style="fill: #1f77b4; fill-opacity: 0.5; stroke: #1f77b4; stroke-opacity: 0.5"/>
     <use xlink:href="#m0fdd5da115" x="105.35877" y="32.262422" style="fill: #1f77b4; fill-opacity: 0.5; stroke: #1f77b4; stroke-opacity: 0.5"/>
     <use xlink:href="#m0fdd5da115" x="96.119222" y="45.11495" style="fill: #1f77b4; fill-opacity: 0.5; stroke: #1f77b4; stroke-opacity: 0.5"/>
     <use xlink:href="#m0fdd5da115" x="96.119222" y="25.836165" style="fill: #1f77b4; fill-opacity: 0.5; stroke: #1f77b4; stroke-opacity: 0.5"/>
     <use xlink:href="#m0fdd5da115" x="89.959534" y="70.820008" style="fill: #1f77b4; fill-opacity: 0.5; stroke: #1f77b4; stroke-opacity: 0.5"/>
     <use xlink:href="#m0fdd5da115" x="86.87969" y="77.246264" style="fill: #1f77b4; fill-opacity: 0.5; stroke: #1f77b4; stroke-opacity: 0.5"/>
     <use xlink:href="#m0fdd5da115" x="96.119222" y="25.836165" style="fill: #1f77b4; fill-opacity: 0.5; stroke: #1f77b4; stroke-opacity: 0.5"/>
     <use xlink:href="#m0fdd5da115" x="71.480455" y="77.246264" style="fill: #1f77b4; fill-opacity: 0.5; stroke: #1f77b4; stroke-opacity: 0.5"/>
     <use xlink:href="#m0fdd5da115" x="105.35877" y="19.409893" style="fill: #1f77b4; fill-opacity: 0.5; stroke: #1f77b4; stroke-opacity: 0.5"/>
     <use xlink:href="#m0fdd5da115" x="80.719987" y="38.688694" style="fill: #1f77b4; fill-opacity: 0.5; stroke: #1f77b4; stroke-opacity: 0.5"/>
     <use xlink:href="#m0fdd5da115" x="117.678161" y="12.983636" style="fill: #1f77b4; fill-opacity: 0.5; stroke: #1f77b4; stroke-opacity: 0.5"/>
    </g>
   </g>
   <g id="PathCollection_2">
    <defs>
     <path id="me075894d5c" d="M 0 3 
C 0.795609 3 1.55874 2.683901 2.12132 2.12132 
C 2.683901 1.55874 3 0.795609 3 0 
C 3 -0.795609 2.683901 -1.55874 2.12132 -2.12132 
C 1.55874 -2.683901 0.795609 -3 0 -3 
C -0.795609 -3 -1.55874 -2.683901 -2.12132 -2.12132 
C -2.683901 -1.55874 -3 -0.795609 -3 0 
C -3 0.795609 -2.683901 1.55874 -2.12132 2.12132 
C -1.55874 2.683901 -0.795609 3 0 3 
z
" style="stroke: #2ca02c; stroke-opacity: 0.5"/>
    </defs>
    <g clip-path="url(#pb628fc4273)">
     <use xlink:href="#me075894d5c" x="126.917693" y="90.098793" style="fill: #2ca02c; fill-opacity: 0.5; stroke: #2ca02c; stroke-opacity: 0.5"/>
     <use xlink:href="#me075894d5c" x="145.396773" y="77.246264" style="fill: #2ca02c; fill-opacity: 0.5; stroke: #2ca02c; stroke-opacity: 0.5"/>
     <use xlink:href="#me075894d5c" x="111.518458" y="109.377578" style="fill: #2ca02c; fill-opacity: 0.5; stroke: #2ca02c; stroke-opacity: 0.5"/>
     <use xlink:href="#me075894d5c" x="129.997538" y="83.672521" style="fill: #2ca02c; fill-opacity: 0.5; stroke: #2ca02c; stroke-opacity: 0.5"/>
     <use xlink:href="#me075894d5c" x="108.438614" y="102.951322" style="fill: #2ca02c; fill-opacity: 0.5; stroke: #2ca02c; stroke-opacity: 0.5"/>
     <use xlink:href="#me075894d5c" x="114.598302" y="90.098793" style="fill: #2ca02c; fill-opacity: 0.5; stroke: #2ca02c; stroke-opacity: 0.5"/>
     <use xlink:href="#me075894d5c" x="129.997538" y="128.656364" style="fill: #2ca02c; fill-opacity: 0.5; stroke: #2ca02c; stroke-opacity: 0.5"/>
     <use xlink:href="#me075894d5c" x="154.63632" y="64.393736" style="fill: #2ca02c; fill-opacity: 0.5; stroke: #2ca02c; stroke-opacity: 0.5"/>
    </g>
   </g>
   <g id="PathCollection_3">
    <defs>
     <path id="m613e5bdb37" d="M 0 3 
C 0.795609 3 1.55874 2.683901 2.12132 2.12132 
C 2.683901 1.55874 3 0.795609 3 0 
C 3 -0.795609 2.683901 -1.55874 2.12132 -2.12132 
C 1.55874 -2.683901 0.795609 -3 0 -3 
C -0.795609 -3 -1.55874 -2.683901 -2.12132 -2.12132 
C -2.683901 -1.55874 -3 -0.795609 -3 0 
C -3 0.795609 -2.683901 1.55874 -2.12132 2.12132 
C -1.55874 2.683901 -0.795609 3 0 3 
z
" style="stroke: #8c564b; stroke-opacity: 0.5"/>
    </defs>
    <g clip-path="url(#pb628fc4273)">
     <use xlink:href="#m613e5bdb37" x="145.396773" y="109.377578" style="fill: #8c564b; fill-opacity: 0.5; stroke: #8c564b; stroke-opacity: 0.5"/>
     <use xlink:href="#m613e5bdb37" x="117.678161" y="96.52505" style="fill: #8c564b; fill-opacity: 0.5; stroke: #8c564b; stroke-opacity: 0.5"/>
     <use xlink:href="#m613e5bdb37" x="148.476632" y="64.393736" style="fill: #8c564b; fill-opacity: 0.5; stroke: #8c564b; stroke-opacity: 0.5"/>
     <use xlink:href="#m613e5bdb37" x="123.837849" y="128.656364" style="fill: #8c564b; fill-opacity: 0.5; stroke: #8c564b; stroke-opacity: 0.5"/>
     <use xlink:href="#m613e5bdb37" x="126.917693" y="77.246264" style="fill: #8c564b; fill-opacity: 0.5; stroke: #8c564b; stroke-opacity: 0.5"/>
     <use xlink:href="#m613e5bdb37" x="176.195244" y="25.836165" style="fill: #8c564b; fill-opacity: 0.5; stroke: #8c564b; stroke-opacity: 0.5"/>
     <use xlink:href="#m613e5bdb37" x="151.556476" y="70.820008" style="fill: #8c564b; fill-opacity: 0.5; stroke: #8c564b; stroke-opacity: 0.5"/>
     <use xlink:href="#m613e5bdb37" x="126.917693" y="102.951322" style="fill: #8c564b; fill-opacity: 0.5; stroke: #8c564b; stroke-opacity: 0.5"/>
     <use xlink:href="#m613e5bdb37" x="133.077396" y="57.967479" style="fill: #8c564b; fill-opacity: 0.5; stroke: #8c564b; stroke-opacity: 0.5"/>
     <use xlink:href="#m613e5bdb37" x="182.354947" y="25.836165" style="fill: #8c564b; fill-opacity: 0.5; stroke: #8c564b; stroke-opacity: 0.5"/>
    </g>
   </g>
   <g id="patch_3">
    <path d="M 123.265201 103.424559 
C 123.126109 106.273924 124.351081 109.295662 126.670329 111.824271 
C 128.989578 114.35288 132.213748 116.181909 135.632753 116.908537 
C 139.051758 117.635164 142.386451 117.200064 144.902406 115.699062 
C 147.41836 114.19806 148.910159 111.753706 149.049251 108.904341 
C 149.188343 106.054976 147.963371 103.033238 145.644122 100.504629 
C 143.324874 97.97602 140.100704 96.146991 136.681699 95.420363 
C 133.262694 94.693736 129.928 95.128836 127.412046 96.629838 
C 124.896092 98.13084 123.404293 100.575194 123.265201 103.424559 
L 123.265201 103.424559 
z
" clip-path="url(#pb628fc4273)" style="fill: none; stroke: #70453c; stroke-width: 2; stroke-linejoin: miter"/>
   </g>
   <g id="PathCollection_4">
    <defs>
     <path id="mb563e2beb6" d="M 0 1.581139 
C 0.419323 1.581139 0.821528 1.41454 1.118034 1.118034 
C 1.41454 0.821528 1.581139 0.419323 1.581139 0 
C 1.581139 -0.419323 1.41454 -0.821528 1.118034 -1.118034 
C 0.821528 -1.41454 0.419323 -1.581139 0 -1.581139 
C -0.419323 -1.581139 -0.821528 -1.41454 -1.118034 -1.118034 
C -1.41454 -0.821528 -1.581139 -0.419323 -1.581139 0 
C -1.581139 0.419323 -1.41454 0.821528 -1.118034 1.118034 
C -0.821528 1.41454 -0.419323 1.581139 0 1.581139 
z
" style="stroke: #000000"/>
    </defs>
    <g clip-path="url(#pb628fc4273)">
     <use xlink:href="#mb563e2beb6" x="136.157226" y="106.16445" style="stroke: #000000"/>
    </g>
   </g>
   <g id="patch_4">
    <path d="M 114.130838 95.897479 
C 114.850672 98.737659 116.401656 100.512354 118.442204 100.830707 
C 120.482751 101.149061 122.84626 99.98508 125.012196 97.595119 
C 127.178131 95.205158 128.969654 91.784346 129.992202 88.086077 
C 131.01475 84.387809 131.184836 80.714031 130.465002 77.87385 
C 129.745168 75.03367 128.194184 73.258975 126.153636 72.940622 
C 124.113089 72.622269 121.749579 73.786249 119.583644 76.17621 
C 117.417708 78.566171 115.626186 81.986983 114.603638 85.685252 
C 113.58109 89.38352 113.411003 93.057298 114.130838 95.897479 
L 114.130838 95.897479 
z
" clip-path="url(#pb628fc4273)" style="fill: none; stroke: #70453c; stroke-width: 2; stroke-linejoin: miter"/>
   </g>
   <g id="PathCollection_5">
    <g clip-path="url(#pb628fc4273)">
     <use xlink:href="#mb563e2beb6" x="122.29792" y="86.885665" style="stroke: #000000"/>
    </g>
   </g>
   <g id="patch_5">
    <path d="M 140.882552 66.790263 
C 140.822332 69.722834 141.726988 72.621732 143.397278 74.848508 
C 145.067569 77.075283 147.367124 78.448131 149.789491 78.664696 
C 152.211859 78.881261 154.559264 77.923863 156.314719 76.003356 
C 158.070173 74.08285 159.090351 71.356037 159.150571 68.423465 
C 159.210791 65.490894 158.306135 62.591996 156.635844 60.36522 
C 154.965553 58.138445 152.665999 56.765597 150.243631 56.549032 
C 147.821264 56.332467 145.473858 57.289865 143.718404 59.210372 
C 141.96295 61.130878 140.942771 63.857691 140.882552 66.790263 
L 140.882552 66.790263 
z
" clip-path="url(#pb628fc4273)" style="fill: none; stroke: #70453c; stroke-width: 2; stroke-linejoin: miter"/>
   </g>
   <g id="PathCollection_6">
    <g clip-path="url(#pb628fc4273)">
     <use xlink:href="#mb563e2beb6" x="150.016561" y="67.606864" style="stroke: #000000"/>
    </g>
   </g>
   <g id="patch_6">
    <path d="M 108.106803 103.035334 
C 108.506366 105.308639 109.963018 106.667755 112.155947 106.813352 
C 114.348876 106.958949 117.099039 105.87914 119.800746 103.811739 
C 122.502453 101.744339 124.93512 98.858142 126.562981 95.7888 
C 128.190843 92.719458 128.88099 89.717568 128.481427 87.444263 
C 128.081864 85.170957 126.625212 83.811842 124.432284 83.666245 
C 122.239355 83.520648 119.489191 84.600457 116.787484 86.667857 
C 114.085777 88.735258 111.65311 91.621454 110.025249 94.690797 
C 108.397388 97.760139 107.70724 100.762029 108.106803 103.035334 
L 108.106803 103.035334 
z
" clip-path="url(#pb628fc4273)" style="fill: none; stroke: #238023; stroke-width: 2; stroke-linejoin: miter"/>
   </g>
   <g id="PathCollection_7">
    <g clip-path="url(#pb628fc4273)">
     <use xlink:href="#mb563e2beb6" x="118.294115" y="95.239798" style="stroke: #000000"/>
    </g>
   </g>
   <g id="patch_7">
    <path d="M 100.176387 54.754351 
C 100.176387 52.585175 99.424387 50.504552 98.086006 48.970713 
C 96.747625 47.436875 94.932135 46.575052 93.039378 46.575052 
C 91.146621 46.575052 89.331132 47.436875 87.992751 48.970713 
C 86.65437 50.504552 85.902369 52.585175 85.902369 54.754351 
C 85.902369 56.923526 86.65437 59.004149 87.992751 60.537988 
C 89.331132 62.071826 91.146621 62.933649 93.039378 62.933649 
C 94.932135 62.933649 96.747625 62.071826 98.086006 60.537988 
C 99.424387 59.004149 100.176387 56.923526 100.176387 54.754351 
L 100.176387 54.754351 
z
" clip-path="url(#pb628fc4273)" style="fill: none; stroke: #195f90; stroke-width: 2; stroke-linejoin: miter"/>
   </g>
   <g id="PathCollection_8">
    <g clip-path="url(#pb628fc4273)">
     <use xlink:href="#mb563e2beb6" x="93.039378" y="54.754351" style="stroke: #000000"/>
    </g>
   </g>
   <g id="patch_8">
    <path d="M 93.623962 34.776359 
C 94.102044 37.310816 95.212939 39.206083 96.711987 40.044748 
C 98.211035 40.883414 99.975844 40.597005 101.617736 39.2486 
C 103.259628 37.900194 104.644549 35.599884 105.467487 32.854286 
C 106.290425 30.108687 106.484191 27.141967 106.006109 24.607509 
C 105.528027 22.073052 104.417132 20.177786 102.918084 19.33912 
C 101.419036 18.500455 99.654227 18.786864 98.012335 20.135269 
C 96.370443 21.483674 94.985522 23.783984 94.162584 26.529583 
C 93.339646 29.275181 93.14588 32.241902 93.623962 34.776359 
L 93.623962 34.776359 
z
" clip-path="url(#pb628fc4273)" style="fill: none; stroke: #195f90; stroke-width: 2; stroke-linejoin: miter"/>
   </g>
   <g id="PathCollection_9">
    <g clip-path="url(#pb628fc4273)">
     <use xlink:href="#mb563e2beb6" x="99.815035" y="29.691934" style="stroke: #000000"/>
    </g>
   </g>
   <g id="patch_9">
    <path d="M 139.655657 75.026385 
C 139.957525 78.263548 141.338759 80.925351 143.495157 82.425562 
C 145.651556 83.925773 148.407059 84.141907 151.154799 83.026362 
C 153.902539 81.910818 156.418175 79.554675 158.147668 76.476846 
C 159.87716 73.399017 160.679304 69.850794 160.377436 66.61363 
C 160.075568 63.376467 158.694334 60.714665 156.537936 59.214454 
C 154.381537 57.714243 151.626034 57.498109 148.878294 58.613653 
C 146.130554 59.729197 143.614918 62.08534 141.885426 65.163169 
C 140.155933 68.240998 139.353789 71.789222 139.655657 75.026385 
L 139.655657 75.026385 
z
" clip-path="url(#pb628fc4273)" style="fill: none; stroke: #238023; stroke-width: 2; stroke-linejoin: miter"/>
   </g>
   <g id="PathCollection_10">
    <g clip-path="url(#pb628fc4273)">
     <use xlink:href="#mb563e2beb6" x="150.016547" y="70.820008" style="stroke: #000000"/>
    </g>
   </g>
   <g id="patch_10">
    <path d="M 188.489545 25.836165 
C 188.489545 23.200134 187.518654 20.671714 185.790698 18.807759 
C 184.062742 16.943804 181.718802 15.896498 179.275103 15.896498 
C 176.831404 15.896498 174.487464 16.943804 172.759508 18.807759 
C 171.031552 20.671714 170.06066 23.200134 170.06066 25.836165 
C 170.06066 28.472196 171.031552 31.000616 172.759508 32.864571 
C 174.487464 34.728526 176.831404 35.775832 179.275103 35.775832 
C 181.718802 35.775832 184.062742 34.728526 185.790698 32.864571 
C 187.518654 31.000616 188.489545 28.472196 188.489545 25.836165 
L 188.489545 25.836165 
z
" clip-path="url(#pb628fc4273)" style="fill: none; stroke: #70453c; stroke-width: 2; stroke-linejoin: miter"/>
   </g>
   <g id="PathCollection_11">
    <g clip-path="url(#pb628fc4273)">
     <use xlink:href="#mb563e2beb6" x="179.275103" y="25.836165" style="stroke: #000000"/>
    </g>
   </g>
   <g id="patch_11">
    <path d="M 71.849987 76.775544 
C 71.934111 79.169175 73.165743 81.288986 75.273629 82.668114 
C 77.381516 84.047241 80.193558 84.573084 83.090436 84.129833 
C 85.987314 83.686582 88.732511 82.310425 90.721428 80.304446 
C 92.710346 78.298467 93.780598 75.826445 93.696475 73.432814 
C 93.612351 71.039182 92.38072 68.919371 90.272833 67.540244 
C 88.164947 66.161117 85.352904 65.635274 82.456026 66.078525 
C 79.559148 66.521776 76.813952 67.897932 74.825034 69.903911 
C 72.836116 71.90989 71.765864 74.381912 71.849987 76.775544 
L 71.849987 76.775544 
z
" clip-path="url(#pb628fc4273)" style="fill: none; stroke: #195f90; stroke-width: 2; stroke-linejoin: miter"/>
   </g>
   <g id="PathCollection_12">
    <g clip-path="url(#pb628fc4273)">
     <use xlink:href="#mb563e2beb6" x="82.773231" y="75.104179" style="stroke: #000000"/>
    </g>
   </g>
   <g id="matplotlib.axis_1">
    <g id="xtick_1">
     <g id="line2d_1">
      <defs>
       <path id="mb3fc5eaf8a" d="M 0 0 
L 0 3.5 
" style="stroke: #000000; stroke-width: 0.8"/>
      </defs>
      <g>
       <use xlink:href="#mb3fc5eaf8a" x="123.837849" y="134.44" style="stroke: #000000; stroke-width: 0.8"/>
      </g>
     </g>
     <g id="text_1">
      <!-- 6.0 -->
      <g transform="translate(115.886287 149.038437) scale(0.1 -0.1)">
       <defs>
        <path id="DejaVuSans-36" d="M 2113 2584 
Q 1688 2584 1439 2293 
Q 1191 2003 1191 1497 
Q 1191 994 1439 701 
Q 1688 409 2113 409 
Q 2538 409 2786 701 
Q 3034 994 3034 1497 
Q 3034 2003 2786 2293 
Q 2538 2584 2113 2584 
z
M 3366 4563 
L 3366 3988 
Q 3128 4100 2886 4159 
Q 2644 4219 2406 4219 
Q 1781 4219 1451 3797 
Q 1122 3375 1075 2522 
Q 1259 2794 1537 2939 
Q 1816 3084 2150 3084 
Q 2853 3084 3261 2657 
Q 3669 2231 3669 1497 
Q 3669 778 3244 343 
Q 2819 -91 2113 -91 
Q 1303 -91 875 529 
Q 447 1150 447 2328 
Q 447 3434 972 4092 
Q 1497 4750 2381 4750 
Q 2619 4750 2861 4703 
Q 3103 4656 3366 4563 
z
" transform="scale(0.015625)"/>
        <path id="DejaVuSans-2e" d="M 684 794 
L 1344 794 
L 1344 0 
L 684 0 
L 684 794 
z
" transform="scale(0.015625)"/>
        <path id="DejaVuSans-30" d="M 2034 4250 
Q 1547 4250 1301 3770 
Q 1056 3291 1056 2328 
Q 1056 1369 1301 889 
Q 1547 409 2034 409 
Q 2525 409 2770 889 
Q 3016 1369 3016 2328 
Q 3016 3291 2770 3770 
Q 2525 4250 2034 4250 
z
M 2034 4750 
Q 2819 4750 3233 4129 
Q 3647 3509 3647 2328 
Q 3647 1150 3233 529 
Q 2819 -91 2034 -91 
Q 1250 -91 836 529 
Q 422 1150 422 2328 
Q 422 3509 836 4129 
Q 1250 4750 2034 4750 
z
" transform="scale(0.015625)"/>
       </defs>
       <use xlink:href="#DejaVuSans-36"/>
       <use xlink:href="#DejaVuSans-2e" x="63.623047"/>
       <use xlink:href="#DejaVuSans-30" x="95.410156"/>
      </g>
     </g>
    </g>
    <g id="xtick_2">
     <g id="line2d_2">
      <g>
       <use xlink:href="#mb3fc5eaf8a" x="185.434791" y="134.44" style="stroke: #000000; stroke-width: 0.8"/>
      </g>
     </g>
     <g id="text_2">
      <!-- 8.0 -->
      <g transform="translate(177.483229 149.038437) scale(0.1 -0.1)">
       <defs>
        <path id="DejaVuSans-38" d="M 2034 2216 
Q 1584 2216 1326 1975 
Q 1069 1734 1069 1313 
Q 1069 891 1326 650 
Q 1584 409 2034 409 
Q 2484 409 2743 651 
Q 3003 894 3003 1313 
Q 3003 1734 2745 1975 
Q 2488 2216 2034 2216 
z
M 1403 2484 
Q 997 2584 770 2862 
Q 544 3141 544 3541 
Q 544 4100 942 4425 
Q 1341 4750 2034 4750 
Q 2731 4750 3128 4425 
Q 3525 4100 3525 3541 
Q 3525 3141 3298 2862 
Q 3072 2584 2669 2484 
Q 3125 2378 3379 2068 
Q 3634 1759 3634 1313 
Q 3634 634 3220 271 
Q 2806 -91 2034 -91 
Q 1263 -91 848 271 
Q 434 634 434 1313 
Q 434 1759 690 2068 
Q 947 2378 1403 2484 
z
M 1172 3481 
Q 1172 3119 1398 2916 
Q 1625 2713 2034 2713 
Q 2441 2713 2670 2916 
Q 2900 3119 2900 3481 
Q 2900 3844 2670 4047 
Q 2441 4250 2034 4250 
Q 1625 4250 1398 4047 
Q 1172 3844 1172 3481 
z
" transform="scale(0.015625)"/>
       </defs>
       <use xlink:href="#DejaVuSans-38"/>
       <use xlink:href="#DejaVuSans-2e" x="63.623047"/>
       <use xlink:href="#DejaVuSans-30" x="95.410156"/>
      </g>
     </g>
    </g>
    <g id="text_3">
     <!-- Feature 1 -->
     <g transform="translate(106.324844 162.716562) scale(0.1 -0.1)">
      <defs>
       <path id="DejaVuSans-46" d="M 628 4666 
L 3309 4666 
L 3309 4134 
L 1259 4134 
L 1259 2759 
L 3109 2759 
L 3109 2228 
L 1259 2228 
L 1259 0 
L 628 0 
L 628 4666 
z
" transform="scale(0.015625)"/>
       <path id="DejaVuSans-65" d="M 3597 1894 
L 3597 1613 
L 953 1613 
Q 991 1019 1311 708 
Q 1631 397 2203 397 
Q 2534 397 2845 478 
Q 3156 559 3463 722 
L 3463 178 
Q 3153 47 2828 -22 
Q 2503 -91 2169 -91 
Q 1331 -91 842 396 
Q 353 884 353 1716 
Q 353 2575 817 3079 
Q 1281 3584 2069 3584 
Q 2775 3584 3186 3129 
Q 3597 2675 3597 1894 
z
M 3022 2063 
Q 3016 2534 2758 2815 
Q 2500 3097 2075 3097 
Q 1594 3097 1305 2825 
Q 1016 2553 972 2059 
L 3022 2063 
z
" transform="scale(0.015625)"/>
       <path id="DejaVuSans-61" d="M 2194 1759 
Q 1497 1759 1228 1600 
Q 959 1441 959 1056 
Q 959 750 1161 570 
Q 1363 391 1709 391 
Q 2188 391 2477 730 
Q 2766 1069 2766 1631 
L 2766 1759 
L 2194 1759 
z
M 3341 1997 
L 3341 0 
L 2766 0 
L 2766 531 
Q 2569 213 2275 61 
Q 1981 -91 1556 -91 
Q 1019 -91 701 211 
Q 384 513 384 1019 
Q 384 1609 779 1909 
Q 1175 2209 1959 2209 
L 2766 2209 
L 2766 2266 
Q 2766 2663 2505 2880 
Q 2244 3097 1772 3097 
Q 1472 3097 1187 3025 
Q 903 2953 641 2809 
L 641 3341 
Q 956 3463 1253 3523 
Q 1550 3584 1831 3584 
Q 2591 3584 2966 3190 
Q 3341 2797 3341 1997 
z
" transform="scale(0.015625)"/>
       <path id="DejaVuSans-74" d="M 1172 4494 
L 1172 3500 
L 2356 3500 
L 2356 3053 
L 1172 3053 
L 1172 1153 
Q 1172 725 1289 603 
Q 1406 481 1766 481 
L 2356 481 
L 2356 0 
L 1766 0 
Q 1100 0 847 248 
Q 594 497 594 1153 
L 594 3053 
L 172 3053 
L 172 3500 
L 594 3500 
L 594 4494 
L 1172 4494 
z
" transform="scale(0.015625)"/>
       <path id="DejaVuSans-75" d="M 544 1381 
L 544 3500 
L 1119 3500 
L 1119 1403 
Q 1119 906 1312 657 
Q 1506 409 1894 409 
Q 2359 409 2629 706 
Q 2900 1003 2900 1516 
L 2900 3500 
L 3475 3500 
L 3475 0 
L 2900 0 
L 2900 538 
Q 2691 219 2414 64 
Q 2138 -91 1772 -91 
Q 1169 -91 856 284 
Q 544 659 544 1381 
z
M 1991 3584 
L 1991 3584 
z
" transform="scale(0.015625)"/>
       <path id="DejaVuSans-72" d="M 2631 2963 
Q 2534 3019 2420 3045 
Q 2306 3072 2169 3072 
Q 1681 3072 1420 2755 
Q 1159 2438 1159 1844 
L 1159 0 
L 581 0 
L 581 3500 
L 1159 3500 
L 1159 2956 
Q 1341 3275 1631 3429 
Q 1922 3584 2338 3584 
Q 2397 3584 2469 3576 
Q 2541 3569 2628 3553 
L 2631 2963 
z
" transform="scale(0.015625)"/>
       <path id="DejaVuSans-20" transform="scale(0.015625)"/>
       <path id="DejaVuSans-31" d="M 794 531 
L 1825 531 
L 1825 4091 
L 703 3866 
L 703 4441 
L 1819 4666 
L 2450 4666 
L 2450 531 
L 3481 531 
L 3481 0 
L 794 0 
L 794 531 
z
" transform="scale(0.015625)"/>
      </defs>
      <use xlink:href="#DejaVuSans-46"/>
      <use xlink:href="#DejaVuSans-65" x="52.019531"/>
      <use xlink:href="#DejaVuSans-61" x="113.542969"/>
      <use xlink:href="#DejaVuSans-74" x="174.822266"/>
      <use xlink:href="#DejaVuSans-75" x="214.03125"/>
      <use xlink:href="#DejaVuSans-72" x="277.410156"/>
      <use xlink:href="#DejaVuSans-65" x="316.273438"/>
      <use xlink:href="#DejaVuSans-20" x="377.796875"/>
      <use xlink:href="#DejaVuSans-31" x="409.583984"/>
     </g>
    </g>
   </g>
   <g id="matplotlib.axis_2">
    <g id="ytick_1">
     <g id="line2d_3">
      <defs>
       <path id="m6f0f01c68c" d="M 0 0 
L -3.5 0 
" style="stroke: #000000; stroke-width: 0.8"/>
      </defs>
      <g>
       <use xlink:href="#m6f0f01c68c" x="65.63" y="109.377578" style="stroke: #000000; stroke-width: 0.8"/>
      </g>
     </g>
     <g id="text_4">
      <!-- 2.5 -->
      <g transform="translate(42.726875 113.176797) scale(0.1 -0.1)">
       <defs>
        <path id="DejaVuSans-32" d="M 1228 531 
L 3431 531 
L 3431 0 
L 469 0 
L 469 531 
Q 828 903 1448 1529 
Q 2069 2156 2228 2338 
Q 2531 2678 2651 2914 
Q 2772 3150 2772 3378 
Q 2772 3750 2511 3984 
Q 2250 4219 1831 4219 
Q 1534 4219 1204 4116 
Q 875 4013 500 3803 
L 500 4441 
Q 881 4594 1212 4672 
Q 1544 4750 1819 4750 
Q 2544 4750 2975 4387 
Q 3406 4025 3406 3419 
Q 3406 3131 3298 2873 
Q 3191 2616 2906 2266 
Q 2828 2175 2409 1742 
Q 1991 1309 1228 531 
z
" transform="scale(0.015625)"/>
        <path id="DejaVuSans-35" d="M 691 4666 
L 3169 4666 
L 3169 4134 
L 1269 4134 
L 1269 2991 
Q 1406 3038 1543 3061 
Q 1681 3084 1819 3084 
Q 2600 3084 3056 2656 
Q 3513 2228 3513 1497 
Q 3513 744 3044 326 
Q 2575 -91 1722 -91 
Q 1428 -91 1123 -41 
Q 819 9 494 109 
L 494 744 
Q 775 591 1075 516 
Q 1375 441 1709 441 
Q 2250 441 2565 725 
Q 2881 1009 2881 1497 
Q 2881 1984 2565 2268 
Q 2250 2553 1709 2553 
Q 1456 2553 1204 2497 
Q 953 2441 691 2322 
L 691 4666 
z
" transform="scale(0.015625)"/>
       </defs>
       <use xlink:href="#DejaVuSans-32"/>
       <use xlink:href="#DejaVuSans-2e" x="63.623047"/>
       <use xlink:href="#DejaVuSans-35" x="95.410156"/>
      </g>
     </g>
    </g>
    <g id="ytick_2">
     <g id="line2d_4">
      <g>
       <use xlink:href="#m6f0f01c68c" x="65.63" y="77.246264" style="stroke: #000000; stroke-width: 0.8"/>
      </g>
     </g>
     <g id="text_5">
      <!-- 3.0 -->
      <g transform="translate(42.726875 81.045483) scale(0.1 -0.1)">
       <defs>
        <path id="DejaVuSans-33" d="M 2597 2516 
Q 3050 2419 3304 2112 
Q 3559 1806 3559 1356 
Q 3559 666 3084 287 
Q 2609 -91 1734 -91 
Q 1441 -91 1130 -33 
Q 819 25 488 141 
L 488 750 
Q 750 597 1062 519 
Q 1375 441 1716 441 
Q 2309 441 2620 675 
Q 2931 909 2931 1356 
Q 2931 1769 2642 2001 
Q 2353 2234 1838 2234 
L 1294 2234 
L 1294 2753 
L 1863 2753 
Q 2328 2753 2575 2939 
Q 2822 3125 2822 3475 
Q 2822 3834 2567 4026 
Q 2313 4219 1838 4219 
Q 1578 4219 1281 4162 
Q 984 4106 628 3988 
L 628 4550 
Q 988 4650 1302 4700 
Q 1616 4750 1894 4750 
Q 2613 4750 3031 4423 
Q 3450 4097 3450 3541 
Q 3450 3153 3228 2886 
Q 3006 2619 2597 2516 
z
" transform="scale(0.015625)"/>
       </defs>
       <use xlink:href="#DejaVuSans-33"/>
       <use xlink:href="#DejaVuSans-2e" x="63.623047"/>
       <use xlink:href="#DejaVuSans-30" x="95.410156"/>
      </g>
     </g>
    </g>
    <g id="ytick_3">
     <g id="line2d_5">
      <g>
       <use xlink:href="#m6f0f01c68c" x="65.63" y="45.11495" style="stroke: #000000; stroke-width: 0.8"/>
      </g>
     </g>
     <g id="text_6">
      <!-- 3.5 -->
      <g transform="translate(42.726875 48.914169) scale(0.1 -0.1)">
       <use xlink:href="#DejaVuSans-33"/>
       <use xlink:href="#DejaVuSans-2e" x="63.623047"/>
       <use xlink:href="#DejaVuSans-35" x="95.410156"/>
      </g>
     </g>
    </g>
    <g id="ytick_4">
     <g id="line2d_6">
      <g>
       <use xlink:href="#m6f0f01c68c" x="65.63" y="12.983636" style="stroke: #000000; stroke-width: 0.8"/>
      </g>
     </g>
     <g id="text_7">
      <!-- 4.0 -->
      <g transform="translate(42.726875 16.782855) scale(0.1 -0.1)">
       <defs>
        <path id="DejaVuSans-34" d="M 2419 4116 
L 825 1625 
L 2419 1625 
L 2419 4116 
z
M 2253 4666 
L 3047 4666 
L 3047 1625 
L 3713 1625 
L 3713 1100 
L 3047 1100 
L 3047 0 
L 2419 0 
L 2419 1100 
L 313 1100 
L 313 1709 
L 2253 4666 
z
" transform="scale(0.015625)"/>
       </defs>
       <use xlink:href="#DejaVuSans-34"/>
       <use xlink:href="#DejaVuSans-2e" x="63.623047"/>
       <use xlink:href="#DejaVuSans-30" x="95.410156"/>
      </g>
     </g>
    </g>
    <g id="text_8">
     <!-- Feature 2 -->
     <g transform="translate(36.647187 94.480156) rotate(-90) scale(0.1 -0.1)">
      <use xlink:href="#DejaVuSans-46"/>
      <use xlink:href="#DejaVuSans-65" x="52.019531"/>
      <use xlink:href="#DejaVuSans-61" x="113.542969"/>
      <use xlink:href="#DejaVuSans-74" x="174.822266"/>
      <use xlink:href="#DejaVuSans-75" x="214.03125"/>
      <use xlink:href="#DejaVuSans-72" x="277.410156"/>
      <use xlink:href="#DejaVuSans-65" x="316.273438"/>
      <use xlink:href="#DejaVuSans-20" x="377.796875"/>
      <use xlink:href="#DejaVuSans-32" x="409.583984"/>
     </g>
    </g>
   </g>
   <g id="patch_12">
    <path d="M 65.63 134.44 
L 65.63 7.2 
" style="fill: none; stroke: #000000; stroke-width: 0.8; stroke-linejoin: miter; stroke-linecap: square"/>
   </g>
   <g id="patch_13">
    <path d="M 194.34 134.44 
L 194.34 7.2 
" style="fill: none; stroke: #000000; stroke-width: 0.8; stroke-linejoin: miter; stroke-linecap: square"/>
   </g>
   <g id="patch_14">
    <path d="M 65.63 134.44 
L 194.34 134.44 
" style="fill: none; stroke: #000000; stroke-width: 0.8; stroke-linejoin: miter; stroke-linecap: square"/>
   </g>
   <g id="patch_15">
    <path d="M 65.63 7.2 
L 194.34 7.2 
" style="fill: none; stroke: #000000; stroke-width: 0.8; stroke-linejoin: miter; stroke-linecap: square"/>
   </g>
  </g>
  <g id="axes_2">
   <g id="patch_16">
    <path d="M 242.06 134.44 
L 370.77 134.44 
L 370.77 7.2 
L 242.06 7.2 
z
" style="fill: #ffffff"/>
   </g>
   <g id="PathCollection_13">
    <g clip-path="url(#p3f79db5c28)">
     <use xlink:href="#m0fdd5da115" x="269.476585" y="113.346536" style="fill: #1f77b4; fill-opacity: 0.5; stroke: #1f77b4; stroke-opacity: 0.5"/>
     <use xlink:href="#m0fdd5da115" x="269.476585" y="116.914298" style="fill: #1f77b4; fill-opacity: 0.5; stroke: #1f77b4; stroke-opacity: 0.5"/>
     <use xlink:href="#m0fdd5da115" x="281.800094" y="115.130417" style="fill: #1f77b4; fill-opacity: 0.5; stroke: #1f77b4; stroke-opacity: 0.5"/>
     <use xlink:href="#m0fdd5da115" x="272.557458" y="116.914298" style="fill: #1f77b4; fill-opacity: 0.5; stroke: #1f77b4; stroke-opacity: 0.5"/>
     <use xlink:href="#m0fdd5da115" x="272.557458" y="115.130417" style="fill: #1f77b4; fill-opacity: 0.5; stroke: #1f77b4; stroke-opacity: 0.5"/>
     <use xlink:href="#m0fdd5da115" x="266.395711" y="115.130417" style="fill: #1f77b4; fill-opacity: 0.5; stroke: #1f77b4; stroke-opacity: 0.5"/>
     <use xlink:href="#m0fdd5da115" x="263.314837" y="116.914298" style="fill: #1f77b4; fill-opacity: 0.5; stroke: #1f77b4; stroke-opacity: 0.5"/>
     <use xlink:href="#m0fdd5da115" x="272.557458" y="113.346536" style="fill: #1f77b4; fill-opacity: 0.5; stroke: #1f77b4; stroke-opacity: 0.5"/>
     <use xlink:href="#m0fdd5da115" x="247.910455" y="122.26594" style="fill: #1f77b4; fill-opacity: 0.5; stroke: #1f77b4; stroke-opacity: 0.5"/>
     <use xlink:href="#m0fdd5da115" x="281.800094" y="111.562655" style="fill: #1f77b4; fill-opacity: 0.5; stroke: #1f77b4; stroke-opacity: 0.5"/>
     <use xlink:href="#m0fdd5da115" x="257.153075" y="124.049821" style="fill: #1f77b4; fill-opacity: 0.5; stroke: #1f77b4; stroke-opacity: 0.5"/>
     <use xlink:href="#m0fdd5da115" x="294.123603" y="120.482059" style="fill: #1f77b4; fill-opacity: 0.5; stroke: #1f77b4; stroke-opacity: 0.5"/>
    </g>
   </g>
   <g id="PathCollection_14">
    <g clip-path="url(#p3f79db5c28)">
     <use xlink:href="#me075894d5c" x="303.366224" y="70.533398" style="fill: #2ca02c; fill-opacity: 0.5; stroke: #2ca02c; stroke-opacity: 0.5"/>
     <use xlink:href="#me075894d5c" x="321.85148" y="52.69459" style="fill: #2ca02c; fill-opacity: 0.5; stroke: #2ca02c; stroke-opacity: 0.5"/>
     <use xlink:href="#me075894d5c" x="287.961841" y="72.317277" style="fill: #2ca02c; fill-opacity: 0.5; stroke: #2ca02c; stroke-opacity: 0.5"/>
     <use xlink:href="#me075894d5c" x="306.447097" y="65.181752" style="fill: #2ca02c; fill-opacity: 0.5; stroke: #2ca02c; stroke-opacity: 0.5"/>
     <use xlink:href="#me075894d5c" x="284.880967" y="63.397873" style="fill: #2ca02c; fill-opacity: 0.5; stroke: #2ca02c; stroke-opacity: 0.5"/>
     <use xlink:href="#me075894d5c" x="291.042715" y="61.613994" style="fill: #2ca02c; fill-opacity: 0.5; stroke: #2ca02c; stroke-opacity: 0.5"/>
     <use xlink:href="#me075894d5c" x="306.447097" y="61.613994" style="fill: #2ca02c; fill-opacity: 0.5; stroke: #2ca02c; stroke-opacity: 0.5"/>
     <use xlink:href="#me075894d5c" x="331.094116" y="58.046236" style="fill: #2ca02c; fill-opacity: 0.5; stroke: #2ca02c; stroke-opacity: 0.5"/>
    </g>
   </g>
   <g id="PathCollection_15">
    <g clip-path="url(#p3f79db5c28)">
     <use xlink:href="#m613e5bdb37" x="321.85148" y="38.42354" style="fill: #8c564b; fill-opacity: 0.5; stroke: #8c564b; stroke-opacity: 0.5"/>
     <use xlink:href="#m613e5bdb37" x="294.123603" y="50.910711" style="fill: #8c564b; fill-opacity: 0.5; stroke: #8c564b; stroke-opacity: 0.5"/>
     <use xlink:href="#m613e5bdb37" x="324.932368" y="36.639661" style="fill: #8c564b; fill-opacity: 0.5; stroke: #8c564b; stroke-opacity: 0.5"/>
     <use xlink:href="#m613e5bdb37" x="300.28535" y="52.69459" style="fill: #8c564b; fill-opacity: 0.5; stroke: #8c564b; stroke-opacity: 0.5"/>
     <use xlink:href="#m613e5bdb37" x="303.366224" y="54.478469" style="fill: #8c564b; fill-opacity: 0.5; stroke: #8c564b; stroke-opacity: 0.5"/>
     <use xlink:href="#m613e5bdb37" x="352.660246" y="22.36862" style="fill: #8c564b; fill-opacity: 0.5; stroke: #8c564b; stroke-opacity: 0.5"/>
     <use xlink:href="#m613e5bdb37" x="328.013242" y="50.910711" style="fill: #8c564b; fill-opacity: 0.5; stroke: #8c564b; stroke-opacity: 0.5"/>
     <use xlink:href="#m613e5bdb37" x="303.366224" y="41.991307" style="fill: #8c564b; fill-opacity: 0.5; stroke: #8c564b; stroke-opacity: 0.5"/>
     <use xlink:href="#m613e5bdb37" x="309.527986" y="34.855782" style="fill: #8c564b; fill-opacity: 0.5; stroke: #8c564b; stroke-opacity: 0.5"/>
     <use xlink:href="#m613e5bdb37" x="358.822008" y="27.720257" style="fill: #8c564b; fill-opacity: 0.5; stroke: #8c564b; stroke-opacity: 0.5"/>
    </g>
   </g>
   <g id="patch_17">
    <path d="M 314.61283 27.642172 
C 311.231363 27.461367 307.776785 28.611897 305.009926 30.840372 
C 302.243066 33.068847 300.389828 36.193321 299.858365 39.525666 
C 299.326902 42.858011 300.160606 46.126155 302.175863 48.610327 
C 304.191119 51.094499 307.223393 52.591878 310.604859 52.772684 
C 313.986326 52.953489 317.440904 51.802959 320.207764 49.574484 
C 322.974623 47.346009 324.827861 44.221535 325.359324 40.88919 
C 325.890787 37.556845 325.057084 34.288701 323.041827 31.804529 
C 321.02657 29.320357 317.994297 27.822978 314.61283 27.642172 
L 314.61283 27.642172 
z
" clip-path="url(#p3f79db5c28)" style="fill: none; stroke: #70453c; stroke-width: 2; stroke-linejoin: miter"/>
   </g>
   <g id="PathCollection_16">
    <g clip-path="url(#p3f79db5c28)">
     <use xlink:href="#mb563e2beb6" x="312.608845" y="40.207428" style="stroke: #000000"/>
    </g>
   </g>
   <g id="patch_18">
    <path d="M 297.854826 41.279104 
C 295.583879 41.338469 293.499422 42.598217 292.060534 44.780905 
C 290.621646 46.963592 289.945805 49.891012 290.181857 52.918434 
C 290.417909 55.945857 291.546581 58.826105 293.319297 60.924839 
C 295.092013 63.023573 297.364039 64.16944 299.634986 64.110076 
C 301.905933 64.050711 303.99039 62.790963 305.429278 60.608275 
C 306.868166 58.425588 307.544007 55.498168 307.307955 52.470746 
C 307.071903 49.443324 305.943231 46.563075 304.170515 44.464341 
C 302.397799 42.365607 300.125773 41.21974 297.854826 41.279104 
L 297.854826 41.279104 
z
" clip-path="url(#p3f79db5c28)" style="fill: none; stroke: #70453c; stroke-width: 2; stroke-linejoin: miter"/>
   </g>
   <g id="PathCollection_17">
    <g clip-path="url(#p3f79db5c28)">
     <use xlink:href="#mb563e2beb6" x="298.744906" y="52.69459" style="stroke: #000000"/>
    </g>
   </g>
   <g id="patch_19">
    <path d="M 325.587916 29.420793 
C 323.175377 29.470655 320.954563 31.03095 319.414582 33.758042 
C 317.874602 36.485135 317.141187 40.156369 317.375864 43.963198 
C 317.610541 47.770028 318.79415 51.401642 320.666015 54.05822 
C 322.537879 56.714797 324.94517 58.179441 327.357709 58.129579 
C 329.770248 58.079718 331.991062 56.519422 333.531043 53.79233 
C 335.071024 51.065238 335.804438 47.394003 335.569761 43.587174 
C 335.335084 39.780344 334.151475 36.14873 332.27961 33.492153 
C 330.407746 30.835575 328.000455 29.370932 325.587916 29.420793 
L 325.587916 29.420793 
z
" clip-path="url(#p3f79db5c28)" style="fill: none; stroke: #70453c; stroke-width: 2; stroke-linejoin: miter"/>
   </g>
   <g id="PathCollection_18">
    <g clip-path="url(#p3f79db5c28)">
     <use xlink:href="#mb563e2beb6" x="326.472813" y="43.775186" style="stroke: #000000"/>
    </g>
   </g>
   <g id="patch_20">
    <path d="M 293.580323 57.724968 
C 290.865676 57.843747 288.384014 58.89374 286.681894 60.643698 
C 284.979775 62.393656 284.196169 64.700702 284.503656 67.056737 
C 284.811143 69.412771 286.184619 71.625434 288.32159 73.207413 
C 290.458562 74.789391 293.184556 75.611522 295.899203 75.492743 
C 298.61385 75.373963 301.095512 74.32397 302.797631 72.574012 
C 304.499751 70.824055 305.283357 68.517008 304.97587 66.160974 
C 304.668383 63.804939 303.294907 61.592276 301.157935 60.010298 
C 299.020964 58.42832 296.29497 57.606188 293.580323 57.724968 
L 293.580323 57.724968 
z
" clip-path="url(#p3f79db5c28)" style="fill: none; stroke: #238023; stroke-width: 2; stroke-linejoin: miter"/>
   </g>
   <g id="PathCollection_19">
    <g clip-path="url(#p3f79db5c28)">
     <use xlink:href="#mb563e2beb6" x="294.739763" y="66.608855" style="stroke: #000000"/>
    </g>
   </g>
   <g id="patch_21">
    <path d="M 269.476585 125.326664 
C 271.369974 125.326664 273.18607 124.252323 274.524899 122.340253 
C 275.863728 120.428182 276.615979 117.834494 276.615979 115.130417 
C 276.615979 112.426341 275.863728 109.832652 274.524899 107.920582 
C 273.18607 106.008511 271.369974 104.93417 269.476585 104.93417 
C 267.583195 104.93417 265.767099 106.008511 264.42827 107.920582 
C 263.089442 109.832652 262.33719 112.426341 262.33719 115.130417 
C 262.33719 117.834494 263.089442 120.428182 264.42827 122.340253 
C 265.767099 124.252323 267.583195 125.326664 269.476585 125.326664 
L 269.476585 125.326664 
z
" clip-path="url(#p3f79db5c28)" style="fill: none; stroke: #195f90; stroke-width: 2; stroke-linejoin: miter"/>
   </g>
   <g id="PathCollection_20">
    <g clip-path="url(#p3f79db5c28)">
     <use xlink:href="#mb563e2beb6" x="269.476585" y="115.130417" style="stroke: #000000"/>
    </g>
   </g>
   <g id="patch_22">
    <path d="M 276.975849 107.05904 
C 275.275929 107.003167 273.569399 107.724841 272.232102 109.065123 
C 270.894805 110.405405 270.035927 112.254866 269.844625 114.206185 
C 269.653322 116.157503 270.145215 118.051362 271.211969 119.47066 
C 272.278723 120.889959 273.833243 121.718818 275.533164 121.774691 
C 277.233084 121.830565 278.939614 121.10889 280.276911 119.768608 
C 281.614208 118.428326 282.473086 116.578865 282.664388 114.627547 
C 282.855691 112.676228 282.363798 110.78237 281.297044 109.363071 
C 280.23029 107.943772 278.67577 107.114913 276.975849 107.05904 
L 276.975849 107.05904 
z
" clip-path="url(#p3f79db5c28)" style="fill: none; stroke: #195f90; stroke-width: 2; stroke-linejoin: miter"/>
   </g>
   <g id="PathCollection_21">
    <g clip-path="url(#p3f79db5c28)">
     <use xlink:href="#mb563e2beb6" x="276.254507" y="114.416866" style="stroke: #000000"/>
    </g>
   </g>
   <g id="patch_23">
    <path d="M 325.126876 43.230454 
C 322.384814 43.332375 319.896506 44.709277 318.209973 47.057915 
C 316.523439 49.406553 315.776378 52.53517 316.133321 55.754725 
C 316.490264 58.97428 317.922068 62.02191 320.113394 64.22641 
C 322.304721 66.43091 325.076659 67.612293 327.81872 67.510372 
C 330.560782 67.408451 333.049089 66.031548 334.735623 63.68291 
C 336.422156 61.334272 337.169218 58.205655 336.812275 54.986101 
C 336.455332 51.766546 335.023528 48.718916 332.832201 46.514416 
C 330.640875 44.309915 327.868937 43.128533 325.126876 43.230454 
L 325.126876 43.230454 
z
" clip-path="url(#p3f79db5c28)" style="fill: none; stroke: #238023; stroke-width: 2; stroke-linejoin: miter"/>
   </g>
   <g id="PathCollection_22">
    <g clip-path="url(#p3f79db5c28)">
     <use xlink:href="#mb563e2beb6" x="326.472798" y="55.370413" style="stroke: #000000"/>
    </g>
   </g>
   <g id="patch_24">
    <path d="M 354.892916 12.983636 
C 352.458772 13.04103 350.213371 14.366882 348.651236 16.669189 
C 347.089101 18.971496 346.337772 22.062286 346.562723 25.260847 
C 346.787673 28.459408 347.970535 31.504592 349.850798 33.725733 
C 351.731061 35.946875 354.155209 37.162626 356.589352 37.105233 
C 359.023496 37.047839 361.268897 35.721987 362.831032 33.41968 
C 364.393167 31.117373 365.144496 28.026583 364.919545 24.828022 
C 364.694595 21.629461 363.511733 18.584277 361.63147 16.363136 
C 359.751207 14.141995 357.327059 12.926243 354.892916 12.983636 
L 354.892916 12.983636 
z
" clip-path="url(#p3f79db5c28)" style="fill: none; stroke: #70453c; stroke-width: 2; stroke-linejoin: miter"/>
   </g>
   <g id="PathCollection_23">
    <g clip-path="url(#p3f79db5c28)">
     <use xlink:href="#mb563e2beb6" x="355.741134" y="25.044435" style="stroke: #000000"/>
    </g>
   </g>
   <g id="patch_25">
    <path d="M 262.633186 107.550739 
C 259.88019 107.251078 256.878576 108.07556 254.289414 109.842604 
C 251.700251 111.609648 249.734934 114.174982 248.8263 116.97362 
C 247.917667 119.772259 248.139903 122.575706 249.444064 124.766535 
C 250.748224 126.957363 253.027831 128.356702 255.780826 128.656364 
C 258.533821 128.956025 261.535435 128.131542 264.124598 126.364498 
C 266.713761 124.597454 268.679078 122.032121 269.587711 119.233482 
C 270.496345 116.434843 270.274109 113.631396 268.969948 111.440568 
C 267.665787 109.249739 265.386181 107.8504 262.633186 107.550739 
L 262.633186 107.550739 
z
" clip-path="url(#p3f79db5c28)" style="fill: none; stroke: #195f90; stroke-width: 2; stroke-linejoin: miter"/>
   </g>
   <g id="PathCollection_24">
    <g clip-path="url(#p3f79db5c28)">
     <use xlink:href="#mb563e2beb6" x="259.207006" y="118.103551" style="stroke: #000000"/>
    </g>
   </g>
   <g id="matplotlib.axis_3">
    <g id="xtick_3">
     <g id="line2d_7">
      <g>
       <use xlink:href="#mb3fc5eaf8a" x="300.28535" y="134.44" style="stroke: #000000; stroke-width: 0.8"/>
      </g>
     </g>
     <g id="text_9">
      <!-- 6.0 -->
      <g transform="translate(292.333788 149.038437) scale(0.1 -0.1)">
       <use xlink:href="#DejaVuSans-36"/>
       <use xlink:href="#DejaVuSans-2e" x="63.623047"/>
       <use xlink:href="#DejaVuSans-30" x="95.410156"/>
      </g>
     </g>
    </g>
    <g id="xtick_4">
     <g id="line2d_8">
      <g>
       <use xlink:href="#mb3fc5eaf8a" x="361.902881" y="134.44" style="stroke: #000000; stroke-width: 0.8"/>
      </g>
     </g>
     <g id="text_10">
      <!-- 8.0 -->
      <g transform="translate(353.951319 149.038437) scale(0.1 -0.1)">
       <use xlink:href="#DejaVuSans-38"/>
       <use xlink:href="#DejaVuSans-2e" x="63.623047"/>
       <use xlink:href="#DejaVuSans-30" x="95.410156"/>
      </g>
     </g>
    </g>
    <g id="text_11">
     <!-- Feature 1 -->
     <g transform="translate(282.754844 162.716562) scale(0.1 -0.1)">
      <use xlink:href="#DejaVuSans-46"/>
      <use xlink:href="#DejaVuSans-65" x="52.019531"/>
      <use xlink:href="#DejaVuSans-61" x="113.542969"/>
      <use xlink:href="#DejaVuSans-74" x="174.822266"/>
      <use xlink:href="#DejaVuSans-75" x="214.03125"/>
      <use xlink:href="#DejaVuSans-72" x="277.410156"/>
      <use xlink:href="#DejaVuSans-65" x="316.273438"/>
      <use xlink:href="#DejaVuSans-20" x="377.796875"/>
      <use xlink:href="#DejaVuSans-31" x="409.583984"/>
     </g>
    </g>
   </g>
   <g id="matplotlib.axis_4">
    <g id="ytick_5">
     <g id="line2d_9">
      <g>
       <use xlink:href="#m6f0f01c68c" x="242.06" y="106.211013" style="stroke: #000000; stroke-width: 0.8"/>
      </g>
     </g>
     <g id="text_12">
      <!-- 2.0 -->
      <g transform="translate(219.156875 110.010232) scale(0.1 -0.1)">
       <use xlink:href="#DejaVuSans-32"/>
       <use xlink:href="#DejaVuSans-2e" x="63.623047"/>
       <use xlink:href="#DejaVuSans-30" x="95.410156"/>
      </g>
     </g>
    </g>
    <g id="ytick_6">
     <g id="line2d_10">
      <g>
       <use xlink:href="#m6f0f01c68c" x="242.06" y="70.533398" style="stroke: #000000; stroke-width: 0.8"/>
      </g>
     </g>
     <g id="text_13">
      <!-- 4.0 -->
      <g transform="translate(219.156875 74.332617) scale(0.1 -0.1)">
       <use xlink:href="#DejaVuSans-34"/>
       <use xlink:href="#DejaVuSans-2e" x="63.623047"/>
       <use xlink:href="#DejaVuSans-30" x="95.410156"/>
      </g>
     </g>
    </g>
    <g id="ytick_7">
     <g id="line2d_11">
      <g>
       <use xlink:href="#m6f0f01c68c" x="242.06" y="34.855782" style="stroke: #000000; stroke-width: 0.8"/>
      </g>
     </g>
     <g id="text_14">
      <!-- 6.0 -->
      <g transform="translate(219.156875 38.655001) scale(0.1 -0.1)">
       <use xlink:href="#DejaVuSans-36"/>
       <use xlink:href="#DejaVuSans-2e" x="63.623047"/>
       <use xlink:href="#DejaVuSans-30" x="95.410156"/>
      </g>
     </g>
    </g>
    <g id="text_15">
     <!-- Feature 3 -->
     <g transform="translate(213.077188 94.480156) rotate(-90) scale(0.1 -0.1)">
      <use xlink:href="#DejaVuSans-46"/>
      <use xlink:href="#DejaVuSans-65" x="52.019531"/>
      <use xlink:href="#DejaVuSans-61" x="113.542969"/>
      <use xlink:href="#DejaVuSans-74" x="174.822266"/>
      <use xlink:href="#DejaVuSans-75" x="214.03125"/>
      <use xlink:href="#DejaVuSans-72" x="277.410156"/>
      <use xlink:href="#DejaVuSans-65" x="316.273438"/>
      <use xlink:href="#DejaVuSans-20" x="377.796875"/>
      <use xlink:href="#DejaVuSans-33" x="409.583984"/>
     </g>
    </g>
   </g>
   <g id="patch_26">
    <path d="M 242.06 134.44 
L 242.06 7.2 
" style="fill: none; stroke: #000000; stroke-width: 0.8; stroke-linejoin: miter; stroke-linecap: square"/>
   </g>
   <g id="patch_27">
    <path d="M 370.77 134.44 
L 370.77 7.2 
" style="fill: none; stroke: #000000; stroke-width: 0.8; stroke-linejoin: miter; stroke-linecap: square"/>
   </g>
   <g id="patch_28">
    <path d="M 242.06 134.44 
L 370.77 134.44 
" style="fill: none; stroke: #000000; stroke-width: 0.8; stroke-linejoin: miter; stroke-linecap: square"/>
   </g>
   <g id="patch_29">
    <path d="M 242.06 7.2 
L 370.77 7.2 
" style="fill: none; stroke: #000000; stroke-width: 0.8; stroke-linejoin: miter; stroke-linecap: square"/>
   </g>
  </g>
  <g id="axes_3">
   <g id="patch_30">
    <path d="M 418.49 134.44 
L 547.2 134.44 
L 547.2 7.2 
L 418.49 7.2 
z
" style="fill: #ffffff"/>
   </g>
   <g id="PathCollection_25">
    <g clip-path="url(#p63dab5ab82)">
     <use xlink:href="#m0fdd5da115" x="445.899725" y="107.062853" style="fill: #1f77b4; fill-opacity: 0.5; stroke: #1f77b4; stroke-opacity: 0.5"/>
     <use xlink:href="#m0fdd5da115" x="445.899725" y="115.669477" style="fill: #1f77b4; fill-opacity: 0.5; stroke: #1f77b4; stroke-opacity: 0.5"/>
     <use xlink:href="#m0fdd5da115" x="458.219315" y="115.669477" style="fill: #1f77b4; fill-opacity: 0.5; stroke: #1f77b4; stroke-opacity: 0.5"/>
     <use xlink:href="#m0fdd5da115" x="448.979619" y="115.669477" style="fill: #1f77b4; fill-opacity: 0.5; stroke: #1f77b4; stroke-opacity: 0.5"/>
     <use xlink:href="#m0fdd5da115" x="448.979619" y="111.366165" style="fill: #1f77b4; fill-opacity: 0.5; stroke: #1f77b4; stroke-opacity: 0.5"/>
     <use xlink:href="#m0fdd5da115" x="442.819832" y="115.669477" style="fill: #1f77b4; fill-opacity: 0.5; stroke: #1f77b4; stroke-opacity: 0.5"/>
     <use xlink:href="#m0fdd5da115" x="439.739938" y="119.972789" style="fill: #1f77b4; fill-opacity: 0.5; stroke: #1f77b4; stroke-opacity: 0.5"/>
     <use xlink:href="#m0fdd5da115" x="448.979619" y="115.669477" style="fill: #1f77b4; fill-opacity: 0.5; stroke: #1f77b4; stroke-opacity: 0.5"/>
     <use xlink:href="#m0fdd5da115" x="424.340455" y="119.972789" style="fill: #1f77b4; fill-opacity: 0.5; stroke: #1f77b4; stroke-opacity: 0.5"/>
     <use xlink:href="#m0fdd5da115" x="458.219315" y="107.062853" style="fill: #1f77b4; fill-opacity: 0.5; stroke: #1f77b4; stroke-opacity: 0.5"/>
     <use xlink:href="#m0fdd5da115" x="433.580136" y="115.669477" style="fill: #1f77b4; fill-opacity: 0.5; stroke: #1f77b4; stroke-opacity: 0.5"/>
     <use xlink:href="#m0fdd5da115" x="470.538905" y="115.669477" style="fill: #1f77b4; fill-opacity: 0.5; stroke: #1f77b4; stroke-opacity: 0.5"/>
    </g>
   </g>
   <g id="PathCollection_26">
    <g clip-path="url(#p63dab5ab82)">
     <use xlink:href="#me075894d5c" x="479.778586" y="68.333047" style="fill: #2ca02c; fill-opacity: 0.5; stroke: #2ca02c; stroke-opacity: 0.5"/>
     <use xlink:href="#me075894d5c" x="498.257963" y="51.119795" style="fill: #2ca02c; fill-opacity: 0.5; stroke: #2ca02c; stroke-opacity: 0.5"/>
     <use xlink:href="#me075894d5c" x="464.379103" y="76.939668" style="fill: #2ca02c; fill-opacity: 0.5; stroke: #2ca02c; stroke-opacity: 0.5"/>
     <use xlink:href="#me075894d5c" x="482.85848" y="68.333047" style="fill: #2ca02c; fill-opacity: 0.5; stroke: #2ca02c; stroke-opacity: 0.5"/>
     <use xlink:href="#me075894d5c" x="461.299209" y="72.636355" style="fill: #2ca02c; fill-opacity: 0.5; stroke: #2ca02c; stroke-opacity: 0.5"/>
     <use xlink:href="#me075894d5c" x="467.458996" y="68.333047" style="fill: #2ca02c; fill-opacity: 0.5; stroke: #2ca02c; stroke-opacity: 0.5"/>
     <use xlink:href="#me075894d5c" x="482.85848" y="59.726421" style="fill: #2ca02c; fill-opacity: 0.5; stroke: #2ca02c; stroke-opacity: 0.5"/>
     <use xlink:href="#me075894d5c" x="507.497659" y="64.029734" style="fill: #2ca02c; fill-opacity: 0.5; stroke: #2ca02c; stroke-opacity: 0.5"/>
    </g>
   </g>
   <g id="PathCollection_27">
    <g clip-path="url(#p63dab5ab82)">
     <use xlink:href="#m613e5bdb37" x="498.257963" y="46.816487" style="fill: #8c564b; fill-opacity: 0.5; stroke: #8c564b; stroke-opacity: 0.5"/>
     <use xlink:href="#m613e5bdb37" x="470.538905" y="42.513174" style="fill: #8c564b; fill-opacity: 0.5; stroke: #8c564b; stroke-opacity: 0.5"/>
     <use xlink:href="#m613e5bdb37" x="501.337872" y="25.299926" style="fill: #8c564b; fill-opacity: 0.5; stroke: #8c564b; stroke-opacity: 0.5"/>
     <use xlink:href="#m613e5bdb37" x="476.698692" y="59.726421" style="fill: #8c564b; fill-opacity: 0.5; stroke: #8c564b; stroke-opacity: 0.5"/>
     <use xlink:href="#m613e5bdb37" x="479.778586" y="46.816487" style="fill: #8c564b; fill-opacity: 0.5; stroke: #8c564b; stroke-opacity: 0.5"/>
     <use xlink:href="#m613e5bdb37" x="529.05693" y="29.603234" style="fill: #8c564b; fill-opacity: 0.5; stroke: #8c564b; stroke-opacity: 0.5"/>
     <use xlink:href="#m613e5bdb37" x="504.417765" y="25.299926" style="fill: #8c564b; fill-opacity: 0.5; stroke: #8c564b; stroke-opacity: 0.5"/>
     <use xlink:href="#m613e5bdb37" x="479.778586" y="64.029734" style="fill: #8c564b; fill-opacity: 0.5; stroke: #8c564b; stroke-opacity: 0.5"/>
     <use xlink:href="#m613e5bdb37" x="485.938388" y="16.6933" style="fill: #8c564b; fill-opacity: 0.5; stroke: #8c564b; stroke-opacity: 0.5"/>
     <use xlink:href="#m613e5bdb37" x="535.216732" y="38.209861" style="fill: #8c564b; fill-opacity: 0.5; stroke: #8c564b; stroke-opacity: 0.5"/>
    </g>
   </g>
   <g id="patch_31">
    <path d="M 477.052776 66.266238 
C 478.333236 69.024753 480.822183 70.528158 483.971457 70.445345 
C 487.12073 70.362532 490.673205 68.700262 493.84649 65.824632 
C 497.019776 62.949001 499.554786 59.094793 500.893216 55.11085 
C 502.231646 51.126908 502.264218 47.338503 500.983758 44.579988 
C 499.703299 41.821473 497.214351 40.318068 494.065078 40.400881 
C 490.915805 40.483694 487.36333 42.145963 484.190044 45.021594 
C 481.016759 47.897224 478.481748 51.751433 477.143318 55.735375 
C 475.804888 59.719318 475.772316 63.507723 477.052776 66.266238 
L 477.052776 66.266238 
z
" clip-path="url(#p63dab5ab82)" style="fill: none; stroke: #70453c; stroke-width: 2; stroke-linejoin: miter"/>
   </g>
   <g id="PathCollection_28">
    <g clip-path="url(#p63dab5ab82)">
     <use xlink:href="#mb563e2beb6" x="489.018267" y="55.423113" style="stroke: #000000"/>
    </g>
   </g>
   <g id="patch_32">
    <path d="M 467.825656 37.655894 
C 466.630863 40.096291 466.257505 43.175569 466.787809 46.215554 
C 467.318113 49.255539 468.708783 52.00803 470.653539 53.866822 
C 472.598295 55.725614 474.938357 56.538946 477.158353 56.127689 
C 479.37835 55.716433 481.297028 54.114167 482.491821 51.673771 
C 483.686613 49.233375 484.059972 46.154097 483.529667 43.114111 
C 482.999363 40.074126 481.608694 37.321636 479.663937 35.462843 
C 477.719181 33.604051 475.379119 32.79072 473.159123 33.201976 
C 470.939126 33.613232 469.020448 35.215498 467.825656 37.655894 
L 467.825656 37.655894 
z
" clip-path="url(#p63dab5ab82)" style="fill: none; stroke: #70453c; stroke-width: 2; stroke-linejoin: miter"/>
   </g>
   <g id="PathCollection_29">
    <g clip-path="url(#p63dab5ab82)">
     <use xlink:href="#mb563e2beb6" x="475.158738" y="44.664833" style="stroke: #000000"/>
    </g>
   </g>
   <g id="patch_33">
    <path d="M 512.014804 25.299926 
C 512.014804 22.033608 511.052075 18.90063 509.338645 16.590994 
C 507.625216 14.281358 505.300981 12.983636 502.877826 12.983636 
C 500.454671 12.983636 498.130436 14.281358 496.417006 16.590994 
C 494.703577 18.90063 493.740847 22.033608 493.740847 25.299926 
C 493.740847 28.566245 494.703577 31.699223 496.417006 34.008859 
C 498.130436 36.318495 500.454671 37.616217 502.877826 37.616217 
C 505.300981 37.616217 507.625216 36.318495 509.338645 34.008859 
C 511.052075 31.699223 512.014804 28.566245 512.014804 25.299926 
L 512.014804 25.299926 
z
" clip-path="url(#p63dab5ab82)" style="fill: none; stroke: #70453c; stroke-width: 2; stroke-linejoin: miter"/>
   </g>
   <g id="PathCollection_30">
    <g clip-path="url(#p63dab5ab82)">
     <use xlink:href="#mb563e2beb6" x="502.877826" y="25.299926" style="stroke: #000000"/>
    </g>
   </g>
   <g id="patch_34">
    <path d="M 460.921258 73.786431 
C 461.226862 75.912746 462.598268 77.649711 464.73344 78.614778 
C 466.868612 79.579846 469.593223 79.694222 472.307208 78.932718 
C 475.021194 78.171214 477.502969 76.596003 479.205951 74.554006 
C 480.908934 72.512009 481.694083 70.169947 481.388479 68.043632 
C 481.082875 65.917317 479.711469 64.180352 477.576297 63.215285 
C 475.441125 62.250218 472.716515 62.135841 470.002529 62.897345 
C 467.288544 63.658849 464.806769 65.23406 463.103786 67.276057 
C 461.400804 69.318054 460.615654 71.660116 460.921258 73.786431 
L 460.921258 73.786431 
z
" clip-path="url(#p63dab5ab82)" style="fill: none; stroke: #238023; stroke-width: 2; stroke-linejoin: miter"/>
   </g>
   <g id="PathCollection_31">
    <g clip-path="url(#p63dab5ab82)">
     <use xlink:href="#mb563e2beb6" x="471.154869" y="70.915032" style="stroke: #000000"/>
    </g>
   </g>
   <g id="patch_35">
    <path d="M 445.899725 122.19308 
C 447.792513 122.19308 449.608031 121.052288 450.946434 119.02195 
C 452.284837 116.991612 453.036849 114.237496 453.036849 111.366165 
C 453.036849 108.494833 452.284837 105.740718 450.946434 103.71038 
C 449.608031 101.680042 447.792513 100.53925 445.899725 100.53925 
C 444.006938 100.53925 442.19142 101.680042 440.853017 103.71038 
C 439.514614 105.740718 438.762601 108.494833 438.762601 111.366165 
C 438.762601 114.237496 439.514614 116.991612 440.853017 119.02195 
C 442.19142 121.052288 444.006938 122.19308 445.899725 122.19308 
L 445.899725 122.19308 
z
" clip-path="url(#p63dab5ab82)" style="fill: none; stroke: #195f90; stroke-width: 2; stroke-linejoin: miter"/>
   </g>
   <g id="PathCollection_32">
    <g clip-path="url(#p63dab5ab82)">
     <use xlink:href="#mb563e2beb6" x="445.899725" y="111.366165" style="stroke: #000000"/>
    </g>
   </g>
   <g id="patch_36">
    <path d="M 446.588191 116.627885 
C 447.152347 118.52156 448.334869 119.964891 449.87532 120.640002 
C 451.415771 121.315112 453.18838 121.166883 454.802751 120.227959 
C 456.417122 119.289035 457.741449 117.636075 458.484063 115.633126 
C 459.226677 113.630176 459.326948 111.440768 458.762792 109.547093 
C 458.198636 107.653419 457.016115 106.210087 455.475664 105.534977 
C 453.935212 104.859866 452.162603 105.008096 450.548232 105.94702 
C 448.933861 106.885943 447.609535 108.538903 446.866921 110.541853 
C 446.124306 112.544802 446.024035 114.73421 446.588191 116.627885 
L 446.588191 116.627885 
z
" clip-path="url(#p63dab5ab82)" style="fill: none; stroke: #195f90; stroke-width: 2; stroke-linejoin: miter"/>
   </g>
   <g id="PathCollection_33">
    <g clip-path="url(#p63dab5ab82)">
     <use xlink:href="#mb563e2beb6" x="452.675492" y="113.087489" style="stroke: #000000"/>
    </g>
   </g>
   <g id="patch_37">
    <path d="M 493.919468 48.281144 
C 492.506275 50.940505 492.09468 54.470539 492.775333 58.093797 
C 493.455985 61.717054 495.173312 65.137711 497.549092 67.602409 
C 499.924873 70.067107 502.765134 71.374613 505.444343 71.236965 
C 508.123552 71.099316 510.422962 69.527752 511.836154 66.86839 
C 513.249347 64.209028 513.660942 60.678994 512.98029 57.055737 
C 512.299637 53.43248 510.58231 50.011822 508.20653 47.547124 
C 505.83075 45.082427 502.990488 43.774921 500.311279 43.912569 
C 497.632071 44.050217 495.332661 45.621782 493.919468 48.281144 
L 493.919468 48.281144 
z
" clip-path="url(#p63dab5ab82)" style="fill: none; stroke: #238023; stroke-width: 2; stroke-linejoin: miter"/>
   </g>
   <g id="PathCollection_34">
    <g clip-path="url(#p63dab5ab82)">
     <use xlink:href="#mb563e2beb6" x="502.877811" y="57.574767" style="stroke: #000000"/>
    </g>
   </g>
   <g id="patch_38">
    <path d="M 525.490715 23.935929 
C 523.798026 26.138634 522.874716 29.301987 522.924131 32.729296 
C 522.973547 36.156604 523.991654 39.568043 525.754227 42.212284 
C 527.516799 44.856524 529.879931 46.517675 532.32317 46.829887 
C 534.766408 47.1421 537.090274 46.079882 538.782962 43.877177 
C 540.47565 41.674471 541.398961 38.511118 541.349545 35.08381 
C 541.30013 31.656501 540.282023 28.245062 538.51945 25.600821 
C 536.756877 22.956581 534.393746 21.29543 531.950507 20.983218 
C 529.507269 20.671006 527.183403 21.733223 525.490715 23.935929 
L 525.490715 23.935929 
z
" clip-path="url(#p63dab5ab82)" style="fill: none; stroke: #70453c; stroke-width: 2; stroke-linejoin: miter"/>
   </g>
   <g id="PathCollection_35">
    <g clip-path="url(#p63dab5ab82)">
     <use xlink:href="#mb563e2beb6" x="532.136838" y="33.906553" style="stroke: #000000"/>
    </g>
   </g>
   <g id="patch_39">
    <path d="M 424.735109 120.231989 
C 424.94871 122.915317 426.301904 125.310652 428.496668 126.890449 
C 430.691431 128.470246 433.548571 129.105521 436.438835 128.656364 
C 439.329098 128.207206 442.016509 126.710286 443.909196 124.495284 
C 445.801883 122.280282 446.745317 119.528043 446.531716 116.844714 
C 446.318116 114.161386 444.964922 111.766051 442.770158 110.186254 
C 440.575395 108.606457 437.718255 107.971182 434.827991 108.42034 
C 431.937727 108.869498 429.250317 110.366417 427.35763 112.581419 
C 425.464943 114.796421 424.521509 117.548661 424.735109 120.231989 
L 424.735109 120.231989 
z
" clip-path="url(#p63dab5ab82)" style="fill: none; stroke: #195f90; stroke-width: 2; stroke-linejoin: miter"/>
   </g>
   <g id="PathCollection_36">
    <g clip-path="url(#p63dab5ab82)">
     <use xlink:href="#mb563e2beb6" x="435.633413" y="118.538352" style="stroke: #000000"/>
    </g>
   </g>
   <g id="matplotlib.axis_5">
    <g id="xtick_5">
     <g id="line2d_12">
      <g>
       <use xlink:href="#mb3fc5eaf8a" x="476.698692" y="134.44" style="stroke: #000000; stroke-width: 0.8"/>
      </g>
     </g>
     <g id="text_16">
      <!-- 6.0 -->
      <g transform="translate(468.74713 149.038437) scale(0.1 -0.1)">
       <use xlink:href="#DejaVuSans-36"/>
       <use xlink:href="#DejaVuSans-2e" x="63.623047"/>
       <use xlink:href="#DejaVuSans-30" x="95.410156"/>
      </g>
     </g>
    </g>
    <g id="xtick_6">
     <g id="line2d_13">
      <g>
       <use xlink:href="#mb3fc5eaf8a" x="538.296626" y="134.44" style="stroke: #000000; stroke-width: 0.8"/>
      </g>
     </g>
     <g id="text_17">
      <!-- 8.0 -->
      <g transform="translate(530.345063 149.038437) scale(0.1 -0.1)">
       <use xlink:href="#DejaVuSans-38"/>
       <use xlink:href="#DejaVuSans-2e" x="63.623047"/>
       <use xlink:href="#DejaVuSans-30" x="95.410156"/>
      </g>
     </g>
    </g>
    <g id="text_18">
     <!-- Feature 1 -->
     <g transform="translate(459.184844 162.716562) scale(0.1 -0.1)">
      <use xlink:href="#DejaVuSans-46"/>
      <use xlink:href="#DejaVuSans-65" x="52.019531"/>
      <use xlink:href="#DejaVuSans-61" x="113.542969"/>
      <use xlink:href="#DejaVuSans-74" x="174.822266"/>
      <use xlink:href="#DejaVuSans-75" x="214.03125"/>
      <use xlink:href="#DejaVuSans-72" x="277.410156"/>
      <use xlink:href="#DejaVuSans-65" x="316.273438"/>
      <use xlink:href="#DejaVuSans-20" x="377.796875"/>
      <use xlink:href="#DejaVuSans-31" x="409.583984"/>
     </g>
    </g>
   </g>
   <g id="matplotlib.axis_6">
    <g id="ytick_8">
     <g id="line2d_14">
      <g>
       <use xlink:href="#m6f0f01c68c" x="418.49" y="124.276101" style="stroke: #000000; stroke-width: 0.8"/>
      </g>
     </g>
     <g id="text_19">
      <!-- 0.0 -->
      <g transform="translate(395.586875 128.07532) scale(0.1 -0.1)">
       <use xlink:href="#DejaVuSans-30"/>
       <use xlink:href="#DejaVuSans-2e" x="63.623047"/>
       <use xlink:href="#DejaVuSans-30" x="95.410156"/>
      </g>
     </g>
    </g>
    <g id="ytick_9">
     <g id="line2d_15">
      <g>
       <use xlink:href="#m6f0f01c68c" x="418.49" y="102.759541" style="stroke: #000000; stroke-width: 0.8"/>
      </g>
     </g>
     <g id="text_20">
      <!-- 0.5 -->
      <g transform="translate(395.586875 106.55876) scale(0.1 -0.1)">
       <use xlink:href="#DejaVuSans-30"/>
       <use xlink:href="#DejaVuSans-2e" x="63.623047"/>
       <use xlink:href="#DejaVuSans-35" x="95.410156"/>
      </g>
     </g>
    </g>
    <g id="ytick_10">
     <g id="line2d_16">
      <g>
       <use xlink:href="#m6f0f01c68c" x="418.49" y="81.242981" style="stroke: #000000; stroke-width: 0.8"/>
      </g>
     </g>
     <g id="text_21">
      <!-- 1.0 -->
      <g transform="translate(395.586875 85.0422) scale(0.1 -0.1)">
       <use xlink:href="#DejaVuSans-31"/>
       <use xlink:href="#DejaVuSans-2e" x="63.623047"/>
       <use xlink:href="#DejaVuSans-30" x="95.410156"/>
      </g>
     </g>
    </g>
    <g id="ytick_11">
     <g id="line2d_17">
      <g>
       <use xlink:href="#m6f0f01c68c" x="418.49" y="59.726421" style="stroke: #000000; stroke-width: 0.8"/>
      </g>
     </g>
     <g id="text_22">
      <!-- 1.5 -->
      <g transform="translate(395.586875 63.525639) scale(0.1 -0.1)">
       <use xlink:href="#DejaVuSans-31"/>
       <use xlink:href="#DejaVuSans-2e" x="63.623047"/>
       <use xlink:href="#DejaVuSans-35" x="95.410156"/>
      </g>
     </g>
    </g>
    <g id="ytick_12">
     <g id="line2d_18">
      <g>
       <use xlink:href="#m6f0f01c68c" x="418.49" y="38.209861" style="stroke: #000000; stroke-width: 0.8"/>
      </g>
     </g>
     <g id="text_23">
      <!-- 2.0 -->
      <g transform="translate(395.586875 42.009079) scale(0.1 -0.1)">
       <use xlink:href="#DejaVuSans-32"/>
       <use xlink:href="#DejaVuSans-2e" x="63.623047"/>
       <use xlink:href="#DejaVuSans-30" x="95.410156"/>
      </g>
     </g>
    </g>
    <g id="ytick_13">
     <g id="line2d_19">
      <g>
       <use xlink:href="#m6f0f01c68c" x="418.49" y="16.6933" style="stroke: #000000; stroke-width: 0.8"/>
      </g>
     </g>
     <g id="text_24">
      <!-- 2.5 -->
      <g transform="translate(395.586875 20.492519) scale(0.1 -0.1)">
       <use xlink:href="#DejaVuSans-32"/>
       <use xlink:href="#DejaVuSans-2e" x="63.623047"/>
       <use xlink:href="#DejaVuSans-35" x="95.410156"/>
      </g>
     </g>
    </g>
    <g id="text_25">
     <!-- Feature 4 -->
     <g transform="translate(389.507188 94.480156) rotate(-90) scale(0.1 -0.1)">
      <use xlink:href="#DejaVuSans-46"/>
      <use xlink:href="#DejaVuSans-65" x="52.019531"/>
      <use xlink:href="#DejaVuSans-61" x="113.542969"/>
      <use xlink:href="#DejaVuSans-74" x="174.822266"/>
      <use xlink:href="#DejaVuSans-75" x="214.03125"/>
      <use xlink:href="#DejaVuSans-72" x="277.410156"/>
      <use xlink:href="#DejaVuSans-65" x="316.273438"/>
      <use xlink:href="#DejaVuSans-20" x="377.796875"/>
      <use xlink:href="#DejaVuSans-34" x="409.583984"/>
     </g>
    </g>
   </g>
   <g id="patch_40">
    <path d="M 418.49 134.44 
L 418.49 7.2 
" style="fill: none; stroke: #000000; stroke-width: 0.8; stroke-linejoin: miter; stroke-linecap: square"/>
   </g>
   <g id="patch_41">
    <path d="M 547.2 134.44 
L 547.2 7.2 
" style="fill: none; stroke: #000000; stroke-width: 0.8; stroke-linejoin: miter; stroke-linecap: square"/>
   </g>
   <g id="patch_42">
    <path d="M 418.49 134.44 
L 547.2 134.44 
" style="fill: none; stroke: #000000; stroke-width: 0.8; stroke-linejoin: miter; stroke-linecap: square"/>
   </g>
   <g id="patch_43">
    <path d="M 418.49 7.2 
L 547.2 7.2 
" style="fill: none; stroke: #000000; stroke-width: 0.8; stroke-linejoin: miter; stroke-linecap: square"/>
   </g>
  </g>
  <g id="text_26">
   <!-- Local model 4 -->
   <g transform="translate(16.318125 128.266875) rotate(-90) scale(0.12 -0.12)">
    <defs>
     <path id="DejaVuSans-4c" d="M 628 4666 
L 1259 4666 
L 1259 531 
L 3531 531 
L 3531 0 
L 628 0 
L 628 4666 
z
" transform="scale(0.015625)"/>
     <path id="DejaVuSans-6f" d="M 1959 3097 
Q 1497 3097 1228 2736 
Q 959 2375 959 1747 
Q 959 1119 1226 758 
Q 1494 397 1959 397 
Q 2419 397 2687 759 
Q 2956 1122 2956 1747 
Q 2956 2369 2687 2733 
Q 2419 3097 1959 3097 
z
M 1959 3584 
Q 2709 3584 3137 3096 
Q 3566 2609 3566 1747 
Q 3566 888 3137 398 
Q 2709 -91 1959 -91 
Q 1206 -91 779 398 
Q 353 888 353 1747 
Q 353 2609 779 3096 
Q 1206 3584 1959 3584 
z
" transform="scale(0.015625)"/>
     <path id="DejaVuSans-63" d="M 3122 3366 
L 3122 2828 
Q 2878 2963 2633 3030 
Q 2388 3097 2138 3097 
Q 1578 3097 1268 2742 
Q 959 2388 959 1747 
Q 959 1106 1268 751 
Q 1578 397 2138 397 
Q 2388 397 2633 464 
Q 2878 531 3122 666 
L 3122 134 
Q 2881 22 2623 -34 
Q 2366 -91 2075 -91 
Q 1284 -91 818 406 
Q 353 903 353 1747 
Q 353 2603 823 3093 
Q 1294 3584 2113 3584 
Q 2378 3584 2631 3529 
Q 2884 3475 3122 3366 
z
" transform="scale(0.015625)"/>
     <path id="DejaVuSans-6c" d="M 603 4863 
L 1178 4863 
L 1178 0 
L 603 0 
L 603 4863 
z
" transform="scale(0.015625)"/>
     <path id="DejaVuSans-6d" d="M 3328 2828 
Q 3544 3216 3844 3400 
Q 4144 3584 4550 3584 
Q 5097 3584 5394 3201 
Q 5691 2819 5691 2113 
L 5691 0 
L 5113 0 
L 5113 2094 
Q 5113 2597 4934 2840 
Q 4756 3084 4391 3084 
Q 3944 3084 3684 2787 
Q 3425 2491 3425 1978 
L 3425 0 
L 2847 0 
L 2847 2094 
Q 2847 2600 2669 2842 
Q 2491 3084 2119 3084 
Q 1678 3084 1418 2786 
Q 1159 2488 1159 1978 
L 1159 0 
L 581 0 
L 581 3500 
L 1159 3500 
L 1159 2956 
Q 1356 3278 1631 3431 
Q 1906 3584 2284 3584 
Q 2666 3584 2933 3390 
Q 3200 3197 3328 2828 
z
" transform="scale(0.015625)"/>
     <path id="DejaVuSans-64" d="M 2906 2969 
L 2906 4863 
L 3481 4863 
L 3481 0 
L 2906 0 
L 2906 525 
Q 2725 213 2448 61 
Q 2172 -91 1784 -91 
Q 1150 -91 751 415 
Q 353 922 353 1747 
Q 353 2572 751 3078 
Q 1150 3584 1784 3584 
Q 2172 3584 2448 3432 
Q 2725 3281 2906 2969 
z
M 947 1747 
Q 947 1113 1208 752 
Q 1469 391 1925 391 
Q 2381 391 2643 752 
Q 2906 1113 2906 1747 
Q 2906 2381 2643 2742 
Q 2381 3103 1925 3103 
Q 1469 3103 1208 2742 
Q 947 2381 947 1747 
z
" transform="scale(0.015625)"/>
    </defs>
    <use xlink:href="#DejaVuSans-4c"/>
    <use xlink:href="#DejaVuSans-6f" x="53.962891"/>
    <use xlink:href="#DejaVuSans-63" x="115.144531"/>
    <use xlink:href="#DejaVuSans-61" x="170.125"/>
    <use xlink:href="#DejaVuSans-6c" x="231.404297"/>
    <use xlink:href="#DejaVuSans-20" x="259.1875"/>
    <use xlink:href="#DejaVuSans-6d" x="290.974609"/>
    <use xlink:href="#DejaVuSans-6f" x="388.386719"/>
    <use xlink:href="#DejaVuSans-64" x="449.568359"/>
    <use xlink:href="#DejaVuSans-65" x="513.044922"/>
    <use xlink:href="#DejaVuSans-6c" x="574.568359"/>
    <use xlink:href="#DejaVuSans-20" x="602.351562"/>
    <use xlink:href="#DejaVuSans-34" x="634.138672"/>
   </g>
  </g>
 </g>
 <defs>
  <clipPath id="pb628fc4273">
   <rect x="65.63" y="7.2" width="128.71" height="127.24"/>
  </clipPath>
  <clipPath id="p3f79db5c28">
   <rect x="242.06" y="7.2" width="128.71" height="127.24"/>
  </clipPath>
  <clipPath id="p63dab5ab82">
   <rect x="418.49" y="7.2" width="128.71" height="127.24"/>
  </clipPath>
 </defs>
</svg>
