<?xml version="1.0" encoding="utf-8" standalone="no"?>
<!DOCTYPE svg PUBLIC "-//W3C//DTD SVG 1.1//EN"
  "http://www.w3.org/Graphics/SVG/1.1/DTD/svg11.dtd">
<svg xmlns:xlink="http://www.w3.org/1999/xlink" width="533.405pt" height="172.848727pt" viewBox="0 0 533.405 172.848727" xmlns="http://www.w3.org/2000/svg" version="1.1">
 <metadata>
  <rdf:RDF xmlns:dc="http://purl.org/dc/elements/1.1/" xmlns:cc="http://creativecommons.org/ns#" xmlns:rdf="http://www.w3.org/1999/02/22-rdf-syntax-ns#">
   <cc:Work>
    <dc:type rdf:resource="http://purl.org/dc/dcmitype/StillImage"/>
    <dc:date>2023-12-22T18:43:11.020023</dc:date>
    <dc:format>image/svg+xml</dc:format>
    <dc:creator>
     <cc:Agent>
      <dc:title>Matplotlib v3.8.0, https://matplotlib.org/</dc:title>
     </cc:Agent>
    </dc:creator>
   </cc:Work>
  </rdf:RDF>
 </metadata>
 <defs>
  <style type="text/css">*{stroke-linejoin: round; stroke-linecap: butt}</style>
 </defs>
 <g id="figure_1">
  <g id="patch_1">
   <path d="M 0 172.848727 
L 533.405 172.848727 
L 533.405 0 
L 0 0 
z
" style="fill: #ffffff"/>
  </g>
  <g id="axes_1">
   <g id="patch_2">
    <path d="M 32.305 137.228102 
L 173.345 137.228102 
L 173.345 10.246358 
L 32.305 10.246358 
z
" style="fill: #ffffff"/>
   </g>
   <g id="PathCollection_1">
    <defs>
     <path id="m7a5d9f1917" d="M 0 3 
C 0.795609 3 1.55874 2.683901 2.12132 2.12132 
C 2.683901 1.55874 3 0.795609 3 0 
C 3 -0.795609 2.683901 -1.55874 2.12132 -2.12132 
C 1.55874 -2.683901 0.795609 -3 0 -3 
C -0.795609 -3 -1.55874 -2.683901 -2.12132 -2.12132 
C -2.683901 -1.55874 -3 -0.795609 -3 0 
C -3 0.795609 -2.683901 1.55874 -2.12132 2.12132 
C -1.55874 2.683901 -0.795609 3 0 3 
z
" style="stroke: #1f77b4; stroke-opacity: 0.5"/>
    </defs>
    <g clip-path="url(#p6d536157f1)">
     <use xlink:href="#m7a5d9f1917" x="61.158613" y="45.442762" style="fill: #1f77b4; fill-opacity: 0.5; stroke: #1f77b4; stroke-opacity: 0.5"/>
     <use xlink:href="#m7a5d9f1917" x="64.89906" y="51.842615" style="fill: #1f77b4; fill-opacity: 0.5; stroke: #1f77b4; stroke-opacity: 0.5"/>
     <use xlink:href="#m7a5d9f1917" x="68.639508" y="45.442762" style="fill: #1f77b4; fill-opacity: 0.5; stroke: #1f77b4; stroke-opacity: 0.5"/>
     <use xlink:href="#m7a5d9f1917" x="64.89906" y="26.243186" style="fill: #1f77b4; fill-opacity: 0.5; stroke: #1f77b4; stroke-opacity: 0.5"/>
     <use xlink:href="#m7a5d9f1917" x="64.89906" y="26.243186" style="fill: #1f77b4; fill-opacity: 0.5; stroke: #1f77b4; stroke-opacity: 0.5"/>
     <use xlink:href="#m7a5d9f1917" x="38.715909" y="64.642338" style="fill: #1f77b4; fill-opacity: 0.5; stroke: #1f77b4; stroke-opacity: 0.5"/>
     <use xlink:href="#m7a5d9f1917" x="68.639508" y="51.842615" style="fill: #1f77b4; fill-opacity: 0.5; stroke: #1f77b4; stroke-opacity: 0.5"/>
     <use xlink:href="#m7a5d9f1917" x="53.677717" y="77.44206" style="fill: #1f77b4; fill-opacity: 0.5; stroke: #1f77b4; stroke-opacity: 0.5"/>
     <use xlink:href="#m7a5d9f1917" x="57.418165" y="71.042207" style="fill: #1f77b4; fill-opacity: 0.5; stroke: #1f77b4; stroke-opacity: 0.5"/>
     <use xlink:href="#m7a5d9f1917" x="53.677717" y="51.842615" style="fill: #1f77b4; fill-opacity: 0.5; stroke: #1f77b4; stroke-opacity: 0.5"/>
    </g>
   </g>
   <g id="PathCollection_2">
    <defs>
     <path id="mcb077b1e97" d="M 0 3 
C 0.795609 3 1.55874 2.683901 2.12132 2.12132 
C 2.683901 1.55874 3 0.795609 3 0 
C 3 -0.795609 2.683901 -1.55874 2.12132 -2.12132 
C 1.55874 -2.683901 0.795609 -3 0 -3 
C -0.795609 -3 -1.55874 -2.683901 -2.12132 -2.12132 
C -2.683901 -1.55874 -3 -0.795609 -3 0 
C -3 0.795609 -2.683901 1.55874 -2.12132 2.12132 
C -1.55874 2.683901 -0.795609 3 0 3 
z
" style="stroke: #2ca02c; stroke-opacity: 0.5"/>
    </defs>
    <g clip-path="url(#p6d536157f1)">
     <use xlink:href="#mcb077b1e97" x="102.303572" y="77.44206" style="fill: #2ca02c; fill-opacity: 0.5; stroke: #2ca02c; stroke-opacity: 0.5"/>
     <use xlink:href="#mcb077b1e97" x="79.860869" y="122.241081" style="fill: #2ca02c; fill-opacity: 0.5; stroke: #2ca02c; stroke-opacity: 0.5"/>
     <use xlink:href="#mcb077b1e97" x="98.563125" y="83.841914" style="fill: #2ca02c; fill-opacity: 0.5; stroke: #2ca02c; stroke-opacity: 0.5"/>
     <use xlink:href="#mcb077b1e97" x="98.563125" y="128.640934" style="fill: #2ca02c; fill-opacity: 0.5; stroke: #2ca02c; stroke-opacity: 0.5"/>
     <use xlink:href="#mcb077b1e97" x="83.601316" y="83.841914" style="fill: #2ca02c; fill-opacity: 0.5; stroke: #2ca02c; stroke-opacity: 0.5"/>
     <use xlink:href="#mcb077b1e97" x="109.784485" y="109.441358" style="fill: #2ca02c; fill-opacity: 0.5; stroke: #2ca02c; stroke-opacity: 0.5"/>
     <use xlink:href="#mcb077b1e97" x="76.120421" y="77.44206" style="fill: #2ca02c; fill-opacity: 0.5; stroke: #2ca02c; stroke-opacity: 0.5"/>
     <use xlink:href="#mcb077b1e97" x="128.486742" y="90.241782" style="fill: #2ca02c; fill-opacity: 0.5; stroke: #2ca02c; stroke-opacity: 0.5"/>
     <use xlink:href="#mcb077b1e97" x="135.967637" y="64.642338" style="fill: #2ca02c; fill-opacity: 0.5; stroke: #2ca02c; stroke-opacity: 0.5"/>
     <use xlink:href="#mcb077b1e97" x="124.746276" y="77.44206" style="fill: #2ca02c; fill-opacity: 0.5; stroke: #2ca02c; stroke-opacity: 0.5"/>
    </g>
   </g>
   <g id="PathCollection_3">
    <defs>
     <path id="m78d12e28bc" d="M 0 3 
C 0.795609 3 1.55874 2.683901 2.12132 2.12132 
C 2.683901 1.55874 3 0.795609 3 0 
C 3 -0.795609 2.683901 -1.55874 2.12132 -2.12132 
C 1.55874 -2.683901 0.795609 -3 0 -3 
C -0.795609 -3 -1.55874 -2.683901 -2.12132 -2.12132 
C -2.683901 -1.55874 -3 -0.795609 -3 0 
C -3 0.795609 -2.683901 1.55874 -2.12132 2.12132 
C -1.55874 2.683901 -0.795609 3 0 3 
z
" style="stroke: #8c564b; stroke-opacity: 0.5"/>
    </defs>
    <g clip-path="url(#p6d536157f1)">
     <use xlink:href="#m78d12e28bc" x="128.486742" y="64.642338" style="fill: #8c564b; fill-opacity: 0.5; stroke: #8c564b; stroke-opacity: 0.5"/>
     <use xlink:href="#m78d12e28bc" x="132.227189" y="71.042207" style="fill: #8c564b; fill-opacity: 0.5; stroke: #8c564b; stroke-opacity: 0.5"/>
     <use xlink:href="#m78d12e28bc" x="143.448532" y="64.642338" style="fill: #8c564b; fill-opacity: 0.5; stroke: #8c564b; stroke-opacity: 0.5"/>
     <use xlink:href="#m78d12e28bc" x="102.303572" y="103.041505" style="fill: #8c564b; fill-opacity: 0.5; stroke: #8c564b; stroke-opacity: 0.5"/>
     <use xlink:href="#m78d12e28bc" x="132.227189" y="71.042207" style="fill: #8c564b; fill-opacity: 0.5; stroke: #8c564b; stroke-opacity: 0.5"/>
     <use xlink:href="#m78d12e28bc" x="109.784485" y="51.842615" style="fill: #8c564b; fill-opacity: 0.5; stroke: #8c564b; stroke-opacity: 0.5"/>
     <use xlink:href="#m78d12e28bc" x="109.784485" y="90.241782" style="fill: #8c564b; fill-opacity: 0.5; stroke: #8c564b; stroke-opacity: 0.5"/>
     <use xlink:href="#m78d12e28bc" x="132.227189" y="64.642338" style="fill: #8c564b; fill-opacity: 0.5; stroke: #8c564b; stroke-opacity: 0.5"/>
     <use xlink:href="#m78d12e28bc" x="98.563125" y="128.640934" style="fill: #8c564b; fill-opacity: 0.5; stroke: #8c564b; stroke-opacity: 0.5"/>
     <use xlink:href="#m78d12e28bc" x="57.418165" y="109.441358" style="fill: #8c564b; fill-opacity: 0.5; stroke: #8c564b; stroke-opacity: 0.5"/>
    </g>
   </g>
   <g id="PathCollection_4">
    <defs>
     <path id="mbd16b6d330" d="M 0 1.581139 
C 0.419323 1.581139 0.821528 1.41454 1.118034 1.118034 
C 1.41454 0.821528 1.581139 0.419323 1.581139 0 
C 1.581139 -0.419323 1.41454 -0.821528 1.118034 -1.118034 
C 0.821528 -1.41454 0.419323 -1.581139 0 -1.581139 
C -0.419323 -1.581139 -0.821528 -1.41454 -1.118034 -1.118034 
C -1.41454 -0.821528 -1.581139 -0.419323 -1.581139 0 
C -1.581139 0.419323 -1.41454 0.821528 -1.118034 1.118034 
C -0.821528 1.41454 -0.419323 1.581139 0 1.581139 
z
" style="stroke: #000000"/>
    </defs>
    <g clip-path="url(#p6d536157f1)">
     <use xlink:href="#mbd16b6d330" x="121.005846" y="85.7619" style="stroke: #000000"/>
    </g>
   </g>
   <g id="patch_3">
    <path d="M 109.490672 89.217959 
C 109.957492 93.771317 111.618566 97.774641 114.108063 100.346247 
C 116.59756 102.917853 119.712222 103.84778 122.766082 102.931223 
C 125.819942 102.014665 128.563665 99.326456 130.392979 95.458642 
C 132.222292 91.590828 132.987841 86.859199 132.521021 82.305841 
C 132.054201 77.752484 130.393126 73.749159 127.903629 71.177553 
C 125.414133 68.605947 122.29947 67.67602 119.24561 68.592577 
C 116.19175 69.509135 113.448027 72.197344 111.618714 76.065158 
C 109.7894 79.932972 109.023852 84.664601 109.490672 89.217959 
L 109.490672 89.217959 
z
" clip-path="url(#p6d536157f1)" style="fill: none; stroke: #70453c; stroke-width: 2; stroke-linejoin: miter"/>
   </g>
   <g id="PathCollection_5">
    <g clip-path="url(#p6d536157f1)">
     <use xlink:href="#mbd16b6d330" x="102.303572" y="90.952887" style="stroke: #000000"/>
    </g>
   </g>
   <g id="patch_4">
    <path d="M 92.119577 84.833145 
C 91.517773 87.764936 92.013587 91.221859 93.49782 94.442564 
C 94.982053 97.66327 97.333526 100.384804 100.034353 102.007778 
C 102.73518 103.630753 105.564851 104.02266 107.900164 103.097187 
C 110.235477 102.171714 111.885763 100.004421 112.487567 97.07263 
C 113.089371 94.140838 112.593558 90.683916 111.109325 87.46321 
C 109.625091 84.242504 107.273619 81.520971 104.572792 79.897996 
C 101.871965 78.275022 99.042294 77.883115 96.706981 78.808588 
C 94.371668 79.734061 92.721382 81.901354 92.119577 84.833145 
L 92.119577 84.833145 
z
" clip-path="url(#p6d536157f1)" style="fill: none; stroke: #238023; stroke-width: 2; stroke-linejoin: miter"/>
   </g>
   <g id="PathCollection_6">
    <g clip-path="url(#p6d536157f1)">
     <use xlink:href="#mbd16b6d330" x="69.574624" y="115.841288" style="stroke: #000000"/>
    </g>
   </g>
   <g id="patch_5">
    <path d="M 58.902288 128.282205 
C 59.920508 130.83927 62.021666 131.981094 64.743006 131.456205 
C 67.464347 130.931315 70.583685 128.782568 73.414021 125.483198 
C 76.244358 122.183828 78.55461 118.003215 79.83597 113.862091 
C 81.11733 109.720967 81.265181 105.957435 80.246961 103.400371 
C 79.228741 100.843307 77.127583 99.701482 74.406242 100.226372 
C 71.684902 100.751261 68.565564 102.900009 65.735227 106.199378 
C 62.904891 109.498748 60.594639 113.679361 59.313279 117.820485 
C 58.031919 121.96161 57.884068 125.725141 58.902288 128.282205 
L 58.902288 128.282205 
z
" clip-path="url(#p6d536157f1)" style="fill: none; stroke: #238023; stroke-width: 2; stroke-linejoin: miter"/>
   </g>
   <g id="PathCollection_7">
    <g clip-path="url(#p6d536157f1)">
     <use xlink:href="#mbd16b6d330" x="125.868277" y="83.202066" style="stroke: #000000"/>
    </g>
   </g>
   <g id="patch_6">
    <path d="M 105.733225 80.938932 
C 105.627283 83.698277 107.647221 86.583435 111.348172 88.958985 
C 115.049124 91.334535 120.128921 93.006522 125.468799 93.606712 
C 130.808678 94.206902 135.972658 93.686292 139.823435 92.159539 
C 143.674212 90.632786 145.897385 88.224544 146.003328 85.465199 
C 146.10927 82.705854 144.089332 79.820696 140.388381 77.445146 
C 136.68743 75.069597 131.607632 73.397609 126.267754 72.797419 
C 120.927876 72.197229 115.763895 72.717839 111.913118 74.244592 
C 108.062342 75.771345 105.839168 78.179588 105.733225 80.938932 
L 105.733225 80.938932 
z
" clip-path="url(#p6d536157f1)" style="fill: none; stroke: #70453c; stroke-width: 2; stroke-linejoin: miter"/>
   </g>
   <g id="PathCollection_8">
    <g clip-path="url(#p6d536157f1)">
     <use xlink:href="#mbd16b6d330" x="59.127946" y="53.671601" style="stroke: #000000"/>
    </g>
   </g>
   <g id="patch_7">
    <path d="M 69.870407 30.549826 
C 68.347299 28.478225 65.754475 28.927447 62.662975 31.798559 
C 59.571474 34.66967 56.233704 39.728256 53.38477 45.860222 
C 50.535836 51.992188 48.408341 58.696887 47.470841 64.497685 
C 46.53334 70.298484 46.862378 74.721773 48.385486 76.793375 
C 49.908594 78.864976 52.501418 78.415754 55.592918 75.544642 
C 58.684419 72.673531 62.022189 67.614945 64.871123 61.482979 
C 67.720056 55.351013 69.847552 48.646314 70.785052 42.845516 
C 71.722552 37.044717 71.393515 32.621428 69.870407 30.549826 
L 69.870407 30.549826 
z
" clip-path="url(#p6d536157f1)" style="fill: none; stroke: #195f90; stroke-width: 2; stroke-linejoin: miter"/>
   </g>
   <g id="PathCollection_9">
    <g clip-path="url(#p6d536157f1)">
     <use xlink:href="#mbd16b6d330" x="122.252555" y="71.042268" style="stroke: #000000"/>
    </g>
   </g>
   <g id="patch_8">
    <path d="M 105.239647 63.427452 
C 104.882585 65.762824 106.332686 68.805204 109.270583 71.884544 
C 112.20848 74.963884 116.394306 77.828769 120.906182 79.848242 
C 125.418058 81.867715 129.887609 82.876894 133.330469 82.653519 
C 136.773328 82.430145 138.908401 80.992455 139.265463 78.657083 
C 139.622526 76.321711 138.172424 73.279331 135.234527 70.199991 
C 132.29663 67.120651 128.110804 64.255766 123.598928 62.236293 
C 119.087052 60.216821 114.617501 59.207641 111.174642 59.431016 
C 107.731782 59.65439 105.596709 61.09208 105.239647 63.427452 
L 105.239647 63.427452 
z
" clip-path="url(#p6d536157f1)" style="fill: none; stroke: #70453c; stroke-width: 2; stroke-linejoin: miter"/>
   </g>
   <g id="PathCollection_10">
    <g clip-path="url(#p6d536157f1)">
     <use xlink:href="#mbd16b6d330" x="88.74459" y="83.841669" style="stroke: #000000"/>
    </g>
   </g>
   <g id="patch_9">
    <path d="M 73.956798 101.256859 
C 74.879905 103.551529 77.323464 103.917549 80.749308 102.274309 
C 84.175152 100.631068 88.303577 97.112731 92.225346 92.494168 
C 96.147114 87.875606 99.54203 82.533904 101.662404 77.645511 
C 103.782778 72.757118 104.455489 68.721149 103.532382 66.42648 
C 102.609275 64.13181 100.165717 63.76579 96.739872 65.40903 
C 93.314028 67.052271 89.185603 70.570608 85.263835 75.189171 
C 81.342066 79.807733 77.94715 85.149435 75.826776 90.037828 
C 73.706403 94.926221 73.033691 98.96219 73.956798 101.256859 
L 73.956798 101.256859 
z
" clip-path="url(#p6d536157f1)" style="fill: none; stroke: #238023; stroke-width: 2; stroke-linejoin: miter"/>
   </g>
   <g id="PathCollection_11">
    <g clip-path="url(#p6d536157f1)">
     <use xlink:href="#mbd16b6d330" x="90.688467" y="97.652234" style="stroke: #000000"/>
    </g>
   </g>
   <g id="patch_10">
    <path d="M 79.764052 106.28575 
C 80.641373 109.535591 82.633945 111.743082 85.302927 112.42205 
C 87.971908 113.101017 91.099389 112.196026 93.996578 109.906391 
C 96.893767 107.616756 99.324121 104.129414 100.752383 100.212414 
C 102.180645 96.295413 102.490204 92.268558 101.612882 89.018717 
C 100.735561 85.768877 98.742989 83.561386 96.074008 82.882418 
C 93.405026 82.203451 90.277545 83.108441 87.380356 85.398077 
C 84.483168 87.687712 82.052813 91.175053 80.624551 95.092054 
C 79.196289 99.009055 78.886731 103.03591 79.764052 106.28575 
L 79.764052 106.28575 
z
" clip-path="url(#p6d536157f1)" style="fill: none; stroke: #238023; stroke-width: 2; stroke-linejoin: miter"/>
   </g>
   <g id="PathCollection_12">
    <g clip-path="url(#p6d536157f1)">
     <use xlink:href="#mbd16b6d330" x="80.608923" y="22.403243" style="stroke: #000000"/>
    </g>
   </g>
   <g id="patch_11">
    <path d="M 72.548298 25.588654 
C 72.757524 27.138588 73.807528 28.289613 75.467058 28.788231 
C 77.126587 29.286849 79.26015 29.09235 81.397852 28.247569 
C 83.535555 27.402788 85.502864 25.976698 86.866503 24.28338 
C 88.230141 22.590061 88.878774 20.767765 88.669547 19.217832 
C 88.460321 17.667899 87.410317 16.516873 85.750788 16.018255 
C 84.091258 15.519637 81.957696 15.714137 79.819993 16.558918 
C 77.68229 17.403698 75.714981 18.829788 74.351343 20.523107 
C 72.987704 22.216425 72.339071 24.038721 72.548298 25.588654 
L 72.548298 25.588654 
z
" clip-path="url(#p6d536157f1)" style="fill: none; stroke: #195f90; stroke-width: 2; stroke-linejoin: miter"/>
   </g>
   <g id="PathCollection_13">
    <g clip-path="url(#p6d536157f1)">
     <use xlink:href="#mbd16b6d330" x="158.410358" y="30.509755" style="stroke: #000000"/>
    </g>
   </g>
   <g id="patch_12">
    <path d="M 149.886626 31.619556 
C 149.95467 33.14947 150.91805 34.499993 152.564594 35.373688 
C 154.211137 36.247384 156.406411 36.572918 158.666931 36.278595 
C 160.927451 35.984273 163.068657 35.094124 164.618972 33.804193 
C 166.169287 32.514263 167.002135 30.929869 166.934091 29.399954 
C 166.866047 27.87004 165.902667 26.519517 164.256123 25.645821 
C 162.609579 24.772126 160.414306 24.446592 158.153785 24.740915 
C 155.893265 25.035237 153.75206 25.925386 152.201745 27.215317 
C 150.65143 28.505247 149.818582 30.089641 149.886626 31.619556 
L 149.886626 31.619556 
z
" clip-path="url(#p6d536157f1)" style="fill: none; stroke: #70453c; stroke-width: 2; stroke-linejoin: miter"/>
   </g>
   <g id="PathCollection_14">
    <g clip-path="url(#p6d536157f1)">
     <use xlink:href="#mbd16b6d330" x="121.753864" y="77.442075" style="stroke: #000000"/>
    </g>
   </g>
   <g id="patch_13">
    <path d="M 104.945819 84.619915 
C 105.188514 86.283623 107.192303 87.123112 110.515875 86.953494 
C 113.839448 86.783876 118.211448 85.618999 122.668993 83.715414 
C 127.126539 81.811828 131.305692 79.324954 134.286041 76.802496 
C 137.266391 74.280039 138.804605 71.927945 138.56191 70.264236 
C 138.319215 68.600527 136.315426 67.761038 132.991853 67.930657 
C 129.668281 68.100275 125.296281 69.265152 120.838735 71.168737 
C 116.38119 73.072322 112.202037 75.559196 109.221688 78.081654 
C 106.241338 80.604112 104.703124 82.956206 104.945819 84.619915 
L 104.945819 84.619915 
z
" clip-path="url(#p6d536157f1)" style="fill: none; stroke: #70453c; stroke-width: 2; stroke-linejoin: miter"/>
   </g>
   <g id="matplotlib.axis_1">
    <g id="xtick_1">
     <g id="line2d_1">
      <defs>
       <path id="m6e95a59da8" d="M 0 0 
L 0 3.5 
" style="stroke: #000000; stroke-width: 0.8"/>
      </defs>
      <g>
       <use xlink:href="#m6e95a59da8" x="61.158613" y="137.228102" style="stroke: #000000; stroke-width: 0.8"/>
      </g>
     </g>
     <g id="text_1">
      <!-- 5 -->
      <g transform="translate(57.977363 151.82654) scale(0.1 -0.1)">
       <defs>
        <path id="DejaVuSans-35" d="M 691 4666 
L 3169 4666 
L 3169 4134 
L 1269 4134 
L 1269 2991 
Q 1406 3038 1543 3061 
Q 1681 3084 1819 3084 
Q 2600 3084 3056 2656 
Q 3513 2228 3513 1497 
Q 3513 744 3044 326 
Q 2575 -91 1722 -91 
Q 1428 -91 1123 -41 
Q 819 9 494 109 
L 494 744 
Q 775 591 1075 516 
Q 1375 441 1709 441 
Q 2250 441 2565 725 
Q 2881 1009 2881 1497 
Q 2881 1984 2565 2268 
Q 2250 2553 1709 2553 
Q 1456 2553 1204 2497 
Q 953 2441 691 2322 
L 691 4666 
z
" transform="scale(0.015625)"/>
       </defs>
       <use xlink:href="#DejaVuSans-35"/>
      </g>
     </g>
    </g>
    <g id="xtick_2">
     <g id="line2d_2">
      <g>
       <use xlink:href="#m6e95a59da8" x="98.563125" y="137.228102" style="stroke: #000000; stroke-width: 0.8"/>
      </g>
     </g>
     <g id="text_2">
      <!-- 6 -->
      <g transform="translate(95.381875 151.82654) scale(0.1 -0.1)">
       <defs>
        <path id="DejaVuSans-36" d="M 2113 2584 
Q 1688 2584 1439 2293 
Q 1191 2003 1191 1497 
Q 1191 994 1439 701 
Q 1688 409 2113 409 
Q 2538 409 2786 701 
Q 3034 994 3034 1497 
Q 3034 2003 2786 2293 
Q 2538 2584 2113 2584 
z
M 3366 4563 
L 3366 3988 
Q 3128 4100 2886 4159 
Q 2644 4219 2406 4219 
Q 1781 4219 1451 3797 
Q 1122 3375 1075 2522 
Q 1259 2794 1537 2939 
Q 1816 3084 2150 3084 
Q 2853 3084 3261 2657 
Q 3669 2231 3669 1497 
Q 3669 778 3244 343 
Q 2819 -91 2113 -91 
Q 1303 -91 875 529 
Q 447 1150 447 2328 
Q 447 3434 972 4092 
Q 1497 4750 2381 4750 
Q 2619 4750 2861 4703 
Q 3103 4656 3366 4563 
z
" transform="scale(0.015625)"/>
       </defs>
       <use xlink:href="#DejaVuSans-36"/>
      </g>
     </g>
    </g>
    <g id="xtick_3">
     <g id="line2d_3">
      <g>
       <use xlink:href="#m6e95a59da8" x="135.967637" y="137.228102" style="stroke: #000000; stroke-width: 0.8"/>
      </g>
     </g>
     <g id="text_3">
      <!-- 7 -->
      <g transform="translate(132.786387 151.82654) scale(0.1 -0.1)">
       <defs>
        <path id="DejaVuSans-37" d="M 525 4666 
L 3525 4666 
L 3525 4397 
L 1831 0 
L 1172 0 
L 2766 4134 
L 525 4134 
L 525 4666 
z
" transform="scale(0.015625)"/>
       </defs>
       <use xlink:href="#DejaVuSans-37"/>
      </g>
     </g>
    </g>
    <g id="text_4">
     <!-- Feature 1 -->
     <g transform="translate(83.896875 163.984977) scale(0.08 -0.08)">
      <defs>
       <path id="DejaVuSans-46" d="M 628 4666 
L 3309 4666 
L 3309 4134 
L 1259 4134 
L 1259 2759 
L 3109 2759 
L 3109 2228 
L 1259 2228 
L 1259 0 
L 628 0 
L 628 4666 
z
" transform="scale(0.015625)"/>
       <path id="DejaVuSans-65" d="M 3597 1894 
L 3597 1613 
L 953 1613 
Q 991 1019 1311 708 
Q 1631 397 2203 397 
Q 2534 397 2845 478 
Q 3156 559 3463 722 
L 3463 178 
Q 3153 47 2828 -22 
Q 2503 -91 2169 -91 
Q 1331 -91 842 396 
Q 353 884 353 1716 
Q 353 2575 817 3079 
Q 1281 3584 2069 3584 
Q 2775 3584 3186 3129 
Q 3597 2675 3597 1894 
z
M 3022 2063 
Q 3016 2534 2758 2815 
Q 2500 3097 2075 3097 
Q 1594 3097 1305 2825 
Q 1016 2553 972 2059 
L 3022 2063 
z
" transform="scale(0.015625)"/>
       <path id="DejaVuSans-61" d="M 2194 1759 
Q 1497 1759 1228 1600 
Q 959 1441 959 1056 
Q 959 750 1161 570 
Q 1363 391 1709 391 
Q 2188 391 2477 730 
Q 2766 1069 2766 1631 
L 2766 1759 
L 2194 1759 
z
M 3341 1997 
L 3341 0 
L 2766 0 
L 2766 531 
Q 2569 213 2275 61 
Q 1981 -91 1556 -91 
Q 1019 -91 701 211 
Q 384 513 384 1019 
Q 384 1609 779 1909 
Q 1175 2209 1959 2209 
L 2766 2209 
L 2766 2266 
Q 2766 2663 2505 2880 
Q 2244 3097 1772 3097 
Q 1472 3097 1187 3025 
Q 903 2953 641 2809 
L 641 3341 
Q 956 3463 1253 3523 
Q 1550 3584 1831 3584 
Q 2591 3584 2966 3190 
Q 3341 2797 3341 1997 
z
" transform="scale(0.015625)"/>
       <path id="DejaVuSans-74" d="M 1172 4494 
L 1172 3500 
L 2356 3500 
L 2356 3053 
L 1172 3053 
L 1172 1153 
Q 1172 725 1289 603 
Q 1406 481 1766 481 
L 2356 481 
L 2356 0 
L 1766 0 
Q 1100 0 847 248 
Q 594 497 594 1153 
L 594 3053 
L 172 3053 
L 172 3500 
L 594 3500 
L 594 4494 
L 1172 4494 
z
" transform="scale(0.015625)"/>
       <path id="DejaVuSans-75" d="M 544 1381 
L 544 3500 
L 1119 3500 
L 1119 1403 
Q 1119 906 1312 657 
Q 1506 409 1894 409 
Q 2359 409 2629 706 
Q 2900 1003 2900 1516 
L 2900 3500 
L 3475 3500 
L 3475 0 
L 2900 0 
L 2900 538 
Q 2691 219 2414 64 
Q 2138 -91 1772 -91 
Q 1169 -91 856 284 
Q 544 659 544 1381 
z
M 1991 3584 
L 1991 3584 
z
" transform="scale(0.015625)"/>
       <path id="DejaVuSans-72" d="M 2631 2963 
Q 2534 3019 2420 3045 
Q 2306 3072 2169 3072 
Q 1681 3072 1420 2755 
Q 1159 2438 1159 1844 
L 1159 0 
L 581 0 
L 581 3500 
L 1159 3500 
L 1159 2956 
Q 1341 3275 1631 3429 
Q 1922 3584 2338 3584 
Q 2397 3584 2469 3576 
Q 2541 3569 2628 3553 
L 2631 2963 
z
" transform="scale(0.015625)"/>
       <path id="DejaVuSans-20" transform="scale(0.015625)"/>
       <path id="DejaVuSans-31" d="M 794 531 
L 1825 531 
L 1825 4091 
L 703 3866 
L 703 4441 
L 1819 4666 
L 2450 4666 
L 2450 531 
L 3481 531 
L 3481 0 
L 794 0 
L 794 531 
z
" transform="scale(0.015625)"/>
      </defs>
      <use xlink:href="#DejaVuSans-46"/>
      <use xlink:href="#DejaVuSans-65" x="52.019531"/>
      <use xlink:href="#DejaVuSans-61" x="113.542969"/>
      <use xlink:href="#DejaVuSans-74" x="174.822266"/>
      <use xlink:href="#DejaVuSans-75" x="214.03125"/>
      <use xlink:href="#DejaVuSans-72" x="277.410156"/>
      <use xlink:href="#DejaVuSans-65" x="316.273438"/>
      <use xlink:href="#DejaVuSans-20" x="377.796875"/>
      <use xlink:href="#DejaVuSans-31" x="409.583984"/>
     </g>
    </g>
   </g>
   <g id="matplotlib.axis_2">
    <g id="ytick_1">
     <g id="line2d_4">
      <defs>
       <path id="m89cb8e38c3" d="M 0 0 
L -3.5 0 
" style="stroke: #000000; stroke-width: 0.8"/>
      </defs>
      <g>
       <use xlink:href="#m89cb8e38c3" x="32.305" y="109.441358" style="stroke: #000000; stroke-width: 0.8"/>
      </g>
     </g>
     <g id="text_5">
      <!-- 2 -->
      <g transform="translate(18.9425 113.240577) scale(0.1 -0.1)">
       <defs>
        <path id="DejaVuSans-32" d="M 1228 531 
L 3431 531 
L 3431 0 
L 469 0 
L 469 531 
Q 828 903 1448 1529 
Q 2069 2156 2228 2338 
Q 2531 2678 2651 2914 
Q 2772 3150 2772 3378 
Q 2772 3750 2511 3984 
Q 2250 4219 1831 4219 
Q 1534 4219 1204 4116 
Q 875 4013 500 3803 
L 500 4441 
Q 881 4594 1212 4672 
Q 1544 4750 1819 4750 
Q 2544 4750 2975 4387 
Q 3406 4025 3406 3419 
Q 3406 3131 3298 2873 
Q 3191 2616 2906 2266 
Q 2828 2175 2409 1742 
Q 1991 1309 1228 531 
z
" transform="scale(0.015625)"/>
       </defs>
       <use xlink:href="#DejaVuSans-32"/>
      </g>
     </g>
    </g>
    <g id="ytick_2">
     <g id="line2d_5">
      <g>
       <use xlink:href="#m89cb8e38c3" x="32.305" y="77.44206" style="stroke: #000000; stroke-width: 0.8"/>
      </g>
     </g>
     <g id="text_6">
      <!-- 3 -->
      <g transform="translate(18.9425 81.241279) scale(0.1 -0.1)">
       <defs>
        <path id="DejaVuSans-33" d="M 2597 2516 
Q 3050 2419 3304 2112 
Q 3559 1806 3559 1356 
Q 3559 666 3084 287 
Q 2609 -91 1734 -91 
Q 1441 -91 1130 -33 
Q 819 25 488 141 
L 488 750 
Q 750 597 1062 519 
Q 1375 441 1716 441 
Q 2309 441 2620 675 
Q 2931 909 2931 1356 
Q 2931 1769 2642 2001 
Q 2353 2234 1838 2234 
L 1294 2234 
L 1294 2753 
L 1863 2753 
Q 2328 2753 2575 2939 
Q 2822 3125 2822 3475 
Q 2822 3834 2567 4026 
Q 2313 4219 1838 4219 
Q 1578 4219 1281 4162 
Q 984 4106 628 3988 
L 628 4550 
Q 988 4650 1302 4700 
Q 1616 4750 1894 4750 
Q 2613 4750 3031 4423 
Q 3450 4097 3450 3541 
Q 3450 3153 3228 2886 
Q 3006 2619 2597 2516 
z
" transform="scale(0.015625)"/>
       </defs>
       <use xlink:href="#DejaVuSans-33"/>
      </g>
     </g>
    </g>
    <g id="ytick_3">
     <g id="line2d_6">
      <g>
       <use xlink:href="#m89cb8e38c3" x="32.305" y="45.442762" style="stroke: #000000; stroke-width: 0.8"/>
      </g>
     </g>
     <g id="text_7">
      <!-- 3 -->
      <g transform="translate(18.9425 49.241981) scale(0.1 -0.1)">
       <use xlink:href="#DejaVuSans-33"/>
      </g>
     </g>
    </g>
    <g id="ytick_4">
     <g id="line2d_7">
      <g>
       <use xlink:href="#m89cb8e38c3" x="32.305" y="13.443464" style="stroke: #000000; stroke-width: 0.8"/>
      </g>
     </g>
     <g id="text_8">
      <!-- 4 -->
      <g transform="translate(18.9425 17.242682) scale(0.1 -0.1)">
       <defs>
        <path id="DejaVuSans-34" d="M 2419 4116 
L 825 1625 
L 2419 1625 
L 2419 4116 
z
M 2253 4666 
L 3047 4666 
L 3047 1625 
L 3713 1625 
L 3713 1100 
L 3047 1100 
L 3047 0 
L 2419 0 
L 2419 1100 
L 313 1100 
L 313 1709 
L 2253 4666 
z
" transform="scale(0.015625)"/>
       </defs>
       <use xlink:href="#DejaVuSans-34"/>
      </g>
     </g>
    </g>
    <g id="text_9">
     <!-- Feature 2 -->
     <g transform="translate(13.27875 92.665355) rotate(-90) scale(0.08 -0.08)">
      <use xlink:href="#DejaVuSans-46"/>
      <use xlink:href="#DejaVuSans-65" x="52.019531"/>
      <use xlink:href="#DejaVuSans-61" x="113.542969"/>
      <use xlink:href="#DejaVuSans-74" x="174.822266"/>
      <use xlink:href="#DejaVuSans-75" x="214.03125"/>
      <use xlink:href="#DejaVuSans-72" x="277.410156"/>
      <use xlink:href="#DejaVuSans-65" x="316.273438"/>
      <use xlink:href="#DejaVuSans-20" x="377.796875"/>
      <use xlink:href="#DejaVuSans-32" x="409.583984"/>
     </g>
    </g>
   </g>
   <g id="patch_14">
    <path d="M 32.305 137.228102 
L 32.305 10.246358 
" style="fill: none; stroke: #000000; stroke-width: 0.8; stroke-linejoin: miter; stroke-linecap: square"/>
   </g>
   <g id="patch_15">
    <path d="M 173.345 137.228102 
L 173.345 10.246358 
" style="fill: none; stroke: #000000; stroke-width: 0.8; stroke-linejoin: miter; stroke-linecap: square"/>
   </g>
   <g id="patch_16">
    <path d="M 32.305 137.228102 
L 173.345 137.228102 
" style="fill: none; stroke: #000000; stroke-width: 0.8; stroke-linejoin: miter; stroke-linecap: square"/>
   </g>
   <g id="patch_17">
    <path d="M 32.305 10.246358 
L 173.345 10.246358 
" style="fill: none; stroke: #000000; stroke-width: 0.8; stroke-linejoin: miter; stroke-linecap: square"/>
   </g>
  </g>
  <g id="axes_2">
   <g id="patch_18">
    <path d="M 208.735 137.228102 
L 349.775 137.228102 
L 349.775 10.246358 
L 208.735 10.246358 
z
" style="fill: #ffffff"/>
   </g>
   <g id="PathCollection_15">
    <g clip-path="url(#p68a70cc863)">
     <use xlink:href="#m7a5d9f1917" x="237.655588" y="122.447488" style="fill: #1f77b4; fill-opacity: 0.5; stroke: #1f77b4; stroke-opacity: 0.5"/>
     <use xlink:href="#m7a5d9f1917" x="241.407198" y="124.512116" style="fill: #1f77b4; fill-opacity: 0.5; stroke: #1f77b4; stroke-opacity: 0.5"/>
     <use xlink:href="#m7a5d9f1917" x="245.158808" y="124.512116" style="fill: #1f77b4; fill-opacity: 0.5; stroke: #1f77b4; stroke-opacity: 0.5"/>
     <use xlink:href="#m7a5d9f1917" x="241.407198" y="124.512116" style="fill: #1f77b4; fill-opacity: 0.5; stroke: #1f77b4; stroke-opacity: 0.5"/>
     <use xlink:href="#m7a5d9f1917" x="241.407198" y="116.253609" style="fill: #1f77b4; fill-opacity: 0.5; stroke: #1f77b4; stroke-opacity: 0.5"/>
     <use xlink:href="#m7a5d9f1917" x="215.145909" y="128.64137" style="fill: #1f77b4; fill-opacity: 0.5; stroke: #1f77b4; stroke-opacity: 0.5"/>
     <use xlink:href="#m7a5d9f1917" x="245.158808" y="126.576743" style="fill: #1f77b4; fill-opacity: 0.5; stroke: #1f77b4; stroke-opacity: 0.5"/>
     <use xlink:href="#m7a5d9f1917" x="230.152368" y="126.576743" style="fill: #1f77b4; fill-opacity: 0.5; stroke: #1f77b4; stroke-opacity: 0.5"/>
     <use xlink:href="#m7a5d9f1917" x="233.903978" y="124.512116" style="fill: #1f77b4; fill-opacity: 0.5; stroke: #1f77b4; stroke-opacity: 0.5"/>
     <use xlink:href="#m7a5d9f1917" x="230.152368" y="122.447488" style="fill: #1f77b4; fill-opacity: 0.5; stroke: #1f77b4; stroke-opacity: 0.5"/>
    </g>
   </g>
   <g id="PathCollection_16">
    <g clip-path="url(#p68a70cc863)">
     <use xlink:href="#mcb077b1e97" x="278.923336" y="60.50869" style="fill: #2ca02c; fill-opacity: 0.5; stroke: #2ca02c; stroke-opacity: 0.5"/>
     <use xlink:href="#mcb077b1e97" x="256.413657" y="72.896448" style="fill: #2ca02c; fill-opacity: 0.5; stroke: #2ca02c; stroke-opacity: 0.5"/>
     <use xlink:href="#mcb077b1e97" x="275.171725" y="62.573314" style="fill: #2ca02c; fill-opacity: 0.5; stroke: #2ca02c; stroke-opacity: 0.5"/>
     <use xlink:href="#mcb077b1e97" x="275.171725" y="72.896448" style="fill: #2ca02c; fill-opacity: 0.5; stroke: #2ca02c; stroke-opacity: 0.5"/>
     <use xlink:href="#mcb077b1e97" x="260.165267" y="81.154957" style="fill: #2ca02c; fill-opacity: 0.5; stroke: #2ca02c; stroke-opacity: 0.5"/>
     <use xlink:href="#mcb077b1e97" x="286.426574" y="54.314806" style="fill: #2ca02c; fill-opacity: 0.5; stroke: #2ca02c; stroke-opacity: 0.5"/>
     <use xlink:href="#mcb077b1e97" x="252.662047" y="62.573314" style="fill: #2ca02c; fill-opacity: 0.5; stroke: #2ca02c; stroke-opacity: 0.5"/>
     <use xlink:href="#mcb077b1e97" x="305.184643" y="56.37943" style="fill: #2ca02c; fill-opacity: 0.5; stroke: #2ca02c; stroke-opacity: 0.5"/>
     <use xlink:href="#mcb077b1e97" x="312.687863" y="58.444065" style="fill: #2ca02c; fill-opacity: 0.5; stroke: #2ca02c; stroke-opacity: 0.5"/>
     <use xlink:href="#mcb077b1e97" x="301.433014" y="52.250181" style="fill: #2ca02c; fill-opacity: 0.5; stroke: #2ca02c; stroke-opacity: 0.5"/>
    </g>
   </g>
   <g id="PathCollection_17">
    <g clip-path="url(#p68a70cc863)">
     <use xlink:href="#m78d12e28bc" x="305.184643" y="33.668539" style="fill: #8c564b; fill-opacity: 0.5; stroke: #8c564b; stroke-opacity: 0.5"/>
     <use xlink:href="#m78d12e28bc" x="308.936253" y="50.185556" style="fill: #8c564b; fill-opacity: 0.5; stroke: #8c564b; stroke-opacity: 0.5"/>
     <use xlink:href="#m78d12e28bc" x="320.191083" y="31.603914" style="fill: #8c564b; fill-opacity: 0.5; stroke: #8c564b; stroke-opacity: 0.5"/>
     <use xlink:href="#m78d12e28bc" x="278.923336" y="39.862423" style="fill: #8c564b; fill-opacity: 0.5; stroke: #8c564b; stroke-opacity: 0.5"/>
     <use xlink:href="#m78d12e28bc" x="308.936253" y="43.991672" style="fill: #8c564b; fill-opacity: 0.5; stroke: #8c564b; stroke-opacity: 0.5"/>
     <use xlink:href="#m78d12e28bc" x="286.426574" y="39.862423" style="fill: #8c564b; fill-opacity: 0.5; stroke: #8c564b; stroke-opacity: 0.5"/>
     <use xlink:href="#m78d12e28bc" x="286.426574" y="50.185556" style="fill: #8c564b; fill-opacity: 0.5; stroke: #8c564b; stroke-opacity: 0.5"/>
     <use xlink:href="#m78d12e28bc" x="308.936253" y="37.797798" style="fill: #8c564b; fill-opacity: 0.5; stroke: #8c564b; stroke-opacity: 0.5"/>
     <use xlink:href="#m78d12e28bc" x="275.171725" y="52.250181" style="fill: #8c564b; fill-opacity: 0.5; stroke: #8c564b; stroke-opacity: 0.5"/>
     <use xlink:href="#m78d12e28bc" x="233.903978" y="62.573314" style="fill: #8c564b; fill-opacity: 0.5; stroke: #8c564b; stroke-opacity: 0.5"/>
    </g>
   </g>
   <g id="PathCollection_18">
    <g clip-path="url(#p68a70cc863)">
     <use xlink:href="#mbd16b6d330" x="297.681422" y="37.384853" style="stroke: #000000"/>
    </g>
   </g>
   <g id="patch_19">
    <path d="M 307.327754 29.790136 
C 305.579483 29.117614 302.886182 29.272774 299.84102 30.221443 
C 296.795859 31.170112 293.64746 32.834836 291.089223 34.848979 
C 288.530986 36.863121 286.771779 39.062237 286.199047 40.961995 
C 285.626315 42.861754 286.286818 44.307049 288.03509 44.97957 
C 289.783362 45.652092 292.476662 45.496932 295.521824 44.548263 
C 298.566986 43.599594 301.715384 41.93487 304.273621 39.920728 
C 306.831858 37.906585 308.591066 35.70747 309.163798 33.807711 
C 309.73653 31.907953 309.076026 30.462658 307.327754 29.790136 
L 307.327754 29.790136 
z
" clip-path="url(#p68a70cc863)" style="fill: none; stroke: #70453c; stroke-width: 2; stroke-linejoin: miter"/>
   </g>
   <g id="PathCollection_19">
    <g clip-path="url(#p68a70cc863)">
     <use xlink:href="#mbd16b6d330" x="278.923336" y="57.985263" style="stroke: #000000"/>
    </g>
   </g>
   <g id="patch_20">
    <path d="M 284.189684 49.262449 
C 281.791399 48.823918 278.936124 49.322379 276.252698 50.648053 
C 273.569273 51.973727 271.276788 54.018378 269.880136 56.331695 
C 268.483484 58.645013 268.096696 61.038124 268.804958 62.983975 
C 269.513219 64.929826 271.258703 66.269546 273.656987 66.708077 
C 276.055272 67.146608 278.910547 66.648146 281.593973 65.322472 
C 284.277398 63.996798 286.569883 61.952148 287.966535 59.63883 
C 289.363187 57.325513 289.749975 54.932401 289.041714 52.986551 
C 288.333452 51.0407 286.587968 49.70098 284.189684 49.262449 
L 284.189684 49.262449 
z
" clip-path="url(#p68a70cc863)" style="fill: none; stroke: #238023; stroke-width: 2; stroke-linejoin: miter"/>
   </g>
   <g id="PathCollection_20">
    <g clip-path="url(#p68a70cc863)">
     <use xlink:href="#mbd16b6d330" x="246.096715" y="82.187274" style="stroke: #000000"/>
    </g>
   </g>
   <g id="patch_21">
    <path d="M 234.75662 81.434233 
C 234.5178 82.523453 235.483593 83.647554 237.441295 84.558964 
C 239.398997 85.470375 242.188769 86.094683 245.196198 86.294391 
C 248.203626 86.4941 251.183167 86.252905 253.478611 85.623925 
C 255.774056 84.994945 257.19799 84.029535 257.43681 82.940315 
C 257.67563 81.851095 256.709837 80.726994 254.752136 79.815584 
C 252.794434 78.904173 250.004661 78.279866 246.997233 78.080157 
C 243.989805 77.880448 241.010264 78.121644 238.714819 78.750623 
C 236.419375 79.379603 234.99544 80.345013 234.75662 81.434233 
L 234.75662 81.434233 
z
" clip-path="url(#p68a70cc863)" style="fill: none; stroke: #238023; stroke-width: 2; stroke-linejoin: miter"/>
   </g>
   <g id="PathCollection_21">
    <g clip-path="url(#p68a70cc863)">
     <use xlink:href="#mbd16b6d330" x="302.558363" y="40.275407" style="stroke: #000000"/>
    </g>
   </g>
   <g id="patch_22">
    <path d="M 321.368446 28.26059 
C 319.416272 27.334957 315.561842 27.713068 310.65405 29.311648 
C 305.746258 30.910227 300.185803 33.59876 295.197311 36.785126 
C 290.208818 39.971493 286.199577 43.395541 284.052576 46.303164 
C 281.905575 49.210787 281.796107 51.36459 283.748281 52.290223 
C 285.700455 53.215856 289.554885 52.837746 294.462677 51.239166 
C 299.370469 49.640586 304.930924 46.952054 309.919416 43.765687 
C 314.907908 40.579321 318.917149 37.155273 321.064151 34.24765 
C 323.211152 31.340027 323.32062 29.186224 321.368446 28.26059 
L 321.368446 28.26059 
z
" clip-path="url(#p68a70cc863)" style="fill: none; stroke: #70453c; stroke-width: 2; stroke-linejoin: miter"/>
   </g>
   <g id="PathCollection_22">
    <g clip-path="url(#p68a70cc863)">
     <use xlink:href="#mbd16b6d330" x="235.618862" y="125.69186" style="stroke: #000000"/>
    </g>
   </g>
   <g id="patch_23">
    <path d="M 223.781586 127.968247 
C 224.583816 129.231677 226.600546 130.203676 229.387616 130.670172 
C 232.174685 131.136668 235.504542 131.059575 238.643824 130.45587 
C 241.783106 129.852165 244.475505 128.771139 246.128051 127.450875 
C 247.780596 126.130612 248.258366 124.678904 247.456137 123.415474 
C 246.653907 122.152044 244.637177 121.180045 241.850108 120.713549 
C 239.063038 120.247052 235.733181 120.324146 232.593899 120.927851 
C 229.454617 121.531556 226.762218 122.612582 225.109672 123.932845 
C 223.457127 125.253109 222.979357 126.704817 223.781586 127.968247 
L 223.781586 127.968247 
z
" clip-path="url(#p68a70cc863)" style="fill: none; stroke: #195f90; stroke-width: 2; stroke-linejoin: miter"/>
   </g>
   <g id="PathCollection_23">
    <g clip-path="url(#p68a70cc863)">
     <use xlink:href="#mbd16b6d330" x="298.931852" y="48.465287" style="stroke: #000000"/>
    </g>
   </g>
   <g id="patch_24">
    <path d="M 312.955265 35.308418 
C 310.352264 34.468141 306.377929 35.048457 301.907561 36.921559 
C 297.437194 38.79466 292.83578 41.807616 289.116727 45.296858 
C 285.397674 48.786101 282.864627 52.466748 282.07546 55.528181 
C 281.286292 58.589613 282.305437 60.781878 284.908438 61.622155 
C 287.511439 62.462432 291.485775 61.882116 295.956142 60.009015 
C 300.426509 58.135913 305.027923 55.122957 308.746976 51.633715 
C 312.466029 48.144472 314.999076 44.463825 315.788244 41.402393 
C 316.577411 38.34096 315.558267 36.148695 312.955265 35.308418 
L 312.955265 35.308418 
z
" clip-path="url(#p68a70cc863)" style="fill: none; stroke: #70453c; stroke-width: 2; stroke-linejoin: miter"/>
   </g>
   <g id="PathCollection_24">
    <g clip-path="url(#p68a70cc863)">
     <use xlink:href="#mbd16b6d330" x="265.32389" y="65.412103" style="stroke: #000000"/>
    </g>
   </g>
   <g id="patch_25">
    <path d="M 279.070549 55.116961 
C 277.327386 54.412025 274.206949 54.820627 270.396478 56.252779 
C 266.586007 57.68493 262.396611 60.023701 258.750954 62.754005 
C 255.105297 65.484309 252.301032 68.383228 250.955766 70.812309 
C 249.6105 73.241391 249.834067 75.00231 251.57723 75.707246 
C 253.320393 76.412182 256.44083 76.003579 260.251301 74.571428 
C 264.061772 73.139277 268.251169 70.800505 271.896825 68.070202 
C 275.542482 65.339898 278.346747 62.440979 279.692013 60.011897 
C 281.037279 57.582816 280.813712 55.821896 279.070549 55.116961 
L 279.070549 55.116961 
z
" clip-path="url(#p68a70cc863)" style="fill: none; stroke: #238023; stroke-width: 2; stroke-linejoin: miter"/>
   </g>
   <g id="PathCollection_25">
    <g clip-path="url(#p68a70cc863)">
     <use xlink:href="#mbd16b6d330" x="267.273568" y="66.268108" style="stroke: #000000"/>
    </g>
   </g>
   <g id="patch_26">
    <path d="M 276.530314 53.583573 
C 274.743822 53.188723 272.05491 54.146515 269.05578 56.246006 
C 266.056651 58.345497 262.992168 61.415272 260.53725 64.77925 
C 258.082333 68.143229 256.437412 71.526755 255.964764 74.184648 
C 255.492115 76.84254 256.230329 78.557794 258.016821 78.952644 
C 259.803313 79.347493 262.492225 78.389701 265.491355 76.290211 
C 268.490485 74.19072 271.554967 71.120944 274.009885 67.756966 
C 276.464803 64.392988 278.109723 61.009461 278.582372 58.351569 
C 279.05502 55.693676 278.316807 53.978423 276.530314 53.583573 
L 276.530314 53.583573 
z
" clip-path="url(#p68a70cc863)" style="fill: none; stroke: #238023; stroke-width: 2; stroke-linejoin: miter"/>
   </g>
   <g id="PathCollection_26">
    <g clip-path="url(#p68a70cc863)">
     <use xlink:href="#mbd16b6d330" x="257.163943" y="124.925031" style="stroke: #000000"/>
    </g>
   </g>
   <g id="patch_27">
    <path d="M 256.151344 118.393857 
C 254.013819 118.494227 252.070249 119.278665 250.74868 120.574408 
C 249.427112 121.870152 248.835446 123.571408 249.103991 125.303496 
C 249.372535 127.035583 250.479364 128.657085 252.180712 129.810883 
C 253.882059 130.964682 256.039018 131.556575 258.176542 131.456205 
C 260.314066 131.355835 262.257637 130.571396 263.579206 129.275653 
C 264.900774 127.97991 265.49244 126.278653 265.223895 124.546566 
C 264.955351 122.814478 263.848522 121.192977 262.147174 120.039178 
C 260.445827 118.88538 258.288868 118.293487 256.151344 118.393857 
L 256.151344 118.393857 
z
" clip-path="url(#p68a70cc863)" style="fill: none; stroke: #195f90; stroke-width: 2; stroke-linejoin: miter"/>
   </g>
   <g id="PathCollection_27">
    <g clip-path="url(#p68a70cc863)">
     <use xlink:href="#mbd16b6d330" x="335.19756" y="23.345395" style="stroke: #000000"/>
    </g>
   </g>
   <g id="patch_28">
    <path d="M 337.739668 16.018255 
C 335.573879 15.790681 333.22865 16.344431 331.220492 17.557548 
C 329.212334 18.770665 327.705203 20.544103 327.031028 22.487283 
C 326.356853 24.430463 326.570677 26.384734 327.625408 27.919689 
C 328.680139 29.454644 330.489662 30.444962 332.655451 30.672536 
C 334.821241 30.90011 337.166469 30.34636 339.174627 29.133243 
C 341.182785 27.920126 342.689916 26.146688 343.364091 24.203507 
C 344.038266 22.260327 343.824442 20.306057 342.769711 18.771102 
C 341.714981 17.236147 339.905457 16.245829 337.739668 16.018255 
L 337.739668 16.018255 
z
" clip-path="url(#p68a70cc863)" style="fill: none; stroke: #70453c; stroke-width: 2; stroke-linejoin: miter"/>
   </g>
   <g id="PathCollection_28">
    <g clip-path="url(#p68a70cc863)">
     <use xlink:href="#mbd16b6d330" x="298.431673" y="56.37948" style="stroke: #000000"/>
    </g>
   </g>
   <g id="patch_29">
    <path d="M 313.290923 47.345053 
C 311.165253 46.286192 307.560695 46.22248 303.27111 47.167951 
C 298.981525 48.113421 294.357139 49.99088 290.41642 52.386838 
C 286.4757 54.782796 283.54039 57.501634 282.256956 59.94456 
C 280.973522 62.387486 281.446752 64.355045 283.572422 65.413907 
C 285.698092 66.472768 289.30265 66.536479 293.592235 65.591008 
C 297.88182 64.645538 302.506206 62.76808 306.446926 60.372122 
C 310.387645 57.976164 313.322956 55.257325 314.606389 52.814399 
C 315.889823 50.371473 315.416593 48.403914 313.290923 47.345053 
L 313.290923 47.345053 
z
" clip-path="url(#p68a70cc863)" style="fill: none; stroke: #70453c; stroke-width: 2; stroke-linejoin: miter"/>
   </g>
   <g id="matplotlib.axis_3">
    <g id="xtick_4">
     <g id="line2d_8">
      <g>
       <use xlink:href="#m6e95a59da8" x="237.655588" y="137.228102" style="stroke: #000000; stroke-width: 0.8"/>
      </g>
     </g>
     <g id="text_10">
      <!-- 5 -->
      <g transform="translate(234.474338 151.82654) scale(0.1 -0.1)">
       <use xlink:href="#DejaVuSans-35"/>
      </g>
     </g>
    </g>
    <g id="xtick_5">
     <g id="line2d_9">
      <g>
       <use xlink:href="#m6e95a59da8" x="275.171725" y="137.228102" style="stroke: #000000; stroke-width: 0.8"/>
      </g>
     </g>
     <g id="text_11">
      <!-- 6 -->
      <g transform="translate(271.990475 151.82654) scale(0.1 -0.1)">
       <use xlink:href="#DejaVuSans-36"/>
      </g>
     </g>
    </g>
    <g id="xtick_6">
     <g id="line2d_10">
      <g>
       <use xlink:href="#m6e95a59da8" x="312.687863" y="137.228102" style="stroke: #000000; stroke-width: 0.8"/>
      </g>
     </g>
     <g id="text_12">
      <!-- 7 -->
      <g transform="translate(309.506613 151.82654) scale(0.1 -0.1)">
       <use xlink:href="#DejaVuSans-37"/>
      </g>
     </g>
    </g>
    <g id="text_13">
     <!-- Feature 1 -->
     <g transform="translate(260.326875 163.984977) scale(0.08 -0.08)">
      <use xlink:href="#DejaVuSans-46"/>
      <use xlink:href="#DejaVuSans-65" x="52.019531"/>
      <use xlink:href="#DejaVuSans-61" x="113.542969"/>
      <use xlink:href="#DejaVuSans-74" x="174.822266"/>
      <use xlink:href="#DejaVuSans-75" x="214.03125"/>
      <use xlink:href="#DejaVuSans-72" x="277.410156"/>
      <use xlink:href="#DejaVuSans-65" x="316.273438"/>
      <use xlink:href="#DejaVuSans-20" x="377.796875"/>
      <use xlink:href="#DejaVuSans-31" x="409.583984"/>
     </g>
    </g>
   </g>
   <g id="matplotlib.axis_4">
    <g id="ytick_5">
     <g id="line2d_11">
      <g>
       <use xlink:href="#m89cb8e38c3" x="208.735" y="114.188982" style="stroke: #000000; stroke-width: 0.8"/>
      </g>
     </g>
     <g id="text_14">
      <!-- 2 -->
      <g transform="translate(195.3725 117.988201) scale(0.1 -0.1)">
       <use xlink:href="#DejaVuSans-32"/>
      </g>
     </g>
    </g>
    <g id="ytick_6">
     <g id="line2d_12">
      <g>
       <use xlink:href="#m89cb8e38c3" x="208.735" y="72.896448" style="stroke: #000000; stroke-width: 0.8"/>
      </g>
     </g>
     <g id="text_15">
      <!-- 4 -->
      <g transform="translate(195.3725 76.695667) scale(0.1 -0.1)">
       <use xlink:href="#DejaVuSans-34"/>
      </g>
     </g>
    </g>
    <g id="ytick_7">
     <g id="line2d_13">
      <g>
       <use xlink:href="#m89cb8e38c3" x="208.735" y="31.603914" style="stroke: #000000; stroke-width: 0.8"/>
      </g>
     </g>
     <g id="text_16">
      <!-- 6 -->
      <g transform="translate(195.3725 35.403133) scale(0.1 -0.1)">
       <use xlink:href="#DejaVuSans-36"/>
      </g>
     </g>
    </g>
    <g id="text_17">
     <!-- Feature 3 -->
     <g transform="translate(189.70875 92.665355) rotate(-90) scale(0.08 -0.08)">
      <use xlink:href="#DejaVuSans-46"/>
      <use xlink:href="#DejaVuSans-65" x="52.019531"/>
      <use xlink:href="#DejaVuSans-61" x="113.542969"/>
      <use xlink:href="#DejaVuSans-74" x="174.822266"/>
      <use xlink:href="#DejaVuSans-75" x="214.03125"/>
      <use xlink:href="#DejaVuSans-72" x="277.410156"/>
      <use xlink:href="#DejaVuSans-65" x="316.273438"/>
      <use xlink:href="#DejaVuSans-20" x="377.796875"/>
      <use xlink:href="#DejaVuSans-33" x="409.583984"/>
     </g>
    </g>
   </g>
   <g id="patch_30">
    <path d="M 208.735 137.228102 
L 208.735 10.246358 
" style="fill: none; stroke: #000000; stroke-width: 0.8; stroke-linejoin: miter; stroke-linecap: square"/>
   </g>
   <g id="patch_31">
    <path d="M 349.775 137.228102 
L 349.775 10.246358 
" style="fill: none; stroke: #000000; stroke-width: 0.8; stroke-linejoin: miter; stroke-linecap: square"/>
   </g>
   <g id="patch_32">
    <path d="M 208.735 137.228102 
L 349.775 137.228102 
" style="fill: none; stroke: #000000; stroke-width: 0.8; stroke-linejoin: miter; stroke-linecap: square"/>
   </g>
   <g id="patch_33">
    <path d="M 208.735 10.246358 
L 349.775 10.246358 
" style="fill: none; stroke: #000000; stroke-width: 0.8; stroke-linejoin: miter; stroke-linecap: square"/>
   </g>
  </g>
  <g id="axes_3">
   <g id="patch_34">
    <path d="M 385.165 137.228102 
L 526.205 137.228102 
L 526.205 10.246358 
L 385.165 10.246358 
z
" style="fill: #ffffff"/>
   </g>
   <g id="PathCollection_29">
    <g clip-path="url(#paf0e9abc41)">
     <use xlink:href="#m7a5d9f1917" x="414.018462" y="106.360998" style="fill: #1f77b4; fill-opacity: 0.5; stroke: #1f77b4; stroke-opacity: 0.5"/>
     <use xlink:href="#m7a5d9f1917" x="417.758884" y="126.437164" style="fill: #1f77b4; fill-opacity: 0.5; stroke: #1f77b4; stroke-opacity: 0.5"/>
     <use xlink:href="#m7a5d9f1917" x="421.499307" y="126.437164" style="fill: #1f77b4; fill-opacity: 0.5; stroke: #1f77b4; stroke-opacity: 0.5"/>
     <use xlink:href="#m7a5d9f1917" x="417.758884" y="121.418122" style="fill: #1f77b4; fill-opacity: 0.5; stroke: #1f77b4; stroke-opacity: 0.5"/>
     <use xlink:href="#m7a5d9f1917" x="417.758884" y="116.399081" style="fill: #1f77b4; fill-opacity: 0.5; stroke: #1f77b4; stroke-opacity: 0.5"/>
     <use xlink:href="#m7a5d9f1917" x="391.575909" y="126.437164" style="fill: #1f77b4; fill-opacity: 0.5; stroke: #1f77b4; stroke-opacity: 0.5"/>
     <use xlink:href="#m7a5d9f1917" x="421.499307" y="126.437164" style="fill: #1f77b4; fill-opacity: 0.5; stroke: #1f77b4; stroke-opacity: 0.5"/>
     <use xlink:href="#m7a5d9f1917" x="406.537617" y="121.418122" style="fill: #1f77b4; fill-opacity: 0.5; stroke: #1f77b4; stroke-opacity: 0.5"/>
     <use xlink:href="#m7a5d9f1917" x="410.278039" y="131.456205" style="fill: #1f77b4; fill-opacity: 0.5; stroke: #1f77b4; stroke-opacity: 0.5"/>
     <use xlink:href="#m7a5d9f1917" x="406.537617" y="126.437164" style="fill: #1f77b4; fill-opacity: 0.5; stroke: #1f77b4; stroke-opacity: 0.5"/>
    </g>
   </g>
   <g id="PathCollection_30">
    <g clip-path="url(#paf0e9abc41)">
     <use xlink:href="#mcb077b1e97" x="455.163145" y="66.208672" style="fill: #2ca02c; fill-opacity: 0.5; stroke: #2ca02c; stroke-opacity: 0.5"/>
     <use xlink:href="#mcb077b1e97" x="432.720592" y="71.227714" style="fill: #2ca02c; fill-opacity: 0.5; stroke: #2ca02c; stroke-opacity: 0.5"/>
     <use xlink:href="#mcb077b1e97" x="451.422722" y="61.18963" style="fill: #2ca02c; fill-opacity: 0.5; stroke: #2ca02c; stroke-opacity: 0.5"/>
     <use xlink:href="#mcb077b1e97" x="451.422722" y="86.284835" style="fill: #2ca02c; fill-opacity: 0.5; stroke: #2ca02c; stroke-opacity: 0.5"/>
     <use xlink:href="#mcb077b1e97" x="436.461015" y="71.227714" style="fill: #2ca02c; fill-opacity: 0.5; stroke: #2ca02c; stroke-opacity: 0.5"/>
     <use xlink:href="#mcb077b1e97" x="462.644008" y="61.18963" style="fill: #2ca02c; fill-opacity: 0.5; stroke: #2ca02c; stroke-opacity: 0.5"/>
     <use xlink:href="#mcb077b1e97" x="428.98017" y="61.18963" style="fill: #2ca02c; fill-opacity: 0.5; stroke: #2ca02c; stroke-opacity: 0.5"/>
     <use xlink:href="#mcb077b1e97" x="481.346138" y="66.208672" style="fill: #2ca02c; fill-opacity: 0.5; stroke: #2ca02c; stroke-opacity: 0.5"/>
     <use xlink:href="#mcb077b1e97" x="488.826983" y="66.208672" style="fill: #2ca02c; fill-opacity: 0.5; stroke: #2ca02c; stroke-opacity: 0.5"/>
     <use xlink:href="#mcb077b1e97" x="477.605698" y="51.151545" style="fill: #2ca02c; fill-opacity: 0.5; stroke: #2ca02c; stroke-opacity: 0.5"/>
    </g>
   </g>
   <g id="PathCollection_31">
    <g clip-path="url(#paf0e9abc41)">
     <use xlink:href="#m78d12e28bc" x="481.346138" y="21.037303" style="fill: #8c564b; fill-opacity: 0.5; stroke: #8c564b; stroke-opacity: 0.5"/>
     <use xlink:href="#m78d12e28bc" x="485.08656" y="21.037303" style="fill: #8c564b; fill-opacity: 0.5; stroke: #8c564b; stroke-opacity: 0.5"/>
     <use xlink:href="#m78d12e28bc" x="496.307828" y="46.132509" style="fill: #8c564b; fill-opacity: 0.5; stroke: #8c564b; stroke-opacity: 0.5"/>
     <use xlink:href="#m78d12e28bc" x="455.163145" y="66.208672" style="fill: #8c564b; fill-opacity: 0.5; stroke: #8c564b; stroke-opacity: 0.5"/>
     <use xlink:href="#m78d12e28bc" x="485.08656" y="31.075388" style="fill: #8c564b; fill-opacity: 0.5; stroke: #8c564b; stroke-opacity: 0.5"/>
     <use xlink:href="#m78d12e28bc" x="462.644008" y="16.018255" style="fill: #8c564b; fill-opacity: 0.5; stroke: #8c564b; stroke-opacity: 0.5"/>
     <use xlink:href="#m78d12e28bc" x="462.644008" y="61.18963" style="fill: #8c564b; fill-opacity: 0.5; stroke: #8c564b; stroke-opacity: 0.5"/>
     <use xlink:href="#m78d12e28bc" x="485.08656" y="21.037303" style="fill: #8c564b; fill-opacity: 0.5; stroke: #8c564b; stroke-opacity: 0.5"/>
     <use xlink:href="#m78d12e28bc" x="451.422722" y="61.18963" style="fill: #8c564b; fill-opacity: 0.5; stroke: #8c564b; stroke-opacity: 0.5"/>
     <use xlink:href="#m78d12e28bc" x="410.278039" y="51.151545" style="fill: #8c564b; fill-opacity: 0.5; stroke: #8c564b; stroke-opacity: 0.5"/>
    </g>
   </g>
   <g id="PathCollection_32">
    <g clip-path="url(#paf0e9abc41)">
     <use xlink:href="#mbd16b6d330" x="473.865293" y="34.588725" style="stroke: #000000"/>
    </g>
   </g>
   <g id="patch_35">
    <path d="M 462.414842 29.518215 
C 461.847095 31.826689 462.509017 34.575186 464.254827 37.158381 
C 466.000637 39.741576 468.687798 41.948563 471.724493 43.293278 
C 474.761188 44.637993 477.899485 45.010646 480.44821 44.329165 
C 482.996936 43.647685 484.747997 41.96771 485.315744 39.659235 
C 485.883491 37.350761 485.221569 34.602264 483.475759 32.019069 
C 481.729949 29.435874 479.042788 27.228888 476.006093 25.884173 
C 472.969398 24.539458 469.831101 24.166804 467.282376 24.848285 
C 464.73365 25.529766 462.982589 27.209741 462.414842 29.518215 
L 462.414842 29.518215 
z
" clip-path="url(#paf0e9abc41)" style="fill: none; stroke: #70453c; stroke-width: 2; stroke-linejoin: miter"/>
   </g>
   <g id="PathCollection_33">
    <g clip-path="url(#paf0e9abc41)">
     <use xlink:href="#mbd16b6d330" x="455.163145" y="57.286004" style="stroke: #000000"/>
    </g>
   </g>
   <g id="patch_36">
    <path d="M 445.372395 64.408177 
C 446.328704 66.775191 448.277589 68.29514 450.78983 68.633273 
C 453.302071 68.971406 456.172556 68.100115 458.769093 66.211293 
C 461.36563 64.322471 463.476224 61.570331 464.63604 58.561001 
C 465.795857 55.55167 465.910203 52.530847 464.953894 50.163832 
C 463.997586 47.796818 462.048701 46.276869 459.53646 45.938736 
C 457.024219 45.600603 454.153734 46.471894 451.557197 48.360716 
C 448.96066 50.249538 446.850066 53.001678 445.690249 56.011008 
C 444.530433 59.020339 444.416087 62.041162 445.372395 64.408177 
L 445.372395 64.408177 
z
" clip-path="url(#paf0e9abc41)" style="fill: none; stroke: #238023; stroke-width: 2; stroke-linejoin: miter"/>
   </g>
   <g id="PathCollection_34">
    <g clip-path="url(#paf0e9abc41)">
     <use xlink:href="#mbd16b6d330" x="422.434417" y="81.265817" style="stroke: #000000"/>
    </g>
   </g>
   <g id="patch_37">
    <path d="M 411.129838 78.616101 
C 410.886122 80.488239 411.843478 82.563141 413.791058 84.383835 
C 415.738637 86.20453 418.51743 87.622364 421.51544 88.325077 
C 424.513449 89.02779 427.485901 88.958008 429.778146 88.1311 
C 432.070392 87.304191 433.49528 85.78767 433.738996 83.915532 
C 433.982711 82.043395 433.025356 79.968492 431.077776 78.147798 
C 429.130197 76.327104 426.351404 74.909269 423.353394 74.206556 
C 420.355385 73.503843 417.382933 73.573626 415.090688 74.400534 
C 412.798442 75.227442 411.373554 76.743963 411.129838 78.616101 
L 411.129838 78.616101 
z
" clip-path="url(#paf0e9abc41)" style="fill: none; stroke: #238023; stroke-width: 2; stroke-linejoin: miter"/>
   </g>
   <g id="PathCollection_35">
    <g clip-path="url(#paf0e9abc41)">
     <use xlink:href="#mbd16b6d330" x="478.727691" y="33.083098" style="stroke: #000000"/>
    </g>
   </g>
   <g id="patch_38">
    <path d="M 458.650232 38.996718 
C 459.067039 41.544662 461.582319 43.365495 465.64211 44.058201 
C 469.701901 44.750907 474.974739 44.258928 480.299343 42.690618 
C 485.623948 41.122308 490.565587 38.605711 494.035924 35.69508 
C 497.50626 32.784449 499.221956 29.717423 498.805149 27.169479 
C 498.388342 24.621535 495.873062 22.800701 491.813271 22.107995 
C 487.75348 21.41529 482.480642 21.907268 477.156038 23.475578 
C 471.831434 25.043888 466.889794 27.560485 463.419457 30.471116 
C 459.949121 33.381747 458.233425 36.448774 458.650232 38.996718 
L 458.650232 38.996718 
z
" clip-path="url(#paf0e9abc41)" style="fill: none; stroke: #70453c; stroke-width: 2; stroke-linejoin: miter"/>
   </g>
   <g id="PathCollection_36">
    <g clip-path="url(#paf0e9abc41)">
     <use xlink:href="#mbd16b6d330" x="411.987809" y="124.859815" style="stroke: #000000"/>
    </g>
   </g>
   <g id="patch_39">
    <path d="M 399.814598 126.446257 
C 399.931852 128.066226 401.326965 129.452907 403.692681 130.300898 
C 406.058396 131.148889 409.201564 131.388956 412.429937 130.968227 
C 415.65831 130.547497 418.708307 129.500323 420.908201 128.057331 
C 423.108094 126.614339 424.278274 124.893344 424.16102 123.273374 
C 424.043766 121.653405 422.648653 120.266724 420.282938 119.418733 
C 417.917222 118.570742 414.774055 118.330675 411.545681 118.751404 
C 408.317308 119.172134 405.267312 120.219308 403.067418 121.6623 
C 400.867524 123.105292 399.697345 124.826287 399.814598 126.446257 
L 399.814598 126.446257 
z
" clip-path="url(#paf0e9abc41)" style="fill: none; stroke: #195f90; stroke-width: 2; stroke-linejoin: miter"/>
   </g>
   <g id="PathCollection_37">
    <g clip-path="url(#paf0e9abc41)">
     <use xlink:href="#mbd16b6d330" x="475.111993" y="47.805928" style="stroke: #000000"/>
    </g>
   </g>
   <g id="patch_40">
    <path d="M 458.058906 46.676418 
C 457.882979 51.458829 459.511054 56.165021 462.584567 59.758509 
C 465.65808 63.351998 469.926092 65.539391 474.448623 65.83894 
C 478.971155 66.13849 483.378961 64.525739 486.701274 61.355877 
C 490.023586 58.186015 491.989153 53.717848 492.165081 48.935437 
C 492.341008 44.153026 490.712933 39.446835 487.63942 35.853346 
C 484.565907 32.259858 480.297895 30.072465 475.775364 29.772915 
C 471.252832 29.473366 466.845026 31.086117 463.522713 34.255978 
C 460.200401 37.42584 458.234834 41.894007 458.058906 46.676418 
L 458.058906 46.676418 
z
" clip-path="url(#paf0e9abc41)" style="fill: none; stroke: #70453c; stroke-width: 2; stroke-linejoin: miter"/>
   </g>
   <g id="PathCollection_38">
    <g clip-path="url(#paf0e9abc41)">
     <use xlink:href="#mbd16b6d330" x="441.604254" y="61.816863" style="stroke: #000000"/>
    </g>
   </g>
   <g id="patch_41">
    <path d="M 427.044298 80.602334 
C 428.194162 82.206996 430.831214 81.766796 434.374674 79.378683 
C 437.918134 76.990569 442.078694 72.84952 445.940039 67.867555 
C 449.801385 62.88559 453.048253 57.469463 454.96556 52.812014 
C 456.882867 48.154565 457.314073 44.636053 456.164209 43.031391 
C 455.014345 41.426729 452.377294 41.866929 448.833834 44.255043 
C 445.290374 46.643156 441.129814 50.784205 437.268468 55.76617 
C 433.407123 60.748135 430.160254 66.164262 428.242947 70.821711 
C 426.32564 75.47916 425.894435 78.997672 427.044298 80.602334 
L 427.044298 80.602334 
z
" clip-path="url(#paf0e9abc41)" style="fill: none; stroke: #238023; stroke-width: 2; stroke-linejoin: miter"/>
   </g>
   <g id="PathCollection_39">
    <g clip-path="url(#paf0e9abc41)">
     <use xlink:href="#mbd16b6d330" x="443.548118" y="64.359946" style="stroke: #000000"/>
    </g>
   </g>
   <g id="patch_42">
    <path d="M 452.822319 46.500531 
C 451.057694 44.850617 448.387916 45.149838 445.400975 47.332293 
C 442.414034 49.514749 439.353799 53.402252 436.894252 58.138624 
C 434.434705 62.874996 432.776657 68.073534 432.285273 72.589321 
C 431.79389 77.105107 432.50929 80.569448 434.273916 82.219362 
C 436.038542 83.869276 438.708319 83.570055 441.695261 81.387599 
C 444.682202 79.205144 447.742437 75.317641 450.201984 70.581269 
C 452.661531 65.844896 454.319579 60.646358 454.810962 56.130572 
C 455.302346 51.614785 454.586945 48.150445 452.822319 46.500531 
L 452.822319 46.500531 
z
" clip-path="url(#paf0e9abc41)" style="fill: none; stroke: #238023; stroke-width: 2; stroke-linejoin: miter"/>
   </g>
   <g id="PathCollection_40">
    <g clip-path="url(#paf0e9abc41)">
     <use xlink:href="#mbd16b6d330" x="433.468641" y="121.418097" style="stroke: #000000"/>
    </g>
   </g>
   <g id="patch_43">
    <path d="M 425.537458 118.546776 
C 425.102368 120.710665 425.520719 123.088758 426.700374 125.157308 
C 427.880029 127.225858 429.724675 128.815977 431.828049 129.57746 
C 433.931423 130.338943 436.121795 130.209618 437.916761 129.217968 
C 439.711726 128.226317 440.964734 126.453305 441.399824 124.289417 
C 441.834914 122.125528 441.416563 119.747435 440.236908 117.678885 
C 439.057253 115.610335 437.212607 114.020216 435.109233 113.258733 
C 433.005859 112.49725 430.815487 112.626575 429.020521 113.618225 
C 427.225556 114.609876 425.972548 116.382888 425.537458 118.546776 
L 425.537458 118.546776 
z
" clip-path="url(#paf0e9abc41)" style="fill: none; stroke: #195f90; stroke-width: 2; stroke-linejoin: miter"/>
   </g>
   <g id="PathCollection_41">
    <g clip-path="url(#paf0e9abc41)">
     <use xlink:href="#mbd16b6d330" x="511.269554" y="24.383328" style="stroke: #000000"/>
    </g>
   </g>
   <g id="patch_44">
    <path d="M 502.745016 23.845178 
C 502.685043 25.555692 503.525717 27.253081 505.081889 28.563515 
C 506.638061 29.873949 508.782678 30.690436 511.043412 30.833155 
C 513.304146 30.975874 515.496418 30.433172 517.137405 29.324573 
C 518.778393 28.215975 519.734117 26.631991 519.794091 24.921477 
C 519.854064 23.210963 519.013391 21.513574 517.457218 20.20314 
C 515.901046 18.892706 513.756429 18.076219 511.495695 17.9335 
C 509.234962 17.790781 507.04269 18.333483 505.401702 19.442082 
C 503.760714 20.55068 502.80499 22.134664 502.745016 23.845178 
L 502.745016 23.845178 
z
" clip-path="url(#paf0e9abc41)" style="fill: none; stroke: #70453c; stroke-width: 2; stroke-linejoin: miter"/>
   </g>
   <g id="PathCollection_42">
    <g clip-path="url(#paf0e9abc41)">
     <use xlink:href="#mbd16b6d330" x="474.613306" y="59.182093" style="stroke: #000000"/>
    </g>
   </g>
   <g id="patch_45">
    <path d="M 458.059438 73.424111 
C 458.868786 75.117912 461.389314 75.241939 465.065905 73.768876 
C 468.742496 72.295812 473.274972 69.345928 477.665109 65.568901 
C 482.055247 61.791873 485.944609 57.49608 488.476609 53.62762 
C 491.00861 49.75916 491.976522 46.633876 491.167174 44.940075 
C 490.357826 43.246273 487.837299 43.122247 484.160708 44.59531 
C 480.484117 46.068373 475.95164 49.018258 471.561503 52.795285 
C 467.171366 56.572312 463.282003 60.868105 460.750003 64.736565 
C 458.218003 68.605025 457.25009 71.73031 458.059438 73.424111 
L 458.059438 73.424111 
z
" clip-path="url(#paf0e9abc41)" style="fill: none; stroke: #70453c; stroke-width: 2; stroke-linejoin: miter"/>
   </g>
   <g id="matplotlib.axis_5">
    <g id="xtick_7">
     <g id="line2d_14">
      <g>
       <use xlink:href="#m6e95a59da8" x="414.018462" y="137.228102" style="stroke: #000000; stroke-width: 0.8"/>
      </g>
     </g>
     <g id="text_18">
      <!-- 5 -->
      <g transform="translate(410.837212 151.82654) scale(0.1 -0.1)">
       <use xlink:href="#DejaVuSans-35"/>
      </g>
     </g>
    </g>
    <g id="xtick_8">
     <g id="line2d_15">
      <g>
       <use xlink:href="#m6e95a59da8" x="451.422722" y="137.228102" style="stroke: #000000; stroke-width: 0.8"/>
      </g>
     </g>
     <g id="text_19">
      <!-- 6 -->
      <g transform="translate(448.241472 151.82654) scale(0.1 -0.1)">
       <use xlink:href="#DejaVuSans-36"/>
      </g>
     </g>
    </g>
    <g id="xtick_9">
     <g id="line2d_16">
      <g>
       <use xlink:href="#m6e95a59da8" x="488.826983" y="137.228102" style="stroke: #000000; stroke-width: 0.8"/>
      </g>
     </g>
     <g id="text_20">
      <!-- 7 -->
      <g transform="translate(485.645733 151.82654) scale(0.1 -0.1)">
       <use xlink:href="#DejaVuSans-37"/>
      </g>
     </g>
    </g>
    <g id="text_21">
     <!-- Feature 1 -->
     <g transform="translate(436.756875 163.984977) scale(0.08 -0.08)">
      <use xlink:href="#DejaVuSans-46"/>
      <use xlink:href="#DejaVuSans-65" x="52.019531"/>
      <use xlink:href="#DejaVuSans-61" x="113.542969"/>
      <use xlink:href="#DejaVuSans-74" x="174.822266"/>
      <use xlink:href="#DejaVuSans-75" x="214.03125"/>
      <use xlink:href="#DejaVuSans-72" x="277.410156"/>
      <use xlink:href="#DejaVuSans-65" x="316.273438"/>
      <use xlink:href="#DejaVuSans-20" x="377.796875"/>
      <use xlink:href="#DejaVuSans-31" x="409.583984"/>
     </g>
    </g>
   </g>
   <g id="matplotlib.axis_6">
    <g id="ytick_8">
     <g id="line2d_17">
      <g>
       <use xlink:href="#m89cb8e38c3" x="385.165" y="136.475246" style="stroke: #000000; stroke-width: 0.8"/>
      </g>
     </g>
     <g id="text_22">
      <!-- 0 -->
      <g transform="translate(371.8025 140.274465) scale(0.1 -0.1)">
       <defs>
        <path id="DejaVuSans-30" d="M 2034 4250 
Q 1547 4250 1301 3770 
Q 1056 3291 1056 2328 
Q 1056 1369 1301 889 
Q 1547 409 2034 409 
Q 2525 409 2770 889 
Q 3016 1369 3016 2328 
Q 3016 3291 2770 3770 
Q 2525 4250 2034 4250 
z
M 2034 4750 
Q 2819 4750 3233 4129 
Q 3647 3509 3647 2328 
Q 3647 1150 3233 529 
Q 2819 -91 2034 -91 
Q 1250 -91 836 529 
Q 422 1150 422 2328 
Q 422 3509 836 4129 
Q 1250 4750 2034 4750 
z
" transform="scale(0.015625)"/>
       </defs>
       <use xlink:href="#DejaVuSans-30"/>
      </g>
     </g>
    </g>
    <g id="ytick_9">
     <g id="line2d_18">
      <g>
       <use xlink:href="#m89cb8e38c3" x="385.165" y="111.38004" style="stroke: #000000; stroke-width: 0.8"/>
      </g>
     </g>
     <g id="text_23">
      <!-- 0 -->
      <g transform="translate(371.8025 115.179259) scale(0.1 -0.1)">
       <use xlink:href="#DejaVuSans-30"/>
      </g>
     </g>
    </g>
    <g id="ytick_10">
     <g id="line2d_19">
      <g>
       <use xlink:href="#m89cb8e38c3" x="385.165" y="86.284835" style="stroke: #000000; stroke-width: 0.8"/>
      </g>
     </g>
     <g id="text_24">
      <!-- 1 -->
      <g transform="translate(371.8025 90.084054) scale(0.1 -0.1)">
       <use xlink:href="#DejaVuSans-31"/>
      </g>
     </g>
    </g>
    <g id="ytick_11">
     <g id="line2d_20">
      <g>
       <use xlink:href="#m89cb8e38c3" x="385.165" y="61.18963" style="stroke: #000000; stroke-width: 0.8"/>
      </g>
     </g>
     <g id="text_25">
      <!-- 1 -->
      <g transform="translate(371.8025 64.988848) scale(0.1 -0.1)">
       <use xlink:href="#DejaVuSans-31"/>
      </g>
     </g>
    </g>
    <g id="ytick_12">
     <g id="line2d_21">
      <g>
       <use xlink:href="#m89cb8e38c3" x="385.165" y="36.094424" style="stroke: #000000; stroke-width: 0.8"/>
      </g>
     </g>
     <g id="text_26">
      <!-- 2 -->
      <g transform="translate(371.8025 39.893643) scale(0.1 -0.1)">
       <use xlink:href="#DejaVuSans-32"/>
      </g>
     </g>
    </g>
    <g id="ytick_13">
     <g id="line2d_22">
      <g>
       <use xlink:href="#m89cb8e38c3" x="385.165" y="10.999219" style="stroke: #000000; stroke-width: 0.8"/>
      </g>
     </g>
     <g id="text_27">
      <!-- 2 -->
      <g transform="translate(371.8025 14.798437) scale(0.1 -0.1)">
       <use xlink:href="#DejaVuSans-32"/>
      </g>
     </g>
    </g>
    <g id="text_28">
     <!-- Feature 4 -->
     <g transform="translate(366.13875 92.665355) rotate(-90) scale(0.08 -0.08)">
      <use xlink:href="#DejaVuSans-46"/>
      <use xlink:href="#DejaVuSans-65" x="52.019531"/>
      <use xlink:href="#DejaVuSans-61" x="113.542969"/>
      <use xlink:href="#DejaVuSans-74" x="174.822266"/>
      <use xlink:href="#DejaVuSans-75" x="214.03125"/>
      <use xlink:href="#DejaVuSans-72" x="277.410156"/>
      <use xlink:href="#DejaVuSans-65" x="316.273438"/>
      <use xlink:href="#DejaVuSans-20" x="377.796875"/>
      <use xlink:href="#DejaVuSans-34" x="409.583984"/>
     </g>
    </g>
   </g>
   <g id="patch_46">
    <path d="M 385.165 137.228102 
L 385.165 10.246358 
" style="fill: none; stroke: #000000; stroke-width: 0.8; stroke-linejoin: miter; stroke-linecap: square"/>
   </g>
   <g id="patch_47">
    <path d="M 526.205 137.228102 
L 526.205 10.246358 
" style="fill: none; stroke: #000000; stroke-width: 0.8; stroke-linejoin: miter; stroke-linecap: square"/>
   </g>
   <g id="patch_48">
    <path d="M 385.165 137.228102 
L 526.205 137.228102 
" style="fill: none; stroke: #000000; stroke-width: 0.8; stroke-linejoin: miter; stroke-linecap: square"/>
   </g>
   <g id="patch_49">
    <path d="M 385.165 10.246358 
L 526.205 10.246358 
" style="fill: none; stroke: #000000; stroke-width: 0.8; stroke-linejoin: miter; stroke-linecap: square"/>
   </g>
  </g>
 </g>
 <defs>
  <clipPath id="p6d536157f1">
   <rect x="32.305" y="10.246358" width="141.04" height="126.981745"/>
  </clipPath>
  <clipPath id="p68a70cc863">
   <rect x="208.735" y="10.246358" width="141.04" height="126.981745"/>
  </clipPath>
  <clipPath id="paf0e9abc41">
   <rect x="385.165" y="10.246358" width="141.04" height="126.981745"/>
  </clipPath>
 </defs>
</svg>
