<?xml version="1.0" encoding="utf-8" standalone="no"?>
<!DOCTYPE svg PUBLIC "-//W3C//DTD SVG 1.1//EN"
  "http://www.w3.org/Graphics/SVG/1.1/DTD/svg11.dtd">
<svg xmlns:xlink="http://www.w3.org/1999/xlink" width="554.4pt" height="172.940625pt" viewBox="0 0 554.4 172.940625" xmlns="http://www.w3.org/2000/svg" version="1.1">
 <metadata>
  <rdf:RDF xmlns:dc="http://purl.org/dc/elements/1.1/" xmlns:cc="http://creativecommons.org/ns#" xmlns:rdf="http://www.w3.org/1999/02/22-rdf-syntax-ns#">
   <cc:Work>
    <dc:type rdf:resource="http://purl.org/dc/dcmitype/StillImage"/>
    <dc:date>2023-12-16T17:04:28.087879</dc:date>
    <dc:format>image/svg+xml</dc:format>
    <dc:creator>
     <cc:Agent>
      <dc:title>Matplotlib v3.8.2, https://matplotlib.org/</dc:title>
     </cc:Agent>
    </dc:creator>
   </cc:Work>
  </rdf:RDF>
 </metadata>
 <defs>
  <style type="text/css">*{stroke-linejoin: round; stroke-linecap: butt}</style>
 </defs>
 <g id="figure_1">
  <g id="patch_1">
   <path d="M 0 172.940625 
L 554.4 172.940625 
L 554.4 0 
L 0 0 
z
" style="fill: #ffffff"/>
  </g>
  <g id="axes_1">
   <g id="patch_2">
    <path d="M 53.3 137.32 
L 194.34 137.32 
L 194.34 7.2 
L 53.3 7.2 
z
" style="fill: #ffffff"/>
   </g>
   <g id="PathCollection_1">
    <defs>
     <path id="md592072506" d="M 0 3 
C 0.795609 3 1.55874 2.683901 2.12132 2.12132 
C 2.683901 1.55874 3 0.795609 3 0 
C 3 -0.795609 2.683901 -1.55874 2.12132 -2.12132 
C 1.55874 -2.683901 0.795609 -3 0 -3 
C -0.795609 -3 -1.55874 -2.683901 -2.12132 -2.12132 
C -2.683901 -1.55874 -3 -0.795609 -3 0 
C -3 0.795609 -2.683901 1.55874 -2.12132 2.12132 
C -1.55874 2.683901 -0.795609 3 0 3 
z
" style="stroke: #1f77b4; stroke-opacity: 0.5"/>
    </defs>
    <g clip-path="url(#p6efdd70cec)">
     <use xlink:href="#md592072506" x="76.452454" y="75.47368" style="fill: #1f77b4; fill-opacity: 0.5; stroke: #1f77b4; stroke-opacity: 0.5"/>
     <use xlink:href="#md592072506" x="65.55957" y="81.709587" style="fill: #1f77b4; fill-opacity: 0.5; stroke: #1f77b4; stroke-opacity: 0.5"/>
     <use xlink:href="#md592072506" x="90.976318" y="81.709587" style="fill: #1f77b4; fill-opacity: 0.5; stroke: #1f77b4; stroke-opacity: 0.5"/>
     <use xlink:href="#md592072506" x="98.23824" y="13.114545" style="fill: #1f77b4; fill-opacity: 0.5; stroke: #1f77b4; stroke-opacity: 0.5"/>
     <use xlink:href="#md592072506" x="116.393065" y="31.822283" style="fill: #1f77b4; fill-opacity: 0.5; stroke: #1f77b4; stroke-opacity: 0.5"/>
     <use xlink:href="#md592072506" x="94.607279" y="50.53002" style="fill: #1f77b4; fill-opacity: 0.5; stroke: #1f77b4; stroke-opacity: 0.5"/>
     <use xlink:href="#md592072506" x="87.345356" y="75.47368" style="fill: #1f77b4; fill-opacity: 0.5; stroke: #1f77b4; stroke-opacity: 0.5"/>
     <use xlink:href="#md592072506" x="94.607279" y="31.822283" style="fill: #1f77b4; fill-opacity: 0.5; stroke: #1f77b4; stroke-opacity: 0.5"/>
     <use xlink:href="#md592072506" x="76.452454" y="44.294113" style="fill: #1f77b4; fill-opacity: 0.5; stroke: #1f77b4; stroke-opacity: 0.5"/>
    </g>
   </g>
   <g id="PathCollection_2">
    <defs>
     <path id="m98ac7804b7" d="M 0 3 
C 0.795609 3 1.55874 2.683901 2.12132 2.12132 
C 2.683901 1.55874 3 0.795609 3 0 
C 3 -0.795609 2.683901 -1.55874 2.12132 -2.12132 
C 1.55874 -2.683901 0.795609 -3 0 -3 
C -0.795609 -3 -1.55874 -2.683901 -2.12132 -2.12132 
C -2.683901 -1.55874 -3 -0.795609 -3 0 
C -3 0.795609 -2.683901 1.55874 -2.12132 2.12132 
C -1.55874 2.683901 -0.795609 3 0 3 
z
" style="stroke: #2ca02c; stroke-opacity: 0.5"/>
    </defs>
    <g clip-path="url(#p6efdd70cec)">
     <use xlink:href="#m98ac7804b7" x="149.071753" y="87.945495" style="fill: #2ca02c; fill-opacity: 0.5; stroke: #2ca02c; stroke-opacity: 0.5"/>
     <use xlink:href="#m98ac7804b7" x="130.916928" y="94.181417" style="fill: #2ca02c; fill-opacity: 0.5; stroke: #2ca02c; stroke-opacity: 0.5"/>
     <use xlink:href="#m98ac7804b7" x="116.393065" y="94.181417" style="fill: #2ca02c; fill-opacity: 0.5; stroke: #2ca02c; stroke-opacity: 0.5"/>
     <use xlink:href="#m98ac7804b7" x="120.024044" y="100.417325" style="fill: #2ca02c; fill-opacity: 0.5; stroke: #2ca02c; stroke-opacity: 0.5"/>
     <use xlink:href="#m98ac7804b7" x="120.024044" y="100.417325" style="fill: #2ca02c; fill-opacity: 0.5; stroke: #2ca02c; stroke-opacity: 0.5"/>
     <use xlink:href="#m98ac7804b7" x="141.80983" y="69.237758" style="fill: #2ca02c; fill-opacity: 0.5; stroke: #2ca02c; stroke-opacity: 0.5"/>
     <use xlink:href="#m98ac7804b7" x="90.976318" y="125.360985" style="fill: #2ca02c; fill-opacity: 0.5; stroke: #2ca02c; stroke-opacity: 0.5"/>
     <use xlink:href="#m98ac7804b7" x="123.655005" y="69.237758" style="fill: #2ca02c; fill-opacity: 0.5; stroke: #2ca02c; stroke-opacity: 0.5"/>
     <use xlink:href="#m98ac7804b7" x="109.131142" y="112.889155" style="fill: #2ca02c; fill-opacity: 0.5; stroke: #2ca02c; stroke-opacity: 0.5"/>
     <use xlink:href="#m98ac7804b7" x="112.762104" y="87.945495" style="fill: #2ca02c; fill-opacity: 0.5; stroke: #2ca02c; stroke-opacity: 0.5"/>
     <use xlink:href="#m98ac7804b7" x="116.393065" y="87.945495" style="fill: #2ca02c; fill-opacity: 0.5; stroke: #2ca02c; stroke-opacity: 0.5"/>
     <use xlink:href="#m98ac7804b7" x="109.131142" y="119.125062" style="fill: #2ca02c; fill-opacity: 0.5; stroke: #2ca02c; stroke-opacity: 0.5"/>
    </g>
   </g>
   <g id="PathCollection_3">
    <defs>
     <path id="mcf4f0746c5" d="M 0 3 
C 0.795609 3 1.55874 2.683901 2.12132 2.12132 
C 2.683901 1.55874 3 0.795609 3 0 
C 3 -0.795609 2.683901 -1.55874 2.12132 -2.12132 
C 1.55874 -2.683901 0.795609 -3 0 -3 
C -0.795609 -3 -1.55874 -2.683901 -2.12132 -2.12132 
C -2.683901 -1.55874 -3 -0.795609 -3 0 
C -3 0.795609 -2.683901 1.55874 -2.12132 2.12132 
C -1.55874 2.683901 -0.795609 3 0 3 
z
" style="stroke: #8c564b; stroke-opacity: 0.5"/>
    </defs>
    <g clip-path="url(#p6efdd70cec)">
     <use xlink:href="#mcf4f0746c5" x="138.178868" y="87.945495" style="fill: #8c564b; fill-opacity: 0.5; stroke: #8c564b; stroke-opacity: 0.5"/>
     <use xlink:href="#mcf4f0746c5" x="156.333693" y="69.237758" style="fill: #8c564b; fill-opacity: 0.5; stroke: #8c564b; stroke-opacity: 0.5"/>
     <use xlink:href="#mcf4f0746c5" x="120.024044" y="94.181417" style="fill: #8c564b; fill-opacity: 0.5; stroke: #8c564b; stroke-opacity: 0.5"/>
     <use xlink:href="#mcf4f0746c5" x="159.964654" y="75.47368" style="fill: #8c564b; fill-opacity: 0.5; stroke: #8c564b; stroke-opacity: 0.5"/>
     <use xlink:href="#mcf4f0746c5" x="178.119479" y="94.181417" style="fill: #8c564b; fill-opacity: 0.5; stroke: #8c564b; stroke-opacity: 0.5"/>
     <use xlink:href="#mcf4f0746c5" x="170.857539" y="69.237758" style="fill: #8c564b; fill-opacity: 0.5; stroke: #8c564b; stroke-opacity: 0.5"/>
     <use xlink:href="#mcf4f0746c5" x="185.381402" y="81.709587" style="fill: #8c564b; fill-opacity: 0.5; stroke: #8c564b; stroke-opacity: 0.5"/>
     <use xlink:href="#mcf4f0746c5" x="138.178868" y="56.765928" style="fill: #8c564b; fill-opacity: 0.5; stroke: #8c564b; stroke-opacity: 0.5"/>
     <use xlink:href="#mcf4f0746c5" x="145.440791" y="81.709587" style="fill: #8c564b; fill-opacity: 0.5; stroke: #8c564b; stroke-opacity: 0.5"/>
    </g>
   </g>
   <g id="patch_3">
    <path d="M 136.07686 71.73998 
C 135.351031 74.665844 135.641475 78.194199 136.884225 81.547964 
C 138.126976 84.901729 140.220567 87.807086 142.703911 89.624161 
C 145.187255 91.441237 147.857596 92.021677 150.126824 91.237645 
C 152.396052 90.453613 154.078894 88.369122 154.804723 85.443258 
C 155.530552 82.517393 155.240108 78.989039 153.997357 75.635273 
C 152.754607 72.281508 150.661015 69.376152 148.177671 67.559076 
C 145.694328 65.742 143.023986 65.161561 140.754758 65.945593 
C 138.48553 66.729625 136.802689 68.814115 136.07686 71.73998 
L 136.07686 71.73998 
z
" clip-path="url(#p6efdd70cec)" style="fill: none; stroke: #238023; stroke-width: 2; stroke-linejoin: miter"/>
   </g>
   <g id="PathCollection_4">
    <defs>
     <path id="mb36ce44639" d="M 0 1.581139 
C 0.419323 1.581139 0.821528 1.41454 1.118034 1.118034 
C 1.41454 0.821528 1.581139 0.419323 1.581139 0 
C 1.581139 -0.419323 1.41454 -0.821528 1.118034 -1.118034 
C 0.821528 -1.41454 0.419323 -1.581139 0 -1.581139 
C -0.419323 -1.581139 -0.821528 -1.41454 -1.118034 -1.118034 
C -1.41454 -0.821528 -1.581139 -0.419323 -1.581139 0 
C -1.581139 0.419323 -1.41454 0.821528 -1.118034 1.118034 
C -0.821528 1.41454 -0.419323 1.581139 0 1.581139 
z
" style="stroke: #000000"/>
    </defs>
    <g clip-path="url(#p6efdd70cec)">
     <use xlink:href="#mb36ce44639" x="145.440791" y="78.591619" style="stroke: #000000"/>
    </g>
   </g>
   <g id="patch_4">
    <path d="M 130.458388 86.129787 
C 130.555693 88.631561 131.845085 90.893991 134.04259 92.418806 
C 136.240096 93.943621 139.166299 94.606324 142.176736 94.260965 
C 145.187174 93.915605 148.036057 92.590379 150.095953 90.577152 
C 152.155849 88.563925 153.258577 86.027068 153.161272 83.525295 
C 153.063967 81.023522 151.774575 78.761091 149.577069 77.236276 
C 147.379564 75.711462 144.453361 75.048758 141.442923 75.394118 
C 138.432486 75.739477 135.583602 77.064704 133.523706 79.077931 
C 131.46381 81.091158 130.361083 83.628014 130.458388 86.129787 
L 130.458388 86.129787 
z
" clip-path="url(#p6efdd70cec)" style="fill: none; stroke: #70453c; stroke-width: 2; stroke-linejoin: miter"/>
   </g>
   <g id="PathCollection_5">
    <g clip-path="url(#p6efdd70cec)">
     <use xlink:href="#mb36ce44639" x="141.80983" y="84.827541" style="stroke: #000000"/>
    </g>
   </g>
   <g id="patch_5">
    <path d="M 92.169937 75.47368 
C 92.169937 73.025163 91.087716 70.676602 89.161621 68.945239 
C 87.235526 67.213876 84.622815 66.24107 81.898905 66.24107 
C 79.174996 66.24107 76.562284 67.213876 74.636189 68.945239 
C 72.710094 70.676602 71.627874 73.025163 71.627874 75.47368 
C 71.627874 77.922197 72.710094 80.270758 74.636189 82.002121 
C 76.562284 83.733484 79.174996 84.70629 81.898905 84.70629 
C 84.622815 84.70629 87.235526 83.733484 89.161621 82.002121 
C 91.087716 80.270758 92.169937 77.922197 92.169937 75.47368 
L 92.169937 75.47368 
z
" clip-path="url(#p6efdd70cec)" style="fill: none; stroke: #195f90; stroke-width: 2; stroke-linejoin: miter"/>
   </g>
   <g id="PathCollection_6">
    <g clip-path="url(#p6efdd70cec)">
     <use xlink:href="#mb36ce44639" x="81.898905" y="75.47368" style="stroke: #000000"/>
    </g>
   </g>
   <g id="patch_6">
    <path d="M 96.824979 81.709587 
C 96.824979 81.027715 94.869692 80.373678 91.389749 79.891522 
C 87.909806 79.409365 83.189327 79.138454 78.267944 79.138454 
C 73.346561 79.138454 68.626082 79.409365 65.146139 79.891522 
C 61.666195 80.373678 59.710909 81.027715 59.710909 81.709587 
C 59.710909 82.39146 61.666195 83.045496 65.146139 83.527653 
C 68.626082 84.00981 73.346561 84.280721 78.267944 84.280721 
C 83.189327 84.280721 87.909806 84.00981 91.389749 83.527653 
C 94.869692 83.045496 96.824979 82.39146 96.824979 81.709587 
L 96.824979 81.709587 
z
" clip-path="url(#p6efdd70cec)" style="fill: none; stroke: #195f90; stroke-width: 2; stroke-linejoin: miter"/>
   </g>
   <g id="PathCollection_7">
    <g clip-path="url(#p6efdd70cec)">
     <use xlink:href="#mb36ce44639" x="78.267944" y="81.709587" style="stroke: #000000"/>
    </g>
   </g>
   <g id="patch_7">
    <path d="M 149.262627 71.289087 
C 149.158093 73.857933 149.994169 76.434298 151.58672 78.450767 
C 153.179271 80.467237 155.398272 81.759175 157.755014 82.042047 
C 160.111756 82.324919 162.413821 81.57563 164.154206 79.959202 
C 165.894592 78.342775 166.931203 75.991182 167.035737 73.422336 
C 167.140272 70.85349 166.304196 68.277125 164.711645 66.260655 
C 163.119094 64.244186 160.900092 62.952248 158.543351 62.669376 
C 156.186609 62.386504 153.884544 63.135793 152.144158 64.75222 
C 150.403773 66.368648 149.367162 68.72024 149.262627 71.289087 
L 149.262627 71.289087 
z
" clip-path="url(#p6efdd70cec)" style="fill: none; stroke: #70453c; stroke-width: 2; stroke-linejoin: miter"/>
   </g>
   <g id="PathCollection_8">
    <g clip-path="url(#p6efdd70cec)">
     <use xlink:href="#mb36ce44639" x="158.149182" y="72.355711" style="stroke: #000000"/>
    </g>
   </g>
   <g id="patch_8">
    <path d="M 137.746322 94.181417 
C 137.746322 93.453231 136.26157 92.754771 133.619066 92.239866 
C 130.976562 91.724961 127.392053 91.435649 123.654988 91.435649 
C 119.917922 91.435649 116.333414 91.724961 113.69091 92.239866 
C 111.048405 92.754771 109.563654 93.453231 109.563654 94.181417 
C 109.563654 94.909604 111.048405 95.608063 113.69091 96.122969 
C 116.333414 96.637874 119.917922 96.927185 123.654988 96.927185 
C 127.392053 96.927185 130.976562 96.637874 133.619066 96.122969 
C 136.26157 95.608063 137.746322 94.909604 137.746322 94.181417 
L 137.746322 94.181417 
z
" clip-path="url(#p6efdd70cec)" style="fill: none; stroke: #238023; stroke-width: 2; stroke-linejoin: miter"/>
   </g>
   <g id="PathCollection_9">
    <g clip-path="url(#p6efdd70cec)">
     <use xlink:href="#mb36ce44639" x="123.654988" y="94.181417" style="stroke: #000000"/>
    </g>
   </g>
   <g id="patch_9">
    <path d="M 106.610465 108.578607 
C 106.906508 110.711995 108.221223 112.336405 110.265061 113.094078 
C 112.308898 113.851752 114.914988 113.680829 117.509368 112.618953 
C 120.103748 111.557077 122.4746 109.690946 124.09977 107.431553 
C 125.724941 105.17216 126.471742 102.703975 126.175699 100.570586 
C 125.879657 98.437198 124.564942 96.812788 122.521104 96.055115 
C 120.477266 95.297441 117.871177 95.468364 115.276797 96.53024 
C 112.682416 97.592116 110.311565 99.458247 108.686394 101.71764 
C 107.061224 103.977033 106.314423 106.445218 106.610465 108.578607 
L 106.610465 108.578607 
z
" clip-path="url(#p6efdd70cec)" style="fill: none; stroke: #238023; stroke-width: 2; stroke-linejoin: miter"/>
   </g>
   <g id="PathCollection_10">
    <g clip-path="url(#p6efdd70cec)">
     <use xlink:href="#mb36ce44639" x="116.393082" y="104.574596" style="stroke: #000000"/>
    </g>
   </g>
   <g id="patch_10">
    <path d="M 103.315337 41.176144 
C 103.315337 37.690606 102.397801 34.347357 100.764806 31.882709 
C 99.131811 29.418061 96.916683 28.033242 94.607279 28.033242 
C 92.297875 28.033242 90.082747 29.418061 88.449752 31.882709 
C 86.816757 34.347357 85.899221 37.690606 85.899221 41.176144 
C 85.899221 44.661682 86.816757 48.004931 88.449752 50.469579 
C 90.082747 52.934227 92.297875 54.319046 94.607279 54.319046 
C 96.916683 54.319046 99.131811 52.934227 100.764806 50.469579 
C 102.397801 48.004931 103.315337 44.661682 103.315337 41.176144 
L 103.315337 41.176144 
z
" clip-path="url(#p6efdd70cec)" style="fill: none; stroke: #195f90; stroke-width: 2; stroke-linejoin: miter"/>
   </g>
   <g id="PathCollection_11">
    <g clip-path="url(#p6efdd70cec)">
     <use xlink:href="#mb36ce44639" x="94.607279" y="41.176144" style="stroke: #000000"/>
    </g>
   </g>
   <g id="patch_11">
    <path d="M 86.36342 124.68057 
C 86.5101 127.110473 88.09329 129.184347 90.76431 130.445443 
C 93.43533 131.70654 96.976103 132.051898 100.606816 131.405455 
C 104.237528 130.759012 107.661749 129.173547 110.125332 126.998242 
C 112.588915 124.822937 113.89072 122.235395 113.74404 119.805491 
C 113.59736 117.375588 112.01417 115.301715 109.34315 114.040618 
C 106.67213 112.779521 103.131356 112.434164 99.500644 113.080607 
C 95.869931 113.72705 92.445711 115.312514 89.982128 117.487819 
C 87.518545 119.663125 86.21674 122.250667 86.36342 124.68057 
L 86.36342 124.68057 
z
" clip-path="url(#p6efdd70cec)" style="fill: none; stroke: #238023; stroke-width: 2; stroke-linejoin: miter"/>
   </g>
   <g id="PathCollection_12">
    <g clip-path="url(#p6efdd70cec)">
     <use xlink:href="#mb36ce44639" x="100.05373" y="122.243031" style="stroke: #000000"/>
    </g>
   </g>
   <g id="patch_12">
    <path d="M 168.309867 76.054697 
C 167.720351 79.071027 168.188504 82.560058 169.61122 85.75337 
C 171.033936 88.946682 173.295056 91.583555 175.896596 93.08325 
C 178.498135 94.582944 181.22769 94.823016 183.484106 93.750593 
C 185.740523 92.678169 187.339575 90.380809 187.929091 87.364478 
C 188.518606 84.348148 188.050454 80.859117 186.627738 77.665805 
C 185.205022 74.472493 182.943902 71.83562 180.342362 70.335925 
C 177.740823 68.836231 175.011268 68.596159 172.754852 69.668582 
C 170.498435 70.741006 168.899383 73.038366 168.309867 76.054697 
L 168.309867 76.054697 
z
" clip-path="url(#p6efdd70cec)" style="fill: none; stroke: #70453c; stroke-width: 2; stroke-linejoin: miter"/>
   </g>
   <g id="PathCollection_13">
    <g clip-path="url(#p6efdd70cec)">
     <use xlink:href="#mb36ce44639" x="178.119479" y="81.709587" style="stroke: #000000"/>
    </g>
   </g>
   <g id="patch_13">
    <path d="M 125.000005 87.945495 
C 125.000005 85.570929 123.901832 83.2933 121.947346 81.614228 
C 119.99286 79.935156 117.341636 78.991731 114.577576 78.991731 
C 111.813515 78.991731 109.162291 79.935156 107.207805 81.614228 
C 105.253319 83.2933 104.155146 85.570929 104.155146 87.945495 
C 104.155146 90.320061 105.253319 92.59769 107.207805 94.276762 
C 109.162291 95.955834 111.813515 96.899259 114.577576 96.899259 
C 117.341636 96.899259 119.99286 95.955834 121.947346 94.276762 
C 123.901832 92.59769 125.000005 90.320061 125.000005 87.945495 
L 125.000005 87.945495 
z
" clip-path="url(#p6efdd70cec)" style="fill: none; stroke: #238023; stroke-width: 2; stroke-linejoin: miter"/>
   </g>
   <g id="PathCollection_14">
    <g clip-path="url(#p6efdd70cec)">
     <use xlink:href="#mb36ce44639" x="114.577576" y="87.945495" style="stroke: #000000"/>
    </g>
   </g>
   <g id="matplotlib.axis_1">
    <g id="xtick_1">
     <g id="line2d_1">
      <defs>
       <path id="mb0ba4c5ebc" d="M 0 0 
L 0 3.5 
" style="stroke: #000000; stroke-width: 0.8"/>
      </defs>
      <g>
       <use xlink:href="#mb0ba4c5ebc" x="54.666668" y="137.32" style="stroke: #000000; stroke-width: 0.8"/>
      </g>
     </g>
     <g id="text_1">
      <!-- 4 -->
      <g transform="translate(51.485418 151.918437) scale(0.1 -0.1)">
       <defs>
        <path id="DejaVuSans-34" d="M 2419 4116 
L 825 1625 
L 2419 1625 
L 2419 4116 
z
M 2253 4666 
L 3047 4666 
L 3047 1625 
L 3713 1625 
L 3713 1100 
L 3047 1100 
L 3047 0 
L 2419 0 
L 2419 1100 
L 313 1100 
L 313 1709 
L 2253 4666 
z
" transform="scale(0.015625)"/>
       </defs>
       <use xlink:href="#DejaVuSans-34"/>
      </g>
     </g>
    </g>
    <g id="xtick_2">
     <g id="line2d_2">
      <g>
       <use xlink:href="#mb0ba4c5ebc" x="90.976318" y="137.32" style="stroke: #000000; stroke-width: 0.8"/>
      </g>
     </g>
     <g id="text_2">
      <!-- 5 -->
      <g transform="translate(87.795068 151.918437) scale(0.1 -0.1)">
       <defs>
        <path id="DejaVuSans-35" d="M 691 4666 
L 3169 4666 
L 3169 4134 
L 1269 4134 
L 1269 2991 
Q 1406 3038 1543 3061 
Q 1681 3084 1819 3084 
Q 2600 3084 3056 2656 
Q 3513 2228 3513 1497 
Q 3513 744 3044 326 
Q 2575 -91 1722 -91 
Q 1428 -91 1123 -41 
Q 819 9 494 109 
L 494 744 
Q 775 591 1075 516 
Q 1375 441 1709 441 
Q 2250 441 2565 725 
Q 2881 1009 2881 1497 
Q 2881 1984 2565 2268 
Q 2250 2553 1709 2553 
Q 1456 2553 1204 2497 
Q 953 2441 691 2322 
L 691 4666 
z
" transform="scale(0.015625)"/>
       </defs>
       <use xlink:href="#DejaVuSans-35"/>
      </g>
     </g>
    </g>
    <g id="xtick_3">
     <g id="line2d_3">
      <g>
       <use xlink:href="#mb0ba4c5ebc" x="127.285967" y="137.32" style="stroke: #000000; stroke-width: 0.8"/>
      </g>
     </g>
     <g id="text_3">
      <!-- 6 -->
      <g transform="translate(124.104717 151.918437) scale(0.1 -0.1)">
       <defs>
        <path id="DejaVuSans-36" d="M 2113 2584 
Q 1688 2584 1439 2293 
Q 1191 2003 1191 1497 
Q 1191 994 1439 701 
Q 1688 409 2113 409 
Q 2538 409 2786 701 
Q 3034 994 3034 1497 
Q 3034 2003 2786 2293 
Q 2538 2584 2113 2584 
z
M 3366 4563 
L 3366 3988 
Q 3128 4100 2886 4159 
Q 2644 4219 2406 4219 
Q 1781 4219 1451 3797 
Q 1122 3375 1075 2522 
Q 1259 2794 1537 2939 
Q 1816 3084 2150 3084 
Q 2853 3084 3261 2657 
Q 3669 2231 3669 1497 
Q 3669 778 3244 343 
Q 2819 -91 2113 -91 
Q 1303 -91 875 529 
Q 447 1150 447 2328 
Q 447 3434 972 4092 
Q 1497 4750 2381 4750 
Q 2619 4750 2861 4703 
Q 3103 4656 3366 4563 
z
" transform="scale(0.015625)"/>
       </defs>
       <use xlink:href="#DejaVuSans-36"/>
      </g>
     </g>
    </g>
    <g id="xtick_4">
     <g id="line2d_4">
      <g>
       <use xlink:href="#mb0ba4c5ebc" x="163.595616" y="137.32" style="stroke: #000000; stroke-width: 0.8"/>
      </g>
     </g>
     <g id="text_4">
      <!-- 7 -->
      <g transform="translate(160.414366 151.918437) scale(0.1 -0.1)">
       <defs>
        <path id="DejaVuSans-37" d="M 525 4666 
L 3525 4666 
L 3525 4397 
L 1831 0 
L 1172 0 
L 2766 4134 
L 525 4134 
L 525 4666 
z
" transform="scale(0.015625)"/>
       </defs>
       <use xlink:href="#DejaVuSans-37"/>
      </g>
     </g>
    </g>
    <g id="text_5">
     <!-- Feature 1 -->
     <g transform="translate(104.891875 164.076875) scale(0.08 -0.08)">
      <defs>
       <path id="DejaVuSans-46" d="M 628 4666 
L 3309 4666 
L 3309 4134 
L 1259 4134 
L 1259 2759 
L 3109 2759 
L 3109 2228 
L 1259 2228 
L 1259 0 
L 628 0 
L 628 4666 
z
" transform="scale(0.015625)"/>
       <path id="DejaVuSans-65" d="M 3597 1894 
L 3597 1613 
L 953 1613 
Q 991 1019 1311 708 
Q 1631 397 2203 397 
Q 2534 397 2845 478 
Q 3156 559 3463 722 
L 3463 178 
Q 3153 47 2828 -22 
Q 2503 -91 2169 -91 
Q 1331 -91 842 396 
Q 353 884 353 1716 
Q 353 2575 817 3079 
Q 1281 3584 2069 3584 
Q 2775 3584 3186 3129 
Q 3597 2675 3597 1894 
z
M 3022 2063 
Q 3016 2534 2758 2815 
Q 2500 3097 2075 3097 
Q 1594 3097 1305 2825 
Q 1016 2553 972 2059 
L 3022 2063 
z
" transform="scale(0.015625)"/>
       <path id="DejaVuSans-61" d="M 2194 1759 
Q 1497 1759 1228 1600 
Q 959 1441 959 1056 
Q 959 750 1161 570 
Q 1363 391 1709 391 
Q 2188 391 2477 730 
Q 2766 1069 2766 1631 
L 2766 1759 
L 2194 1759 
z
M 3341 1997 
L 3341 0 
L 2766 0 
L 2766 531 
Q 2569 213 2275 61 
Q 1981 -91 1556 -91 
Q 1019 -91 701 211 
Q 384 513 384 1019 
Q 384 1609 779 1909 
Q 1175 2209 1959 2209 
L 2766 2209 
L 2766 2266 
Q 2766 2663 2505 2880 
Q 2244 3097 1772 3097 
Q 1472 3097 1187 3025 
Q 903 2953 641 2809 
L 641 3341 
Q 956 3463 1253 3523 
Q 1550 3584 1831 3584 
Q 2591 3584 2966 3190 
Q 3341 2797 3341 1997 
z
" transform="scale(0.015625)"/>
       <path id="DejaVuSans-74" d="M 1172 4494 
L 1172 3500 
L 2356 3500 
L 2356 3053 
L 1172 3053 
L 1172 1153 
Q 1172 725 1289 603 
Q 1406 481 1766 481 
L 2356 481 
L 2356 0 
L 1766 0 
Q 1100 0 847 248 
Q 594 497 594 1153 
L 594 3053 
L 172 3053 
L 172 3500 
L 594 3500 
L 594 4494 
L 1172 4494 
z
" transform="scale(0.015625)"/>
       <path id="DejaVuSans-75" d="M 544 1381 
L 544 3500 
L 1119 3500 
L 1119 1403 
Q 1119 906 1312 657 
Q 1506 409 1894 409 
Q 2359 409 2629 706 
Q 2900 1003 2900 1516 
L 2900 3500 
L 3475 3500 
L 3475 0 
L 2900 0 
L 2900 538 
Q 2691 219 2414 64 
Q 2138 -91 1772 -91 
Q 1169 -91 856 284 
Q 544 659 544 1381 
z
M 1991 3584 
L 1991 3584 
z
" transform="scale(0.015625)"/>
       <path id="DejaVuSans-72" d="M 2631 2963 
Q 2534 3019 2420 3045 
Q 2306 3072 2169 3072 
Q 1681 3072 1420 2755 
Q 1159 2438 1159 1844 
L 1159 0 
L 581 0 
L 581 3500 
L 1159 3500 
L 1159 2956 
Q 1341 3275 1631 3429 
Q 1922 3584 2338 3584 
Q 2397 3584 2469 3576 
Q 2541 3569 2628 3553 
L 2631 2963 
z
" transform="scale(0.015625)"/>
       <path id="DejaVuSans-20" transform="scale(0.015625)"/>
       <path id="DejaVuSans-31" d="M 794 531 
L 1825 531 
L 1825 4091 
L 703 3866 
L 703 4441 
L 1819 4666 
L 2450 4666 
L 2450 531 
L 3481 531 
L 3481 0 
L 794 0 
L 794 531 
z
" transform="scale(0.015625)"/>
      </defs>
      <use xlink:href="#DejaVuSans-46"/>
      <use xlink:href="#DejaVuSans-65" x="52.019531"/>
      <use xlink:href="#DejaVuSans-61" x="113.542969"/>
      <use xlink:href="#DejaVuSans-74" x="174.822266"/>
      <use xlink:href="#DejaVuSans-75" x="214.03125"/>
      <use xlink:href="#DejaVuSans-72" x="277.410156"/>
      <use xlink:href="#DejaVuSans-65" x="316.273438"/>
      <use xlink:href="#DejaVuSans-20" x="377.796875"/>
      <use xlink:href="#DejaVuSans-31" x="409.583984"/>
     </g>
    </g>
   </g>
   <g id="matplotlib.axis_2">
    <g id="ytick_1">
     <g id="line2d_5">
      <defs>
       <path id="md91a6141a3" d="M 0 0 
L -3.5 0 
" style="stroke: #000000; stroke-width: 0.8"/>
      </defs>
      <g>
       <use xlink:href="#md91a6141a3" x="53.3" y="112.889155" style="stroke: #000000; stroke-width: 0.8"/>
      </g>
     </g>
     <g id="text_6">
      <!-- 2 -->
      <g transform="translate(39.9375 116.688373) scale(0.1 -0.1)">
       <defs>
        <path id="DejaVuSans-32" d="M 1228 531 
L 3431 531 
L 3431 0 
L 469 0 
L 469 531 
Q 828 903 1448 1529 
Q 2069 2156 2228 2338 
Q 2531 2678 2651 2914 
Q 2772 3150 2772 3378 
Q 2772 3750 2511 3984 
Q 2250 4219 1831 4219 
Q 1534 4219 1204 4116 
Q 875 4013 500 3803 
L 500 4441 
Q 881 4594 1212 4672 
Q 1544 4750 1819 4750 
Q 2544 4750 2975 4387 
Q 3406 4025 3406 3419 
Q 3406 3131 3298 2873 
Q 3191 2616 2906 2266 
Q 2828 2175 2409 1742 
Q 1991 1309 1228 531 
z
" transform="scale(0.015625)"/>
       </defs>
       <use xlink:href="#DejaVuSans-32"/>
      </g>
     </g>
    </g>
    <g id="ytick_2">
     <g id="line2d_6">
      <g>
       <use xlink:href="#md91a6141a3" x="53.3" y="81.709587" style="stroke: #000000; stroke-width: 0.8"/>
      </g>
     </g>
     <g id="text_7">
      <!-- 3 -->
      <g transform="translate(39.9375 85.508806) scale(0.1 -0.1)">
       <defs>
        <path id="DejaVuSans-33" d="M 2597 2516 
Q 3050 2419 3304 2112 
Q 3559 1806 3559 1356 
Q 3559 666 3084 287 
Q 2609 -91 1734 -91 
Q 1441 -91 1130 -33 
Q 819 25 488 141 
L 488 750 
Q 750 597 1062 519 
Q 1375 441 1716 441 
Q 2309 441 2620 675 
Q 2931 909 2931 1356 
Q 2931 1769 2642 2001 
Q 2353 2234 1838 2234 
L 1294 2234 
L 1294 2753 
L 1863 2753 
Q 2328 2753 2575 2939 
Q 2822 3125 2822 3475 
Q 2822 3834 2567 4026 
Q 2313 4219 1838 4219 
Q 1578 4219 1281 4162 
Q 984 4106 628 3988 
L 628 4550 
Q 988 4650 1302 4700 
Q 1616 4750 1894 4750 
Q 2613 4750 3031 4423 
Q 3450 4097 3450 3541 
Q 3450 3153 3228 2886 
Q 3006 2619 2597 2516 
z
" transform="scale(0.015625)"/>
       </defs>
       <use xlink:href="#DejaVuSans-33"/>
      </g>
     </g>
    </g>
    <g id="ytick_3">
     <g id="line2d_7">
      <g>
       <use xlink:href="#md91a6141a3" x="53.3" y="50.53002" style="stroke: #000000; stroke-width: 0.8"/>
      </g>
     </g>
     <g id="text_8">
      <!-- 3 -->
      <g transform="translate(39.9375 54.329239) scale(0.1 -0.1)">
       <use xlink:href="#DejaVuSans-33"/>
      </g>
     </g>
    </g>
    <g id="ytick_4">
     <g id="line2d_8">
      <g>
       <use xlink:href="#md91a6141a3" x="53.3" y="19.350453" style="stroke: #000000; stroke-width: 0.8"/>
      </g>
     </g>
     <g id="text_9">
      <!-- 4 -->
      <g transform="translate(39.9375 23.149672) scale(0.1 -0.1)">
       <use xlink:href="#DejaVuSans-34"/>
      </g>
     </g>
    </g>
    <g id="text_10">
     <!-- Feature 2 -->
     <g transform="translate(34.27375 91.188125) rotate(-90) scale(0.08 -0.08)">
      <use xlink:href="#DejaVuSans-46"/>
      <use xlink:href="#DejaVuSans-65" x="52.019531"/>
      <use xlink:href="#DejaVuSans-61" x="113.542969"/>
      <use xlink:href="#DejaVuSans-74" x="174.822266"/>
      <use xlink:href="#DejaVuSans-75" x="214.03125"/>
      <use xlink:href="#DejaVuSans-72" x="277.410156"/>
      <use xlink:href="#DejaVuSans-65" x="316.273438"/>
      <use xlink:href="#DejaVuSans-20" x="377.796875"/>
      <use xlink:href="#DejaVuSans-32" x="409.583984"/>
     </g>
    </g>
   </g>
   <g id="patch_14">
    <path d="M 53.3 137.32 
L 53.3 7.2 
" style="fill: none; stroke: #000000; stroke-width: 0.8; stroke-linejoin: miter; stroke-linecap: square"/>
   </g>
   <g id="patch_15">
    <path d="M 194.34 137.32 
L 194.34 7.2 
" style="fill: none; stroke: #000000; stroke-width: 0.8; stroke-linejoin: miter; stroke-linecap: square"/>
   </g>
   <g id="patch_16">
    <path d="M 53.3 137.32 
L 194.34 137.32 
" style="fill: none; stroke: #000000; stroke-width: 0.8; stroke-linejoin: miter; stroke-linecap: square"/>
   </g>
   <g id="patch_17">
    <path d="M 53.3 7.2 
L 194.34 7.2 
" style="fill: none; stroke: #000000; stroke-width: 0.8; stroke-linejoin: miter; stroke-linecap: square"/>
   </g>
  </g>
  <g id="axes_2">
   <g id="patch_18">
    <path d="M 229.73 137.32 
L 370.77 137.32 
L 370.77 7.2 
L 229.73 7.2 
z
" style="fill: #ffffff"/>
   </g>
   <g id="PathCollection_15">
    <g clip-path="url(#pe5e60be37f)">
     <use xlink:href="#md592072506" x="251.740491" y="114.091851" style="fill: #1f77b4; fill-opacity: 0.5; stroke: #1f77b4; stroke-opacity: 0.5"/>
     <use xlink:href="#md592072506" x="240.699203" y="121.748109" style="fill: #1f77b4; fill-opacity: 0.5; stroke: #1f77b4; stroke-opacity: 0.5"/>
     <use xlink:href="#md592072506" x="266.462226" y="112.177786" style="fill: #1f77b4; fill-opacity: 0.5; stroke: #1f77b4; stroke-opacity: 0.5"/>
     <use xlink:href="#md592072506" x="273.823084" y="114.091851" style="fill: #1f77b4; fill-opacity: 0.5; stroke: #1f77b4; stroke-opacity: 0.5"/>
     <use xlink:href="#md592072506" x="292.225248" y="110.26372" style="fill: #1f77b4; fill-opacity: 0.5; stroke: #1f77b4; stroke-opacity: 0.5"/>
     <use xlink:href="#md592072506" x="270.142655" y="116.005916" style="fill: #1f77b4; fill-opacity: 0.5; stroke: #1f77b4; stroke-opacity: 0.5"/>
     <use xlink:href="#md592072506" x="262.781796" y="114.091851" style="fill: #1f77b4; fill-opacity: 0.5; stroke: #1f77b4; stroke-opacity: 0.5"/>
     <use xlink:href="#md592072506" x="270.142655" y="106.435593" style="fill: #1f77b4; fill-opacity: 0.5; stroke: #1f77b4; stroke-opacity: 0.5"/>
     <use xlink:href="#md592072506" x="251.740491" y="123.662174" style="fill: #1f77b4; fill-opacity: 0.5; stroke: #1f77b4; stroke-opacity: 0.5"/>
    </g>
   </g>
   <g id="PathCollection_16">
    <g clip-path="url(#pe5e60be37f)">
     <use xlink:href="#m98ac7804b7" x="325.349146" y="54.755848" style="fill: #2ca02c; fill-opacity: 0.5; stroke: #2ca02c; stroke-opacity: 0.5"/>
     <use xlink:href="#m98ac7804b7" x="306.946982" y="66.240234" style="fill: #2ca02c; fill-opacity: 0.5; stroke: #2ca02c; stroke-opacity: 0.5"/>
     <use xlink:href="#m98ac7804b7" x="292.225248" y="64.326171" style="fill: #2ca02c; fill-opacity: 0.5; stroke: #2ca02c; stroke-opacity: 0.5"/>
     <use xlink:href="#m98ac7804b7" x="295.905695" y="68.154297" style="fill: #2ca02c; fill-opacity: 0.5; stroke: #2ca02c; stroke-opacity: 0.5"/>
     <use xlink:href="#m98ac7804b7" x="295.905695" y="64.326171" style="fill: #2ca02c; fill-opacity: 0.5; stroke: #2ca02c; stroke-opacity: 0.5"/>
     <use xlink:href="#m98ac7804b7" x="317.988288" y="56.669911" style="fill: #2ca02c; fill-opacity: 0.5; stroke: #2ca02c; stroke-opacity: 0.5"/>
     <use xlink:href="#m98ac7804b7" x="266.462226" y="79.638688" style="fill: #2ca02c; fill-opacity: 0.5; stroke: #2ca02c; stroke-opacity: 0.5"/>
     <use xlink:href="#m98ac7804b7" x="299.586124" y="50.927713" style="fill: #2ca02c; fill-opacity: 0.5; stroke: #2ca02c; stroke-opacity: 0.5"/>
     <use xlink:href="#m98ac7804b7" x="284.864389" y="66.240234" style="fill: #2ca02c; fill-opacity: 0.5; stroke: #2ca02c; stroke-opacity: 0.5"/>
     <use xlink:href="#m98ac7804b7" x="288.544819" y="73.896495" style="fill: #2ca02c; fill-opacity: 0.5; stroke: #2ca02c; stroke-opacity: 0.5"/>
     <use xlink:href="#m98ac7804b7" x="292.225248" y="62.412108" style="fill: #2ca02c; fill-opacity: 0.5; stroke: #2ca02c; stroke-opacity: 0.5"/>
     <use xlink:href="#m98ac7804b7" x="284.864389" y="71.982427" style="fill: #2ca02c; fill-opacity: 0.5; stroke: #2ca02c; stroke-opacity: 0.5"/>
    </g>
   </g>
   <g id="PathCollection_17">
    <g clip-path="url(#pe5e60be37f)">
     <use xlink:href="#mcf4f0746c5" x="314.307858" y="35.615201" style="fill: #8c564b; fill-opacity: 0.5; stroke: #8c564b; stroke-opacity: 0.5"/>
     <use xlink:href="#mcf4f0746c5" x="332.710022" y="29.873004" style="fill: #8c564b; fill-opacity: 0.5; stroke: #8c564b; stroke-opacity: 0.5"/>
     <use xlink:href="#mcf4f0746c5" x="295.905695" y="45.185525" style="fill: #8c564b; fill-opacity: 0.5; stroke: #8c564b; stroke-opacity: 0.5"/>
     <use xlink:href="#mcf4f0746c5" x="336.390451" y="39.443327" style="fill: #8c564b; fill-opacity: 0.5; stroke: #8c564b; stroke-opacity: 0.5"/>
     <use xlink:href="#mcf4f0746c5" x="354.792615" y="26.044878" style="fill: #8c564b; fill-opacity: 0.5; stroke: #8c564b; stroke-opacity: 0.5"/>
     <use xlink:href="#mcf4f0746c5" x="347.431739" y="27.958941" style="fill: #8c564b; fill-opacity: 0.5; stroke: #8c564b; stroke-opacity: 0.5"/>
     <use xlink:href="#mcf4f0746c5" x="362.153473" y="16.474555" style="fill: #8c564b; fill-opacity: 0.5; stroke: #8c564b; stroke-opacity: 0.5"/>
     <use xlink:href="#mcf4f0746c5" x="314.307858" y="35.615201" style="fill: #8c564b; fill-opacity: 0.5; stroke: #8c564b; stroke-opacity: 0.5"/>
     <use xlink:href="#mcf4f0746c5" x="321.668717" y="31.787066" style="fill: #8c564b; fill-opacity: 0.5; stroke: #8c564b; stroke-opacity: 0.5"/>
    </g>
   </g>
   <g id="patch_19">
    <path d="M 322.064684 44.468997 
C 319.444296 44.444038 316.889159 45.604824 314.96201 47.695705 
C 313.034862 49.786586 311.893046 52.636851 311.788035 55.618763 
C 311.683023 58.600674 312.623389 61.470772 314.402028 63.59695 
C 316.180668 65.723128 318.652362 66.931794 321.27275 66.956753 
C 323.893137 66.981712 326.448275 65.820926 328.375423 63.730045 
C 330.302571 61.639163 331.444387 58.788898 331.549399 55.806987 
C 331.654411 52.825076 330.714045 49.954978 328.935405 47.8288 
C 327.156766 45.702621 324.685072 44.493955 322.064684 44.468997 
L 322.064684 44.468997 
z
" clip-path="url(#pe5e60be37f)" style="fill: none; stroke: #238023; stroke-width: 2; stroke-linejoin: miter"/>
   </g>
   <g id="PathCollection_18">
    <g clip-path="url(#pe5e60be37f)">
     <use xlink:href="#mb36ce44639" x="321.668717" y="55.712875" style="stroke: #000000"/>
    </g>
   </g>
   <g id="patch_20">
    <path d="M 318.794114 21.929057 
C 315.748557 21.872671 312.742422 23.058968 310.437775 25.226679 
C 308.133127 27.39439 306.718131 30.366532 306.504424 33.488525 
C 306.290716 36.610517 307.295745 39.627464 309.298165 41.874916 
C 311.300584 44.122369 314.136905 45.416834 317.182462 45.47322 
C 320.228018 45.529606 323.234153 44.343309 325.5388 42.175598 
C 327.843448 40.007887 329.258444 37.035745 329.472151 33.913752 
C 329.685859 30.79176 328.68083 27.774813 326.678411 25.52736 
C 324.675991 23.279908 321.83967 21.985443 318.794114 21.929057 
L 318.794114 21.929057 
z
" clip-path="url(#pe5e60be37f)" style="fill: none; stroke: #70453c; stroke-width: 2; stroke-linejoin: miter"/>
   </g>
   <g id="PathCollection_19">
    <g clip-path="url(#pe5e60be37f)">
     <use xlink:href="#mb36ce44639" x="317.988288" y="33.701138" style="stroke: #000000"/>
    </g>
   </g>
   <g id="patch_21">
    <path d="M 257.261144 124.827282 
C 260.022163 124.827282 262.67047 123.696129 264.622806 121.682947 
C 266.575142 119.669765 267.672107 116.93892 267.672107 114.091851 
C 267.672107 111.244781 266.575142 108.513937 264.622806 106.500754 
C 262.67047 104.487572 260.022163 103.356419 257.261144 103.356419 
C 254.500124 103.356419 251.851817 104.487572 249.899481 106.500754 
C 247.947146 108.513937 246.850181 111.244781 246.850181 114.091851 
C 246.850181 116.93892 247.947146 119.669765 249.899481 121.682947 
C 251.851817 123.696129 254.500124 124.827282 257.261144 124.827282 
L 257.261144 124.827282 
z
" clip-path="url(#pe5e60be37f)" style="fill: none; stroke: #195f90; stroke-width: 2; stroke-linejoin: miter"/>
   </g>
   <g id="PathCollection_20">
    <g clip-path="url(#pe5e60be37f)">
     <use xlink:href="#mb36ce44639" x="257.261144" y="114.091851" style="stroke: #000000"/>
    </g>
   </g>
   <g id="patch_22">
    <path d="M 260.627969 102.52044 
C 256.002878 101.910042 250.824054 102.846316 246.232071 105.123058 
C 241.640088 107.399801 238.009863 110.831125 236.140909 114.661323 
C 234.271955 118.491521 234.316866 122.407873 236.265749 125.547848 
C 238.214632 128.687823 241.90837 130.795057 246.533461 131.405455 
C 251.158551 132.015852 256.337376 131.079578 260.929358 128.802836 
C 265.521341 126.526094 269.151566 123.094769 271.02052 119.264571 
C 272.889474 115.434374 272.844563 111.518022 270.89568 108.378046 
C 268.946797 105.238071 265.253059 103.130838 260.627969 102.52044 
L 260.627969 102.52044 
z
" clip-path="url(#pe5e60be37f)" style="fill: none; stroke: #195f90; stroke-width: 2; stroke-linejoin: miter"/>
   </g>
   <g id="PathCollection_21">
    <g clip-path="url(#pe5e60be37f)">
     <use xlink:href="#mb36ce44639" x="253.580715" y="116.962947" style="stroke: #000000"/>
    </g>
   </g>
   <g id="patch_23">
    <path d="M 333.660724 22.905995 
C 331.28119 22.954708 329.092521 24.239715 327.576746 26.478009 
C 326.060971 28.716302 325.341846 31.725135 325.57775 34.841848 
C 325.813654 37.95856 326.985326 40.928685 328.83472 43.098088 
C 330.684113 45.267491 333.060234 46.459049 335.439767 46.410336 
C 337.819301 46.361623 340.00797 45.076616 341.523745 42.838322 
C 343.03952 40.600028 343.758645 37.591195 343.522741 34.474483 
C 343.286837 31.357771 342.115165 28.387646 340.265771 26.218243 
C 338.416377 24.04884 336.040257 22.857281 333.660724 22.905995 
L 333.660724 22.905995 
z
" clip-path="url(#pe5e60be37f)" style="fill: none; stroke: #70453c; stroke-width: 2; stroke-linejoin: miter"/>
   </g>
   <g id="PathCollection_22">
    <g clip-path="url(#pe5e60be37f)">
     <use xlink:href="#mb36ce44639" x="334.550245" y="34.658165" style="stroke: #000000"/>
    </g>
   </g>
   <g id="patch_24">
    <path d="M 298.76037 52.462419 
C 294.978726 52.528295 291.438464 53.942359 288.919286 56.393181 
C 286.400108 58.844003 285.107693 62.131484 285.326681 65.531594 
C 285.545669 68.931704 287.258181 72.16684 290.087054 74.5245 
C 292.915928 76.88216 296.630199 78.169852 300.411843 78.103977 
C 304.193487 78.038101 307.733748 76.624037 310.252926 74.173215 
C 312.772104 71.722393 314.064519 68.434912 313.845531 65.034802 
C 313.626543 61.634692 311.914032 58.399556 309.085158 56.041896 
C 306.256285 53.684236 302.542013 52.396544 298.76037 52.462419 
L 298.76037 52.462419 
z
" clip-path="url(#pe5e60be37f)" style="fill: none; stroke: #238023; stroke-width: 2; stroke-linejoin: miter"/>
   </g>
   <g id="PathCollection_23">
    <g clip-path="url(#pe5e60be37f)">
     <use xlink:href="#mb36ce44639" x="299.586106" y="65.283198" style="stroke: #000000"/>
    </g>
   </g>
   <g id="patch_25">
    <path d="M 292.225265 75.83859 
C 294.872057 75.83859 297.410798 74.827246 299.282362 73.027296 
C 301.153926 71.227346 302.205508 68.785748 302.205508 66.240234 
C 302.205508 63.69472 301.153926 61.253122 299.282362 59.453172 
C 297.410798 57.653222 294.872057 56.641878 292.225265 56.641878 
C 289.578474 56.641878 287.039732 57.653222 285.168168 59.453172 
C 283.296604 61.253122 282.245023 63.69472 282.245023 66.240234 
C 282.245023 68.785748 283.296604 71.227346 285.168168 73.027296 
C 287.039732 74.827246 289.578474 75.83859 292.225265 75.83859 
L 292.225265 75.83859 
z
" clip-path="url(#pe5e60be37f)" style="fill: none; stroke: #238023; stroke-width: 2; stroke-linejoin: miter"/>
   </g>
   <g id="PathCollection_24">
    <g clip-path="url(#pe5e60be37f)">
     <use xlink:href="#mb36ce44639" x="292.225265" y="66.240234" style="stroke: #000000"/>
    </g>
   </g>
   <g id="patch_26">
    <path d="M 270.142655 122.974361 
C 272.483522 122.974361 274.728828 121.735927 276.384071 119.531809 
C 278.039314 117.327692 278.96935 114.337847 278.96935 111.220754 
C 278.96935 108.103661 278.039314 105.113817 276.384071 102.909699 
C 274.728828 100.705582 272.483522 99.467147 270.142655 99.467147 
C 267.801788 99.467147 265.556482 100.705582 263.901239 102.909699 
C 262.245996 105.113817 261.31596 108.103661 261.31596 111.220754 
C 261.31596 114.337847 262.245996 117.327692 263.901239 119.531809 
C 265.556482 121.735927 267.801788 122.974361 270.142655 122.974361 
L 270.142655 122.974361 
z
" clip-path="url(#pe5e60be37f)" style="fill: none; stroke: #195f90; stroke-width: 2; stroke-linejoin: miter"/>
   </g>
   <g id="PathCollection_25">
    <g clip-path="url(#pe5e60be37f)">
     <use xlink:href="#mb36ce44639" x="270.142655" y="111.220754" style="stroke: #000000"/>
    </g>
   </g>
   <g id="patch_27">
    <path d="M 280.179259 64.045558 
C 276.696236 63.683957 272.879569 64.576753 269.569837 66.527316 
C 266.260105 68.47788 263.727531 71.326957 262.529887 74.447071 
C 261.332243 77.567186 261.567309 80.703594 263.183317 83.165538 
C 264.799324 85.627482 267.664332 87.213956 271.147356 87.575557 
C 274.63038 87.937158 278.447046 87.044362 281.756778 85.093798 
C 285.06651 83.143235 287.599084 80.294158 288.796728 77.174043 
C 289.994372 74.053929 289.759306 70.917521 288.143298 68.455577 
C 286.527291 65.993632 283.662283 64.407159 280.179259 64.045558 
L 280.179259 64.045558 
z
" clip-path="url(#pe5e60be37f)" style="fill: none; stroke: #238023; stroke-width: 2; stroke-linejoin: miter"/>
   </g>
   <g id="PathCollection_26">
    <g clip-path="url(#pe5e60be37f)">
     <use xlink:href="#mb36ce44639" x="275.663308" y="75.810557" style="stroke: #000000"/>
    </g>
   </g>
   <g id="patch_28">
    <path d="M 358.317906 13.114545 
C 355.780847 12.881459 352.975911 13.751404 350.520852 15.532786 
C 348.065794 17.314169 346.161057 19.861545 345.226139 22.613887 
C 344.291221 25.366228 344.402453 28.098817 345.535338 30.209834 
C 346.668223 32.32085 348.730265 33.637938 351.267324 33.871025 
C 353.804383 34.104111 356.609319 33.234166 359.064378 31.452784 
C 361.519436 29.671402 363.424173 27.124025 364.359091 24.371683 
C 365.294009 21.619342 365.182777 18.886753 364.049892 16.775736 
C 362.917007 14.66472 360.854965 13.347632 358.317906 13.114545 
L 358.317906 13.114545 
z
" clip-path="url(#pe5e60be37f)" style="fill: none; stroke: #70453c; stroke-width: 2; stroke-linejoin: miter"/>
   </g>
   <g id="PathCollection_27">
    <g clip-path="url(#pe5e60be37f)">
     <use xlink:href="#mb36ce44639" x="354.792615" y="23.492785" style="stroke: #000000"/>
    </g>
   </g>
   <g id="patch_29">
    <path d="M 291.4193 55.563116 
C 288.631041 55.501169 285.847629 56.768438 283.682078 59.085821 
C 281.516526 61.403204 280.145644 64.581498 279.871351 67.920719 
C 279.597057 71.259941 280.441749 74.487458 282.219391 76.892447 
C 283.997033 79.297436 286.56249 80.68354 289.350749 80.745487 
C 292.139008 80.807434 294.92242 79.540165 297.087971 77.222782 
C 299.253522 74.905398 300.624405 71.727105 300.898698 68.387884 
C 301.172992 65.048662 300.3283 61.821145 298.550658 59.416156 
C 296.773016 57.011167 294.207559 55.625063 291.4193 55.563116 
L 291.4193 55.563116 
z
" clip-path="url(#pe5e60be37f)" style="fill: none; stroke: #238023; stroke-width: 2; stroke-linejoin: miter"/>
   </g>
   <g id="PathCollection_28">
    <g clip-path="url(#pe5e60be37f)">
     <use xlink:href="#mb36ce44639" x="290.385024" y="68.154301" style="stroke: #000000"/>
    </g>
   </g>
   <g id="matplotlib.axis_3">
    <g id="xtick_5">
     <g id="line2d_9">
      <g>
       <use xlink:href="#mb0ba4c5ebc" x="266.462226" y="137.32" style="stroke: #000000; stroke-width: 0.8"/>
      </g>
     </g>
     <g id="text_11">
      <!-- 5 -->
      <g transform="translate(263.280976 151.918437) scale(0.1 -0.1)">
       <use xlink:href="#DejaVuSans-35"/>
      </g>
     </g>
    </g>
    <g id="xtick_6">
     <g id="line2d_10">
      <g>
       <use xlink:href="#mb0ba4c5ebc" x="303.266553" y="137.32" style="stroke: #000000; stroke-width: 0.8"/>
      </g>
     </g>
     <g id="text_12">
      <!-- 6 -->
      <g transform="translate(300.085303 151.918437) scale(0.1 -0.1)">
       <use xlink:href="#DejaVuSans-36"/>
      </g>
     </g>
    </g>
    <g id="xtick_7">
     <g id="line2d_11">
      <g>
       <use xlink:href="#mb0ba4c5ebc" x="340.070881" y="137.32" style="stroke: #000000; stroke-width: 0.8"/>
      </g>
     </g>
     <g id="text_13">
      <!-- 7 -->
      <g transform="translate(336.889631 151.918437) scale(0.1 -0.1)">
       <use xlink:href="#DejaVuSans-37"/>
      </g>
     </g>
    </g>
    <g id="text_14">
     <!-- Feature 1 -->
     <g transform="translate(281.321875 164.076875) scale(0.08 -0.08)">
      <use xlink:href="#DejaVuSans-46"/>
      <use xlink:href="#DejaVuSans-65" x="52.019531"/>
      <use xlink:href="#DejaVuSans-61" x="113.542969"/>
      <use xlink:href="#DejaVuSans-74" x="174.822266"/>
      <use xlink:href="#DejaVuSans-75" x="214.03125"/>
      <use xlink:href="#DejaVuSans-72" x="277.410156"/>
      <use xlink:href="#DejaVuSans-65" x="316.273438"/>
      <use xlink:href="#DejaVuSans-20" x="377.796875"/>
      <use xlink:href="#DejaVuSans-31" x="409.583984"/>
     </g>
    </g>
   </g>
   <g id="matplotlib.axis_4">
    <g id="ytick_5">
     <g id="line2d_12">
      <g>
       <use xlink:href="#md91a6141a3" x="229.73" y="104.521527" style="stroke: #000000; stroke-width: 0.8"/>
      </g>
     </g>
     <g id="text_15">
      <!-- 2 -->
      <g transform="translate(216.3675 108.320746) scale(0.1 -0.1)">
       <use xlink:href="#DejaVuSans-32"/>
      </g>
     </g>
    </g>
    <g id="ytick_6">
     <g id="line2d_13">
      <g>
       <use xlink:href="#md91a6141a3" x="229.73" y="66.240234" style="stroke: #000000; stroke-width: 0.8"/>
      </g>
     </g>
     <g id="text_16">
      <!-- 4 -->
      <g transform="translate(216.3675 70.039453) scale(0.1 -0.1)">
       <use xlink:href="#DejaVuSans-34"/>
      </g>
     </g>
    </g>
    <g id="ytick_7">
     <g id="line2d_14">
      <g>
       <use xlink:href="#md91a6141a3" x="229.73" y="27.958941" style="stroke: #000000; stroke-width: 0.8"/>
      </g>
     </g>
     <g id="text_17">
      <!-- 6 -->
      <g transform="translate(216.3675 31.75816) scale(0.1 -0.1)">
       <use xlink:href="#DejaVuSans-36"/>
      </g>
     </g>
    </g>
    <g id="text_18">
     <!-- Feature 3 -->
     <g transform="translate(210.70375 91.188125) rotate(-90) scale(0.08 -0.08)">
      <use xlink:href="#DejaVuSans-46"/>
      <use xlink:href="#DejaVuSans-65" x="52.019531"/>
      <use xlink:href="#DejaVuSans-61" x="113.542969"/>
      <use xlink:href="#DejaVuSans-74" x="174.822266"/>
      <use xlink:href="#DejaVuSans-75" x="214.03125"/>
      <use xlink:href="#DejaVuSans-72" x="277.410156"/>
      <use xlink:href="#DejaVuSans-65" x="316.273438"/>
      <use xlink:href="#DejaVuSans-20" x="377.796875"/>
      <use xlink:href="#DejaVuSans-33" x="409.583984"/>
     </g>
    </g>
   </g>
   <g id="patch_30">
    <path d="M 229.73 137.32 
L 229.73 7.2 
" style="fill: none; stroke: #000000; stroke-width: 0.8; stroke-linejoin: miter; stroke-linecap: square"/>
   </g>
   <g id="patch_31">
    <path d="M 370.77 137.32 
L 370.77 7.2 
" style="fill: none; stroke: #000000; stroke-width: 0.8; stroke-linejoin: miter; stroke-linecap: square"/>
   </g>
   <g id="patch_32">
    <path d="M 229.73 137.32 
L 370.77 137.32 
" style="fill: none; stroke: #000000; stroke-width: 0.8; stroke-linejoin: miter; stroke-linecap: square"/>
   </g>
   <g id="patch_33">
    <path d="M 229.73 7.2 
L 370.77 7.2 
" style="fill: none; stroke: #000000; stroke-width: 0.8; stroke-linejoin: miter; stroke-linecap: square"/>
   </g>
  </g>
  <g id="axes_3">
   <g id="patch_34">
    <path d="M 406.16 137.32 
L 547.2 137.32 
L 547.2 7.2 
L 406.16 7.2 
z
" style="fill: #ffffff"/>
   </g>
   <g id="PathCollection_29">
    <g clip-path="url(#p1e8c26b618)">
     <use xlink:href="#md592072506" x="429.308729" y="115.372477" style="fill: #1f77b4; fill-opacity: 0.5; stroke: #1f77b4; stroke-opacity: 0.5"/>
     <use xlink:href="#md592072506" x="418.394143" y="119.870324" style="fill: #1f77b4; fill-opacity: 0.5; stroke: #1f77b4; stroke-opacity: 0.5"/>
     <use xlink:href="#md592072506" x="443.861528" y="115.372477" style="fill: #1f77b4; fill-opacity: 0.5; stroke: #1f77b4; stroke-opacity: 0.5"/>
     <use xlink:href="#md592072506" x="451.137919" y="119.870324" style="fill: #1f77b4; fill-opacity: 0.5; stroke: #1f77b4; stroke-opacity: 0.5"/>
     <use xlink:href="#md592072506" x="469.328914" y="110.874629" style="fill: #1f77b4; fill-opacity: 0.5; stroke: #1f77b4; stroke-opacity: 0.5"/>
     <use xlink:href="#md592072506" x="447.499724" y="110.874629" style="fill: #1f77b4; fill-opacity: 0.5; stroke: #1f77b4; stroke-opacity: 0.5"/>
     <use xlink:href="#md592072506" x="440.223333" y="119.870324" style="fill: #1f77b4; fill-opacity: 0.5; stroke: #1f77b4; stroke-opacity: 0.5"/>
     <use xlink:href="#md592072506" x="447.499724" y="106.376782" style="fill: #1f77b4; fill-opacity: 0.5; stroke: #1f77b4; stroke-opacity: 0.5"/>
     <use xlink:href="#md592072506" x="429.308729" y="115.372477" style="fill: #1f77b4; fill-opacity: 0.5; stroke: #1f77b4; stroke-opacity: 0.5"/>
    </g>
   </g>
   <g id="PathCollection_30">
    <g clip-path="url(#p1e8c26b618)">
     <use xlink:href="#m98ac7804b7" x="502.072708" y="65.896158" style="fill: #2ca02c; fill-opacity: 0.5; stroke: #2ca02c; stroke-opacity: 0.5"/>
     <use xlink:href="#m98ac7804b7" x="483.881714" y="65.896158" style="fill: #2ca02c; fill-opacity: 0.5; stroke: #2ca02c; stroke-opacity: 0.5"/>
     <use xlink:href="#m98ac7804b7" x="469.328914" y="65.896158" style="fill: #2ca02c; fill-opacity: 0.5; stroke: #2ca02c; stroke-opacity: 0.5"/>
     <use xlink:href="#m98ac7804b7" x="472.967127" y="70.394001" style="fill: #2ca02c; fill-opacity: 0.5; stroke: #2ca02c; stroke-opacity: 0.5"/>
     <use xlink:href="#m98ac7804b7" x="472.967127" y="79.389698" style="fill: #2ca02c; fill-opacity: 0.5; stroke: #2ca02c; stroke-opacity: 0.5"/>
     <use xlink:href="#m98ac7804b7" x="494.796317" y="56.900461" style="fill: #2ca02c; fill-opacity: 0.5; stroke: #2ca02c; stroke-opacity: 0.5"/>
     <use xlink:href="#m98ac7804b7" x="443.861528" y="79.389698" style="fill: #2ca02c; fill-opacity: 0.5; stroke: #2ca02c; stroke-opacity: 0.5"/>
     <use xlink:href="#m98ac7804b7" x="476.605323" y="43.406922" style="fill: #2ca02c; fill-opacity: 0.5; stroke: #2ca02c; stroke-opacity: 0.5"/>
     <use xlink:href="#m98ac7804b7" x="462.052523" y="65.896158" style="fill: #2ca02c; fill-opacity: 0.5; stroke: #2ca02c; stroke-opacity: 0.5"/>
     <use xlink:href="#m98ac7804b7" x="465.690719" y="65.896158" style="fill: #2ca02c; fill-opacity: 0.5; stroke: #2ca02c; stroke-opacity: 0.5"/>
     <use xlink:href="#m98ac7804b7" x="469.328914" y="65.896158" style="fill: #2ca02c; fill-opacity: 0.5; stroke: #2ca02c; stroke-opacity: 0.5"/>
     <use xlink:href="#m98ac7804b7" x="462.052523" y="79.389698" style="fill: #2ca02c; fill-opacity: 0.5; stroke: #2ca02c; stroke-opacity: 0.5"/>
    </g>
   </g>
   <g id="PathCollection_31">
    <g clip-path="url(#p1e8c26b618)">
     <use xlink:href="#mcf4f0746c5" x="491.158122" y="43.406922" style="fill: #8c564b; fill-opacity: 0.5; stroke: #8c564b; stroke-opacity: 0.5"/>
     <use xlink:href="#mcf4f0746c5" x="509.349117" y="20.917685" style="fill: #8c564b; fill-opacity: 0.5; stroke: #8c564b; stroke-opacity: 0.5"/>
     <use xlink:href="#mcf4f0746c5" x="472.967127" y="16.419831" style="fill: #8c564b; fill-opacity: 0.5; stroke: #8c564b; stroke-opacity: 0.5"/>
     <use xlink:href="#mcf4f0746c5" x="512.987312" y="29.913382" style="fill: #8c564b; fill-opacity: 0.5; stroke: #8c564b; stroke-opacity: 0.5"/>
     <use xlink:href="#mcf4f0746c5" x="531.178307" y="38.909073" style="fill: #8c564b; fill-opacity: 0.5; stroke: #8c564b; stroke-opacity: 0.5"/>
     <use xlink:href="#mcf4f0746c5" x="523.901899" y="43.406922" style="fill: #8c564b; fill-opacity: 0.5; stroke: #8c564b; stroke-opacity: 0.5"/>
     <use xlink:href="#mcf4f0746c5" x="538.454698" y="29.913382" style="fill: #8c564b; fill-opacity: 0.5; stroke: #8c564b; stroke-opacity: 0.5"/>
     <use xlink:href="#mcf4f0746c5" x="491.158122" y="16.419831" style="fill: #8c564b; fill-opacity: 0.5; stroke: #8c564b; stroke-opacity: 0.5"/>
     <use xlink:href="#mcf4f0746c5" x="498.434513" y="25.415528" style="fill: #8c564b; fill-opacity: 0.5; stroke: #8c564b; stroke-opacity: 0.5"/>
    </g>
   </g>
   <g id="patch_35">
    <path d="M 493.418777 49.26686 
C 491.193666 50.67294 489.587879 53.299867 488.955073 56.56909 
C 488.322267 59.838312 488.714107 63.482913 490.044296 66.700211 
C 491.374485 69.91751 493.534418 72.444827 496.048394 73.725551 
C 498.562371 75.006275 501.225137 74.935841 503.450249 73.52976 
C 505.67536 72.123679 507.281147 69.496753 507.913953 66.22753 
C 508.546759 62.958308 508.154919 59.313707 506.82473 56.096408 
C 505.494541 52.87911 503.334608 50.351793 500.820631 49.071069 
C 498.306655 47.790345 495.643889 47.860779 493.418777 49.26686 
L 493.418777 49.26686 
z
" clip-path="url(#p1e8c26b618)" style="fill: none; stroke: #238023; stroke-width: 2; stroke-linejoin: miter"/>
   </g>
   <g id="PathCollection_32">
    <g clip-path="url(#p1e8c26b618)">
     <use xlink:href="#mb36ce44639" x="498.434513" y="61.39831" style="stroke: #000000"/>
    </g>
   </g>
   <g id="patch_36">
    <path d="M 502.374798 21.536741 
C 500.123366 19.511169 497.165328 18.924823 494.152156 19.90684 
C 491.138984 20.888856 488.316691 23.359058 486.306855 26.773411 
C 484.297018 30.187764 483.263732 34.267502 483.434566 38.11411 
C 483.605399 41.960718 484.966405 45.260137 487.217837 47.285709 
C 489.469269 49.311281 492.427307 49.897626 495.440479 48.91561 
C 498.453651 47.933593 501.275944 45.463392 503.28578 42.049038 
C 505.295617 38.634685 506.328903 34.554947 506.158069 30.70834 
C 505.987236 26.861732 504.62623 23.562313 502.374798 21.536741 
L 502.374798 21.536741 
z
" clip-path="url(#p1e8c26b618)" style="fill: none; stroke: #70453c; stroke-width: 2; stroke-linejoin: miter"/>
   </g>
   <g id="PathCollection_33">
    <g clip-path="url(#p1e8c26b618)">
     <use xlink:href="#mb36ce44639" x="494.796317" y="34.411225" style="stroke: #000000"/>
    </g>
   </g>
   <g id="patch_37">
    <path d="M 425.559521 111.229684 
C 424.339729 113.915027 424.139789 117.164217 425.003735 120.26166 
C 425.86768 123.359102 427.724974 126.051904 430.16657 127.747007 
C 432.608165 129.44211 435.434715 130.001117 438.023706 129.300912 
C 440.612698 128.600707 442.75275 126.698459 443.972541 124.013117 
C 445.192333 121.327775 445.392273 118.078584 444.528327 114.981141 
C 443.664382 111.883699 441.807087 109.190897 439.365492 107.495794 
C 436.923897 105.800691 434.097347 105.241684 431.508356 105.941889 
C 428.919364 106.642094 426.779312 108.544342 425.559521 111.229684 
L 425.559521 111.229684 
z
" clip-path="url(#p1e8c26b618)" style="fill: none; stroke: #195f90; stroke-width: 2; stroke-linejoin: miter"/>
   </g>
   <g id="PathCollection_34">
    <g clip-path="url(#p1e8c26b618)">
     <use xlink:href="#mb36ce44639" x="434.766031" y="117.621401" style="stroke: #000000"/>
    </g>
   </g>
   <g id="patch_38">
    <path d="M 412.570909 120.036425 
C 412.882177 123.691999 415.136013 126.94388 418.836036 129.075879 
C 422.536059 131.207878 427.380178 132.045927 432.301532 131.405455 
C 437.222887 130.764983 441.81967 128.698281 445.079493 125.660518 
C 448.339316 122.622755 449.99603 118.86195 449.684762 115.206376 
C 449.373494 111.550802 447.119658 108.298921 443.419635 106.166922 
C 439.719612 104.034923 434.875493 103.196875 429.954139 103.837347 
C 425.032784 104.477819 420.436001 106.54452 417.176178 109.582283 
C 413.916355 112.620046 412.259641 116.380851 412.570909 120.036425 
L 412.570909 120.036425 
z
" clip-path="url(#p1e8c26b618)" style="fill: none; stroke: #195f90; stroke-width: 2; stroke-linejoin: miter"/>
   </g>
   <g id="PathCollection_35">
    <g clip-path="url(#p1e8c26b618)">
     <use xlink:href="#mb36ce44639" x="431.127835" y="117.621401" style="stroke: #000000"/>
    </g>
   </g>
   <g id="patch_39">
    <path d="M 508.633852 13.114545 
C 506.367664 13.828158 504.461026 15.808749 503.333852 18.620117 
C 502.206678 21.431484 501.950997 24.844092 502.62312 28.106354 
C 503.295244 31.368615 504.840295 34.214181 506.917994 36.016348 
C 508.995694 37.818515 511.436407 38.430144 513.702595 37.716532 
C 515.968782 37.002919 517.875421 35.022328 519.002595 32.21096 
C 520.129768 29.399593 520.385449 25.986985 519.713326 22.724723 
C 519.041203 19.462462 517.496152 16.616896 515.418452 14.814729 
C 513.340753 13.012562 510.90004 12.400933 508.633852 13.114545 
L 508.633852 13.114545 
z
" clip-path="url(#p1e8c26b618)" style="fill: none; stroke: #70453c; stroke-width: 2; stroke-linejoin: miter"/>
   </g>
   <g id="PathCollection_36">
    <g clip-path="url(#p1e8c26b618)">
     <use xlink:href="#mb36ce44639" x="511.168223" y="25.415539" style="stroke: #000000"/>
    </g>
   </g>
   <g id="patch_40">
    <path d="M 490.724714 65.896158 
C 490.724714 62.479526 489.237004 59.202369 486.589235 56.786445 
C 483.941466 54.370521 480.349816 53.013079 476.605305 53.013079 
C 472.860794 53.013079 469.269145 54.370521 466.621376 56.786445 
C 463.973606 59.202369 462.485896 62.479526 462.485896 65.896158 
C 462.485896 69.312791 463.973606 72.589947 466.621376 75.005871 
C 469.269145 77.421795 472.860794 78.779238 476.605305 78.779238 
C 480.349816 78.779238 483.941466 77.421795 486.589235 75.005871 
C 489.237004 72.589947 490.724714 69.312791 490.724714 65.896158 
L 490.724714 65.896158 
z
" clip-path="url(#p1e8c26b618)" style="fill: none; stroke: #238023; stroke-width: 2; stroke-linejoin: miter"/>
   </g>
   <g id="PathCollection_37">
    <g clip-path="url(#p1e8c26b618)">
     <use xlink:href="#mb36ce44639" x="476.605305" y="65.896158" style="stroke: #000000"/>
    </g>
   </g>
   <g id="patch_41">
    <path d="M 460.58332 64.865044 
C 459.372452 67.167952 459.132508 70.117389 459.916333 73.063775 
C 460.700158 76.010162 462.443755 78.712939 464.763119 80.576851 
C 467.082482 82.440764 469.788246 83.313631 472.284496 83.003214 
C 474.780746 82.692797 476.863676 81.22444 478.074544 78.921532 
C 479.285411 76.618624 479.525355 73.669187 478.74153 70.7228 
C 477.957705 67.776413 476.214108 65.073636 473.894744 63.209724 
C 471.575381 61.345812 468.869618 60.472945 466.373367 60.783362 
C 463.877117 61.093779 461.794187 62.562136 460.58332 64.865044 
L 460.58332 64.865044 
z
" clip-path="url(#p1e8c26b618)" style="fill: none; stroke: #238023; stroke-width: 2; stroke-linejoin: miter"/>
   </g>
   <g id="PathCollection_38">
    <g clip-path="url(#p1e8c26b618)">
     <use xlink:href="#mb36ce44639" x="469.328932" y="71.893288" style="stroke: #000000"/>
    </g>
   </g>
   <g id="patch_42">
    <path d="M 447.499724 120.599925 
C 449.813729 120.599925 452.03327 119.338246 453.669518 117.092757 
C 455.305767 114.847269 456.225131 111.801305 456.225131 108.625705 
C 456.225131 105.450105 455.305767 102.404141 453.669518 100.158653 
C 452.03327 97.913164 449.813729 96.651485 447.499724 96.651485 
C 445.185719 96.651485 442.966178 97.913164 441.329929 100.158653 
C 439.693681 102.404141 438.774317 105.450105 438.774317 108.625705 
C 438.774317 111.801305 439.693681 114.847269 441.329929 117.092757 
C 442.966178 119.338246 445.185719 120.599925 447.499724 120.599925 
L 447.499724 120.599925 
z
" clip-path="url(#p1e8c26b618)" style="fill: none; stroke: #195f90; stroke-width: 2; stroke-linejoin: miter"/>
   </g>
   <g id="PathCollection_39">
    <g clip-path="url(#p1e8c26b618)">
     <use xlink:href="#mb36ce44639" x="447.499724" y="108.625705" style="stroke: #000000"/>
    </g>
   </g>
   <g id="patch_43">
    <path d="M 466.685801 79.389698 
C 466.685801 76.285225 465.239251 73.307486 462.664736 71.112292 
C 460.090221 68.917098 456.59794 67.683678 452.957026 67.683678 
C 449.316112 67.683678 445.823831 68.917098 443.249316 71.112292 
C 440.674801 73.307486 439.22825 76.285225 439.22825 79.389698 
C 439.22825 82.494171 440.674801 85.471911 443.249316 87.667105 
C 445.823831 89.862299 449.316112 91.095719 452.957026 91.095719 
C 456.59794 91.095719 460.090221 89.862299 462.664736 87.667105 
C 465.239251 85.471911 466.685801 82.494171 466.685801 79.389698 
L 466.685801 79.389698 
z
" clip-path="url(#p1e8c26b618)" style="fill: none; stroke: #238023; stroke-width: 2; stroke-linejoin: miter"/>
   </g>
   <g id="PathCollection_40">
    <g clip-path="url(#p1e8c26b618)">
     <use xlink:href="#mb36ce44639" x="452.957026" y="79.389698" style="stroke: #000000"/>
    </g>
   </g>
   <g id="patch_44">
    <path d="M 522.236991 45.273423 
C 523.470287 47.41672 525.59535 48.643959 528.14416 48.684856 
C 530.692969 48.725754 533.457426 47.576969 535.828691 45.49151 
C 538.199956 43.40605 539.984426 40.554185 540.789091 37.564002 
C 541.593756 34.57382 541.35292 31.689457 540.119624 29.546161 
C 538.886328 27.402864 536.761265 26.175625 534.212455 26.134728 
C 531.663645 26.093831 528.899188 27.242615 526.527923 29.328074 
C 524.156658 31.413534 522.372189 34.2654 521.567524 37.255582 
C 520.762858 40.245764 521.003694 43.130127 522.236991 45.273423 
L 522.236991 45.273423 
z
" clip-path="url(#p1e8c26b618)" style="fill: none; stroke: #70453c; stroke-width: 2; stroke-linejoin: miter"/>
   </g>
   <g id="PathCollection_41">
    <g clip-path="url(#p1e8c26b618)">
     <use xlink:href="#mb36ce44639" x="531.178307" y="37.409792" style="stroke: #000000"/>
    </g>
   </g>
   <g id="patch_45">
    <path d="M 477.953002 65.896158 
C 477.953002 62.791685 476.852642 59.813946 474.894262 57.618752 
C 472.935882 55.423558 470.279375 54.190138 467.509808 54.190138 
C 464.74024 54.190138 462.083734 55.423558 460.125354 57.618752 
C 458.166974 59.813946 457.066613 62.791685 457.066613 65.896158 
C 457.066613 69.000631 458.166974 71.978371 460.125354 74.173565 
C 462.083734 76.368759 464.74024 77.602179 467.509808 77.602179 
C 470.279375 77.602179 472.935882 76.368759 474.894262 74.173565 
C 476.852642 71.978371 477.953002 69.000631 477.953002 65.896158 
L 477.953002 65.896158 
z
" clip-path="url(#p1e8c26b618)" style="fill: none; stroke: #238023; stroke-width: 2; stroke-linejoin: miter"/>
   </g>
   <g id="PathCollection_42">
    <g clip-path="url(#p1e8c26b618)">
     <use xlink:href="#mb36ce44639" x="467.509808" y="65.896158" style="stroke: #000000"/>
    </g>
   </g>
   <g id="matplotlib.axis_5">
    <g id="xtick_8">
     <g id="line2d_15">
      <g>
       <use xlink:href="#mb0ba4c5ebc" x="407.479539" y="137.32" style="stroke: #000000; stroke-width: 0.8"/>
      </g>
     </g>
     <g id="text_19">
      <!-- 4 -->
      <g transform="translate(404.298289 151.918437) scale(0.1 -0.1)">
       <use xlink:href="#DejaVuSans-34"/>
      </g>
     </g>
    </g>
    <g id="xtick_9">
     <g id="line2d_16">
      <g>
       <use xlink:href="#mb0ba4c5ebc" x="443.861528" y="137.32" style="stroke: #000000; stroke-width: 0.8"/>
      </g>
     </g>
     <g id="text_20">
      <!-- 5 -->
      <g transform="translate(440.680278 151.918437) scale(0.1 -0.1)">
       <use xlink:href="#DejaVuSans-35"/>
      </g>
     </g>
    </g>
    <g id="xtick_10">
     <g id="line2d_17">
      <g>
       <use xlink:href="#mb0ba4c5ebc" x="480.243518" y="137.32" style="stroke: #000000; stroke-width: 0.8"/>
      </g>
     </g>
     <g id="text_21">
      <!-- 6 -->
      <g transform="translate(477.062268 151.918437) scale(0.1 -0.1)">
       <use xlink:href="#DejaVuSans-36"/>
      </g>
     </g>
    </g>
    <g id="xtick_11">
     <g id="line2d_18">
      <g>
       <use xlink:href="#mb0ba4c5ebc" x="516.625508" y="137.32" style="stroke: #000000; stroke-width: 0.8"/>
      </g>
     </g>
     <g id="text_22">
      <!-- 7 -->
      <g transform="translate(513.444258 151.918437) scale(0.1 -0.1)">
       <use xlink:href="#DejaVuSans-37"/>
      </g>
     </g>
    </g>
    <g id="text_23">
     <!-- Feature 1 -->
     <g transform="translate(457.751875 164.076875) scale(0.08 -0.08)">
      <use xlink:href="#DejaVuSans-46"/>
      <use xlink:href="#DejaVuSans-65" x="52.019531"/>
      <use xlink:href="#DejaVuSans-61" x="113.542969"/>
      <use xlink:href="#DejaVuSans-74" x="174.822266"/>
      <use xlink:href="#DejaVuSans-75" x="214.03125"/>
      <use xlink:href="#DejaVuSans-72" x="277.410156"/>
      <use xlink:href="#DejaVuSans-65" x="316.273438"/>
      <use xlink:href="#DejaVuSans-20" x="377.796875"/>
      <use xlink:href="#DejaVuSans-31" x="409.583984"/>
     </g>
    </g>
   </g>
   <g id="matplotlib.axis_6">
    <g id="ytick_8">
     <g id="line2d_19">
      <g>
       <use xlink:href="#md91a6141a3" x="406.16" y="124.368172" style="stroke: #000000; stroke-width: 0.8"/>
      </g>
     </g>
     <g id="text_24">
      <!-- 0 -->
      <g transform="translate(392.7975 128.167391) scale(0.1 -0.1)">
       <defs>
        <path id="DejaVuSans-30" d="M 2034 4250 
Q 1547 4250 1301 3770 
Q 1056 3291 1056 2328 
Q 1056 1369 1301 889 
Q 1547 409 2034 409 
Q 2525 409 2770 889 
Q 3016 1369 3016 2328 
Q 3016 3291 2770 3770 
Q 2525 4250 2034 4250 
z
M 2034 4750 
Q 2819 4750 3233 4129 
Q 3647 3509 3647 2328 
Q 3647 1150 3233 529 
Q 2819 -91 2034 -91 
Q 1250 -91 836 529 
Q 422 1150 422 2328 
Q 422 3509 836 4129 
Q 1250 4750 2034 4750 
z
" transform="scale(0.015625)"/>
       </defs>
       <use xlink:href="#DejaVuSans-30"/>
      </g>
     </g>
    </g>
    <g id="ytick_9">
     <g id="line2d_20">
      <g>
       <use xlink:href="#md91a6141a3" x="406.16" y="101.878935" style="stroke: #000000; stroke-width: 0.8"/>
      </g>
     </g>
     <g id="text_25">
      <!-- 0 -->
      <g transform="translate(392.7975 105.678154) scale(0.1 -0.1)">
       <use xlink:href="#DejaVuSans-30"/>
      </g>
     </g>
    </g>
    <g id="ytick_10">
     <g id="line2d_21">
      <g>
       <use xlink:href="#md91a6141a3" x="406.16" y="79.389698" style="stroke: #000000; stroke-width: 0.8"/>
      </g>
     </g>
     <g id="text_26">
      <!-- 1 -->
      <g transform="translate(392.7975 83.188917) scale(0.1 -0.1)">
       <use xlink:href="#DejaVuSans-31"/>
      </g>
     </g>
    </g>
    <g id="ytick_11">
     <g id="line2d_22">
      <g>
       <use xlink:href="#md91a6141a3" x="406.16" y="56.900461" style="stroke: #000000; stroke-width: 0.8"/>
      </g>
     </g>
     <g id="text_27">
      <!-- 1 -->
      <g transform="translate(392.7975 60.69968) scale(0.1 -0.1)">
       <use xlink:href="#DejaVuSans-31"/>
      </g>
     </g>
    </g>
    <g id="ytick_12">
     <g id="line2d_23">
      <g>
       <use xlink:href="#md91a6141a3" x="406.16" y="34.411225" style="stroke: #000000; stroke-width: 0.8"/>
      </g>
     </g>
     <g id="text_28">
      <!-- 2 -->
      <g transform="translate(392.7975 38.210443) scale(0.1 -0.1)">
       <use xlink:href="#DejaVuSans-32"/>
      </g>
     </g>
    </g>
    <g id="ytick_13">
     <g id="line2d_24">
      <g>
       <use xlink:href="#md91a6141a3" x="406.16" y="11.921988" style="stroke: #000000; stroke-width: 0.8"/>
      </g>
     </g>
     <g id="text_29">
      <!-- 2 -->
      <g transform="translate(392.7975 15.721207) scale(0.1 -0.1)">
       <use xlink:href="#DejaVuSans-32"/>
      </g>
     </g>
    </g>
    <g id="text_30">
     <!-- Feature 4 -->
     <g transform="translate(387.13375 91.188125) rotate(-90) scale(0.08 -0.08)">
      <use xlink:href="#DejaVuSans-46"/>
      <use xlink:href="#DejaVuSans-65" x="52.019531"/>
      <use xlink:href="#DejaVuSans-61" x="113.542969"/>
      <use xlink:href="#DejaVuSans-74" x="174.822266"/>
      <use xlink:href="#DejaVuSans-75" x="214.03125"/>
      <use xlink:href="#DejaVuSans-72" x="277.410156"/>
      <use xlink:href="#DejaVuSans-65" x="316.273438"/>
      <use xlink:href="#DejaVuSans-20" x="377.796875"/>
      <use xlink:href="#DejaVuSans-34" x="409.583984"/>
     </g>
    </g>
   </g>
   <g id="patch_46">
    <path d="M 406.16 137.32 
L 406.16 7.2 
" style="fill: none; stroke: #000000; stroke-width: 0.8; stroke-linejoin: miter; stroke-linecap: square"/>
   </g>
   <g id="patch_47">
    <path d="M 547.2 137.32 
L 547.2 7.2 
" style="fill: none; stroke: #000000; stroke-width: 0.8; stroke-linejoin: miter; stroke-linecap: square"/>
   </g>
   <g id="patch_48">
    <path d="M 406.16 137.32 
L 547.2 137.32 
" style="fill: none; stroke: #000000; stroke-width: 0.8; stroke-linejoin: miter; stroke-linecap: square"/>
   </g>
   <g id="patch_49">
    <path d="M 406.16 7.2 
L 547.2 7.2 
" style="fill: none; stroke: #000000; stroke-width: 0.8; stroke-linejoin: miter; stroke-linecap: square"/>
   </g>
  </g>
  <g id="text_31">
   <!-- Local model 4 -->
   <g transform="translate(16.318125 110.266875) rotate(-90) scale(0.12 -0.12)">
    <defs>
     <path id="DejaVuSans-4c" d="M 628 4666 
L 1259 4666 
L 1259 531 
L 3531 531 
L 3531 0 
L 628 0 
L 628 4666 
z
" transform="scale(0.015625)"/>
     <path id="DejaVuSans-6f" d="M 1959 3097 
Q 1497 3097 1228 2736 
Q 959 2375 959 1747 
Q 959 1119 1226 758 
Q 1494 397 1959 397 
Q 2419 397 2687 759 
Q 2956 1122 2956 1747 
Q 2956 2369 2687 2733 
Q 2419 3097 1959 3097 
z
M 1959 3584 
Q 2709 3584 3137 3096 
Q 3566 2609 3566 1747 
Q 3566 888 3137 398 
Q 2709 -91 1959 -91 
Q 1206 -91 779 398 
Q 353 888 353 1747 
Q 353 2609 779 3096 
Q 1206 3584 1959 3584 
z
" transform="scale(0.015625)"/>
     <path id="DejaVuSans-63" d="M 3122 3366 
L 3122 2828 
Q 2878 2963 2633 3030 
Q 2388 3097 2138 3097 
Q 1578 3097 1268 2742 
Q 959 2388 959 1747 
Q 959 1106 1268 751 
Q 1578 397 2138 397 
Q 2388 397 2633 464 
Q 2878 531 3122 666 
L 3122 134 
Q 2881 22 2623 -34 
Q 2366 -91 2075 -91 
Q 1284 -91 818 406 
Q 353 903 353 1747 
Q 353 2603 823 3093 
Q 1294 3584 2113 3584 
Q 2378 3584 2631 3529 
Q 2884 3475 3122 3366 
z
" transform="scale(0.015625)"/>
     <path id="DejaVuSans-6c" d="M 603 4863 
L 1178 4863 
L 1178 0 
L 603 0 
L 603 4863 
z
" transform="scale(0.015625)"/>
     <path id="DejaVuSans-6d" d="M 3328 2828 
Q 3544 3216 3844 3400 
Q 4144 3584 4550 3584 
Q 5097 3584 5394 3201 
Q 5691 2819 5691 2113 
L 5691 0 
L 5113 0 
L 5113 2094 
Q 5113 2597 4934 2840 
Q 4756 3084 4391 3084 
Q 3944 3084 3684 2787 
Q 3425 2491 3425 1978 
L 3425 0 
L 2847 0 
L 2847 2094 
Q 2847 2600 2669 2842 
Q 2491 3084 2119 3084 
Q 1678 3084 1418 2786 
Q 1159 2488 1159 1978 
L 1159 0 
L 581 0 
L 581 3500 
L 1159 3500 
L 1159 2956 
Q 1356 3278 1631 3431 
Q 1906 3584 2284 3584 
Q 2666 3584 2933 3390 
Q 3200 3197 3328 2828 
z
" transform="scale(0.015625)"/>
     <path id="DejaVuSans-64" d="M 2906 2969 
L 2906 4863 
L 3481 4863 
L 3481 0 
L 2906 0 
L 2906 525 
Q 2725 213 2448 61 
Q 2172 -91 1784 -91 
Q 1150 -91 751 415 
Q 353 922 353 1747 
Q 353 2572 751 3078 
Q 1150 3584 1784 3584 
Q 2172 3584 2448 3432 
Q 2725 3281 2906 2969 
z
M 947 1747 
Q 947 1113 1208 752 
Q 1469 391 1925 391 
Q 2381 391 2643 752 
Q 2906 1113 2906 1747 
Q 2906 2381 2643 2742 
Q 2381 3103 1925 3103 
Q 1469 3103 1208 2742 
Q 947 2381 947 1747 
z
" transform="scale(0.015625)"/>
    </defs>
    <use xlink:href="#DejaVuSans-4c"/>
    <use xlink:href="#DejaVuSans-6f" x="53.962891"/>
    <use xlink:href="#DejaVuSans-63" x="115.144531"/>
    <use xlink:href="#DejaVuSans-61" x="170.125"/>
    <use xlink:href="#DejaVuSans-6c" x="231.404297"/>
    <use xlink:href="#DejaVuSans-20" x="259.1875"/>
    <use xlink:href="#DejaVuSans-6d" x="290.974609"/>
    <use xlink:href="#DejaVuSans-6f" x="388.386719"/>
    <use xlink:href="#DejaVuSans-64" x="449.568359"/>
    <use xlink:href="#DejaVuSans-65" x="513.044922"/>
    <use xlink:href="#DejaVuSans-6c" x="574.568359"/>
    <use xlink:href="#DejaVuSans-20" x="602.351562"/>
    <use xlink:href="#DejaVuSans-34" x="634.138672"/>
   </g>
  </g>
 </g>
 <defs>
  <clipPath id="p6efdd70cec">
   <rect x="53.3" y="7.2" width="141.04" height="130.12"/>
  </clipPath>
  <clipPath id="pe5e60be37f">
   <rect x="229.73" y="7.2" width="141.04" height="130.12"/>
  </clipPath>
  <clipPath id="p1e8c26b618">
   <rect x="406.16" y="7.2" width="141.04" height="130.12"/>
  </clipPath>
 </defs>
</svg>
